<svg width="31" height="26" viewBox="0 0 31 26" fill="none" xmlns="http://www.w3.org/2000/svg">
<path fill-rule="evenodd" clip-rule="evenodd" d="M0.908691 8.70723C0.908691 4.13003 4.91438 0.605713 9.61619 0.605713C12.0399 0.605713 14.1726 1.74496 15.703 3.21904C17.2334 1.74496 19.3661 0.605713 21.7898 0.605713C26.4916 0.605713 30.4973 4.13003 30.4973 8.70723C30.4973 11.8427 29.1635 14.6 27.3155 16.9307C25.4708 19.2574 23.0578 21.2321 20.7474 22.8366C19.8649 23.4495 18.9721 24.0149 18.1551 24.432C17.3879 24.8237 16.5057 25.1825 15.703 25.1825C14.9003 25.1825 14.0181 24.8237 13.2509 24.432C12.4338 24.0149 11.5411 23.4495 10.6586 22.8366C8.34819 21.2321 5.93515 19.2574 4.09043 16.9307C2.24251 14.6 0.908691 11.8427 0.908691 8.70723ZM9.61619 3.14814C6.10065 3.14814 3.44486 5.73989 3.44486 8.70723C3.44486 11.0861 4.4522 13.3009 6.07586 15.3488C7.70271 17.4007 9.89166 19.2111 12.1029 20.7467C12.9396 21.3278 13.7277 21.8223 14.4019 22.1665C15.1258 22.5361 15.5452 22.6401 15.703 22.6401C15.8608 22.6401 16.2801 22.5361 17.0041 22.1665C17.6783 21.8223 18.4664 21.3278 19.3031 20.7467C21.5143 19.2111 23.7033 17.4007 25.3301 15.3488C26.9538 13.3009 27.9611 11.0861 27.9611 8.70723C27.9611 5.73989 25.3053 3.14814 21.7898 3.14814C19.7707 3.14814 17.8854 4.35736 16.7083 5.89213C16.4682 6.20509 16.0968 6.38849 15.703 6.38849C15.3092 6.38849 14.9377 6.20509 14.6977 5.89213C13.5205 4.35736 11.6352 3.14814 9.61619 3.14814Z" fill="white"/>
</svg>
