<svg width="24" height="28" viewBox="0 0 24 28" fill="none" xmlns="http://www.w3.org/2000/svg">
<path fill-rule="evenodd" clip-rule="evenodd" d="M10.1031 2.76777C9.82201 2.76777 9.56257 2.91893 9.42344 3.16374L3.76615 13.1186C3.01623 14.4382 2.70153 15.9616 2.86701 17.4712L3.4641 22.9182C3.57033 23.8874 4.32927 24.655 5.29504 24.7702L8.87449 25.1971C11.2375 25.4788 13.6333 25.2346 15.8913 24.4817C17.0065 24.1099 17.8997 23.2614 18.33 22.1651L21.2112 14.825C21.2817 14.6456 21.3303 14.4583 21.3562 14.2672C21.5747 12.6534 20.1655 11.2921 18.5649 11.5708L12.7896 12.5763C10.9652 12.894 9.38956 11.2801 9.74561 9.45848L10.8707 3.70266C10.9653 3.2183 10.5954 2.76776 10.1031 2.76777ZM7.2198 1.90522C7.81002 0.866645 8.9107 0.225353 10.103 0.225342C12.1918 0.225323 13.7611 2.1367 13.3595 4.19154L12.2344 9.94737C12.2296 9.97203 12.2322 9.98709 12.2356 9.99791C12.2398 10.0112 12.2483 10.0268 12.2625 10.0413C12.2766 10.0558 12.292 10.0647 12.3052 10.0692C12.3159 10.0728 12.3309 10.0757 12.3556 10.0714L18.1309 9.06585C21.4215 8.49292 24.3186 11.2915 23.8693 14.6092C23.8161 15.002 23.7161 15.3871 23.5712 15.756L20.69 23.0961C19.9845 24.8935 18.5201 26.2846 16.6918 26.8942C14.0798 27.7651 11.3083 28.0476 8.57491 27.7217L4.99546 27.2948C2.85797 27.0399 1.17823 25.3409 0.943109 23.1959L0.346023 17.7489C0.122139 15.7065 0.547908 13.6454 1.5625 11.8601L7.2198 1.90522Z" fill="white"/>
</svg>
