<svg width="84" height="25" viewBox="0 0 84 25" fill="none" xmlns="http://www.w3.org/2000/svg">
<g clip-path="url(#clip0_223_636)">
<path d="M9.09675 4.47266V11.2424H2.92846V4.47266H0V20.6327H2.92846V14.0828H9.09675V20.6327H12.0252V4.47266H9.09675Z" fill="#33475B"/>
<path d="M21.3974 15.4089C21.3974 16.0566 21.1421 16.6777 20.6878 17.1356C20.2334 17.5936 19.6172 17.8508 18.9747 17.8508C18.3321 17.8508 17.7159 17.5936 17.2616 17.1356C16.8072 16.6777 16.552 16.0566 16.552 15.4089V8.4873H13.7742V15.4089C13.7742 16.7978 14.3215 18.1298 15.2959 19.1119C16.2702 20.0939 17.5917 20.6457 18.9696 20.6457C20.3476 20.6457 21.6691 20.0939 22.6434 19.1119C23.6177 18.1298 24.1651 16.7978 24.1651 15.4089V8.4873H21.3974V15.4089Z" fill="#33475B"/>
<path d="M41.9787 9.20035C41.9787 7.78161 42.9099 7.33183 43.9301 7.33183C44.7522 7.33183 45.8384 7.96238 46.5486 8.72743L48.368 6.56678C47.4597 5.32882 45.6174 4.47266 44.1094 4.47266C41.0963 4.47266 38.9168 6.25151 38.9168 9.20035C38.9168 14.6714 45.5514 12.9359 45.5514 15.9976C45.5514 16.942 44.6417 17.7764 43.6001 17.7764C41.9572 17.7764 41.4249 16.9665 40.6702 16.1104L38.6514 18.2262C39.9427 19.8243 41.5354 20.6356 43.4437 20.6356C46.3061 20.6356 48.609 18.8351 48.609 16.0207C48.609 9.94659 41.9744 11.8339 41.9744 9.20035" fill="#33475B"/>
<path d="M83.0229 18.0512C81.3815 18.0512 80.9152 17.3353 80.9152 16.2391V11.387H83.4663V8.92844H80.9152V5.68457L78.0986 6.95869V16.8421C78.0986 19.3701 79.829 20.6443 82.2022 20.6443C82.5744 20.6511 82.9464 20.6211 83.3128 20.5546L84 18.0049C83.6901 18.0266 83.3343 18.0483 83.0229 18.0483" fill="#33475B"/>
<path d="M31.9706 8.56837C30.5947 8.56837 29.6348 8.97042 28.7064 9.88877V4.56958H25.9243V14.4285C25.9243 18.1192 28.5716 20.6472 31.5459 20.6472C34.846 20.6472 37.7487 18.0744 37.7487 14.6092C37.7487 11.1875 35.077 8.56982 31.9706 8.56982V8.56837ZM31.9534 17.8256C31.3291 17.8256 30.7188 17.639 30.1997 17.2894C29.6806 16.9398 29.276 16.4429 29.0371 15.8615C28.7982 15.2801 28.7357 14.6404 28.8575 14.0232C28.9793 13.406 29.2799 12.8391 29.7214 12.3942C30.1628 11.9492 30.7253 11.6462 31.3376 11.5234C31.9499 11.4006 32.5846 11.4636 33.1614 11.7044C33.7382 11.9453 34.2312 12.3531 34.578 12.8763C34.9249 13.3995 35.11 14.0147 35.11 14.6439C35.11 15.4878 34.7775 16.297 34.1855 16.8937C33.5935 17.4904 32.7906 17.8256 31.9534 17.8256Z" fill="#33475B"/>
<path d="M62.1793 14.4618C62.1793 10.9909 59.2824 8.42383 55.9766 8.42383C53.0022 8.42383 50.355 10.9518 50.355 14.6426V24.5072H53.1371V19.1808C54.064 20.0977 55.0253 20.5012 56.3999 20.5012C59.5062 20.5012 62.1779 17.885 62.1779 14.4618H62.1793ZM59.545 14.4271C59.545 15.0564 59.3599 15.6715 59.013 16.1947C58.6661 16.7179 58.1732 17.1258 57.5964 17.3666C57.0196 17.6074 56.3849 17.6704 55.7726 17.5476C55.1602 17.4249 54.5978 17.1218 54.1563 16.6769C53.7149 16.2319 53.4142 15.665 53.2924 15.0478C53.1706 14.4306 53.2332 13.7909 53.4721 13.2095C53.711 12.6281 54.1156 12.1312 54.6347 11.7816C55.1538 11.432 55.7641 11.2454 56.3884 11.2454C57.2256 11.2454 58.0285 11.5806 58.6204 12.1773C59.2124 12.774 59.545 13.5832 59.545 14.4271Z" fill="#33475B"/>
<path d="M71.1671 8.28787V5.47063C71.5365 5.29667 71.8492 5.02054 72.069 4.67438C72.2887 4.32823 72.4063 3.92628 72.4082 3.51535V3.45027C72.4082 2.87493 72.1815 2.32315 71.7779 1.91632C71.3742 1.50949 70.8268 1.28094 70.256 1.28094H70.1914C69.6206 1.28094 69.0732 1.50949 68.6696 1.91632C68.266 2.32315 68.0392 2.87493 68.0392 3.45027V3.51535C68.0411 3.92628 68.1588 4.32823 68.3785 4.67438C68.5982 5.02054 68.911 5.29667 69.2803 5.47063V8.28787C68.2187 8.45157 67.2189 8.8951 66.382 9.57356L58.7172 3.55584C58.7715 3.3574 58.8004 3.1528 58.8033 2.94698C58.8041 2.46352 58.6627 1.99067 58.3969 1.58823C58.1311 1.18579 57.7529 0.871847 57.31 0.686108C56.8672 0.500369 56.3797 0.45118 55.9091 0.544761C55.4385 0.638343 55.006 0.870492 54.6664 1.21184C54.3267 1.5532 54.0951 1.98842 54.0009 2.46245C53.9066 2.93649 53.954 3.42805 54.137 3.87496C54.3199 4.32186 54.6303 4.70404 55.0288 4.97314C55.4272 5.24224 55.8959 5.38618 56.3756 5.38675C56.795 5.38486 57.2066 5.27217 57.5694 5.05991L65.1179 10.9793C64.4397 12.0118 64.0858 13.2264 64.1024 14.4647C64.119 15.703 64.5054 16.9075 65.2112 17.9211L62.9155 20.2351C62.7298 20.1753 62.5364 20.1436 62.3416 20.1411C61.9478 20.1414 61.5629 20.2593 61.2357 20.48C60.9084 20.7007 60.6533 21.0142 60.5028 21.3809C60.3522 21.7477 60.3129 22.1511 60.3898 22.5404C60.4667 22.9296 60.6563 23.2872 60.9348 23.5678C61.2132 23.8485 61.5679 24.0396 61.9541 24.1171C62.3403 24.1946 62.7406 24.155 63.1045 24.0033C63.4683 23.8515 63.7793 23.5944 63.9983 23.2646C64.2172 22.9347 64.3342 22.5468 64.3345 22.1499C64.3321 21.9535 64.3006 21.7585 64.2413 21.5714L66.5126 19.282C67.2532 19.8565 68.1144 20.2525 69.0303 20.4397C69.9462 20.6268 70.8925 20.6003 71.7966 20.3619C72.7007 20.1236 73.5388 19.6799 74.2465 19.0647C74.9542 18.4495 75.5129 17.6793 75.8797 16.8129C76.2464 15.9465 76.4116 15.007 76.3626 14.0664C76.3136 13.1257 76.0516 12.2088 75.5967 11.386C75.1418 10.5631 74.5062 9.85614 73.7384 9.31913C72.9706 8.78212 72.091 8.42936 71.1671 8.28787V8.28787ZM70.2259 17.5523C69.6046 17.5518 68.9974 17.3656 68.4811 17.0173C67.9647 16.669 67.5624 16.1742 67.325 15.5955C67.0876 15.0168 67.0257 14.3801 67.1471 13.766C67.2686 13.1518 67.5679 12.5878 68.0073 12.1451C68.4468 11.7023 69.0065 11.4009 69.6159 11.2787C70.2253 11.1566 70.8569 11.2193 71.4309 11.4589C72.0049 11.6984 72.4956 12.1042 72.8409 12.6248C73.1863 13.1454 73.3707 13.7574 73.371 14.3837C73.371 15.2237 73.0399 16.0293 72.4507 16.6232C71.8614 17.2172 71.0621 17.5509 70.2287 17.5509" fill="#FF7A59"/>
</g>
<defs>
<clipPath id="clip0_223_636">
<rect width="84" height="24" fill="white" transform="translate(0 0.5)"/>
</clipPath>
</defs>
</svg>
