<svg width="18" height="18" viewBox="0 0 18 18" fill="none" xmlns="http://www.w3.org/2000/svg">
<path fill-rule="evenodd" clip-rule="evenodd" d="M3.99933 0.25C4.41354 0.25 4.74933 0.585786 4.74933 1V2.66763C7.57706 2.4158 10.4216 2.4158 13.2493 2.66763V1C13.2493 0.585786 13.5851 0.25 13.9993 0.25C14.4135 0.25 14.7493 0.585786 14.7493 1V2.81644C16.2424 3.02754 17.4219 4.20847 17.6216 5.71484L17.7081 6.36779C18.0722 9.11412 18.0407 11.8984 17.6148 14.6359C17.4037 15.9919 16.3021 17.0335 14.9363 17.1681L13.7433 17.2858C10.5883 17.5969 7.4103 17.5969 4.25525 17.2858L3.06225 17.1681C1.69651 17.0335 0.59485 15.9919 0.38384 14.6359C-0.042118 11.8984 -0.0735587 9.11412 0.290477 6.36779L0.377028 5.71484C0.576705 4.20845 1.75626 3.02751 3.24933 2.81643V1C3.24933 0.585786 3.58511 0.25 3.99933 0.25ZM4.44449 4.2028C7.47368 3.90408 10.5249 3.90408 13.5541 4.2028L14.4596 4.2921C15.3263 4.37757 16.0201 5.04854 16.1346 5.91194L16.2211 6.56489C16.2514 6.793 16.2787 7.02139 16.3032 7.25H1.69539C1.71987 7.02139 1.74723 6.79301 1.77747 6.5649L1.86402 5.91194C1.97847 5.04854 2.67229 4.37757 3.53904 4.2921L4.44449 4.2028ZM1.57616 8.75C1.47798 10.6381 1.57471 12.5332 1.866 14.4052C1.97184 15.0854 2.52442 15.6078 3.20946 15.6754L4.40246 15.793C7.45961 16.0945 10.539 16.0945 13.5961 15.793L14.7891 15.6754C15.4742 15.6078 16.0268 15.0854 16.1326 14.4052C16.4239 12.5332 16.5206 10.6381 16.4224 8.75H1.57616Z" fill="#F2C917"/>
</svg>
