<svg width="644" height="335" viewBox="0 0 644 335" fill="none" xmlns="http://www.w3.org/2000/svg">
<path fill-rule="evenodd" clip-rule="evenodd" d="M494.812 54.6065C494.63 53.1537 494.345 51.7415 494.107 50.3105C493.985 50.0404 493.925 49.0828 493.899 48.9281C493.784 47.9422 493.633 46.9736 493.559 45.9753C493.316 42.5971 493.482 39.1412 493.909 35.6562C493.967 35.1894 494.034 34.7225 494.1 34.2549L495.213 30.5841C495.474 32.8929 496.41 38.5277 496.759 40.7929C497.144 43.2883 497.584 45.7445 497.707 48.3422L497.706 48.4838C497.844 49.4559 497.838 53.5784 497.775 53.7534C497.557 60.9237 495.752 67.6069 491.838 73.6373C492.146 72.5083 492.523 71.399 492.899 70.2903C494.677 65.0498 495.472 59.815 494.812 54.6065Z" fill="#2A95FF"/>
<path fill-rule="evenodd" clip-rule="evenodd" d="M436.669 133.925C437.412 134.325 438.159 134.717 438.899 135.124C443.036 137.403 446.97 140.148 451.011 142.653C453.543 144.221 456.195 145.478 458.949 146.323C461.098 147.146 463.28 147.66 465.477 148.175C467.91 148.75 470.342 149.069 472.778 149.456C473.26 149.536 473.787 149.733 474.419 149.309C473.099 148.861 471.942 148.45 470.779 148.068C467.199 146.9 463.699 145.392 460.22 143.797C459.674 143.547 459.122 143.323 458.575 143.089C458.501 143.048 458.43 143.01 458.358 142.97C458.28 142.832 444.366 135.07 436.821 133.865C437.142 133.747 437.486 133.679 437.777 133.514C438.596 133.048 442.344 131.479 442.86 131.283C442.974 131.24 443.094 131.205 443.217 131.174C443.113 131.246 443.014 131.339 442.912 131.474C448.061 131.309 460.923 133.057 462.244 133.335L462.246 133.334C464.793 134.01 467.396 134.037 469.991 134.064C475.041 134.118 480.055 133.652 485.053 133.015C485.307 132.982 485.609 133.039 485.858 132.768C485.419 132.489 484.931 132.515 484.483 132.445C476.856 131.29 469.225 130.147 461.592 129.006C461.36 128.972 461.118 128.985 460.884 128.977C457.43 128.501 454.055 128.845 450.646 129.473C448.378 129.891 446.123 130.332 443.892 130.913C443.772 130.946 443.651 130.973 443.528 131.015C443.918 130.663 444.349 130.571 444.692 130.356C445.153 130.066 445.607 129.738 446.11 129.54C446.719 129.301 447.254 128.947 447.754 128.557C450.366 126.513 453.517 126.216 456.624 125.797C460.619 125.261 464.634 125.213 468.666 125.487C471.73 125.695 474.781 125.466 477.78 124.847C478.89 124.619 480.042 124.588 481.107 124.153C483.916 123.574 486.633 122.704 489.349 121.782C491.671 120.993 493.97 120.163 496.251 119.277C497.387 118.835 498.49 118.316 499.61 117.831C499.488 117.673 499.334 117.672 499.161 117.711C491.747 119.438 484.197 119.753 476.609 119.678C473.908 119.654 471.218 119.82 468.583 120.441C464.565 120.993 460.738 122.233 456.96 123.647C455.949 124.024 454.961 124.476 453.756 124.981C454.203 124.085 454.966 123.759 455.507 123.269C457.182 121.753 458.961 120.362 460.682 118.898C461.016 118.62 461.399 118.519 461.786 118.397C466.74 116.815 471.86 115.949 476.954 114.979C479.164 114.56 481.379 114.149 483.529 113.473C483.786 113.503 484.027 113.452 484.237 113.291C484.538 113.217 484.838 113.144 485.14 113.071C490.738 111.677 496.167 109.768 501.509 107.603C503.302 106.878 505.075 106.097 506.911 105.32C506.543 104.955 506.213 105.032 505.892 105.094C499.498 106.266 493.008 106.782 486.601 107.849C484.184 108.251 481.747 108.555 479.376 109.197C479.225 109.228 479.082 109.261 478.934 109.293C478.658 109.236 478.409 109.307 478.181 109.458C474.127 110.234 470.413 111.865 466.868 113.939C466.555 114.126 465.601 114.449 465.273 114.613C465.254 114.508 466.698 113.066 467.247 112.499C468.154 111.557 468.871 110.414 470.022 109.722C474.887 107.596 479.983 106.182 485.101 104.826C488.229 103.997 491.225 102.784 494.094 101.273C494.67 101.127 495.169 100.824 495.654 100.494L495.648 100.48L495.656 100.494C499.828 98.5964 503.655 96.0901 507.526 93.6637C508.945 92.7721 510.325 91.8101 511.932 90.745C510.6 90.8576 509.713 91.4442 508.744 91.784C504.076 93.4227 499.403 95.0468 494.768 96.7697C492.971 97.4376 491.081 97.8486 489.349 98.6959C483.84 100.445 478.58 102.712 473.876 106.157C473.337 106.553 471.978 107.098 471.978 107.098C471.815 107.148 472.854 105.981 473.285 105.436C475.042 103.194 476.716 100.896 478.319 98.5456C479.282 97.8268 480.275 97.4616 480.9 97.1298C482.384 96.3377 483.99 95.7823 485.525 95.0875C486.762 94.5248 488.038 93.9694 489.309 93.6201C491.097 93.1301 492.851 92.5812 494.583 91.9379C495.166 91.8646 495.632 91.4624 496.15 91.2968C499.069 90.3653 501.688 88.8668 504.232 87.215C506.248 85.9045 508.132 84.4227 509.751 82.3281C507.868 83.2001 506.19 84.0089 504.486 84.7567C500.063 86.7003 495.432 87.965 490.706 88.9147C488.442 89.2654 486.301 90.0001 484.283 91.0761C483.63 91.4261 482.886 91.7477 482.367 92.2407C482.605 91.8486 482.841 91.4595 483.076 91.0645C483.86 89.7453 484.616 88.4094 485.347 87.0604L485.351 87.2245C487.419 85.5357 489.9 84.6108 492.558 84.0241C494.927 83.5028 497.316 83.0621 499.623 82.2911C505.358 80.7003 510.772 78.5106 514.928 73.9576C512.714 74.5457 510.564 75.2769 508.391 75.939C504.51 77.1246 500.617 78.2667 496.729 79.429C495.683 79.6882 494.624 79.9046 493.595 80.2183C491.501 80.8557 489.443 81.5948 487.568 82.7449C488.356 81.1316 490.275 77.5595 490.437 77.2916C492.502 76.1357 494.711 75.3451 496.992 74.704C499.72 73.9322 502.517 73.506 505.3 73.0559C506.878 72.8018 508.467 72.6537 509.988 72.1455C510.354 72.1578 510.676 72.0227 510.991 71.8579C511.194 71.7752 511.395 71.6924 511.597 71.6096C513.295 71.0288 514.956 70.3652 516.501 69.4359C518.134 68.4535 519.643 67.3035 521.155 66.1259C522.76 64.8778 524.065 63.4156 525.41 61.9512C523.816 63.0802 522.173 64.109 520.451 65.0129C516.961 66.8461 513.211 67.827 509.339 68.4202C506.601 68.765 503.892 69.2464 501.213 69.9034C497.564 70.8008 494.186 72.173 491.475 74.7127C492.559 70.5278 492.085 64.0734 489.232 58.2027C488.07 55.186 487.037 52.125 486.253 48.9892C485.827 47.2896 485.511 45.5624 485.138 43.8482C485.07 43.5229 485.113 43.1592 484.661 42.6459C483.783 47.5836 483.793 52.3036 484.554 57.0497C484.576 57.2051 484.597 57.3561 484.622 57.5086L484.624 57.5035C484.946 60.3234 485.879 62.9625 486.958 65.5676C488.551 69.409 489.945 73.2998 489.812 77.5355L489.737 77.6989L489.757 77.6858C489.163 78.7923 488.551 79.8959 488.041 81.043C487.459 82.3426 486.62 83.4861 486.065 84.7937C486.01 84.9251 485.826 84.8322 485.703 84.7676C487.438 80.2966 486.927 75.8083 485.625 71.32C484.844 68.6176 483.895 65.9741 482.818 63.3793C481.382 59.6525 480.337 55.8394 480.144 51.8317C480.05 49.8547 480.099 47.8857 480.256 45.9087C479.691 47.8327 479.103 49.7167 478.848 51.7641C478.61 53.6932 478.393 55.6042 478.375 57.5449C478.361 59.3767 478.631 61.1787 478.989 62.9734C479.019 63.1942 479.05 63.4149 479.08 63.6348C479.098 63.9942 479.143 64.3485 479.339 64.6651C479.669 66.2704 480.338 67.7507 480.912 69.274C481.924 71.9647 482.962 74.6568 483.674 77.4579C484.343 80.0905 485.012 86.3903 484.874 86.6277C484.084 87.9491 483.29 89.2741 482.485 90.5882C482.313 90.8699 481.322 93.0923 481.685 91.0071C481.894 88.413 481.441 85.8835 480.853 83.3707C480.604 82.3027 480.256 81.2565 479.954 80.2001C478.992 76.175 478.014 72.1563 477.076 68.1239C476.549 65.8703 476.094 63.5978 475.485 61.3435C473.708 67.3006 474.561 73.1931 476.083 79.0682C476.586 81.4968 477.407 83.831 478.149 86.1914C479.225 89.6124 479.681 93.0538 478.47 96.5236C477.479 98.2399 476.191 99.7406 475.084 101.373C474.916 101.622 474.201 102.595 474.201 102.595C474.76 101.156 474.977 100.568 475.3 99.0945C475.476 98.2842 475.463 97.3534 475.426 96.4742C475.33 94.1487 474.881 91.8871 474.047 89.7039C472.486 85.0449 471.241 80.309 470.673 75.4199C470.453 73.5351 470.3 71.6452 470.097 69.539C469.136 72.0206 468.821 74.431 468.72 76.8719C468.592 79.9503 468.636 83.0229 469.304 86.0715C469.424 86.6139 469.316 87.2274 469.545 87.7821C469.87 89.6378 470.282 91.4674 470.757 93.2956C471.098 94.5967 471.267 96.0037 471.413 97.3803C471.591 99.0887 471.924 100.787 471.996 102.497C472.039 103.573 471.729 104.657 471.58 105.74C470.249 107.633 468.674 109.31 467.126 111.013C469.245 107.328 470.179 102.99 469.07 97.8028C468.839 95.5165 468.177 93.3123 467.742 91.0667C466.842 86.4193 466.185 81.7451 465.727 77.0411C465.705 76.8066 465.662 76.5714 465.59 76.0762C462.704 83.2204 463.987 90.2448 465.129 97.2634C465.771 101.193 465.836 105.153 465.562 109.097C465.46 110.554 464.819 111.966 464.418 113.397C464.352 113.643 464.281 113.89 464.21 114.142C463.97 114.335 463.756 114.553 463.597 114.826C463.407 114.989 463.221 115.152 463.033 115.315C462.297 116.021 461.556 116.723 460.807 117.417C461.273 115.642 461.644 113.845 462.003 112.032C462.607 108.978 462.944 105.928 462.538 102.746C462.532 102.529 462.545 102.312 462.515 102.096C461.525 95.049 460.537 88.0013 459.531 80.953C459.473 80.5399 459.497 80.097 459.245 79.6752C458.996 79.8799 459.044 80.1616 459.014 80.3874C458.39 84.8917 457.928 89.4258 457.937 94.0333C457.942 96.3994 457.946 98.7743 458.548 101.148V101.151C458.517 101.513 458.594 101.865 458.749 102.208L458.753 102.222C458.744 102.629 458.844 103.016 459.034 103.392C459.055 103.486 459.071 103.581 459.092 103.676C459.082 104.13 459.185 104.574 459.347 105.013C459.994 109.342 460.259 113.659 460.134 118.032C458.345 119.663 456.5 121.223 454.531 122.628C453.692 123.228 452.873 123.808 452.067 124.487C451.113 125.294 449.665 126.012 449.836 126.116C449.836 126.116 451.415 124.148 451.555 123.935C451.85 123.49 452.152 123.057 452.424 122.591C453.644 120.492 454.351 118.234 454.695 115.834C454.863 115.305 454.889 114.761 454.831 114.206C455.069 112.183 454.78 110.177 454.521 108.173C454.341 104.772 453.795 101.41 453.423 98.0308C453.041 94.5429 452.513 91.0631 452.761 87.5425C452.784 87.1976 452.834 86.8527 452.872 86.5239C450.683 89.0831 449.178 101.371 450.359 107.119C450.845 110.567 451.123 114.048 451.115 117.505C451.11 119.417 450.727 121.441 449.944 123.28C449.715 123.822 449.453 124.349 449.257 124.901C448.311 127.537 445.892 128.365 443.745 129.501C443.088 129.849 442.424 130.175 441.75 130.488C441.799 130.077 441.848 129.661 441.901 129.25C442.516 124.54 443.636 119.866 444.49 115.173C445.028 112.228 445.233 109.283 445.023 106.369C445.012 104.046 444.697 101.796 444.385 99.5279C444.04 97.0151 443.461 94.5901 442.944 92.1398C442.842 91.654 442.836 91.087 442.219 90.6289C442.276 92.0381 442.314 93.2775 442.381 94.511C442.589 98.3191 442.458 102.162 442.237 106.013C442.203 106.619 442.195 107.22 442.174 107.823C442.163 107.903 442.153 107.985 442.143 108.065C442.042 108.187 442.041 108.306 442.116 108.419C440.948 115.924 439.97 123.407 441.297 130.696C439.759 131.395 438.188 132.014 436.588 132.571C436.452 132.618 436.306 132.653 436.178 132.706C436.228 132.294 436.275 131.88 436.33 131.469C436.944 126.762 438.063 122.085 438.92 117.393C439.456 114.449 439.664 111.502 439.45 108.59C439.442 106.266 439.125 104.016 438.813 101.749C438.469 99.2346 437.89 96.8111 437.371 94.3607C437.269 93.8757 437.263 93.3072 436.646 92.8491C436.706 94.2583 436.74 95.4984 436.808 96.7319C437.018 100.541 436.886 104.382 436.664 108.235C436.63 108.837 436.622 109.441 436.603 110.043C436.593 110.125 436.582 110.206 436.571 110.286C436.471 110.408 436.47 110.527 436.543 110.641C435.359 118.24 434.317 125.473 435.723 132.854C435.863 133.122 433.572 133.741 433.673 134.03C433.782 134.063 433.378 135.49 436.625 133.942L436.669 133.925Z" fill="#2A95FF"/>
<path fill-rule="evenodd" clip-rule="evenodd" d="M509.018 53.2364C508.117 54.8388 507.29 56.4978 506.168 57.9651C505.289 59.6306 504.098 61.0762 503.037 62.6117C501.049 65.4941 498.305 67.6446 495.964 70.1865C494.906 71.335 493.8 72.4393 492.713 73.5654C495.331 67.0529 499.868 61.959 504.23 56.7388C507.561 52.5017 510.491 47.9625 513.693 43.6077C513.419 44.5581 513.039 45.441 512.606 46.297C511.429 48.6203 510.29 50.9704 509.018 53.2364Z" fill="#2A95FF"/>
<path d="M230.282 13.5179C231.052 21.5268 231.369 31.6173 231.369 31.6173C231.464 34.7995 233.947 38.4013 236.879 39.629C236.879 39.629 244.996 43.0334 247.805 48.6043C245.925 44.879 232.302 43.4879 232.519 44.7542C233.731 51.7277 236.64 60.6855 236.64 60.6855C237.623 63.7051 240.995 66.5882 244.136 67.0914L257.424 72.4154C260.066 74.1811 259.723 74.926 256.659 74.0628L247.893 73.5705C244.99 74.868 243.089 76.8791 243.666 78.0473C243.666 78.0473 243.666 78.0473 244.217 79.0746C245.396 81.2847 245.396 81.2847 245.396 81.2847C246.875 83.7162 250.678 85.6721 253.858 85.6271C253.858 85.6271 259.862 85.5523 265.485 89.4729C261.9 86.9688 257.398 89.2544 257.398 89.2544C254.563 90.689 253.871 93.901 255.863 96.3775C255.863 96.3775 261.682 103.634 267.226 109.045L285.721 108.299L270.163 75.8089C250.715 37.3762 268.367 71.9565 269.272 73.601C270.177 75.2462 272.165 78.8713 273.697 81.6579C273.697 81.6579 282.244 97.2284 284.447 101.699C285.545 103.933 286.617 106.135 287.626 108.222L299.628 107.739C299.323 102.526 298.832 97.9247 298.832 97.9247C298.497 94.7599 296.226 93.4458 293.788 94.9959C291.351 96.5489 288.792 99.4719 289.555 96.3833L293.096 86.8526C294.73 84.1213 295.779 80.8687 295.431 79.6191C295.431 79.6191 295.431 79.6191 295.073 78.4807C292.788 71.2762 290.043 63.255 286.449 56.5188C285.265 54.2979 285.264 54.2979 285.264 54.2979C283.632 51.8816 280.706 50.4753 278.761 51.1774C276.812 51.8824 274.783 53.219 275.159 51.2086C275.536 49.1888 276.892 42.7663 275.062 40.4582C275.062 40.4582 275.062 40.4582 273.505 38.479C266.582 29.6765 258.815 22.1018 250.155 15.6379C246.475 12.8949 242.716 10.3212 238.961 7.73502C236.754 6.22414 229.402 2.72825 228.203 0.309097C229.885 3.70041 229.933 9.92909 230.282 13.5179Z" fill="#2A95FF"/>
<path fill-rule="evenodd" clip-rule="evenodd" d="M309.797 30.2115C309.118 30.9855 308.756 33.6188 308.57 36.6348C312.526 31.1082 319.424 28.3856 325.22 31.2955C326.801 32.251 326.741 33.8555 325.969 34.8923C325.069 37.0494 323.233 38.0077 321.158 38.6851C317.235 39.9695 313.206 40.4428 309.115 40.0428C308.845 40.0167 308.626 40.0181 308.432 40.0341C308.363 42.87 308.401 45.5745 308.441 47.0331C312.5 43.2381 316.986 40.6098 322.373 39.6435C327.502 39.6529 327.224 42.3727 327.341 45.1969C327.126 46.8066 326.088 47.9109 324.799 48.6144C320.427 50.9994 315.794 52.0224 310.882 50.5849C309.931 50.3068 309.258 50.118 308.792 50.0759C309.129 52.2838 309.67 55.7913 310.061 58.3491C313.512 54.6013 318.119 51.6419 322.629 51.61C324.827 51.5947 326.717 51.3951 328.024 53.5514C329.204 55.4972 328.846 57.8343 326.972 59.5558C323.583 62.6654 319.404 63.5976 314.953 63.5649C313.558 63.5548 312.154 63.4371 310.803 63.0596C311.225 64.8885 312.128 68.1194 313.278 72.0254C313.641 71.5252 313.947 71.1026 314.245 70.6837C316.838 67.0296 320.31 64.7992 324.781 64.2365C327.542 63.8909 329.67 64.8594 330.327 66.8067C331.168 69.2948 329.472 70.6344 327.759 71.796C324.131 74.2558 320.024 75.273 315.696 75.2919C315.079 75.2948 314.629 75.3652 314.32 75.5191C315.29 78.7507 316.365 82.2459 317.44 85.6858C319.077 83.4721 320.697 81.5053 322.825 80.0234C324.931 78.5554 327.116 77.3328 329.756 77.1926C331.709 77.0903 333.375 77.7103 334.244 79.5276C335.043 81.2003 334.022 82.5334 332.947 83.6899C329.493 87.4138 324.903 88.5987 320.116 88.9675C319.476 89.0161 318.958 89.0866 318.548 89.218C319.277 91.529 319.988 93.7586 320.647 95.7988C321.112 96.8486 321.594 97.9145 322.085 98.9796C322.037 98.4757 321.984 97.9718 321.919 97.4665C323.717 94.1739 326.623 92.1461 330.154 90.8087C331.941 90.1335 333.783 89.8097 335.673 90.3753C338.938 91.3525 339.885 93.9307 337.689 96.5415C334.023 100.9 329.27 102.708 323.856 102.756C324.918 104.981 325.95 107.062 326.839 108.779C326.842 108.666 326.847 108.552 326.85 108.438C330.113 104.301 334.46 102.406 339.168 101.203C341.021 100.731 342.513 100.918 343.642 101.688L327.651 112.509C327.284 112.061 326.932 111.856 326.662 112.204C322.424 117.663 314.551 118.402 309.821 117.957C308.196 117.687 307.134 116.516 306.449 115.047C306.056 112.237 307.334 110.229 310.466 109.36C315.563 107.944 320.698 107.447 326.055 110.08C324.628 107.367 324.034 106.251 322.801 103.903C322.518 104.09 321.709 103.038 321.513 103.168C316.317 106.605 310.744 107.844 304.767 105.66C301.561 104.488 301.099 101.78 303.446 99.3063C304.807 97.876 306.564 97.2392 308.45 96.9365C312.846 96.2308 316.97 96.7847 320.593 99.8268C319.564 96.8501 318.187 94.1434 317.305 91.2828C316.553 88.8499 315.638 88.8441 313.546 89.8395C309.21 91.9021 304.639 93.1589 299.79 91.6488C298.284 91.1783 296.734 90.5307 296.594 88.6822C296.443 86.6711 297.579 85.3097 299.326 84.4232C301.685 83.2311 304.188 83.2057 306.746 83.4293C309.691 83.6892 312.37 84.8167 315.301 86.133C314.326 82.8281 313.379 79.8891 312.615 76.9029C312.174 75.183 311.557 74.8708 309.963 75.7754C306.199 77.9136 302.13 79.0752 297.759 78.7449C295.696 78.5895 293.557 78.2723 293.05 75.6955C292.65 73.6786 294.014 71.7793 296.581 70.7077C300.74 68.9688 304.862 69.1779 308.928 71.0569C309.605 71.3691 310.289 71.6711 311.258 72.1104C310.618 69.077 309.987 66.4662 309.544 63.8256C309.279 62.245 308.702 62.3539 307.656 63.1249C306.328 64.1065 304.799 64.7353 303.243 65.221C298.992 66.546 294.723 66.872 290.577 64.8812C288.281 63.7806 287.26 61.6475 287.823 59.4432C288.446 56.9972 291.27 55.1792 293.454 55.4529C298.486 56.0846 302.875 56.481 307.457 59.4541C307.729 59.6291 308.204 59.8404 308.658 59.3365C308.374 57.1562 308.063 54.904 307.787 52.646C307.396 49.466 307.277 49.4501 304.499 51.2201C300.182 53.9696 295.448 54.2811 290.584 53.2073C289.15 52.8907 287.355 52.1538 286.702 50.6662C286.025 47.9196 285.49 45.3545 290.414 43.9184C296.36 43.2882 301.825 44.8615 307.227 47.8513C307.127 45.5294 306.959 43.5082 306.977 41.4883C306.99 40.114 306.649 39.6667 305.16 39.8504C301.079 40.3506 297.041 39.9767 293.088 38.7918C290.996 38.1638 289.137 37.2519 288.184 35.1174C287.385 34.0995 287.287 32.4971 288.846 31.5039C295.128 28.1518 302.954 30.4744 306.778 37.1307C306.833 34.774 307.652 32.8318 306.338 30.8127C306.123 30.4824 305.985 30.0968 305.887 29.6866C284.661 3.29446 329.493 -0.0547562 309.797 30.2115Z" fill="#00C3A4"/>
<path d="M456.135 93.1346C449.137 88.7276 449.18 88.655 442.144 84.3141C439.686 82.7974 429.769 78.5805 427.025 78.4477C421.947 78.1986 416.915 77.5096 411.859 77.0566C410.041 76.894 409.269 75.4753 409.635 73.5201C410.252 70.2014 411.573 68.8596 413.926 69.4238C418.673 70.5585 423.402 71.7652 428.11 73.0452C429.614 73.4555 431.109 73.5491 432.619 73.4112C440.262 72.7178 447.9 71.9743 455.54 71.2374C455.995 71.1945 456.487 71.143 456.889 70.9419C457.62 70.5723 458.393 69.9531 458.294 69.1276C458.201 68.3565 457.228 68.5228 456.608 68.44C444.054 66.7636 431.497 65.0995 418.942 63.4398C417.698 63.2757 416.469 63.2183 415.203 63.5051C413.32 63.9342 412.785 63.2713 413.255 61.3038C414.016 58.123 416.473 55.8585 419.744 55.5623C429.231 54.7092 438.72 53.8307 448.218 53.1707C451.497 52.9435 454.449 52.1259 457.145 50.1925C457.804 49.7206 458.664 49.2886 458.476 48.3491C458.264 47.2818 457.225 47.2332 456.387 47.2216C454.209 47.1889 452.029 47.2412 449.849 47.2877C441.264 47.4713 432.68 47.6768 424.095 47.8467C422.427 47.8801 420.794 47.9556 419.296 48.8777C418.913 49.1143 418.449 49.4491 418.004 49.1347C417.45 48.7448 417.789 48.1487 417.846 47.6318C418.216 44.3443 422.721 40.2335 427.347 40.3808C431.206 40.5035 434.977 39.6802 438.767 39.1103C439.655 38.976 440.534 38.5121 441.337 38.0503C444.875 36.0167 448.535 34.2023 451.901 31.8572C452.639 31.3417 453.685 30.742 453.258 29.6232C452.883 28.6503 451.82 28.9865 450.974 28.9385C449.818 28.8725 448.589 29.3408 447.515 28.5073C447.174 28.2437 443.048 30.7377 441.251 31.2285C435.871 32.6907 430.413 33.8276 424.981 35.0728C424.491 35.1861 423.864 35.5738 423.505 35.0271C423.117 34.4353 423.567 33.7819 423.944 33.3732C425.681 31.484 427.461 29.6355 429.273 27.8212C433.951 23.1433 438.653 18.4923 443.346 13.8283C443.536 13.6388 443.733 13.4492 443.895 13.2343C444.261 12.7479 444.759 12.2099 444.357 11.5942C443.858 10.8268 443.154 11.2588 442.594 11.5899C439.713 13.2939 436.847 15.0291 433.981 16.7607C432.661 17.5586 431.395 18.4611 430.03 19.1603C428.321 20.0344 427.325 19.4057 427.309 17.4497C427.284 14.457 427.363 11.4636 427.396 8.47012C427.404 7.85808 427.434 7.24237 427.393 6.63322C427.332 5.67413 427.242 4.46457 426.194 4.34114C425.18 4.22353 424.971 5.44107 424.749 6.26294C423.262 11.7903 423.262 11.7903 422.594 18.9642C422.543 19.5146 422.051 30.4305 421.249 30.4574C420.539 30.4821 418.777 23.494 418.548 22.9698C417.206 19.8827 415.894 16.7803 414.582 13.678L414.571 13.654C412.963 12.305 411.696 11.7765 411.755 12.4807C411.814 13.1828 410.642 14.3248 410.771 14.7714C410.771 14.7714 410.771 14.7714 410.814 15.3907C410.88 16.3331 410.809 17.2871 410.831 18.2346C410.952 23.3408 413.871 27.3739 415.616 31.8557C416.441 33.9758 417.752 35.9288 417.509 38.3792C417.42 39.2722 417.829 40.5043 416.665 40.8477C415.653 41.1475 415.242 40.0505 414.805 39.3455C412.617 35.8206 410.402 32.1636 410.402 32.1636C409.253 30.2701 408.29 28.7381 408.259 28.7577C408.229 28.7766 407.212 27.281 406.067 25.3846C406.067 25.3846 403.783 21.6085 401.552 18.0305C401.072 17.2595 401.072 17.2595 401.072 17.2595C401.098 16.6794 400.604 15.1504 399.972 13.8587C399.339 12.5693 397.113 17.1847 397.736 18.0357C397.736 18.0357 397.736 18.0357 397.759 19.2685C397.816 22.275 398.348 25.2147 398.545 28.1922C398.645 29.7154 399.109 30.9075 400.057 32.0242C402.388 34.7686 404.673 37.5573 406.953 40.3489C408.488 42.2257 410.207 43.7954 412.389 44.9113C414.863 46.1783 415.171 47.8242 413.761 50.3733C412.152 53.2789 412.133 53.3007 409.602 50.891C402.189 43.8266 394.793 36.7442 387.389 29.6704C387.05 29.348 386.71 29.0307 386.351 28.7381C385.707 28.2154 385.031 27.8458 384.175 28.2981C383.321 28.7476 383.155 29.5092 383.236 30.3732C383.362 31.7265 383.499 33.0806 384.139 34.3054C386.936 39.6635 389.73 45.0239 392.517 50.3885C393.1 51.5125 394.046 52.1971 395.079 52.8251C398.978 55.1956 402.89 57.5494 406.741 60.0013C409.552 61.7924 410.024 63.5341 408.784 66.3091C408.148 67.7357 407.142 68.0711 405.875 67.5012C404.983 67.0997 404.184 66.4768 403.349 65.9431C392.145 58.7793 380.94 51.6134 369.737 44.4488C369.569 44.3421 369.406 44.2158 369.225 44.1453C368.457 43.8506 367.606 43.0381 366.869 43.8107C366.033 44.6863 366.754 45.604 367.322 46.3424C372.532 53.1214 377.76 59.8851 382.991 66.6467C383.274 67.0119 383.584 67.4373 383.977 67.6167C389.526 70.1396 394.766 73.5077 401.239 73.3451C406.521 73.2122 406.929 73.9571 405.296 79.1142C404.948 80.2177 404.708 81.3576 404.365 82.4641C403.6 84.9399 402.904 85.2419 400.796 83.9227C396.76 81.3954 396.442 81.8477 392.608 79.0256C389.663 76.8584 373.898 72.2517 370.682 71.9656C363.456 71.3223 360.604 69.6198 356.84 70.9426C355.66 71.3572 354.485 71.7514 354.11 73.3923C353.689 75.235 355.758 75.1369 356.9 75.4862C370.707 79.7298 377.614 87.8549 398.351 88.1149C401.864 88.1577 401.977 89.5981 401.073 93.1818C399.819 98.1523 399.726 98.1908 394.849 97.3312C384.393 95.4892 373.932 93.6872 363.477 91.8423C362.513 91.6732 361.577 91.3254 360.633 91.0415C360.376 90.9638 360.376 90.9638 360.376 90.9638C360.182 90.754 359.375 90.4287 358.583 90.245C357.793 90.0614 357.126 89.9466 357.101 89.9945L357.067 90.0338C356.77 90.3793 356.371 90.3271 355.998 90.2131C355.756 90.1398 355.756 90.1397 355.756 90.1397C355.507 90.004 354.176 89.8922 352.799 89.8893C352.799 89.8893 352.799 89.8893 351.551 89.9663C350.731 90.0171 349.922 90.298 349.763 91.2855C349.617 92.193 350.276 92.6163 350.964 92.9241C355.715 95.0652 360.472 97.1925 365.226 99.3241C367.574 100.376 369.959 101.348 372.255 102.502C373.861 103.309 375.465 103.508 377.232 103.349C382.898 102.838 388.574 102.469 394.238 101.947C396.044 101.782 397.329 102.423 397.705 104.154C398.062 105.8 397.666 107.44 396.018 108.378C394.492 109.245 392.928 109.802 391.101 109.65C379.264 108.661 367.416 107.817 355.585 106.753C353.858 106.598 353.858 106.598 353.858 106.598C352.097 106.745 350.618 107.122 350.569 107.438C350.524 107.75 351.518 109.232 352.846 110.03C352.846 110.03 352.846 110.03 354.141 110.598C356.98 111.843 359.857 113 362.706 114.229C363.934 114.759 365.177 115.044 366.533 115.058C374.851 115.147 383.168 115.285 391.484 115.417C394.694 115.47 395.111 116.056 394.249 119.137C393.881 120.449 393.465 121.762 393.267 123.102C393.029 124.711 392.164 125.051 390.767 124.957C379.457 124.201 360.784 123.012 360.784 123.012C358.609 122.875 357.103 123.773 357.439 125.012C357.439 125.012 357.439 125.012 357.807 126.12C357.94 126.52 357.94 126.52 357.94 126.52C358.11 126.95 359.933 127.882 361.991 128.595C361.991 128.595 364.658 129.516 367.85 130.662C369.302 131.182 370.756 131.379 372.31 131.276C377.452 130.936 382.596 130.666 387.742 130.417C388.994 130.356 390.625 129.722 391.229 131.387C391.78 132.911 389.914 139.639 389.914 139.639C389.313 141.807 394.326 144.762 394.372 144.276C394.418 143.789 394.468 141.551 394.482 139.305C394.482 139.305 394.536 131.471 394.668 130.115C394.82 128.567 395.263 127.045 395.589 125.512C395.79 124.58 396.398 124.486 397.094 124.841C398.859 125.741 400.61 126.667 402.347 127.618C402.491 127.698 402.491 127.698 402.491 127.698C402.606 127.786 404.294 128.664 406.242 129.649C406.242 129.649 410.941 132.026 414.67 134.409C415.689 135.06 415.689 135.06 415.689 135.06C416.811 135.786 419.503 136.563 421.669 136.79C421.669 136.79 425.655 139.111 425.316 137.352C424.976 135.591 423.232 133.455 421.445 132.603C421.445 132.603 421.445 132.603 419.917 131.694C417.821 130.446 415.604 128.978 414.026 127.059C412.982 125.79 403.312 121.157 399.98 120.109C397.79 119.421 397.268 118.433 397.724 116.15C397.949 115.017 398.162 113.869 398.531 112.778C399.351 110.361 400.922 109.741 403.001 111.066C407.183 113.729 411.334 116.445 415.465 119.191C417.803 120.743 427.332 128.909 427.332 128.909C428.996 130.334 430.973 130.456 431.721 129.179C431.721 129.179 431.721 129.179 430.596 127.357C428.237 123.544 428.33 119.967 418.644 113.374C417.876 112.851 408.72 108.315 404.056 107.162C401.061 106.42 400.288 105.071 401.178 101.986C401.292 101.595 401.402 101.202 401.52 100.812C402.329 98.1654 402.963 97.7515 405.369 98.7092C414.858 102.485 424.328 106.316 433.799 110.14C434.26 110.326 434.922 110.393 434.922 111.097C434.924 111.749 445.577 114.799 445.577 114.799C447.67 115.398 449.443 114.959 449.515 113.819C449.515 113.819 449.515 113.819 449.526 112.782C449.558 110.033 444.843 105.133 443.41 104.453C436.671 101.249 429.946 98.018 423.251 94.7196C421.286 93.7511 419.325 93.375 417.132 93.6334C413.979 94.0059 410.808 94.2019 407.639 94.3922C405.077 94.5454 403.74 92.959 404.38 90.452C404.985 88.0778 405.708 85.7262 406.534 83.421C407.149 81.6981 408.365 80.9235 410.282 81.2146C413.801 81.749 416.914 83.0333 419.888 85.0786C423.536 87.5856 428.034 88.8765 431.848 91.1315C432.622 91.5897 433.501 91.5584 434.337 91.7073C440.568 92.8181 446.255 94.6738 452.493 95.744C453.464 95.9103 454.461 96.0148 455.445 95.9814C456.248 95.9546 457.103 95.5916 457.354 94.7407C457.633 93.8026 456.714 93.4998 456.135 93.1346Z" fill="#FF6C4A"/>
<path d="M276.571 88.4398C276.345 88.2082 276.345 88.2082 276.345 88.2082C276.032 88.0146 275.748 87.9688 275.709 88.1077C275.709 88.1077 275.709 88.1077 275.745 88.2307C276.405 90.4433 276.517 92.7253 276.654 95.0114C276.932 99.6545 276.019 104.063 273.938 108.192C272.397 111.251 267.629 126.391 265.852 129.338C264.717 131.22 263.558 133.051 261.922 134.541C260.963 135.413 259.844 135.828 258.589 135.404C257.29 134.965 256.606 133.963 256.476 132.596C256.367 131.466 256.61 130.391 256.985 129.336C257.122 128.956 257.288 128.584 257.379 128.193C258.825 122.069 261.085 116.258 264.07 110.724C264.661 109.626 265.108 108.482 265.374 107.247C265.807 105.23 266.005 103.196 266.084 101.147C266.125 100.113 266.125 100.113 266.125 100.113C266.475 89.4689 262.41 84.5638 262.072 84.24C261.732 83.916 260.904 83.287 260.23 82.8442C259.556 82.3998 256.467 81.0156 254.992 80.5304C254.992 80.5304 250.892 79.1826 247.42 78.4044C244.922 77.8451 242.678 77.353 242.678 77.353C241.161 77.0196 240.061 77.1899 240.235 77.732C240.235 77.732 240.235 77.732 240.383 78.2238C240.887 79.8968 241.383 81.5787 242.016 83.2043C243.194 86.2266 243.747 89.3293 243.627 92.5707C243.526 95.2929 243.182 97.9928 242.959 100.704C242.815 102.451 242.5 104.165 242.096 105.867C241.582 108.039 241.42 110.237 241.546 112.467C241.62 113.774 241.62 113.774 241.62 113.774C241.692 115.211 241.873 117.653 242.023 119.2C242.023 119.2 242.043 119.388 242.163 120.889C242.219 121.588 242.219 121.588 242.219 121.588C242.189 122.36 242.278 132.259 242.22 133.812C242.22 133.812 242.13 136.237 240.796 138.613C240.53 139.088 240.18 139.488 239.667 139.712C238.897 140.049 238.386 139.881 238.013 139.132C237.793 138.688 237.793 138.688 237.793 138.688C237.687 138.149 237.388 136.527 237.129 135.082C237.129 135.082 237.129 135.082 237.221 133.739C237.391 131.257 237.265 120.792 236.405 118.4C235.608 116.19 235.618 114.405 235.618 114.405C235.626 112.851 235.641 110.309 235.65 108.755C235.65 108.755 235.661 106.812 235.73 104.429C235.769 103.017 235.809 101.588 235.491 100.211C234.915 97.7268 234.636 95.178 233.819 92.7414C233.231 90.9897 232.665 89.2285 232.013 87.4998C231.384 85.8353 230.786 84.1188 229.759 82.6674C227.906 80.0505 225.515 78.0134 222.544 76.7079C220.342 75.7395 217.998 75.2668 215.662 74.8011C210.988 73.8708 206.519 72.3621 202.235 70.2813C202.097 70.2134 202.097 70.2134 202.097 70.2134C201.912 70.2557 202.108 70.8386 202.53 71.5089C202.53 71.5089 202.53 71.5089 203.013 72.0596C204.32 73.5456 205.786 74.8972 206.842 76.5953C207.286 77.3088 207.713 78.0325 208.179 78.731C209.796 81.1584 210.772 83.8827 211.788 86.5826C212.153 87.5516 212.354 88.5877 212.581 89.6032C213.027 91.6001 213.584 93.5743 213.88 95.6035C214.261 97.8044 215.108 99.8678 215.891 101.934C217.153 105.263 221.244 123.155 220.428 125.015C219.809 126.422 218.566 128.139 217.636 126.915C213.374 121.31 207.144 95.1766 207.144 95.1766C206.949 93.635 206.704 92.0864 206.598 91.7355C206.598 91.7355 206.598 91.7355 206.498 91.4179C206.187 90.425 205.907 89.4122 205.347 88.5252C204.488 87.1631 203.592 85.8238 202.695 84.4874C202.093 83.5917 201.36 82.8155 200.517 82.134C199.65 81.4356 198.679 80.8982 197.773 80.2619C196.388 79.2911 194.838 78.6514 193.255 78.0812C191.607 77.4881 189.888 77.1808 188.19 76.7844C185.006 76.041 177.669 74.1334 177.242 74.2037C176.37 74.0454 176.08 74.5359 175.829 75.0143C175.864 75.2303 177.466 76.9652 177.469 77.1844C178.092 78.0491 178.746 78.9099 179.33 79.618L184.06 87.9996C184.912 89.2992 185.932 90.9758 186.33 91.7249C186.33 91.7249 186.33 91.725 186.658 92.4215C187.342 93.8807 190.183 98.5778 191.464 100.592C192.439 102.124 193.359 103.691 194.127 105.338C195.096 107.416 199.5 114.735 193.884 115.036C193.092 115.079 179.07 98.381 177.599 95.1915C176.891 93.658 176.061 92.191 175.032 90.8644C173.653 89.0856 172.157 87.3985 170.583 85.7882C168.933 84.1001 166.965 82.9815 164.565 82.8385C162.956 82.7432 150.86 81.0007 142.937 85.6351C140.18 87.246 137.205 88.658 134.511 90.373C131.951 92.0013 128.984 93.1033 128.984 93.1033C127.528 93.6446 126.279 94.0426 126.209 93.9896L125.983 93.9182C125.997 93.9892 125.932 94.2044 125.805 94.24C125.678 94.2755 125.465 94.4227 125.613 94.4911C125.762 94.5608 126.296 96.0146 126.477 97.5574C126.477 97.5574 126.13 100.481 126.926 103.426C127.965 107.273 128.881 108.73 129.798 111.789C134.829 128.6 147.599 133.105 149.851 133.809C152.001 134.48 154.184 135.048 156.394 135.469C158.045 135.785 186.377 140.51 186.49 141.296C186.86 143.857 184.168 144.432 182.085 145.723C180.132 146.933 167.856 145.202 166.046 145.029C163.671 144.801 161.294 144.587 158.93 144.261C157.498 144.064 146.815 143.345 143.132 142.477C142.744 142.6 141.758 142.166 141.369 142.288C140.152 141.984 139.817 142.427 139.647 142.769C139.51 143.049 141.266 144.421 141.123 144.699C143.983 147.84 147.782 151.167 149.821 153.585C150.945 154.919 151.999 156.31 153.276 157.509C154.502 158.66 155.776 159.752 157.27 160.544C158.248 161.064 159.168 161.684 160.183 162.139C161.173 162.583 162.197 162.883 163.269 163.012C164.868 163.206 166.467 163.396 168.071 163.543C169.115 163.64 170.145 163.429 171.17 163.256C171.5 163.2 171.5 163.2 171.5 163.2C171.86 163.135 173.351 162.651 174.813 162.125C174.813 162.125 203.242 155.275 205.347 155.828C206.268 156.07 207.128 156.446 207.856 157.067C209.026 158.065 204.407 159.468 203.434 160.659C202.148 162.23 188.344 166.466 184.805 166.853C182.607 167.092 180.386 167.274 178.252 167.934C176.308 168.589 174.297 168.99 172.314 169.499C171.305 169.758 170.292 170.048 169.263 170.165C166.396 170.485 163.525 170.851 160.629 170.512C159.795 170.413 158.955 170.361 158.119 170.29C156.127 170.119 154.257 169.427 152.339 168.938C151.63 168.757 151.63 168.757 151.63 168.757C150.841 168.685 150.232 168.775 150.278 168.959C150.278 168.959 150.278 168.959 150.402 169.052C154.199 171.922 157.574 175.222 160.524 178.964C161.999 180.835 163.483 182.708 165.346 184.232C167.859 186.285 170.76 187.491 173.933 187.955C175.691 188.211 177.492 187.964 179.261 187.77C181.097 187.567 182.923 187.27 184.75 186.998C187.293 186.621 189.69 185.714 192.167 185.099C193.537 184.758 194.793 184.074 196.033 183.397C198.125 182.254 199.85 181.362 199.85 181.362C201.232 180.649 203.49 179.482 204.871 178.769C204.871 178.769 206.457 177.95 208.787 177.657C211.309 177.337 213.492 176.184 215.626 174.907C216.782 174.216 216.782 174.216 216.782 174.216C217.549 173.983 219.692 172.982 221.566 172.097C223.125 171.36 224.498 170.703 224.738 170.635C224.738 170.635 224.738 170.635 225.235 170.63C226.071 170.622 226.453 171.002 226.502 171.842C226.535 172.398 226.337 172.892 226.035 173.346C224.525 175.613 222.403 176.794 222.403 176.794C221.046 177.55 214.942 181.012 214.267 181.391C214.267 181.391 214.267 181.391 213.62 181.658C212.226 182.232 212.05 182.301 212.05 182.301C210.604 182.869 208.347 183.816 207.033 184.405C207.033 184.405 207.033 184.405 205.836 184.932C203.791 185.83 201.906 186.973 200.203 188.418C198.87 189.549 197.486 190.609 195.995 191.529C193.681 192.96 191.431 194.49 189.051 195.817C186.217 197.395 183.201 198.311 179.974 198.633C178.237 198.806 176.515 199.128 174.795 199.438C174.289 199.53 174.289 199.53 174.289 199.53C173.728 199.619 174.076 200.677 175.06 201.878C175.06 201.878 176.518 203.655 178.15 205.626C180.419 208.367 183.48 211.408 183.48 211.408C184.583 212.502 186.022 213.783 186.68 214.253C187.338 214.723 189.557 215.878 190 216.033C190.443 216.189 191.977 216.512 192.387 216.541C192.798 216.57 194.311 216.473 194.837 216.372C195.363 216.27 204.961 212.905 205.983 212.44C205.983 212.44 205.983 212.44 206.886 211.935C208.676 210.933 210.399 209.834 211.998 208.533C212.98 207.735 213.795 206.817 214.506 205.791C218.082 200.62 222.233 195.968 227.034 191.902C227.34 191.642 227.596 191.324 227.874 191.032C228.643 190.217 229.492 189.513 230.548 189.098C231.826 188.593 233.028 188.748 234.01 189.707C234.957 190.632 228.201 197.828 227.435 198.873C224.761 202.526 222.214 205.767 221.052 207.633C219.233 210.554 216.594 212.708 214.567 215.469C211.832 219.196 208.317 222.013 204.054 223.871C201.956 224.787 199.872 225.723 197.602 226.141C197.475 226.164 197.475 226.164 197.475 226.164C197.369 226.26 197.539 226.495 197.853 226.684C197.853 226.684 197.853 226.684 198.163 226.781C201.496 227.834 216.004 230.989 218.466 230.424C220.399 229.978 222.325 229.482 224.282 229.17C227.251 228.697 229.824 227.349 232.299 225.771C234.57 224.324 251.463 213.169 253.454 211.358C253.9 210.952 254.363 210.553 254.861 210.215C257.202 208.621 258.903 206.436 260.208 204C262.316 200.06 264.312 196.057 265.978 191.901C266.756 189.964 267.349 187.973 267.702 185.906C267.876 184.885 267.853 183.896 267.629 182.908C266.924 179.797 265.78 176.872 263.922 174.252C263.069 173.049 262.377 171.725 261.241 170.738C261.174 170.681 261.174 170.681 261.174 170.681C261.132 170.535 261.548 170.619 262.098 170.866C262.098 170.866 262.098 170.866 262.57 171.077C266.328 172.76 269.445 174.79 272.988 176.845C274.903 177.956 277.094 178.944 280.511 182.546C281.788 183.891 282.17 185.85 283.247 187.361C283.58 187.829 283.58 187.829 283.58 187.829C283.819 188.409 285.034 188.692 286.282 188.456C287.529 188.22 290.298 186.514 289.648 185.103C289.648 185.103 289.396 184.555 288.479 183.102C288.3 182.819 288.141 182.521 287.993 182.22C286.591 179.351 279.978 173.968 277.363 172.149C274.222 169.965 270.001 167.685 270.001 167.685C268.634 166.946 265.525 165.017 266.726 164.383C267.183 164.142 268.044 164.08 269.212 163.888C271.115 163.574 273.834 162.91 276.948 160.549C276.948 160.549 280.699 155.875 283.217 152.26C284.796 149.993 288.56 145.684 288.917 142.876C288.993 142.278 289.137 141.685 289.296 141.103C290.006 138.506 294.297 128.63 294.557 125.949C294.84 123.027 294.872 120.122 293.948 117.263C293.338 115.378 292.905 113.436 292.424 111.511C291.812 109.061 291.089 106.666 289.834 104.439C288.809 102.62 284.885 97.8538 283.616 96.1955C281.489 93.4114 279.023 90.9321 276.571 88.4398Z" fill="#F8B30B"/>
<path d="M404.19 271.276C404.269 271.479 404.269 271.479 404.269 271.479C404.411 271.682 404.574 271.785 404.635 271.71C404.635 271.71 404.635 271.71 404.645 271.624C404.824 270.083 405.358 268.643 405.879 267.195C406.937 264.253 408.668 261.772 411.047 259.772C412.809 258.29 419.763 250.2 421.641 248.851C422.84 247.988 424.041 247.164 425.446 246.677C426.27 246.392 427.071 246.432 427.734 247.026C428.42 247.642 428.577 248.441 428.296 249.321C428.063 250.047 427.629 250.647 427.118 251.199C426.933 251.398 426.732 251.584 426.572 251.801C424.057 255.202 421.122 258.192 417.813 260.821C417.157 261.343 416.579 261.931 416.087 262.623C415.286 263.755 414.625 264.959 414.033 266.204C413.734 266.831 413.734 266.831 413.734 266.831C410.699 273.314 411.911 277.42 412.035 277.71C412.159 278 412.504 278.608 412.803 279.06C413.102 279.513 414.643 281.186 415.426 281.876C415.426 281.876 417.602 283.794 419.541 285.194C420.936 286.201 422.191 287.099 422.191 287.099C423.04 287.707 423.765 287.893 423.801 287.512C423.801 287.512 423.801 287.512 423.84 287.169C423.972 286.002 424.111 284.832 424.15 283.66C424.222 281.481 424.702 279.418 425.635 277.447C426.418 275.793 427.345 274.216 428.201 272.6C428.752 271.559 429.401 270.584 430.101 269.64C430.994 268.434 431.676 267.119 432.188 265.708C432.489 264.881 432.489 264.881 432.489 264.881C432.825 263.974 433.359 262.418 433.676 261.422C433.676 261.422 433.714 261.301 434.037 260.342C434.188 259.895 434.188 259.895 434.188 259.895C434.411 259.427 436.977 253.288 437.424 252.344C437.424 252.344 438.122 250.87 439.575 249.755C439.865 249.532 440.187 249.378 440.563 249.375C441.128 249.371 441.399 249.61 441.431 250.172C441.45 250.504 441.45 250.504 441.45 250.504C441.372 250.865 441.128 251.946 440.905 252.908C440.905 252.908 440.905 252.908 440.492 253.713C439.731 255.201 437.037 261.699 436.935 263.404C436.842 264.981 436.363 266.081 436.363 266.081C435.947 267.038 435.265 268.605 434.848 269.562C434.848 269.562 434.327 270.759 433.653 272.213C433.255 273.075 432.852 273.947 432.683 274.882C432.382 276.569 431.879 278.218 431.739 279.939C431.638 281.177 431.521 282.415 431.467 283.655C431.414 284.85 431.329 286.068 431.579 287.237C432.031 289.344 432.968 291.236 434.458 292.829C435.562 294.01 436.885 294.923 438.204 295.829C440.845 297.641 443.207 299.757 445.302 302.176C445.369 302.255 445.369 302.255 445.369 302.255C445.495 302.277 445.528 301.866 445.445 301.34C445.445 301.34 445.445 301.34 445.292 300.872C444.879 299.608 444.331 298.385 444.128 297.056C444.043 296.498 443.971 295.938 443.868 295.383C443.512 293.455 443.63 291.514 443.717 289.577C443.748 288.882 443.898 288.188 444.027 287.501C444.28 286.149 444.459 284.782 444.813 283.45C445.161 281.99 445.184 280.491 445.247 279.007C445.349 276.617 447.56 264.481 448.556 263.549C449.311 262.843 450.534 262.111 450.784 263.114C451.933 267.705 448.862 285.498 448.862 285.498C448.574 286.502 448.315 287.523 448.288 287.768C448.288 287.768 448.288 287.768 448.265 287.991C448.194 288.686 448.099 289.386 448.21 290.082C448.381 291.151 448.579 292.216 448.78 293.279C448.914 293.991 449.161 294.665 449.502 295.309C449.852 295.97 450.31 296.559 450.701 297.192C451.3 298.159 452.088 298.964 452.914 299.736C453.775 300.538 454.756 301.183 455.7 301.878C457.47 303.18 461.497 306.301 461.78 306.371C462.276 306.7 462.585 306.473 462.867 306.244C462.903 306.102 462.372 304.606 462.429 304.47C462.273 303.77 462.097 303.066 461.923 302.473L461.221 296.043C461.039 295.015 460.853 293.709 460.805 293.141C460.805 293.141 460.805 293.141 460.787 292.624C460.751 291.542 460.24 287.888 459.981 286.305C459.785 285.1 459.631 283.888 459.593 282.668C459.544 281.127 458.762 275.44 462.311 276.741C462.812 276.924 467.052 290.952 467.116 293.312C467.148 294.446 467.272 295.572 467.556 296.664C467.937 298.128 468.414 299.566 468.961 300.978C469.533 302.458 470.452 303.67 471.897 304.393C472.866 304.878 479.876 309.158 485.998 308.393C488.127 308.128 490.339 308.043 492.457 307.697C494.47 307.369 496.594 307.474 496.594 307.474C497.637 307.525 498.514 307.61 498.543 307.661L498.664 307.765C498.674 307.717 498.771 307.602 498.859 307.613C498.947 307.625 499.118 307.591 499.044 307.509C498.971 307.427 499.026 306.387 499.322 305.386C499.322 305.386 500.311 303.672 500.599 301.642C500.975 298.991 500.796 297.848 501.039 295.715C502.382 283.999 495.687 277.835 494.482 276.804C493.332 275.819 492.133 274.891 490.88 274.045C489.944 273.413 473.693 262.993 473.831 262.477C474.281 260.797 476.097 261.155 477.725 260.909C479.251 260.678 486.377 264.998 487.449 265.584C488.855 266.354 490.267 267.116 491.641 267.943C492.474 268.444 498.883 271.717 500.928 273.228C501.2 273.254 501.694 273.784 501.967 273.812C502.638 274.322 502.962 274.137 503.158 273.97C503.317 273.834 502.595 272.521 502.757 272.387C501.822 269.69 500.357 266.629 499.737 264.595C499.396 263.474 499.113 262.335 498.642 261.256C498.189 260.221 497.692 259.209 496.979 258.324C496.512 257.744 496.108 257.117 495.601 256.567C495.107 256.031 494.554 255.574 493.926 255.211C492.99 254.668 492.052 254.127 491.1 253.611C490.481 253.275 489.789 253.133 489.11 252.968C488.891 252.915 488.891 252.915 488.891 252.915C488.652 252.861 487.603 252.765 486.56 252.702C486.56 252.702 467.185 249.406 466.031 248.507C465.526 248.114 465.094 247.654 464.809 247.077C464.351 246.151 467.575 246.507 468.492 246.03C469.702 245.399 479.351 246.438 481.64 247.136C483.061 247.57 484.481 248.046 485.974 248.203C487.348 248.313 488.697 248.598 490.056 248.809C490.748 248.916 491.451 249.005 492.117 249.206C493.973 249.767 495.843 250.301 497.543 251.277C498.032 251.559 498.537 251.814 499.034 252.079C500.22 252.712 501.191 253.635 502.247 254.444C502.637 254.744 502.637 254.744 502.637 254.744C503.105 254.997 503.505 255.103 503.525 254.977C503.525 254.977 503.525 254.977 503.474 254.887C501.888 252.109 500.677 249.176 499.845 246.084C499.43 244.537 499.009 242.987 498.262 241.553C497.253 239.619 495.78 238.106 493.943 236.98C492.925 236.355 491.747 236.031 490.603 235.683C489.415 235.322 488.208 235.022 487.008 234.706C485.337 234.266 483.616 234.191 481.923 233.916C480.986 233.763 480.03 233.853 479.084 233.943C477.489 234.095 476.187 234.19 476.187 234.19C475.145 234.265 473.441 234.387 472.399 234.462C472.399 234.462 471.203 234.548 469.686 234.112C468.043 233.642 466.39 233.776 464.733 234C463.836 234.121 463.836 234.121 463.836 234.121C463.301 234.062 461.712 234.112 460.32 234.163C459.162 234.205 458.139 234.248 457.973 234.226C457.973 234.226 457.973 234.226 457.665 234.098C457.146 233.881 457.011 233.546 457.203 233.013C457.33 232.661 457.583 232.409 457.89 232.208C459.423 231.207 461.046 231.04 461.046 231.04C462.084 230.932 466.772 230.41 467.29 230.354C467.29 230.354 467.29 230.354 467.76 230.361C468.773 230.375 468.9 230.379 468.9 230.379C469.944 230.411 471.588 230.424 472.556 230.408C472.556 230.408 472.556 230.408 473.435 230.4C474.936 230.386 476.403 230.179 477.837 229.738C478.961 229.392 480.096 229.104 481.261 228.93C483.069 228.659 484.864 228.309 486.686 228.12C488.854 227.895 490.96 228.128 493.039 228.784C494.157 229.137 495.306 229.394 496.451 229.658C496.788 229.735 496.788 229.735 496.788 229.735C497.158 229.828 497.223 229.083 496.933 228.08C496.933 228.08 496.503 226.597 496.017 224.947C495.341 222.653 494.255 219.964 494.255 219.964C493.864 218.996 493.314 217.823 493.032 217.359C492.75 216.895 491.685 215.593 491.452 215.381C491.22 215.167 490.358 214.561 490.112 214.434C489.866 214.308 488.905 213.967 488.554 213.89C488.202 213.814 481.383 213.351 480.628 213.368C480.628 213.368 480.628 213.368 479.936 213.441C478.565 213.586 477.21 213.808 475.877 214.189C475.06 214.421 474.313 214.773 473.603 215.218C470.024 217.466 466.228 219.24 462.186 220.481C461.928 220.561 461.685 220.689 461.437 220.796C460.746 221.096 460.035 221.306 459.273 221.283C458.35 221.256 457.648 220.842 457.295 219.99C456.955 219.168 463.034 216.511 463.784 216.069C466.403 214.52 468.834 213.192 470.046 212.347C471.943 211.025 474.144 210.393 476.127 209.224C478.804 207.645 481.72 206.836 484.846 206.817C486.385 206.807 487.92 206.781 489.433 207.124C489.517 207.143 489.517 207.143 489.517 207.143C489.609 207.111 489.566 206.922 489.421 206.722C489.421 206.722 489.421 206.722 489.256 206.58C487.476 205.047 479.349 199.256 477.678 198.953C476.367 198.717 475.045 198.513 473.754 198.188C471.794 197.694 469.848 197.845 467.901 198.165C466.115 198.457 452.727 200.875 451.017 201.467C450.634 201.599 450.242 201.723 449.845 201.801C447.977 202.165 446.348 203.064 444.897 204.224C442.551 206.099 440.258 208.044 438.129 210.17C437.135 211.16 436.241 212.233 435.476 213.417C435.098 214.001 434.851 214.618 434.728 215.288C434.339 217.397 434.271 219.506 434.726 221.617C434.934 222.585 435.011 223.587 435.451 224.497C435.478 224.55 435.478 224.55 435.478 224.55C435.465 224.651 435.23 224.49 434.956 224.191C434.956 224.191 434.956 224.191 434.72 223.936C432.845 221.901 431.456 219.822 429.812 217.615C428.923 216.421 427.831 215.231 426.674 212.101C426.241 210.932 426.524 209.621 426.259 208.402C426.177 208.025 426.177 208.025 426.177 208.025C426.183 207.603 425.507 207.106 424.674 206.922C423.841 206.737 421.679 207.058 421.707 208.102C421.707 208.102 421.717 208.507 421.899 209.647C421.935 209.87 421.954 210.096 421.966 210.321C422.072 212.464 424.732 217.541 425.865 219.357C427.228 221.537 429.231 224.064 429.231 224.064C429.88 224.882 431.29 226.897 430.38 226.971C430.034 226.999 429.486 226.809 428.714 226.618C427.455 226.308 425.6 225.998 423.051 226.632C423.051 226.632 419.496 228.526 416.983 230.093C415.408 231.075 411.942 232.74 410.977 234.38C410.772 234.73 410.527 235.058 410.274 235.375C409.148 236.791 403.882 241.756 403.011 243.343C402.063 245.074 401.274 246.859 401.088 248.871C400.966 250.196 400.719 251.511 400.506 252.827C400.236 254.502 400.048 256.174 400.233 257.881C400.385 259.276 401.547 263.26 401.892 264.62C402.469 266.903 403.336 269.088 404.19 271.276Z" fill="#00C3A4"/>
<path d="M364.86 301.918H321.182L324.812 268.064H361.23L364.86 301.918Z" fill="#B1C1C1"/>
<path d="M230.209 250.913V265.008C230.209 271.747 235.72 277.257 242.455 277.257H443.588C450.322 277.257 455.835 271.747 455.835 265.008V250.913H230.209Z" fill="#B1C1C1"/>
<path d="M443.263 120.257H242.13C235.396 120.257 229.883 125.596 229.883 132.124V259.039H334.512H340.38H455.509V132.124C455.509 125.596 449.997 120.257 443.263 120.257Z" fill="#191C1D"/>
<path d="M238.305 129.16V250.218H447.085V129.16H238.305Z" fill="#00385F"/>
<path d="M383.187 305.092H302.861V298.745H383.187V305.092Z" fill="#B1C1C1"/>
<path d="M443.832 106.103H334.291V252.927H443.832C446.024 252.927 447.802 251.144 447.802 248.955V110.074C447.802 107.88 446.024 106.103 443.832 106.103Z" fill="#00385F"/>
<path d="M241.558 106.103H351.098V252.927H241.558C239.365 252.927 237.588 251.144 237.588 248.955V110.074C237.588 107.88 239.365 106.103 241.558 106.103Z" fill="#00385F"/>
<path d="M337.291 244.963H438.253V97.3384H349.108C342.583 97.3384 337.291 102.63 337.291 109.157V244.963Z" fill="white"/>
<path d="M348.624 97.3515C342.322 97.6041 337.291 102.792 337.291 109.157V244.963H348.624V97.3515Z" fill="#B1C1C1"/>
<path d="M325.473 97.3384H246.156V244.963H337.288V109.157C337.288 102.63 331.998 97.3384 325.473 97.3384Z" fill="white"/>
<path d="M438.255 245.006V235.959H349.11C343.537 235.959 338.87 239.818 337.623 245.006H438.255Z" fill="#B1C1C1"/>
<path d="M246.156 245.006H340.105C338.858 239.818 334.19 235.959 328.618 235.959H246.156V245.006Z" fill="#B1C1C1"/>
<path d="M430.898 128.117H353.871V131.572H430.898V128.117Z" fill="#B1C1C1"/>
<path d="M430.898 135.973H353.871V139.436H430.898V135.973Z" fill="#B1C1C1"/>
<path d="M389.614 146.128H353.871V149.587H389.614V146.128Z" fill="#B1C1C1"/>
<path d="M430.898 153.988H353.871V157.444H430.898V153.988Z" fill="#B1C1C1"/>
<path d="M430.898 161.844H353.871V165.305H430.898V161.844Z" fill="#B1C1C1"/>
<path d="M257.465 195.566H324.013V192.112H257.465V195.566Z" fill="#B1C1C1"/>
<path d="M257.465 203.431H324.013V199.968H257.465V203.431Z" fill="#B1C1C1"/>
<path d="M257.465 211.225H324.013V207.768H257.465V211.225Z" fill="#B1C1C1"/>
<path d="M257.465 219.086H324.013V215.622H257.465V219.086Z" fill="#B1C1C1"/>
<path d="M324.013 175.773H257.465V179.228H324.013V175.773Z" fill="#B1C1C1"/>
<path d="M257.465 187.091H324.013V183.629H257.465V187.091Z" fill="#B1C1C1"/>
<path d="M294.422 240.632H321.308V240.052H294.422V240.632Z" fill="#D3D4D3"/>
<path d="M377.086 240.23H350.199V239.65H377.086V240.23Z" fill="#D3D4D3"/>
<path d="M412.565 242.954H385.678V242.374H412.565V242.954Z" fill="#D3D4D3"/>
<path d="M317.059 141.125C317.059 155.846 305.126 167.78 290.405 167.78C275.685 167.78 263.75 155.846 263.75 141.125C263.75 126.404 275.685 114.47 290.405 114.47C305.126 114.47 317.059 126.404 317.059 141.125Z" fill="#D3D4D3"/>
<path d="M290.601 169.29H290.204C278.584 169.239 269.197 164.725 269.197 159.166C269.197 158.634 269.284 158.111 269.448 157.602C274.33 163.801 281.901 167.78 290.403 167.78C298.905 167.78 306.476 163.801 311.356 157.602C311.522 158.111 311.608 158.634 311.608 159.166C311.608 164.725 302.22 169.239 290.601 169.29Z" fill="white"/>
<path d="M298.871 135.418C298.851 135.063 298.855 134.125 298.836 133.971C298.633 132.295 300.15 128.352 297.945 126.917C297.567 126.768 297.194 126.707 296.815 126.707C295.162 126.707 293.403 127.858 290.679 127.858C290.43 127.9 290.18 127.919 289.93 127.919C288.883 127.919 287.831 127.585 286.821 127.25C285.812 126.916 284.845 126.581 283.968 126.581C283.505 126.581 283.066 126.674 282.66 126.911C281.136 127.797 281.759 134.01 281.597 134.01C281.595 134.01 281.592 134.009 281.59 134.006C281.43 133.857 281.221 133.709 281.007 133.616C280.745 132.044 280.15 129.916 279.962 127.638C279.503 122.044 284.329 121.665 284.773 121.665C287.452 121.665 288.186 120.232 292.362 119.777C292.641 119.747 292.907 119.732 293.161 119.731H293.213C297.333 119.747 298.173 123.527 299.888 125.815C301.099 127.717 299.967 132.275 299.229 134.65C299.123 134.875 299.017 135.131 298.871 135.418Z" fill="#191C1D"/>
<path d="M290.639 152.768C287.853 152.768 285.282 151.693 283.318 149.945C283.796 149.164 284.005 147.699 284.013 146.375C286.189 149.128 290.457 150.107 290.498 150.107C292.641 150.107 295.551 148.858 297.154 146.611C297.289 147.715 297.562 148.939 298.004 149.905C296.035 151.678 293.446 152.768 290.639 152.768Z" fill="#EDB39F"/>
<path d="M290.441 142.539C289.156 142.539 287.87 142.349 287.431 141.969C287.282 141.844 288.528 141.388 288.644 141.331C289.323 140.989 289.991 140.787 290.647 140.787C291.224 140.787 291.792 140.943 292.352 141.298C292.485 141.383 293.584 141.855 293.45 141.969C293.012 142.349 291.726 142.539 290.441 142.539ZM294.653 141.023C293.502 141.023 294.241 138.828 290.497 138.545H290.268C287.741 138.851 288.185 139.73 287.102 140.463C286.707 140.729 286.242 140.891 285.772 140.891C285.533 140.891 285.294 140.85 285.061 140.759C283.683 140.221 283.174 139.181 282.47 138C282.414 138.254 282.404 138.739 282.425 139.337C282.28 139.385 281.942 139.594 281.19 139.611C281.187 139.611 281.183 139.611 281.18 139.611C280.117 139.611 279.602 135.655 279.982 134.215C280.057 133.936 280.389 133.528 280.606 133.526C280.609 133.526 280.611 133.526 280.614 133.526C280.739 133.526 280.873 133.56 281.005 133.616C281.219 133.709 281.428 133.857 281.588 134.006C281.59 134.008 281.593 134.01 281.595 134.01C281.757 134.01 281.134 127.797 282.658 126.911C283.064 126.674 283.503 126.581 283.966 126.581C284.843 126.581 285.81 126.916 286.819 127.25C287.828 127.584 288.88 127.919 289.928 127.919C290.178 127.919 290.428 127.9 290.677 127.857C293.401 127.857 295.16 126.707 296.813 126.707C297.192 126.707 297.565 126.768 297.943 126.916C300.148 128.352 298.631 132.295 298.834 133.971C298.853 134.125 298.849 135.063 298.869 135.418C299.014 135.131 299.12 134.875 299.227 134.65C299.329 134.437 299.43 134.252 299.568 134.096C299.82 133.806 300.241 133.436 300.549 133.436C300.565 133.436 300.581 133.437 300.596 133.439C300.899 133.483 301.246 133.995 301.361 134.362C301.744 135.603 300.551 138.913 300.162 139.41C299.993 139.624 299.786 139.699 299.571 139.699C299.323 139.699 299.067 139.598 298.858 139.497C298.739 139.44 298.635 139.382 298.556 139.343C298.566 138.866 298.559 138.529 298.522 138.467C297.593 139.578 296.445 140.598 294.978 140.975C294.855 141.007 294.748 141.023 294.653 141.023Z" fill="#EDB39F"/>
<path d="M290.498 150.107C290.457 150.107 286.189 149.128 284.013 146.375C283.411 145.614 282.97 144.715 282.822 143.666C282.659 142.516 282.468 140.653 282.424 139.337C282.404 138.739 282.413 138.254 282.47 138C283.173 139.181 283.683 140.221 285.06 140.759C285.293 140.85 285.533 140.891 285.771 140.891C286.241 140.891 286.707 140.729 287.101 140.463C288.184 139.73 287.741 138.851 290.267 138.545H290.497C294.24 138.828 293.502 141.023 294.652 141.023C294.747 141.023 294.854 141.008 294.978 140.976C296.444 140.598 297.592 139.578 298.522 138.467C298.558 138.529 298.565 138.866 298.555 139.343C298.522 140.849 298.313 143.756 298.275 143.849C298.129 144.888 297.724 145.812 297.154 146.611C295.551 148.857 292.641 150.107 290.498 150.107ZM290.646 140.787C289.991 140.787 289.323 140.989 288.644 141.331C288.527 141.388 287.282 141.844 287.43 141.969C287.869 142.349 289.155 142.539 290.44 142.539C291.726 142.539 293.011 142.349 293.449 141.969C293.583 141.856 292.485 141.383 292.351 141.298C291.791 140.943 291.223 140.787 290.646 140.787Z" fill="#191C1D"/>
<path d="M290.403 167.78C281.902 167.78 274.33 163.801 269.449 157.602C270.638 153.939 275.937 150.927 283.025 149.671C283.122 149.764 283.221 149.855 283.321 149.944C285.284 151.693 287.856 152.768 290.641 152.768C293.448 152.768 296.037 151.677 298.006 149.905C298.064 149.852 298.123 149.799 298.179 149.745C305.066 151.043 310.19 154.009 311.357 157.602C306.476 163.801 298.905 167.78 290.403 167.78Z" fill="#FF6C4A"/>
<path d="M384.428 204.23C384.428 224.168 400.591 240.334 420.531 240.334C440.471 240.334 456.636 224.168 456.636 204.23C456.636 184.292 440.471 168.126 420.531 168.126C400.591 168.126 384.428 184.292 384.428 204.23Z" fill="white"/>
<mask id="path-43-inside-1_1108_678" fill="white">
<path d="M401.428 204.385C401.428 214.934 409.981 223.486 420.53 223.486C431.081 223.486 439.633 214.934 439.633 204.385C439.633 193.833 431.081 185.281 420.53 185.281C409.981 185.281 401.428 193.833 401.428 204.385Z"/>
</mask>
<path d="M401.428 204.385C401.428 214.934 409.981 223.486 420.53 223.486C431.081 223.486 439.633 214.934 439.633 204.385C439.633 193.833 431.081 185.281 420.53 185.281C409.981 185.281 401.428 193.833 401.428 204.385Z" fill="white"/>
<path d="M405.075 204.385C405.075 212.919 411.995 219.838 420.53 219.838V227.134C407.967 227.134 397.78 216.949 397.78 204.385H405.075ZM420.53 219.838C429.067 219.838 435.986 212.919 435.986 204.385H443.281C443.281 216.949 433.095 227.134 420.53 227.134V219.838ZM435.986 204.385C435.986 195.848 429.067 188.929 420.53 188.929V181.634C433.096 181.634 443.281 191.819 443.281 204.385H435.986ZM420.53 188.929C411.996 188.929 405.075 195.848 405.075 204.385H397.78C397.78 191.819 407.967 181.634 420.53 181.634V188.929Z" fill="#FF6C4A" mask="url(#path-43-inside-1_1108_678)"/>
<mask id="path-45-inside-2_1108_678" fill="white">
<path d="M395.66 204.385C395.66 218.118 406.796 229.252 420.528 229.252C434.265 229.252 445.398 218.118 445.398 204.385C445.398 190.648 434.265 179.515 420.529 179.515C406.795 179.515 395.66 190.648 395.66 204.385Z"/>
</mask>
<path d="M395.66 204.385C395.66 218.118 406.796 229.252 420.528 229.252C434.265 229.252 445.398 218.118 445.398 204.385C445.398 190.648 434.265 179.515 420.529 179.515C406.795 179.515 395.66 190.648 395.66 204.385Z" fill="white"/>
<path d="M399.308 204.385C399.308 216.104 408.81 225.604 420.528 225.604V232.9C404.781 232.9 392.013 220.133 392.013 204.385H399.308ZM420.528 225.604C432.251 225.604 441.751 216.104 441.751 204.385H449.046C449.046 220.133 436.279 232.9 420.528 232.9V225.604ZM441.751 204.385C441.751 192.663 432.25 183.162 420.529 183.162V175.867C436.279 175.867 449.046 188.634 449.046 204.385H441.751ZM420.529 183.162C408.81 183.162 399.308 192.663 399.308 204.385H392.013C392.013 188.634 404.781 175.867 420.529 175.867V183.162Z" fill="#FF6C4A" mask="url(#path-45-inside-2_1108_678)"/>
<mask id="path-47-inside-3_1108_678" fill="white">
<path d="M395.66 204.385C395.66 218.118 406.796 229.252 420.528 229.252C434.265 229.252 445.398 218.118 445.398 204.385C445.398 190.648 434.265 179.515 420.529 179.515C406.795 179.515 395.66 190.648 395.66 204.385Z"/>
</mask>
<path d="M395.66 204.385C395.66 218.118 406.796 229.252 420.528 229.252C434.265 229.252 445.398 218.118 445.398 204.385C445.398 190.648 434.265 179.515 420.529 179.515C406.795 179.515 395.66 190.648 395.66 204.385Z" fill="white"/>
<path d="M399.308 204.385C399.308 216.104 408.81 225.604 420.528 225.604V232.9C404.781 232.9 392.013 220.133 392.013 204.385H399.308ZM420.528 225.604C432.251 225.604 441.751 216.104 441.751 204.385H449.046C449.046 220.133 436.279 232.9 420.528 232.9V225.604ZM441.751 204.385C441.751 192.663 432.25 183.162 420.529 183.162V175.867C436.279 175.867 449.046 188.634 449.046 204.385H441.751ZM420.529 183.162C408.81 183.162 399.308 192.663 399.308 204.385H392.013C392.013 188.634 404.781 175.867 420.529 175.867V183.162Z" fill="#FF6C4A" mask="url(#path-47-inside-3_1108_678)"/>
<mask id="path-49-inside-4_1108_678" fill="white">
<path d="M384.424 204.386C384.424 224.325 400.59 240.488 420.528 240.488C440.471 240.488 456.634 224.325 456.634 204.386C456.634 184.443 440.471 168.279 420.529 168.279C400.59 168.279 384.424 184.443 384.424 204.386Z"/>
</mask>
<path d="M384.424 204.386C384.424 224.325 400.59 240.488 420.528 240.488C440.471 240.488 456.634 224.325 456.634 204.386C456.634 184.443 440.471 168.279 420.529 168.279C400.59 168.279 384.424 184.443 384.424 204.386Z" fill="white"/>
<path d="M388.654 204.386C388.654 221.988 402.926 236.259 420.528 236.259V244.718C398.255 244.718 380.194 226.661 380.194 204.386H388.654ZM420.528 236.259C438.135 236.259 452.405 221.988 452.405 204.386H460.864C460.864 226.661 442.806 244.718 420.528 244.718V236.259ZM452.405 204.386C452.405 186.779 438.134 172.509 420.529 172.509V164.049C442.807 164.049 460.864 182.107 460.864 204.386H452.405ZM420.529 172.509C402.926 172.509 388.654 186.779 388.654 204.386H380.194C380.194 182.107 398.254 164.049 420.529 164.049V172.509Z" fill="#FF6C4A" mask="url(#path-49-inside-4_1108_678)"/>
<mask id="path-51-inside-5_1108_678" fill="white">
<path d="M395.66 204.385C395.66 218.118 406.796 229.252 420.528 229.252C434.265 229.252 445.398 218.118 445.398 204.385C445.398 190.648 434.265 179.515 420.529 179.515C406.795 179.515 395.66 190.648 395.66 204.385Z"/>
</mask>
<path d="M395.66 204.385C395.66 218.118 406.796 229.252 420.528 229.252C434.265 229.252 445.398 218.118 445.398 204.385C445.398 190.648 434.265 179.515 420.529 179.515C406.795 179.515 395.66 190.648 395.66 204.385Z" fill="white"/>
<path d="M399.89 204.385C399.89 215.782 409.131 225.022 420.528 225.022V233.482C404.46 233.482 391.43 220.455 391.43 204.385H399.89ZM420.528 225.022C431.929 225.022 441.168 215.782 441.168 204.385H449.628C449.628 220.455 436.601 233.482 420.528 233.482V225.022ZM441.168 204.385C441.168 192.984 431.929 183.745 420.529 183.745V175.285C436.601 175.285 449.628 188.312 449.628 204.385H441.168ZM420.529 183.745C409.131 183.745 399.89 192.984 399.89 204.385H391.43C391.43 188.312 404.46 175.285 420.529 175.285V183.745Z" fill="#FF6C4A" mask="url(#path-51-inside-5_1108_678)"/>
<path d="M409.673 204.384C409.673 210.38 414.535 215.241 420.53 215.241C426.528 215.241 431.388 210.38 431.388 204.384C431.388 198.387 426.528 193.526 420.531 193.526C414.535 193.526 409.673 198.387 409.673 204.384Z" fill="white" stroke="#FF6C4A" stroke-width="4.22978"/>
<path d="M501.565 197.516H480.95L477.825 202.85H419.697L419.684 202.852V205.583L419.697 205.585H477.797L480.997 210.919H501.543L496.699 204.279L501.565 197.516Z" fill="#191C1D"/>
<path d="M501.566 210.919H481.021H501.544L496.7 204.279L496.745 204.218H496.785L496.724 204.279L501.566 210.919Z" fill="#423E9B"/>
<path d="M501.543 210.919H481.02L477.82 205.585H419.721L419.684 205.582V204.218H496.743L496.699 204.279L501.543 210.919Z" fill="#191C1D"/>
<path d="M324.618 277.082C324.618 277.082 324.922 270.774 321.411 266.093C317.899 261.405 323.551 254.909 327.554 258.846C331.553 262.783 339.002 262.976 339.002 262.976L324.618 277.082Z" fill="#191C1D"/>
<path d="M294.676 268.751C285.118 268.751 276.381 265.067 269.824 259.039H319.485C315.3 262.899 310.213 265.8 304.571 267.386C301.866 268.141 299.028 268.598 296.094 268.72C295.702 268.735 295.307 268.746 294.922 268.75C294.841 268.75 294.758 268.751 294.676 268.751Z" fill="#9AC1C4"/>
<path d="M319.485 259.039H269.824C267.831 257.206 266.038 255.155 264.486 252.927H324.8C323.257 255.155 321.473 257.205 319.485 259.039Z" fill="#2D4750"/>
<path d="M324.803 252.927H264.49C262.789 250.484 261.377 247.829 260.303 245.006H328.962C327.897 247.827 326.495 250.484 324.803 252.927Z" fill="#4EA4D5"/>
<path d="M331.071 236.215C330.279 236.047 329.46 235.959 328.618 235.959H258.129C258.001 234.778 257.929 233.58 257.917 232.368C257.895 228.949 258.333 225.638 259.174 222.495C259.486 221.335 259.854 220.198 260.274 219.086H324.014V215.622H312.286L316.334 211.225H324.014V210.18C328.522 216.213 331.225 223.67 331.306 231.746C331.315 233.258 331.236 234.75 331.071 236.215ZM308.272 215.622H261.794C262.561 214.092 263.432 212.624 264.4 211.225H298.29C301.99 211.8 305.416 213.358 308.272 215.622ZM322.048 207.767H317.924C316.004 206.116 313.912 204.661 311.679 203.431H317.489C319.128 204.745 320.654 206.197 322.048 207.767ZM294.223 207.767H267.106C268.494 206.197 270.015 204.745 271.651 203.431H294.044L294.223 207.767ZM312.335 199.967H302.826C300.004 199.271 297.055 198.902 294.02 198.902C293.965 198.902 293.911 198.902 293.856 198.902L293.901 199.967H276.798C279.365 198.539 282.12 197.41 285.02 196.627C286.873 196.13 288.786 195.772 290.747 195.566H298.438C303.43 196.095 308.132 197.632 312.335 199.967Z" fill="#D3EFF1"/>
<path d="M328.959 245.006H260.3C259.211 242.143 258.469 239.11 258.129 235.959H328.618C329.46 235.959 330.279 236.047 331.071 236.215C330.864 238.049 330.525 239.839 330.061 241.58C329.749 242.746 329.38 243.888 328.959 245.006ZM294.421 240.052V240.632H321.308V240.052H294.421Z" fill="#9AC1C4"/>
<path d="M298.439 195.566H290.748C291.539 195.483 292.337 195.425 293.143 195.391C293.531 195.375 293.924 195.365 294.306 195.362C294.387 195.362 294.47 195.362 294.551 195.362C295.864 195.362 297.16 195.431 298.439 195.566Z" fill="#9AC1C4"/>
<path d="M317.49 203.431H311.68C308.925 201.913 305.954 200.739 302.827 199.967H312.336C314.153 200.978 315.876 202.138 317.49 203.431ZM294.045 203.431H271.652C273.262 202.138 274.983 200.978 276.799 199.967H293.902L294.045 203.431Z" fill="#9AC1C4"/>
<path d="M324.015 211.225H316.335L318.801 208.546C318.513 208.281 318.221 208.022 317.925 207.767H322.049C322.737 208.543 323.393 209.348 324.015 210.18V211.225ZM298.29 211.225H264.4C265.234 210.018 266.138 208.864 267.106 207.767H294.224L294.357 210.991C294.604 210.982 294.851 210.978 295.096 210.978C296.178 210.978 297.246 211.062 298.29 211.225Z" fill="#9AC1C4"/>
<path d="M324.015 219.086H260.275C260.723 217.902 261.232 216.745 261.795 215.622H308.273C309.045 216.234 309.776 216.898 310.459 217.608L312.287 215.622H324.015V219.086Z" fill="#9AC1C4"/>
<path d="M294.422 240.632H321.308V240.052H294.422V240.632Z" fill="#2A95FF"/>
<path d="M312.287 215.623H308.273C305.417 213.358 301.991 211.801 298.291 211.225H316.335L312.287 215.623ZM317.925 207.768H294.224L294.045 203.431H311.68C313.913 204.661 316.005 206.117 317.925 207.768ZM302.827 199.968H293.902L293.857 198.903C293.912 198.902 293.966 198.902 294.021 198.902C297.056 198.902 300.005 199.271 302.827 199.968Z" fill="#F9FDFD"/>
<path d="M311.679 203.431H294.043L293.9 199.967H302.826C305.953 200.739 308.924 201.913 311.679 203.431Z" fill="#EEF6F5"/>
<path d="M316.333 211.225H298.289C297.244 211.062 296.177 210.978 295.095 210.978C294.85 210.978 294.603 210.982 294.356 210.991L294.223 207.767H317.923C318.22 208.022 318.511 208.281 318.8 208.546L316.333 211.225Z" fill="#EEF6F5"/>
<path d="M310.46 217.608C309.776 216.898 309.046 216.234 308.273 215.622H312.288L310.46 217.608Z" fill="#EEF6F5"/>
<path d="M331.307 231.746C331.438 251.658 315.97 267.898 296.096 268.719C295.703 268.735 295.308 268.746 294.923 268.75C274.724 268.883 258.123 252.556 257.918 232.367C257.789 212.455 273.262 196.212 293.143 195.391C293.531 195.374 293.924 195.365 294.306 195.362C314.506 195.229 331.105 211.556 331.307 231.746ZM294.219 184.375C293.682 184.379 293.152 184.392 292.619 184.414C280.223 184.927 268.675 190.162 260.101 199.156C251.505 208.169 246.83 219.994 246.931 232.454C247.151 258.739 268.72 279.95 295.009 279.738C295.545 279.733 296.075 279.72 296.605 279.698C309.001 279.185 320.551 273.951 329.126 264.959C337.722 255.944 342.399 244.119 342.296 231.661C342.075 205.371 320.509 184.159 294.219 184.375Z" fill="#F8B30B"/>
<path d="M294.619 279.74C268.509 279.738 247.151 258.607 246.932 232.454C246.93 232.332 246.93 232.21 246.93 232.089C246.922 219.765 251.59 208.082 260.101 199.157C268.675 190.163 280.224 184.927 292.62 184.415C293.152 184.392 293.683 184.38 294.219 184.375C294.353 184.374 294.485 184.373 294.618 184.373C320.726 184.373 342.078 205.504 342.297 231.661C342.298 231.807 342.299 231.953 342.299 232.099C342.297 234.234 342.155 236.349 341.877 238.433C341.579 240.664 341.127 242.859 340.524 245.006C339.757 247.733 338.749 250.382 337.508 252.927C336.477 255.042 335.285 257.085 333.939 259.039C333.344 259.903 332.719 260.751 332.063 261.579C331.143 262.744 330.163 263.872 329.126 264.959C327.364 266.807 325.477 268.495 323.482 270.018C319.345 273.174 314.747 275.613 309.855 277.257C305.624 278.68 301.173 279.509 296.606 279.699C296.075 279.72 295.546 279.734 295.01 279.738C294.879 279.74 294.751 279.74 294.619 279.74ZM294.543 190.758C294.453 190.758 294.359 190.758 294.269 190.759C293.838 190.763 293.396 190.775 292.959 190.792C270.584 191.717 253.17 209.997 253.317 232.407C253.545 255.037 272.077 273.353 294.687 273.353C294.778 273.353 294.871 273.353 294.963 273.353C295.397 273.349 295.841 273.337 296.282 273.319C318.651 272.395 336.058 254.116 335.911 231.707C335.685 209.074 317.153 190.758 294.543 190.758Z" fill="#F7960F"/>
<rect x="324.811" y="277.055" width="19.7834" height="80.8926" transform="rotate(-45 324.811 277.055)" fill="#FF6C4A"/>
<path d="M23.4076 184.583C59.6689 180.862 130.509 192.728 123.777 269.963C49.535 287.6 22.6115 219.303 23.4076 184.583Z" stroke="#F2C917" stroke-width="2"/>
<path d="M552.899 139.313C559.403 115.037 584.44 72.3091 632.548 95.6072C625.685 147.77 575.073 148.349 552.899 139.313Z" stroke="#F2C917" stroke-width="2"/>
<path d="M180.523 46.6981C173.316 59.1804 153.105 79.1332 129.913 59.0864C141.458 31.2094 169.581 38.4009 180.523 46.6981Z" stroke="#F2C917" stroke-width="2"/>
<path d="M614.661 242.186C597.642 252.012 560.176 261.793 546.458 222.313C579.093 197.267 607.397 224.93 614.661 242.186Z" stroke="#F2C917" stroke-width="2"/>
</svg>
