<svg width="80" height="25" viewBox="0 0 80 25" fill="none" xmlns="http://www.w3.org/2000/svg">
<g clip-path="url(#clip0_223_663)">
<path d="M59.491 23.7817L66.1626 16.3925L59.491 9.0022H66.5303L69.8346 12.5919L73.0165 9.0022H79.8103L73.1703 16.362L79.9014 23.7817H72.8332L69.5588 20.1625L66.3153 23.7817H59.491Z" fill="#FF6600"/>
<path d="M59.491 5.68914H51.9348V9.00217H59.491V13.9952H51.9348V18.5782H59.491V23.7817H46.3811V0.5H59.491V5.68914Z" fill="#FF6600"/>
<path d="M40.8508 0.5V10.028H40.7899C39.5656 8.6408 38.0358 8.15874 36.2609 8.15874C32.625 8.15874 29.8863 10.5951 28.9249 13.8162C27.8285 10.267 25.001 8.09223 20.8084 8.09223C17.4035 8.09223 14.7148 9.59874 13.3117 12.0536V9.00251H6.27374V5.68983H13.9541V0.5H0V23.7821H6.27374V13.9952H12.527C12.3405 14.7142 12.241 15.4839 12.241 16.2961C12.241 21.1527 16.0049 24.5603 20.8084 24.5603C24.8477 24.5603 27.5096 22.6911 28.9176 19.2831H23.5412C22.8139 20.3069 22.2623 20.611 20.8084 20.611C19.1224 20.611 17.6689 19.161 17.6689 17.4423H28.6164C29.0911 21.2998 32.1395 24.6265 36.3228 24.6265C38.1273 24.6265 39.7795 23.7515 40.7899 22.2742H40.8508V23.7814H46.3812V0.5H40.8508ZM17.8435 14.0648C18.1923 12.5861 19.3558 11.6195 20.8084 11.6195C22.4073 11.6195 23.5117 12.5562 23.8021 14.0648C23.9245 14.0648 17.8435 14.0648 17.8435 14.0648ZM37.4946 20.2369C35.456 20.2369 34.1892 18.3646 34.1892 16.4096C34.1892 14.3199 35.2911 12.3104 37.4946 12.3104C39.7795 12.3104 40.6897 14.3199 40.6897 16.4096C40.6894 18.3913 39.7249 20.2369 37.4946 20.2369Z" fill="#652C8F"/>
</g>
<defs>
<clipPath id="clip0_223_663">
<rect width="80" height="24" fill="white" transform="translate(0 0.5)"/>
</clipPath>
</defs>
</svg>
