<svg width="122" height="27" viewBox="0 0 122 27" fill="none" xmlns="http://www.w3.org/2000/svg">
<g clip-path="url(#clip0_223_654)">
<path d="M43.0636 15.4753L42.3365 17.5311H42.2759C42.1547 17.0675 41.9325 16.3621 41.5689 15.5156L37.6706 5.74042H33.853V21.3203H36.3779V11.7063C36.3779 11.1017 36.3779 10.4164 36.3577 9.56987C36.3375 9.14662 36.2971 8.82414 36.2769 8.58228H36.3375C36.4587 9.18693 36.6 9.63034 36.701 9.91251L41.3871 21.28H43.1646L47.8103 9.81173C47.9113 9.54972 48.0123 9.02569 48.1133 8.58228H48.1739C48.1133 9.73111 48.0729 10.759 48.0527 11.3838V21.2598H50.7391V5.70011H47.063L43.0636 15.4753V15.4753ZM53.2841 10.0939H55.91V21.2598H53.2841V10.0939ZM54.6173 5.37763C54.1729 5.37763 53.8093 5.53887 53.5063 5.82104C53.2034 6.10321 53.0418 6.466 53.0418 6.90941C53.0418 7.33266 53.2034 7.69546 53.5063 7.97763C53.8093 8.2598 54.1729 8.40088 54.6173 8.40088C55.0616 8.40088 55.4454 8.23964 55.7282 7.97763C56.0312 7.69546 56.1928 7.33266 56.1928 6.90941C56.1928 6.48615 56.0312 6.12336 55.7282 5.82104C55.4656 5.53887 55.0818 5.37763 54.6173 5.37763V5.37763ZM65.2216 9.99313C64.7368 9.89235 64.2318 9.83189 63.7471 9.83189C62.5553 9.83189 61.4646 10.0939 60.5557 10.6179C59.6467 11.142 58.9196 11.8675 58.455 12.7745C57.9702 13.7017 57.7279 14.7699 57.7279 15.9993C57.7279 17.0675 57.9702 18.0148 58.4348 18.8815C58.8994 19.728 59.5457 20.4133 60.4143 20.8769C61.2424 21.3404 62.212 21.5823 63.3027 21.5823C64.555 21.5823 65.6255 21.3203 66.4739 20.8365L66.4941 20.8164V18.3978L66.3931 18.4784C66.0093 18.7606 65.5649 19.0024 65.1206 19.1435C64.656 19.3048 64.2318 19.3854 63.8683 19.3854C62.8179 19.3854 61.9898 19.0831 61.404 18.4179C60.7981 17.773 60.4951 16.8862 60.4951 15.7776C60.4951 14.6288 60.7981 13.7218 61.4242 13.0567C62.0504 12.3916 62.8785 12.0489 63.8885 12.0489C64.7368 12.0489 65.6053 12.3311 66.3931 12.8955L66.4941 12.9761V10.4164L66.4739 10.3962C66.1305 10.2551 65.7467 10.0939 65.2216 9.99313V9.99313ZM73.8868 9.91251C73.2404 9.91251 72.6345 10.1141 72.1093 10.5373C71.6649 10.9001 71.362 11.4241 71.0994 12.0489H71.0792V10.0939H68.4534V21.2598H71.0792V15.5559C71.0792 14.5885 71.2812 13.7823 71.7255 13.1978C72.1699 12.5931 72.7355 12.2908 73.4222 12.2908C73.6646 12.2908 73.907 12.3513 74.21 12.3916C74.4928 12.4722 74.6947 12.5528 74.8361 12.6536L74.9371 12.7342V10.1141L74.8765 10.0939C74.6947 9.97297 74.3312 9.91251 73.8868 9.91251V9.91251ZM81.0371 9.85205C79.199 9.85205 77.7245 10.3962 76.6944 11.4644C75.6441 12.5327 75.1391 14.004 75.1391 15.8582C75.1391 17.5916 75.6643 19.0024 76.6742 20.0303C77.6841 21.0381 79.0577 21.5621 80.7745 21.5621C82.5722 21.5621 84.0063 21.0179 85.0365 19.9296C86.0868 18.8412 86.5918 17.39 86.5918 15.5962C86.5918 13.8226 86.107 12.4117 85.1173 11.3838C84.1679 10.3559 82.7742 9.85205 81.0371 9.85205V9.85205ZM83.1378 18.4381C82.653 19.0629 81.8855 19.3652 80.9361 19.3652C79.9868 19.3652 79.2192 19.0629 78.6739 18.3978C78.1285 17.773 77.8659 16.866 77.8659 15.7172C77.8659 14.528 78.1487 13.621 78.6739 12.9761C79.2192 12.3311 79.9666 12.0086 80.9159 12.0086C81.8451 12.0086 82.5722 12.311 83.0974 12.9358C83.6226 13.5606 83.9053 14.4675 83.9053 15.6567C83.8649 16.866 83.6428 17.8133 83.1378 18.4381V18.4381ZM92.4494 14.7296C91.6212 14.3869 91.0961 14.1249 90.8537 13.9032C90.6517 13.7017 90.5507 13.4195 90.5507 13.0567C90.5507 12.7544 90.6719 12.452 90.9749 12.2505C91.2779 12.0489 91.6212 11.9482 92.1262 11.9482C92.5706 11.9482 93.0351 12.0288 93.4795 12.1497C93.9239 12.2706 94.3279 12.452 94.651 12.6939L94.752 12.7745V10.3156L94.6914 10.2955C94.3884 10.1745 93.9845 10.0536 93.4997 9.95282C93.0149 9.8722 92.5706 9.83189 92.207 9.83189C90.9547 9.83189 89.9245 10.1342 89.1166 10.7993C88.3087 11.4241 87.9249 12.2706 87.9249 13.2582C87.9249 13.7823 88.0057 14.2458 88.1875 14.6288C88.3692 15.0117 88.6318 15.3745 88.9954 15.6769C89.359 15.959 89.8841 16.2815 90.6113 16.5838C91.2173 16.8458 91.6818 17.0474 91.9646 17.2086C92.2474 17.3699 92.4292 17.5513 92.5706 17.6924C92.6716 17.8536 92.7322 18.0551 92.7322 18.3172C92.7322 19.0629 92.1666 19.4257 91.0153 19.4257C90.5709 19.4257 90.1063 19.3451 89.561 19.1637C89.0156 18.9823 88.5106 18.7203 88.0865 18.4179L87.9855 18.3373V20.897L88.0461 20.9172C88.4298 21.0986 88.8944 21.2195 89.46 21.3606C90.0255 21.4613 90.5305 21.542 90.9749 21.542C92.3282 21.542 93.4391 21.2396 94.2269 20.5745C95.0348 19.9296 95.459 19.1032 95.459 18.035C95.459 17.2893 95.257 16.6241 94.8126 16.1203C94.2269 15.6365 93.4997 15.1327 92.4494 14.7296V14.7296ZM102.387 9.85205C100.549 9.85205 99.0745 10.3962 98.0444 11.4644C97.0143 12.5327 96.4891 14.004 96.4891 15.8582C96.4891 17.5916 97.0143 19.0024 98.0242 20.0303C99.0341 21.0381 100.408 21.5621 102.125 21.5621C103.922 21.5621 105.356 21.0179 106.386 19.9296C107.437 18.8412 107.942 17.39 107.942 15.5962C107.942 13.8226 107.457 12.4117 106.467 11.3838C105.518 10.3559 104.124 9.85205 102.387 9.85205V9.85205ZM104.468 18.4381C103.983 19.0629 103.215 19.3652 102.266 19.3652C101.296 19.3652 100.549 19.0629 100.004 18.3978C99.4583 17.773 99.1957 16.866 99.1957 15.7172C99.1957 14.528 99.4785 13.621 100.004 12.9761C100.549 12.3311 101.296 12.0086 102.246 12.0086C103.155 12.0086 103.902 12.311 104.427 12.9358C104.952 13.5606 105.235 14.4675 105.235 15.6567C105.235 16.866 104.973 17.8133 104.468 18.4381V18.4381ZM121.98 12.2505V10.0939H119.334V6.78848L119.253 6.80863L116.748 7.55437L116.688 7.57453V10.0939H112.729V8.68305C112.729 8.03809 112.89 7.53422 113.173 7.21173C113.456 6.88925 113.88 6.72801 114.405 6.72801C114.769 6.72801 115.153 6.80863 115.577 6.99003L115.678 7.05049V4.77298L115.617 4.75282C115.254 4.63189 114.769 4.55127 114.143 4.55127C113.355 4.55127 112.668 4.73266 112.042 5.03499C111.416 5.37763 110.951 5.84119 110.608 6.466C110.265 7.07065 110.083 7.75592 110.083 8.54197V10.0939H108.245V12.2303H110.083V21.2598H112.729V12.2505H116.688V17.9947C116.688 20.3528 117.799 21.542 120.021 21.542C120.384 21.542 120.768 21.4815 121.131 21.421C121.515 21.3404 121.798 21.2396 121.96 21.159L121.98 21.1389V18.9823L121.879 19.0629C121.717 19.1637 121.576 19.2443 121.333 19.3048C121.131 19.3652 120.95 19.3854 120.808 19.3854C120.283 19.3854 119.92 19.2644 119.657 18.9621C119.415 18.68 119.293 18.2164 119.293 17.5311V12.2505H121.98V12.2505Z" fill="#737373"/>
<path d="M0 0.5H12.3818V12.855H0V0.5Z" fill="#F25022"/>
<path d="M13.6743 0.5H26.0561V12.855H13.6743V0.5Z" fill="#7FBA00"/>
<path d="M0 14.145H12.3818V26.5001H0V14.145Z" fill="#00A4EF"/>
<path d="M13.6743 14.145H26.0561V26.5001H13.6743V14.145Z" fill="#FFB900"/>
</g>
<defs>
<clipPath id="clip0_223_654">
<rect width="122" height="26" fill="white" transform="translate(0 0.5)"/>
</clipPath>
</defs>
</svg>
