<svg width="231" height="229" viewBox="0 0 231 229" fill="none" xmlns="http://www.w3.org/2000/svg">
<path d="M163.777 122.473H145.387V187.263H163.777V122.473Z" fill="#FF6C4A"/>
<path d="M159.654 175.645C159.654 172.844 157.383 170.574 154.582 170.574C151.781 170.574 149.511 172.844 149.511 175.645C149.511 178.446 151.781 180.716 154.582 180.716C157.383 180.716 159.654 178.446 159.654 175.645Z" fill="white"/>
<path d="M158.168 175.645C158.168 173.665 156.563 172.059 154.582 172.059C152.602 172.059 150.997 173.665 150.997 175.645C150.997 177.625 152.602 179.23 154.582 179.23C156.563 179.23 158.168 177.625 158.168 175.645Z" fill="#1C1B3F"/>
<path d="M157.213 135.721H151.746V166.437H157.213V135.721Z" fill="white"/>
<path d="M175.074 187.263H201.087V148.094H175.074V187.263Z" fill="#FF6C4A"/>
<path d="M197.9 173.985C193.803 173.985 190.482 170.664 190.482 166.566C190.482 162.469 193.803 159.148 197.9 159.148C201.998 159.148 205.319 162.469 205.319 166.566C205.319 170.664 201.998 173.985 197.9 173.985ZM197.9 155.261C191.656 155.261 186.595 160.322 186.595 166.566C186.595 172.811 191.656 177.873 197.9 177.873C204.145 177.873 209.206 172.811 209.206 166.566C209.206 160.322 204.145 155.261 197.9 155.261Z" fill="#FF6C4A"/>
<path d="M175.074 187.263H201.087V181.76H175.074V187.263Z" fill="#BC1657"/>
<path d="M194.928 158.032C194.696 158.032 194.508 157.844 194.508 157.611V148.094C194.508 147.861 194.696 147.673 194.928 147.673C195.161 147.673 195.349 147.861 195.349 148.094V157.611C195.349 157.844 195.161 158.032 194.928 158.032Z" fill="white"/>
<path d="M194.929 168.103L189.684 162.857L194.929 157.611L200.175 162.857L194.929 168.103Z" fill="white"/>
<path d="M83.3682 184.546H125.39V156.601H83.3682V184.546Z" fill="#1C1B3F"/>
<path d="M83.3682 169.512H125.39V162.414H83.3682V169.512Z" fill="#14152E"/>
<path d="M183.6 59.7959V155.029C183.6 159.108 180.294 162.414 176.214 162.414H32.5404C28.4609 162.414 25.1553 159.108 25.1553 155.029V59.7959C25.1553 55.7164 28.4609 52.4103 32.5404 52.4103H176.214C180.294 52.4103 183.6 55.7164 183.6 59.7959Z" fill="#1C1B3F"/>
<path d="M183.599 59.7962V143.514H25.1553V59.7962C25.1553 59.6952 25.1553 59.5981 25.1637 59.5014C25.3151 55.5564 28.5619 52.4106 32.5404 52.4106H176.214C180.193 52.4106 183.44 55.5564 183.591 59.5014C183.599 59.5981 183.599 59.6952 183.599 59.7962Z" fill="#2A95FF"/>
<path d="M183.592 59.501H25.165C25.3164 55.5561 28.5632 52.4102 32.5418 52.4102H176.216C180.194 52.4102 183.441 55.5561 183.592 59.501Z" fill="#1C1B3F"/>
<path d="M106.054 55.9558C106.054 55.0306 105.304 54.2803 104.379 54.2803C103.453 54.2803 102.703 55.0306 102.703 55.9558C102.703 56.8815 103.453 57.6313 104.379 57.6313C105.304 57.6313 106.054 56.8815 106.054 55.9558Z" fill="white"/>
<path d="M138.351 187.5H70.4072V185.351C70.4072 182.438 72.7683 180.077 75.6811 180.077H133.077C135.989 180.077 138.351 182.438 138.351 185.351V187.5Z" fill="#1C1B3F"/>
<path d="M61.7531 174.504L58.4475 178.827H3.73182L0.75 174.504H61.7531Z" fill="white"/>
<path d="M89.0138 187.5H21.8792C20.6225 187.5 19.6035 186.481 19.6035 185.224C19.6035 183.968 20.6225 182.949 21.8792 182.949H89.0138C90.2709 182.949 91.2899 183.968 91.2899 185.224C91.2899 186.481 90.2709 187.5 89.0138 187.5Z" fill="#1C1B3F"/>
<path d="M210.571 63.4966H178.36C174.479 63.4966 171.334 60.3512 171.334 56.471V48.5248C171.334 44.6443 174.479 41.4989 178.36 41.4989H210.571C214.451 41.4989 217.597 44.6443 217.597 48.5248V56.471C217.597 60.3512 214.451 63.4966 210.571 63.4966Z" fill="#FF6C4A"/>
<path d="M211.98 59.5007V72.0781L200.454 60.5521" fill="#FF6C4A"/>
<path d="M186.587 51.9244C186.587 50.529 185.456 49.3976 184.061 49.3976C182.665 49.3976 181.534 50.529 181.534 51.9244C181.534 53.3198 182.665 54.4512 184.061 54.4512C185.456 54.4512 186.587 53.3198 186.587 51.9244Z" fill="white"/>
<path d="M196.699 51.9244C196.699 50.529 195.567 49.3976 194.172 49.3976C192.776 49.3976 191.646 50.529 191.646 51.9244C191.646 53.3198 192.776 54.4512 194.172 54.4512C195.567 54.4512 196.699 53.3198 196.699 51.9244Z" fill="white"/>
<path d="M206.809 51.9244C206.809 50.529 205.678 49.3976 204.283 49.3976C202.887 49.3976 201.756 50.529 201.756 51.9244C201.756 53.3198 202.887 54.4512 204.283 54.4512C205.678 54.4512 206.809 53.3198 206.809 51.9244Z" fill="white"/>
<path d="M220.264 156.059L196.896 130.056L205.433 122.385L228.8 148.387C230.919 150.745 230.725 154.373 228.367 156.491C226.01 158.61 222.382 158.416 220.264 156.059Z" fill="#1C1B3F"/>
<path d="M163.35 118.687C154.824 109.199 155.604 94.6005 165.091 86.0744C174.576 77.5512 189.177 78.3276 197.704 87.8151C206.227 97.3001 205.447 111.905 195.962 120.428C186.475 128.954 171.873 128.171 163.35 118.687ZM205.055 81.2093C192.88 67.6611 172.03 66.5513 158.485 78.7233C144.937 90.8983 143.821 111.748 155.996 125.296C168.171 138.844 189.021 139.954 202.569 127.779C216.113 115.607 217.23 94.7574 205.055 81.2093Z" fill="#FF6C4A"/>
<path d="M163.35 118.687C154.824 109.199 155.604 94.6004 165.091 86.0743C174.576 77.5511 189.177 78.3275 197.704 87.815C206.227 97.3001 205.447 111.905 195.962 120.428C186.475 128.954 171.873 128.171 163.35 118.687ZM201.861 84.0796C191.271 72.2957 173.133 71.3272 161.352 81.9141C149.568 92.5031 148.6 110.642 159.19 122.426C169.779 134.209 187.915 135.174 199.698 124.585C211.479 113.998 212.45 95.863 201.861 84.0796Z" fill="#1C1B3F"/>
<path d="M183.601 126.141H183.601V80.3645H183.601V126.141Z" fill="#4E298C"/>
<path opacity="0.5" d="M180.535 126.344C174.209 126.344 167.911 123.761 163.35 118.687C159.387 114.277 157.435 108.762 157.433 103.266C157.432 100.137 158.063 97.0144 159.315 94.1049L159.316 94.1032C159.321 94.0931 159.325 94.083 159.329 94.0729C159.33 94.0708 159.331 94.0691 159.332 94.067C159.336 94.0586 159.339 94.0498 159.343 94.041C159.346 94.0342 159.348 94.0292 159.351 94.0225C159.353 94.0178 159.355 94.0141 159.357 94.0094C159.361 93.9993 159.366 93.9892 159.37 93.9791L159.371 93.9775C160.651 91.0528 162.561 88.3486 165.09 86.0759C169.501 82.1116 175.02 80.1589 180.517 80.1589C181.549 80.1589 182.579 80.2275 183.601 80.3646V126.141C182.583 126.277 181.559 126.344 180.535 126.344Z" fill="white"/>
<path d="M180.533 126.345C174.208 126.345 167.91 123.763 163.35 118.688C157.13 111.767 155.863 102.125 159.316 94.105C158.064 97.0145 157.432 100.137 157.433 103.266C157.435 108.762 159.387 114.277 163.351 118.687C167.911 123.761 174.21 126.344 180.536 126.344C182.919 126.344 185.307 125.977 187.605 125.239C185.305 125.978 182.917 126.345 180.533 126.345ZM159.317 94.1033C159.321 94.0933 159.325 94.0831 159.33 94.0731C159.325 94.0831 159.321 94.0933 159.317 94.1033ZM159.332 94.0672C159.336 94.0588 159.34 94.0499 159.344 94.0411C159.34 94.0499 159.336 94.0588 159.332 94.0672ZM159.352 94.0226C159.353 94.0188 159.356 94.0133 159.357 94.0096C159.356 94.0142 159.354 94.018 159.352 94.0226ZM159.371 93.9793C159.371 93.9784 159.371 93.978 159.372 93.9776L159.371 93.9793Z" fill="#4E298C"/>
<path opacity="0.5" d="M197.797 105.466C194.938 108.035 190.536 107.8 187.966 104.941C185.397 102.081 185.631 97.6796 188.491 95.1096C191.351 92.5395 195.753 92.775 198.322 95.6344C200.892 98.4943 200.657 102.896 197.797 105.466Z" fill="#2A95FF"/>
<path opacity="0.5" d="M193.256 116.847C192.165 117.828 190.486 117.738 189.506 116.648C188.526 115.557 188.616 113.879 189.707 112.898C190.797 111.918 192.476 112.008 193.456 113.098C194.436 114.189 194.346 115.867 193.256 116.847Z" fill="#2A95FF"/>
<path d="M41.6758 135.056H134.09V69.6421H41.6758V135.056Z" fill="white"/>
<path d="M101.603 77.5608V128.68C101.603 129.75 100.728 130.62 99.6476 130.62H48.2376C47.1567 130.62 46.2861 129.75 46.2861 128.68V77.5608C46.2861 76.4903 47.1567 75.6201 48.2376 75.6201H99.6476C100.728 75.6201 101.603 76.4903 101.603 77.5608Z" fill="#D4DDF3"/>
<path d="M134.09 66.6868H41.6758V69.6421H134.09V66.6868Z" fill="#D4DDF3"/>
<path d="M132.303 68.1643C132.303 67.7298 131.951 67.3774 131.516 67.3774C131.082 67.3774 130.729 67.7298 130.729 68.1643C130.729 68.5992 131.082 68.9512 131.516 68.9512C131.951 68.9512 132.303 68.5992 132.303 68.1643Z" fill="#FF6C4A"/>
<path d="M129.443 68.1643C129.443 67.7298 129.091 67.3774 128.656 67.3774C128.222 67.3774 127.869 67.7298 127.869 68.1643C127.869 68.5992 128.222 68.9512 128.656 68.9512C129.091 68.9512 129.443 68.5992 129.443 68.1643Z" fill="#1C1B3F"/>
<path d="M130.731 89.7245C130.731 90.8692 129.802 91.7979 128.657 91.7979C127.512 91.7979 126.584 90.8692 126.584 89.7245C126.584 88.5793 127.512 87.6506 128.657 87.6506C129.802 87.6506 130.731 88.5793 130.731 89.7245Z" fill="#FFCB5C"/>
<path d="M108.526 79.2718C108.526 80.417 107.598 81.3452 106.452 81.3452C105.307 81.3452 104.379 80.417 104.379 79.2718C104.379 78.1266 105.307 77.1984 106.452 77.1984C107.598 77.1984 108.526 78.1266 108.526 79.2718Z" fill="#FF6C4A"/>
<path d="M124.468 79.1606H111.298C111.065 79.1606 110.877 78.9722 110.877 78.7401C110.877 78.5079 111.065 78.3195 111.298 78.3195H124.468C124.701 78.3195 124.889 78.5079 124.889 78.7401C124.889 78.9722 124.701 79.1606 124.468 79.1606Z" fill="#1C1B3F"/>
<path d="M124.469 90.145H115.87C115.637 90.145 115.449 89.9566 115.449 89.7245C115.449 89.4919 115.637 89.3039 115.87 89.3039H124.469C124.701 89.3039 124.889 89.4919 124.889 89.7245C124.889 89.9566 124.701 90.145 124.469 90.145Z" fill="#1C1B3F"/>
<path d="M130.731 112.474C130.731 113.619 129.802 114.547 128.657 114.547C127.512 114.547 126.584 113.619 126.584 112.474C126.584 111.329 127.512 110.401 128.657 110.401C129.802 110.401 130.731 111.329 130.731 112.474Z" fill="#FFCB5C"/>
<path d="M124.468 112.895H118.821C118.588 112.895 118.4 112.706 118.4 112.474C118.4 112.242 118.588 112.053 118.821 112.053H124.468C124.701 112.053 124.889 112.242 124.889 112.474C124.889 112.706 124.701 112.895 124.468 112.895Z" fill="#1C1B3F"/>
<path d="M121.649 83.0791H111.298C111.065 83.0791 110.877 82.8911 110.877 82.6585C110.877 82.4264 111.065 82.238 111.298 82.238H121.649C121.881 82.238 122.069 82.4264 122.069 82.6585C122.069 82.8911 121.881 83.0791 121.649 83.0791Z" fill="#1C1B3F"/>
<path d="M108.526 97.306C108.526 98.4512 107.598 99.3794 106.452 99.3794C105.307 99.3794 104.379 98.4512 104.379 97.306C104.379 96.1608 105.307 95.2326 106.452 95.2326C107.598 95.2326 108.526 96.1608 108.526 97.306Z" fill="#FF6C4A"/>
<path d="M120.169 97.1938H111.298C111.065 97.1938 110.877 97.0059 110.877 96.7733C110.877 96.5411 111.065 96.3527 111.298 96.3527H120.169C120.401 96.3527 120.589 96.5411 120.589 96.7733C120.589 97.0059 120.401 97.1938 120.169 97.1938Z" fill="#1C1B3F"/>
<path d="M123.124 105.583H111.298C111.065 105.583 110.877 105.394 110.877 105.162C110.877 104.93 111.065 104.741 111.298 104.741H123.124C123.357 104.741 123.545 104.93 123.545 105.162C123.545 105.394 123.357 105.583 123.124 105.583Z" fill="#1C1B3F"/>
<path d="M124.468 101.113H111.298C111.065 101.113 110.877 100.924 110.877 100.692C110.877 100.46 111.065 100.272 111.298 100.272H124.468C124.701 100.272 124.889 100.46 124.889 100.692C124.889 100.924 124.701 101.113 124.468 101.113Z" fill="#1C1B3F"/>
<path d="M126.112 124.871C124.185 124.871 122.623 126.433 122.623 128.36C122.623 130.287 124.185 131.849 126.112 131.849C128.039 131.849 129.601 130.287 129.601 128.36C129.601 126.433 128.039 124.871 126.112 124.871Z" fill="#FF6C4A"/>
<path d="M125.698 127.544L125.127 128.115L124.339 126.689L124.591 126.436C124.823 126.204 125.2 126.204 125.432 126.436L125.698 126.702C125.931 126.935 125.931 127.312 125.698 127.544Z" fill="white"/>
<path d="M127.914 129.758L127.662 130.011L126.235 129.223L126.806 128.651C127.039 128.418 127.415 128.418 127.648 128.651L127.914 128.917C128.147 129.149 128.147 129.526 127.914 129.758Z" fill="white"/>
<path d="M127.661 130.011L126.936 129.545C126.08 128.996 125.353 128.269 124.804 127.414L124.339 126.689C124.108 126.919 124.07 127.278 124.245 127.552L124.41 127.808C124.959 128.663 125.686 129.39 126.541 129.939L126.797 130.104C127.072 130.279 127.43 130.241 127.661 130.011Z" fill="white"/>
<mask id="mask0_551_1657" style="mask-type:alpha" maskUnits="userSpaceOnUse" x="44" y="75" width="56" height="56">
<rect x="44.9492" y="75.6206" width="54.788" height="54.788" fill="#C4C4C4"/>
</mask>
<g mask="url(#mask0_551_1657)">
<path d="M85.6904 120.02L85.4839 119.982C85.495 119.926 86.5276 114.349 85.0625 111.187L85.2523 111.102C86.7453 114.323 85.7016 119.963 85.6904 120.02Z" fill="#FFA500"/>
<path d="M77.5154 103.764C77.5154 103.764 88.8261 106.947 89.8782 110.406C90.9303 113.866 93.562 127.298 93.2103 132.833C92.8615 138.368 87.3638 154.709 87.3638 154.709C87.3638 154.709 83.5406 152.025 83.5406 151.54C83.5406 151.056 87.3499 134.609 87.2103 132.741C87.0708 130.873 85.7647 122.169 85.7647 122.169C85.7647 122.169 84.0931 140.536 84.0931 143.373C84.0931 146.21 83.3731 148.133 83.3731 148.133C83.3731 148.133 77.8336 150.206 68.7554 149.739C68.7554 149.739 56.6187 149.465 59.0857 145.12C60.9499 141.835 59.2615 123.031 58.9796 122.893C58.7006 122.754 55.6587 133.319 56.1499 134.517C56.641 135.715 60.2745 151.671 60.2745 151.671C60.2745 151.671 59.4624 151.831 56.2503 154.327C56.2503 154.327 49.0897 135.762 49.0202 134.586C48.9496 133.41 54.5257 109.23 57.2606 108.192C59.9982 107.154 71.1499 103.764 71.1499 103.764H77.5154Z" fill="#FFC800"/>
<path d="M85.6499 118.9C85.6415 118.857 85.0387 114.535 83.7188 112.916L83.8806 112.787C85.2397 114.45 85.8313 118.693 85.8564 118.873L85.6499 118.9Z" fill="#FFA500"/>
<path d="M74.6275 83.3948C74.6275 83.3948 80.5689 84.3183 79.6647 93.4913C78.7605 102.664 73.514 101.912 73.1652 101.902C72.8135 101.894 67.8991 102.07 67.514 90.8703C67.514 90.8703 67.3466 82.5889 74.6275 83.3948Z" fill="#FFA18B"/>
<path d="M77.4017 99.2006C77.4017 99.2006 77.2371 102.973 77.6082 103.79C77.9794 104.607 72.705 107.231 69.4873 104.307C69.4873 104.307 70.2631 100.207 70.0483 98.7535C69.8306 97.3001 77.4017 99.2006 77.4017 99.2006Z" fill="#FFA18B"/>
<path d="M79.7575 90.9006C79.7575 90.9006 80.4078 90.2144 80.6478 90.9087C80.885 91.603 79.7603 94.699 79.7185 94.8441C79.7185 94.8441 79.6013 95.1134 79.445 94.9653C79.2887 94.8168 79.7575 90.9006 79.7575 90.9006Z" fill="#FFA18B"/>
<path d="M67.6738 90.7839C67.6738 90.7839 67.0375 90.0856 66.7864 90.7752C66.5324 91.4648 67.5901 94.5814 67.6375 94.7274C67.6375 94.7274 67.7492 94.9989 67.9082 94.8538C68.0673 94.7084 67.6738 90.7839 67.6738 90.7839Z" fill="#FFA18B"/>
<path d="M79.753 92.3066L78.9018 93.4287C78.9018 93.4287 78.9269 90.9687 78.7902 90.5831C78.6535 90.1974 78.4442 89.0192 78.3297 88.7412C78.2153 88.4633 73.2256 87.0838 68.819 89.1439C68.819 89.1439 69.0116 90.9129 68.5902 91.0703C68.1688 91.2277 68.3753 93.9512 68.3753 93.9512L67.6749 93.1726C67.6749 93.1726 66.6032 86.1157 66.8683 85.3798C67.1335 84.6442 67.9763 80.2221 77.0181 82.8473C77.0181 82.8473 79.8367 82.2584 80.4032 84.1781C80.9697 86.0976 79.753 92.3066 79.753 92.3066Z" fill="#3A3F47"/>
<path d="M73.5062 101.996C73.0317 101.996 72.6131 101.918 72.2559 101.809C71.0559 101.441 70.3443 100.677 70.3164 100.644L70.4197 100.552C70.4252 100.559 71.1369 101.324 72.3034 101.68C73.8439 102.149 75.482 101.695 77.0392 100.367L77.1313 100.471C75.7583 101.642 74.5108 101.996 73.5062 101.996Z" fill="#633029"/>
<path d="M77.6085 103.79C77.6085 103.79 78.9508 104.073 73.3387 109.377C73.3387 109.377 69.3564 105.035 69.4875 104.307C69.6159 103.58 77.6085 103.79 77.6085 103.79Z" fill="#FFA18B"/>
<path d="M73.3379 109.377L74.87 111.96L79.4105 104.352L77.443 102.999L73.3379 109.377Z" fill="#FFA500"/>
<path d="M73.3379 109.377L69.6206 103.545L67.5137 104.88L71.2895 111.96L73.3379 109.377Z" fill="#FFA500"/>
<path d="M71.4564 149.693L71.2471 149.681C71.2582 149.505 72.3187 132.001 71.9754 125.548C71.6294 119.077 73.2173 111.203 73.234 111.124L73.4378 111.165C73.4238 111.243 71.8387 119.093 72.182 125.537C72.528 132.002 71.4675 149.517 71.4564 149.693Z" fill="#FFA500"/>
</g>
<path d="M71.7598 98.5767L75.4876 97.5609C75.4876 97.5609 75.312 98.847 74.1278 99.3166C72.9439 99.7859 71.7598 98.5767 71.7598 98.5767Z" fill="white"/>
</svg>
