<svg width="333" height="230" viewBox="0 0 333 230" fill="none" xmlns="http://www.w3.org/2000/svg">
<path d="M269.018 80.4948L303.986 116.171L306.662 113.374L307.936 121.369C308.47 123.431 307.923 125.713 306.293 127.311L222.144 209.79C219.718 212.168 215.824 212.129 213.446 209.703L176.084 171.584C175.381 170.867 174.895 170.02 174.614 169.124L174.613 169.125L174.612 169.119C174.445 168.583 174.354 168.031 174.336 167.475L173.02 159.639L177.351 161.73L260.32 80.4079C262.746 78.0299 266.64 78.069 269.018 80.4948Z" fill="#394AA6"/>
<path d="M174.741 163.287L212.103 201.405C214.481 203.831 218.374 203.87 220.8 201.493L304.95 119.013C307.375 116.635 307.415 112.742 305.037 110.315L267.674 72.197C265.297 69.7708 261.403 69.7321 258.977 72.1094L174.828 154.589C172.402 156.967 172.362 160.861 174.741 163.287Z" fill="#2A95FF"/>
<path d="M184.317 151.261L223.919 191.553L297.876 119.064L258.274 78.7716L184.317 151.261Z" fill="white"/>
<path d="M195.186 173.408C193.548 175.013 193.521 177.644 195.127 179.282C196.733 180.92 199.363 180.947 201.002 179.341C202.64 177.735 202.666 175.105 201.061 173.467C199.455 171.828 196.824 171.802 195.186 173.408Z" stroke="#BDC5E8" stroke-width="1.58065" stroke-miterlimit="10"/>
<path d="M276.975 91.0555L282.985 97.1877C283.389 97.5998 284.05 97.6061 284.462 97.2025C284.874 96.7988 284.88 96.1376 284.477 95.7257L278.466 89.5933C278.062 89.1816 277.401 89.1747 276.99 89.5784C276.578 89.9824 276.571 90.6434 276.975 91.0555Z" stroke="#BDC5E8" stroke-width="1.58065" stroke-miterlimit="10"/>
<path d="M286.808 101.089L286.882 101.163C287.285 101.575 287.946 101.582 288.359 101.178C288.77 100.774 288.777 100.113 288.373 99.7016L288.3 99.6262C287.896 99.2146 287.235 99.2076 286.823 99.6116C286.411 100.015 286.404 100.677 286.808 101.089Z" fill="#C6DAE5"/>
<path d="M270.09 90.7923L219.452 187.006L215.547 183.033L266.65 87.2921L270.09 90.7923Z" fill="#ACB9E4"/>
<path d="M209.197 176.573L260.168 80.6962L258.276 78.7714L226.445 109.97L196.974 164.136L209.197 176.573Z" fill="#ACB9E4"/>
<path d="M64.5975 83.8234L29.6291 119.5L26.9535 116.703L25.6796 124.698C25.1449 126.76 25.6923 129.042 27.3222 130.64L111.471 213.119C113.897 215.496 117.791 215.458 120.169 213.032L157.531 174.913C158.234 174.196 158.72 173.349 159.002 172.453L159.002 172.453L159.003 172.448C159.171 171.912 159.261 171.36 159.279 170.804L160.595 162.968L156.264 165.058L73.2952 83.7365C70.869 81.3585 66.9748 81.3976 64.5975 83.8234Z" fill="#394AA6"/>
<path d="M158.874 166.615L121.512 204.734C119.135 207.159 115.241 207.199 112.815 204.821L28.6656 122.342C26.24 119.964 26.2007 116.07 28.5787 113.644L65.9408 75.5256C68.3187 73.0995 72.2122 73.0607 74.6381 75.438L158.787 157.918C161.213 160.295 161.253 164.189 158.874 166.615Z" fill="#2A95FF"/>
<path d="M138.429 176.736C140.068 178.342 140.094 180.972 138.488 182.611C136.882 184.249 134.252 184.275 132.614 182.67C130.975 181.064 130.949 178.434 132.555 176.795C134.16 175.157 136.791 175.131 138.429 176.736Z" stroke="#BDC5E8" stroke-width="1.58065" stroke-miterlimit="10"/>
<path d="M56.6405 94.3841L50.6303 100.516C50.2263 100.928 49.5651 100.935 49.1528 100.531C48.7411 100.127 48.7348 99.4662 49.1381 99.0543L55.1491 92.9219C55.5529 92.5102 56.2138 92.5033 56.6255 92.907C57.0376 93.311 57.0445 93.972 56.6405 94.3841Z" stroke="#BDC5E8" stroke-width="1.58065" stroke-miterlimit="10"/>
<path d="M46.8075 104.417L46.7335 104.492C46.3302 104.904 45.6687 104.911 45.2566 104.507C44.845 104.103 44.838 103.442 45.2418 103.03L45.3156 102.955C45.7194 102.543 46.3803 102.536 46.7924 102.94C47.2041 103.344 47.2108 104.005 46.8075 104.417Z" fill="#C6DAE5"/>
<path d="M63.5248 94.1209L114.164 190.335L118.069 186.362L66.9653 90.6207L63.5248 94.1209Z" fill="#ACB9E4"/>
<path d="M124.418 179.901L73.4474 84.0248L75.3396 82.1L107.17 113.298L136.641 167.465L124.418 179.901Z" fill="#ACB9E4"/>
<path d="M149.296 154.589L109.695 194.882L35.7373 122.392L75.3396 82.1002L149.296 154.589Z" fill="white"/>
<mask id="mask0_914_927" style="mask-type:alpha" maskUnits="userSpaceOnUse" x="35" y="82" width="115" height="113">
<path d="M149.142 154.589L109.54 194.882L35.583 122.393L75.1853 82.1004L149.142 154.589Z" fill="white"/>
</mask>
<g mask="url(#mask0_914_927)">
<path d="M108.434 123.871C108.434 123.871 120.484 169.418 125.077 179.948C129.327 189.704 130.728 203.347 131.317 210.199C132.048 218.818 136.436 252.381 136.948 254.901C137.464 257.422 122.77 256.296 122.77 256.296C122.77 256.296 112.639 198.264 108.434 189.795C105.627 184.144 89.3421 143.616 87.4754 145.95C85.6086 148.283 83.302 188.891 81.9211 195.632C80.5402 202.373 76.3054 255.635 76.3054 255.635C76.3054 255.635 66.8282 257.014 64.2966 254.901C64.2966 254.901 63.1458 209.422 64.0255 196.784C64.3631 191.968 58.3075 139.034 66.0713 117.726C70.1731 106.465 105.934 123.871 105.934 123.871" fill="#2D3133"/>
</g>
<path d="M108.653 88.1095C106.921 79.8839 104.773 67.4315 104.773 67.4315L108.715 50.7336C108.715 50.7336 113.423 56.3674 115.773 66.5637C115.38 75.5696 113.466 94.6019 113.196 96.6244C110.461 97.6397 106.419 99.0809 104.773 98.6579L108.653 88.11V88.1095Z" fill="#F2AD00"/>
<path d="M101.848 96.4644C100.527 108.571 101.471 121.833 101.471 121.833L109.208 125.568C109.208 125.568 111.049 107.18 112.748 97.0142C110.646 96.0659 106.36 94.6814 101.848 96.4644Z" fill="#FFA18B"/>
<path d="M64.4384 123.595C64.1232 124.709 107.14 124.734 107.14 124.734C107.14 124.734 106.3 111.917 105.255 108.798C104.209 105.679 109.361 86.961 110.033 80.8704C110.57 75.9975 111.918 54.1934 108.689 50.8638C105.314 47.3823 93.1582 43.7336 93.1582 43.7336L75.4369 44.3872C75.4369 44.3872 72.5127 44.9962 70.4219 45.9617C68.3305 46.9272 55.8957 50.8167 53.9539 56.7584C52.0132 62.7001 66.3631 82.152 66.3631 82.152C66.3631 82.152 66.3904 83.0106 66.432 84.4179V84.4184C66.485 86.2946 66.5652 89.1456 66.6366 92.2389C66.7297 96.244 66.8109 100.654 66.8109 103.876C66.8109 111.452 64.7525 122.481 64.4384 123.595Z" fill="#FFCB5C"/>
<path d="M88.3585 5.96964C88.3585 5.96964 103.771 2.57991 100.251 21.4939C96.7301 40.4079 93.023 41.8935 83.7248 37.98C74.4266 34.0654 75.2595 21.9474 74.7908 16.0057C74.3226 10.063 83.4421 6.17657 88.3585 5.96964Z" fill="#FFA18B"/>
<path d="M91.7734 48.418C91.7734 48.418 85.1853 55.4312 74.7734 49.058C74.7734 49.058 77.1029 33.8584 75.8765 26.4549C74.6511 19.0518 89.4614 37.9259 89.4614 37.9259C89.2655 38.0287 89.1368 38.7346 89.107 39.74C89.0821 40.5916 89.1268 41.6589 89.2631 42.7526C89.5688 45.2132 90.3308 47.8125 91.7734 48.418Z" fill="#FFA18B"/>
<path d="M75.6873 25.7336C75.6873 25.7336 76.0853 19.6347 78.314 19.4445C80.5417 19.2543 80.8847 21.7108 80.8847 21.7108L83.1355 22.1349C83.1355 22.1349 82.4243 16.7895 84.6494 15.8555C86.8739 14.9215 99.0664 18.7983 100.853 17.229C102.639 15.6597 101.799 4.81716 98.5681 3.33366C95.3377 1.84862 86.4163 -1.47613 79.8798 2.94661C79.8798 2.94661 74.7843 2.36574 74.0294 6.47646C73.273 10.5867 74.3025 22.6777 75.6873 25.7336Z" fill="#3A3F47"/>
<path d="M89.7734 42.7336C78.6253 39.382 77.7858 32.8358 77.7734 32.7336C81.4448 38.8845 89.6114 39.6975 89.6114 39.6975C89.5856 40.5557 89.6321 41.6314 89.7734 42.7336Z" fill="#FF6C4A"/>
<path d="M69.7734 46.18C69.7734 46.18 77.9877 62.7537 91.258 61.684C104.528 60.6138 93.5193 43.9549 92.9166 43.8018C92.2537 43.6318 79.3073 40.3623 69.7734 46.18Z" fill="#FFA18B"/>
<path d="M106.84 114.873C106.84 114.873 101.171 116.021 88.351 113.721C79.9483 112.669 62.7717 109.535 61.2875 105.412C59.5918 104.073 55.9319 84.276 54.3976 70.804C52.8627 57.3312 54.1268 56.4956 54.1268 56.4956C54.1268 56.4956 56.6134 54.4158 62.1412 53.6537C67.6682 52.8927 69.8122 58.5316 69.9427 60.7758C70.0713 63.0208 71.0874 82.2718 70.7474 86.5685C70.4063 90.865 71.2535 93.128 73.0661 94.292C73.648 94.6659 77.5183 97.5578 82.5063 99.2293C93.0667 102.767 108.639 107.713 108.639 107.713L106.84 114.873Z" fill="#F2AD00"/>
<path d="M66.7734 84.6344C66.7734 84.6349 66.7734 84.6349 66.7734 84.6349C66.8199 86.5779 66.8904 89.5303 66.9532 92.7336C71.7552 78.9325 68.9807 67.9195 68.9342 67.7336C69.4535 71.4788 66.8114 84.4496 66.7734 84.6344Z" fill="#F2AD00"/>
<path d="M108.773 88.7209C108.773 88.7209 108.773 88.7209 108.773 88.7214C109.309 92.1563 109.792 94.8769 110.092 95.7336C111.536 86.5243 110.236 74.7336 110.236 74.7336C110.039 80.3662 108.773 88.7209 108.773 88.7209Z" fill="#F2AD00"/>
<path d="M88.1805 113.766L88.1818 113.767C101.056 115.742 115.859 117.182 115.859 117.182L117.013 109.933C117.013 109.933 101.32 105.383 90.6736 102.113C90.6736 102.113 87.5937 104.547 88.1805 113.766Z" fill="#FFA18B"/>
<path d="M154.637 109.734C154.637 109.734 145.032 112.491 144.637 113.271C144.241 114.053 144.507 114.623 145.423 114.409C146.338 114.192 154.83 112.044 154.83 112.044C154.83 112.044 144.33 117.436 143.856 117.976C143.581 118.293 144.039 119.42 144.548 119.354C145.058 119.288 155.865 114.632 155.865 114.632C155.865 114.632 146.073 119.687 145.828 120.287C145.615 120.813 146.271 121.78 147.035 121.464C147.795 121.147 157.228 117.049 157.228 117.049C157.228 117.049 150.407 121.245 150.511 121.937C150.574 122.358 150.932 123.344 152.655 122.198C154.372 121.049 158.773 118.846 158.773 118.846L154.637 109.734Z" fill="#8E4F3A"/>
<path d="M166.823 108.335C166.823 108.335 163.255 108.283 161.987 106.891C160.714 105.5 158.47 104.253 157.746 103.898C156.785 103.423 154.123 100.803 153.791 102.082C153.454 103.362 158.028 106.608 158.903 107.485C159.768 108.361 155.099 108.743 154.415 109.593C153.731 110.443 156.116 119.388 159.225 118.695C162.34 118.001 164.885 114.824 165.479 114.833C166.063 114.838 167.773 114.434 167.773 114.434L166.823 108.335Z" fill="#8E4F3A"/>
<path d="M129.348 110.412C129.348 110.412 139.555 113.191 140.009 114.076C140.463 114.964 140.213 115.635 139.242 115.426C138.271 115.214 129.262 113.094 129.262 113.094C129.262 113.094 140.54 118.882 141.063 119.486C141.368 119.84 140.945 121.164 140.407 121.11C139.869 121.056 128.306 116.132 128.306 116.132C128.306 116.132 138.825 121.561 139.112 122.244C139.362 122.843 138.723 123.99 137.905 123.658C137.093 123.324 126.998 118.987 126.998 118.987C126.998 118.987 134.359 123.549 134.285 124.354C134.241 124.844 133.914 126 132.051 124.747C130.193 123.492 125.468 121.132 125.468 121.132L129.348 110.412Z" fill="#FFA18B"/>
<path d="M116.567 109.942C116.567 109.942 120.432 109.726 121.74 108.125C123.053 106.524 125.426 105.039 126.194 104.614C127.213 104.043 129.973 101.016 130.394 102.421C130.821 103.827 126.019 107.635 125.112 108.647C124.216 109.658 129.297 109.876 130.079 110.789C130.862 111.703 128.707 121.741 125.303 121.11C121.893 120.477 118.98 117.062 118.336 117.098C117.704 117.13 115.624 117.098 115.624 117.098L116.567 109.942Z" fill="#FFA18B"/>
<mask id="mask1_914_927" style="mask-type:alpha" maskUnits="userSpaceOnUse" x="172" y="78" width="136" height="134">
<path d="M268.322 80.4946L303.291 116.171L305.966 113.374L307.24 121.369C307.775 123.431 307.228 125.713 305.598 127.311L221.449 209.79C219.023 212.167 215.129 212.129 212.751 209.703L175.389 171.584C174.686 170.867 174.2 170.02 173.918 169.124L173.917 169.124L173.917 169.119C173.749 168.583 173.658 168.031 173.641 167.475L172.325 159.639L176.656 161.729L259.625 80.4076C262.051 78.0297 265.945 78.0687 268.322 80.4946Z" fill="#01539F"/>
<path d="M276.279 91.0555L282.29 97.1877C282.694 97.5998 283.355 97.6061 283.767 97.2025C284.179 96.7988 284.185 96.1376 283.782 95.7257L277.771 89.5933C277.367 89.1816 276.706 89.1747 276.294 89.5784C275.882 89.9824 275.875 90.6434 276.279 91.0555Z" stroke="#BDC5E8" stroke-width="1.58065" stroke-miterlimit="10"/>
<path d="M286.112 101.088L286.186 101.163C286.59 101.575 287.251 101.582 287.663 101.178C288.075 100.774 288.082 100.113 287.678 99.7014L287.604 99.626C287.201 99.2143 286.54 99.2074 286.128 99.6113C285.716 100.015 285.709 100.677 286.112 101.088Z" fill="#C6DAE5"/>
<path d="M269.393 90.792L218.754 187.006L214.849 183.033L265.953 87.2919L269.393 90.792Z" fill="#ACB9E4"/>
<path d="M208.5 176.572L259.471 80.696L257.578 78.7711L225.748 109.97L196.277 164.136L208.5 176.572Z" fill="#ACB9E4"/>
</mask>
<g mask="url(#mask1_914_927)">
<mask id="mask2_914_927" style="mask-type:alpha" maskUnits="userSpaceOnUse" x="184" y="78" width="115" height="114">
<path d="M184.52 151.376L224.163 191.649L298.332 119.063L258.688 78.7903L184.52 151.376Z" fill="white"/>
</mask>
<g mask="url(#mask2_914_927)">
<path d="M211.817 132.539C211.817 132.539 199.768 178.086 195.175 188.615C190.925 198.371 189.523 212.014 188.935 218.867C188.204 227.486 183.816 261.048 183.304 263.569C182.788 266.09 197.482 264.964 197.482 264.964C197.482 264.964 207.613 206.931 211.817 198.463C214.625 192.811 230.91 152.283 232.777 154.617C234.643 156.95 236.95 197.559 238.331 204.299C239.712 211.04 243.947 264.303 243.947 264.303C243.947 264.303 253.424 265.682 255.955 263.569C255.955 263.569 257.106 218.089 256.226 205.451C255.889 200.636 261.944 147.702 254.181 126.394C250.079 115.132 211.817 132.539 211.817 132.539Z" fill="#00385F"/>
</g>
</g>
<path d="M279.773 99.9766C279.773 100.495 278.771 102.567 277.168 105.547C274.83 100.981 272.995 97.2299 272.394 95.8506C270.42 91.3061 260.265 80.8918 260.265 80.8918C260.265 80.8918 260.265 80.8974 260.26 80.9126C260.26 80.9172 260.26 80.9213 260.255 80.9253C260.255 80.9289 260.255 80.9335 260.255 80.9365C260.249 80.9513 260.244 80.966 260.239 80.9808C260.234 81.0052 260.229 81.0342 260.213 81.0693C260.208 81.0865 260.208 81.1059 260.203 81.1237C260.198 81.1384 260.193 81.1512 260.188 81.1659C259.633 83.1763 256.241 95.7484 256.118 101.94C255.979 108.68 254.175 121.151 254.175 121.151L254.17 121.153L252.047 121.443L247.355 122.089L246.79 122.165L245.423 122.352L232.986 124.063L228.566 124.668L227.97 124.751L225.447 125.097L218.483 126.052L216.705 126.296L216.689 126.299L215.358 126.48L213.518 126.734C213.518 126.734 213.518 126.734 213.518 126.733C213.467 126.666 211.73 124.342 211.997 119.18C212.167 115.848 212.578 109.587 212.408 103.78C212.408 103.749 212.403 103.719 212.403 103.689C212.403 103.616 212.403 103.543 212.403 103.469C212.398 103.443 212.398 103.42 212.398 103.395V103.382C212.29 100.192 211.997 97.1668 211.391 94.8686C210.98 93.3139 210.702 91.7735 210.522 90.3307C210.517 90.2595 210.507 90.1893 210.496 90.1197C210.466 89.8516 210.435 89.5872 210.414 89.3258C210.013 85.298 210.327 82.2303 210.347 82.0518L210.337 82.0666C210.214 82.3346 209.304 85.5833 208.117 89.5938C206.102 96.3755 203.281 105.335 202.084 105.765C200.336 106.393 172.065 114.567 165.96 115.404C165.251 115.5 164.845 115.499 164.803 115.378C164.778 115.29 164.747 115.201 164.721 115.108C163.976 112.721 162.958 108.662 162.794 108.008C162.779 107.948 162.773 107.917 162.773 107.917L163.863 107.597L194.632 98.5984L208.693 59.0124C208.986 58.7835 212.439 57.151 214.962 55.9803C217.537 54.7847 220.636 53.0302 223.442 51.5268C224.876 50.763 226.233 50.0637 227.405 49.5389L227.579 49.4595L227.584 49.458C229.522 48.5929 230.807 48.0218 230.807 48.0218C230.807 48.0218 230.807 48.0218 230.812 48.0218C230.858 48.0167 231.166 47.9872 231.655 47.9435C234.353 47.6923 242.75 46.9243 245.562 46.7636C245.793 46.7489 245.988 46.7413 246.137 46.7377C246.266 46.7331 246.363 46.7321 246.42 46.7362C246.779 46.757 248.506 47.3465 250.783 48.1902C250.865 48.2227 250.953 48.2553 251.04 48.2878C251.148 48.326 251.256 48.3656 251.364 48.4063C251.559 48.4806 251.765 48.5558 251.965 48.6331C252.371 48.7877 252.792 48.9469 253.214 49.1107C253.358 49.1676 253.512 49.2241 253.661 49.281C258.209 51.0452 263.426 53.2234 264.659 54.093C265.481 54.6642 268.03 59.3557 270.985 65.1553C274.794 77.0598 279.619 95.2811 279.768 99.7742C279.768 99.8439 279.773 99.9125 279.773 99.9766Z" fill="white"/>
<path d="M213.965 126.659C213.965 126.659 213.042 127.82 212.773 132.734C212.773 132.734 250.752 128.079 254.762 126.246C254.762 126.246 254.919 120.829 254.068 120.735C253.13 120.632 213.965 126.659 213.965 126.659Z" fill="#495055"/>
<path d="M246.773 44.8459C246.653 50.5905 234.749 53.7336 234.749 53.7336C234.749 53.7336 229.769 47.9003 230.956 47.3424C231.422 47.1214 231.61 46.2524 231.673 45.2749C231.725 44.3459 231.663 43.3209 231.605 42.6689C231.568 42.2621 231.537 42.001 231.537 42.001C231.537 42.001 233.232 40.3249 235.397 38.3263C239.184 34.8334 244.378 30.357 244.388 32.1377C244.388 32.2328 244.373 32.3443 244.346 32.4751C243.431 36.4817 246.773 44.8459 246.773 44.8459Z" fill="#8E4F3A"/>
<path d="M245.773 121.958C245.773 121.958 246.398 127.333 246.452 128.734L247.773 128.374C247.773 128.374 247.408 122.686 247.194 121.734L245.773 121.958Z" fill="#353A3D"/>
<path d="M216.606 125.989C216.606 125.989 215.792 130.885 215.773 132.734L218.047 132.485C218.047 132.485 218.519 126.371 218.773 125.734L216.606 125.989Z" fill="#353A3D"/>
<path d="M241.773 36.7336C241.773 36.7336 241.773 36.7336 241.769 36.7347C241.749 36.7699 241.28 37.4875 240.473 38.5176C238.762 40.7027 235.55 44.2924 231.942 45.7336C231.991 44.7887 231.932 43.7461 231.878 43.0829C231.507 43.0738 231.14 43.03 230.773 42.9478C231.761 41.1896 233.193 39.3456 233.193 39.3456L235.423 38.6658L241.773 36.7336Z" fill="#633029"/>
<path d="M243.898 31.8437C242.907 34.0249 241.977 35.6039 241.712 36.2299C241.712 36.2299 241.712 36.2299 241.707 36.2309C241.537 36.6401 241.066 37.3042 240.381 38.0566C238.5 40.1144 235.013 42.8267 231.586 42.7312C231.206 42.7219 230.831 42.677 230.456 42.5929C229.07 42.2853 227.434 41.631 226.534 39.8394C219.43 25.6861 224.573 14.1149 224.573 14.1149C224.573 14.1149 243.998 8.52483 247.04 14.4745C249.171 18.6476 246.209 26.7202 243.898 31.8437Z" fill="#8E4F3A"/>
<path d="M224.187 14.6897C224.187 14.6897 222.353 14.5892 221.9 11.1816C221.446 7.81597 222.358 6.88172 222.358 6.88172C222.358 6.88172 230.524 3.53833 233.453 3.10228C236.387 2.66825 243.595 2.25038 245.286 4.14162C245.286 4.14162 249.391 3.20737 250.512 9.87849C252.285 20.4589 244.466 30.7336 244.466 30.7336C244.466 30.7336 244.532 23.821 242.973 22.9049C241.414 21.9894 240.07 24.1671 240.07 24.1671L236.886 24.7264C236.886 24.7264 241.725 14.4992 235.918 14.1193C230.111 13.7408 227.513 15.2814 224.187 14.6897Z" fill="#3A3F47"/>
<path d="M240.863 21.6307C241.132 18.6059 246.089 17.4512 245.757 20.6216C245.425 23.7919 242.98 26.8383 241.854 26.7309C240.728 26.6235 240.661 23.9359 240.863 21.6307Z" fill="#8E4F3A"/>
<path d="M260.382 80.8399C260.387 80.8251 260.392 80.8124 260.397 80.7976C260.402 80.7797 260.402 80.7604 260.407 80.743C260.417 80.713 260.427 80.6835 260.432 80.6544C260.438 80.6396 260.443 80.6249 260.448 80.6101C260.448 80.607 260.448 80.6024 260.448 80.5989C260.453 80.5948 260.453 80.5907 260.453 80.5861C260.453 80.5861 266.386 89.7417 265.938 97.6974C265.867 98.935 264.62 102.063 262.809 106.075C262.809 106.078 262.804 106.079 262.804 106.082C262.142 107.544 261.409 109.121 260.626 110.768C260.595 110.7 260.565 110.63 260.539 110.562C259.405 107.829 258.667 105.263 258.667 103.022C258.667 103.022 259.171 85.568 260.382 80.8399ZM279.773 99.6849C279.773 99.6207 279.768 99.5519 279.768 99.4821C279.662 94.992 277.423 77.012 273.652 65.0859C271.825 59.2955 270.238 54.7106 269.53 54.2103C268.304 53.3416 258.55 50.6917 253.919 48.8968C251.009 47.7749 251.121 47.7336 251.121 47.7336C250.347 48.5672 248.174 51.136 245.93 54.2836C241.147 61.0028 234.919 71.8794 235.871 81.9261C236.369 87.1474 236.883 93.8996 238.211 102.213C239.483 110.001 243.452 115.311 246.979 121.662C249.416 125.79 253.029 134.213 254.917 138.575C255.313 139.5 256.906 143.031 258.987 148.734L271.179 142.087C273.494 140.943 272.288 134.779 271.418 132.372C270.691 130.371 269.678 128.224 268.528 126.006C268.06 125.1 267.566 124.181 267.063 123.256C270.879 116.67 274.746 109.88 277.194 105.266C278.781 102.28 279.773 100.205 279.773 99.6849Z" fill="#00385F"/>
<path d="M227.773 48.8054C224.264 60.3059 221.041 89.6066 219.695 101.469V101.472C218.683 110.339 216.375 119.437 215.64 126.227C215.64 126.232 215.64 126.237 215.64 126.24C215.497 127.57 215.152 129.345 214.685 131.345C214.633 131.572 214.577 131.8 214.52 132.032C212.46 140.603 208.456 152.734 208.456 152.734L207.29 151.674L203.831 148.538C203.04 147.817 202.737 146.711 203.055 145.696C204.972 139.619 211.483 118.11 212.68 102.985C212.68 102.981 212.68 102.977 212.68 102.972C213.05 98.2213 211.637 93.7454 210.82 89.5021C210.805 89.539 210.794 89.5748 210.779 89.6122C210.09 91.4872 209.335 93.5262 208.569 95.5108V95.5128C206.514 100.842 204.412 105.78 203.538 106.095C201.586 106.8 166.59 116.954 166.333 115.537C166.307 115.395 166.281 115.242 166.245 115.082C166.209 114.923 166.178 114.758 166.142 114.583C165.711 112.645 164.925 109.863 164.375 107.985C164.298 107.707 164.221 107.449 164.149 107.218C163.917 106.44 163.773 105.946 163.773 105.946L193.368 96.394L208.302 57.9918C210.075 56.6143 225.528 49.709 227.686 48.7336L227.773 48.8054Z" fill="#00385F"/>
<path d="M247.374 62.6079L241.965 65.7769L244.276 68.2242L238.12 102.734C236.864 94.6453 236.292 86.9644 235.867 82.2534C234.45 66.5741 249.568 48.8169 250.511 47.7336C251.229 48.0186 251.967 48.4039 252.773 48.7356L247.374 62.6079Z" fill="#00385F"/>
<path d="M227.773 48.7336C227.773 48.7336 225.537 55.5876 222.928 72.6917C221.926 79.2624 220.518 90.4461 219.17 101.734L217.773 69.4297L220.632 66.5323L218.093 63.5597L223.523 50.5659C225.007 49.9233 226.404 49.3223 227.589 48.8138L227.773 48.7336Z" fill="#00385F"/>
<path d="M250.773 47.646L246.123 44.7336C246.123 44.7336 246 47.3627 234.773 54.2326L237.963 63.7336L250.773 47.646Z" fill="#EDEDED"/>
<path d="M231.643 46.7336C231.643 46.7336 231.83 49.4442 234.773 54.5397L228.249 62.7336L227.773 49.4442L231.643 46.7336Z" fill="#EDEDED"/>
<path d="M234.842 53.7336C234.842 53.7336 236.143 58.8977 235.67 60.3428C235.67 60.3428 232.818 61.3753 230.773 60.084C230.773 60.084 232.223 56.4716 234.842 53.7336Z" fill="#F2AD00"/>
<path d="M228.126 125.734C227.354 122.097 228.086 111.195 228.114 110.734L228.773 110.773C228.768 110.885 228.013 122.055 228.768 125.614L228.126 125.734Z" fill="#AD9F99"/>
<path d="M232.661 123.734C232.661 123.734 227.487 124.366 225.773 124.802L225.999 130.734L232.773 129.995L232.661 123.734Z" fill="#69737A"/>
<path d="M231.83 59.4296C231.83 59.4296 225.913 75.228 226.88 92.9132C227.881 111.248 229.521 117.897 229.521 117.897L233.167 122.734L234.773 116.789C234.773 116.789 229.882 93.4111 233.037 70.6656C233.609 66.5438 234.461 58.7336 234.461 58.7336L231.83 59.4296Z" fill="#F2AD00"/>
<path d="M250.717 133.756C250.717 133.756 249.383 136.499 248.049 136.958C246.714 137.415 244.773 139.645 244.773 139.645L254.159 144.734C254.159 144.734 256.661 139.701 256.772 136.499C256.883 133.298 250.717 133.756 250.717 133.756Z" fill="#8E4F3A"/>
<path d="M249.468 133.734L248.773 135.007C248.773 135.007 255.382 139.449 257.163 139.734L257.773 138.035L249.468 133.734Z" fill="#DECBC4"/>
<path d="M248.773 134.253C248.773 134.253 253.477 138.004 257.44 139.734L270.773 116.61L263.862 103.734C263.862 103.734 249.087 131.998 248.773 134.253Z" fill="#00385F"/>
<path opacity="0.5" d="M211.331 82.016C211.125 86.1537 211.155 89.8289 211.155 89.8289C211.155 89.8289 211.155 89.8309 211.155 89.8319C211.155 89.8515 211.15 89.9642 211.14 90.1489C211.135 90.0784 211.125 90.009 211.115 89.9401C210.444 91.7817 209.707 93.7843 208.961 95.7336C208.786 93.4749 208.74 91.3696 208.796 89.4198C209.091 77.818 212.773 71.7336 212.773 71.7336C211.927 73.7554 211.526 78.0943 211.331 82.016Z" fill="#2D3133"/>
<path d="M268.773 126.498L257.773 138.734L267.194 123.734C267.737 124.664 268.269 125.587 268.773 126.498Z" fill="#2D3133"/>
<path d="M226.773 35.3686L234.773 33.7336C234.773 33.7336 234.397 35.8037 231.855 36.5595C229.315 37.3149 226.773 35.3686 226.773 35.3686Z" fill="white"/>
<path d="M95.7734 33.3686L87.7734 31.7336C87.7734 31.7336 88.1503 33.8037 90.6915 34.5595C93.2322 35.3149 95.7734 33.3686 95.7734 33.3686Z" fill="white"/>
</svg>
