<svg width="230" height="230" viewBox="0 0 230 230" fill="none" xmlns="http://www.w3.org/2000/svg">
<path d="M163.027 123.207H144.637V187.996H163.027V123.207Z" fill="#FF6C4A"/>
<path d="M158.903 176.379C158.903 173.578 156.632 171.307 153.831 171.307C151.03 171.307 148.76 173.578 148.76 176.379C148.76 179.179 151.03 181.45 153.831 181.45C156.632 181.45 158.903 179.179 158.903 176.379Z" fill="white"/>
<path d="M157.417 176.379C157.417 174.399 155.812 172.793 153.831 172.793C151.851 172.793 150.246 174.399 150.246 176.379C150.246 178.359 151.851 179.964 153.831 179.964C155.812 179.964 157.417 178.359 157.417 176.379Z" fill="#1C1B3F"/>
<path d="M156.463 136.455H150.996V167.17H156.463V136.455Z" fill="white"/>
<path d="M174.324 187.996H200.337V148.828H174.324V187.996Z" fill="#FF6C4A"/>
<path d="M197.149 174.719C193.052 174.719 189.731 171.398 189.731 167.3C189.731 163.203 193.052 159.882 197.149 159.882C201.247 159.882 204.568 163.203 204.568 167.3C204.568 171.398 201.247 174.719 197.149 174.719ZM197.149 155.995C190.905 155.995 185.844 161.056 185.844 167.3C185.844 173.545 190.905 178.606 197.149 178.606C203.394 178.606 208.455 173.545 208.455 167.3C208.455 161.056 203.394 155.995 197.149 155.995Z" fill="#FF6C4A"/>
<path d="M174.324 187.996H200.337V182.493H174.324V187.996Z" fill="#BC1657"/>
<path d="M194.178 158.766C193.946 158.766 193.758 158.578 193.758 158.345V148.828C193.758 148.595 193.946 148.407 194.178 148.407C194.411 148.407 194.599 148.595 194.599 148.828V158.345C194.599 158.578 194.411 158.766 194.178 158.766Z" fill="white"/>
<path d="M194.179 168.836L188.934 163.591L194.179 158.345L199.425 163.591L194.179 168.836Z" fill="white"/>
<path d="M82.6191 185.28H124.641V157.335H82.6191V185.28Z" fill="#1C1B3F"/>
<path d="M82.6191 170.246H124.641V163.148H82.6191V170.246Z" fill="#14152E"/>
<path d="M182.851 60.53V155.763C182.851 159.843 179.545 163.148 175.465 163.148H31.7914C27.7119 163.148 24.4062 159.843 24.4062 155.763V60.53C24.4062 56.4505 27.7119 53.1445 31.7914 53.1445H175.465C179.545 53.1445 182.851 56.4505 182.851 60.53Z" fill="#1C1B3F"/>
<path d="M182.85 60.5301V144.248H24.4063V60.5301C24.4063 60.4291 24.4062 60.332 24.4147 60.2352C24.5661 56.2903 27.8128 53.1445 31.7914 53.1445H175.465C179.444 53.1445 182.691 56.2903 182.842 60.2352C182.85 60.332 182.85 60.4291 182.85 60.5301Z" fill="#2A95FF"/>
<path d="M182.841 60.2351H24.4141C24.5655 56.2902 27.8122 53.1444 31.7908 53.1444H175.465C179.443 53.1444 182.69 56.2902 182.841 60.2351Z" fill="#1C1B3F"/>
<path d="M105.304 56.6897C105.304 55.7644 104.554 55.0142 103.629 55.0142C102.703 55.0142 101.953 55.7644 101.953 56.6897C101.953 57.6154 102.703 58.3652 103.629 58.3652C104.554 58.3652 105.304 57.6154 105.304 56.6897Z" fill="white"/>
<path d="M137.6 188.234H69.6562V186.085C69.6562 183.172 72.0173 180.811 74.9301 180.811H132.326C135.239 180.811 137.6 183.172 137.6 186.085V188.234Z" fill="#1C1B3F"/>
<path d="M61.0031 175.238L57.6975 179.561H2.98182L0 175.238H61.0031Z" fill="white"/>
<path d="M88.2638 188.234H21.1292C19.8725 188.234 18.8535 187.215 18.8535 185.958C18.8535 184.702 19.8725 183.683 21.1292 183.683H88.2638C89.5209 183.683 90.5399 184.702 90.5399 185.958C90.5399 187.215 89.5209 188.234 88.2638 188.234Z" fill="#1C1B3F"/>
<path d="M209.821 64.2305H177.61C173.729 64.2305 170.584 61.085 170.584 57.2049V49.2587C170.584 45.3782 173.729 42.2327 177.61 42.2327H209.821C213.701 42.2327 216.847 45.3782 216.847 49.2587V57.2049C216.847 61.085 213.701 64.2305 209.821 64.2305Z" fill="#FF6C4A"/>
<path d="M211.229 60.2346V72.812L199.703 61.286" fill="#FF6C4A"/>
<path d="M185.838 52.658C185.838 51.2626 184.707 50.1313 183.312 50.1313C181.916 50.1313 180.785 51.2626 180.785 52.658C180.785 54.0535 181.916 55.1848 183.312 55.1848C184.707 55.1848 185.838 54.0535 185.838 52.658Z" fill="white"/>
<path d="M195.948 52.658C195.948 51.2626 194.816 50.1313 193.421 50.1313C192.025 50.1313 190.895 51.2626 190.895 52.658C190.895 54.0535 192.025 55.1848 193.421 55.1848C194.816 55.1848 195.948 54.0535 195.948 52.658Z" fill="white"/>
<path d="M206.059 52.658C206.059 51.2626 204.928 50.1313 203.533 50.1313C202.137 50.1313 201.006 51.2626 201.006 52.658C201.006 54.0535 202.137 55.1848 203.533 55.1848C204.928 55.1848 206.059 54.0535 206.059 52.658Z" fill="white"/>
<path d="M219.514 156.793L196.146 130.79L204.683 123.119L228.05 149.121C230.169 151.479 229.975 155.107 227.617 157.225C225.26 159.344 221.632 159.15 219.514 156.793Z" fill="#1C1B3F"/>
<path d="M162.6 119.421C154.074 109.933 154.854 95.3344 164.341 86.8083C173.826 78.2851 188.427 79.0614 196.954 88.549C205.477 98.034 204.697 112.639 195.212 121.162C185.725 129.688 171.123 128.905 162.6 119.421ZM204.305 81.9432C192.13 68.395 171.28 67.2852 157.735 79.4572C144.187 91.6322 143.071 112.482 155.246 126.029C167.421 139.578 188.271 140.688 201.819 128.513C215.363 116.341 216.48 95.4913 204.305 81.9432Z" fill="#FF6C4A"/>
<path d="M162.6 119.421C154.074 109.933 154.854 95.3343 164.341 86.8082C173.826 78.285 188.427 79.0614 196.954 88.5489C205.477 98.034 204.697 112.639 195.212 121.162C185.725 129.687 171.123 128.905 162.6 119.421ZM201.111 84.8135C190.521 73.0296 172.383 72.061 160.602 82.648C148.818 93.237 147.85 111.376 158.44 123.159C169.029 134.943 187.165 135.908 198.948 125.319C210.729 114.732 211.7 96.5969 201.111 84.8135Z" fill="#1C1B3F"/>
<path opacity="0.5" d="M179.784 127.078C173.458 127.078 167.16 124.495 162.599 119.42C158.636 115.01 156.684 109.496 156.682 104C156.681 100.871 157.312 97.7483 158.565 94.8388L158.565 94.8371C158.57 94.827 158.574 94.8169 158.578 94.8068C158.579 94.8047 158.58 94.803 158.581 94.8009C158.585 94.7925 158.588 94.7837 158.592 94.7749C158.595 94.7681 158.597 94.7631 158.6 94.7563C158.602 94.7517 158.604 94.7479 158.606 94.7433C158.61 94.7332 158.615 94.7231 158.619 94.713L158.62 94.7113C159.9 91.7867 161.81 89.0825 164.339 86.8097C168.75 82.8455 174.269 80.8928 179.767 80.8928C180.798 80.8928 181.828 80.9613 182.85 81.0985V126.875C181.832 127.01 180.808 127.078 179.784 127.078Z" fill="white"/>
<path d="M179.782 127.079C173.457 127.079 167.159 124.496 162.599 119.421C156.379 112.501 155.112 102.859 158.565 94.8389C157.313 97.7484 156.681 100.871 156.682 104C156.684 109.496 158.637 115.011 162.6 119.421C167.16 124.495 173.459 127.078 179.785 127.078C182.168 127.078 184.556 126.711 186.854 125.973C184.554 126.712 182.166 127.079 179.782 127.079ZM158.566 94.8372C158.57 94.8271 158.574 94.817 158.579 94.8069C158.574 94.817 158.57 94.8271 158.566 94.8372ZM158.581 94.8011C158.585 94.7926 158.589 94.7838 158.593 94.775C158.589 94.7838 158.585 94.7926 158.581 94.8011ZM158.601 94.7565C158.602 94.7527 158.605 94.7472 158.606 94.7434C158.605 94.7481 158.603 94.7519 158.601 94.7565ZM158.62 94.7132C158.62 94.7123 158.62 94.7119 158.621 94.7115L158.62 94.7132Z" fill="#4E298C"/>
<path opacity="0.5" d="M197.048 106.2C194.188 108.769 189.787 108.534 187.217 105.675C184.648 102.815 184.882 98.4138 187.742 95.8437C190.602 93.2736 195.004 93.5091 197.573 96.3686C200.143 99.2284 199.908 103.63 197.048 106.2Z" fill="#2A95FF"/>
<path opacity="0.5" d="M192.506 117.581C191.415 118.562 189.736 118.472 188.756 117.381C187.776 116.291 187.866 114.612 188.957 113.632C190.047 112.652 191.726 112.742 192.706 113.832C193.686 114.923 193.596 116.601 192.506 117.581Z" fill="#2A95FF"/>
<path d="M40.9258 135.79H133.34V70.376H40.9258V135.79Z" fill="white"/>
<path d="M100.852 78.2949V129.414C100.852 130.484 99.9775 131.354 98.8966 131.354H47.4866C46.4057 131.354 45.5352 130.484 45.5352 129.414V78.2949C45.5352 77.2244 46.4057 76.3542 47.4866 76.3542H98.8966C99.9775 76.3542 100.852 77.2244 100.852 78.2949Z" fill="#D4DDF3"/>
<path d="M133.34 67.4207H40.9258V70.376H133.34V67.4207Z" fill="#D4DDF3"/>
<path d="M131.554 68.8982C131.554 68.4637 131.202 68.1113 130.767 68.1113C130.332 68.1113 129.98 68.4637 129.98 68.8982C129.98 69.333 130.332 69.6851 130.767 69.6851C131.202 69.6851 131.554 69.333 131.554 68.8982Z" fill="#FF6C4A"/>
<path d="M128.693 68.8982C128.693 68.4637 128.341 68.1113 127.906 68.1113C127.472 68.1113 127.119 68.4637 127.119 68.8982C127.119 69.333 127.472 69.6851 127.906 69.6851C128.341 69.6851 128.693 69.333 128.693 68.8982Z" fill="#1C1B3F"/>
<path d="M129.981 90.4583C129.981 91.6031 129.052 92.5317 127.907 92.5317C126.762 92.5317 125.834 91.6031 125.834 90.4583C125.834 89.3131 126.762 88.3845 127.907 88.3845C129.052 88.3845 129.981 89.3131 129.981 90.4583Z" fill="#FFCB5C"/>
<path d="M107.776 80.0057C107.776 81.1509 106.848 82.0791 105.702 82.0791C104.557 82.0791 103.629 81.1509 103.629 80.0057C103.629 78.8605 104.557 77.9323 105.702 77.9323C106.848 77.9323 107.776 78.8605 107.776 80.0057Z" fill="#FF6C4A"/>
<path d="M123.718 79.8945H110.548C110.315 79.8945 110.127 79.7061 110.127 79.474C110.127 79.2418 110.315 79.0534 110.548 79.0534H123.718C123.951 79.0534 124.139 79.2418 124.139 79.474C124.139 79.7061 123.951 79.8945 123.718 79.8945Z" fill="#1C1B3F"/>
<path d="M123.719 90.8789H115.12C114.887 90.8789 114.699 90.6905 114.699 90.4583C114.699 90.2258 114.887 90.0378 115.12 90.0378H123.719C123.951 90.0378 124.139 90.2258 124.139 90.4583C124.139 90.6905 123.951 90.8789 123.719 90.8789Z" fill="#1C1B3F"/>
<path d="M129.981 113.208C129.981 114.353 129.052 115.281 127.907 115.281C126.762 115.281 125.834 114.353 125.834 113.208C125.834 112.063 126.762 111.134 127.907 111.134C129.052 111.134 129.981 112.063 129.981 113.208Z" fill="#FFCB5C"/>
<path d="M123.718 113.628H118.071C117.838 113.628 117.65 113.44 117.65 113.208C117.65 112.976 117.838 112.787 118.071 112.787H123.718C123.951 112.787 124.139 112.976 124.139 113.208C124.139 113.44 123.951 113.628 123.718 113.628Z" fill="#1C1B3F"/>
<path d="M120.899 83.8127H110.548C110.315 83.8127 110.127 83.6248 110.127 83.3922C110.127 83.16 110.315 82.9716 110.548 82.9716H120.899C121.131 82.9716 121.319 83.16 121.319 83.3922C121.319 83.6248 121.131 83.8127 120.899 83.8127Z" fill="#1C1B3F"/>
<path d="M107.776 98.0396C107.776 99.1848 106.848 100.113 105.702 100.113C104.557 100.113 103.629 99.1848 103.629 98.0396C103.629 96.8944 104.557 95.9662 105.702 95.9662C106.848 95.9662 107.776 96.8944 107.776 98.0396Z" fill="#FF6C4A"/>
<path d="M119.419 97.9277H110.548C110.315 97.9277 110.127 97.7397 110.127 97.5072C110.127 97.275 110.315 97.0866 110.548 97.0866H119.419C119.651 97.0866 119.839 97.275 119.839 97.5072C119.839 97.7397 119.651 97.9277 119.419 97.9277Z" fill="#1C1B3F"/>
<path d="M122.374 106.316H110.548C110.315 106.316 110.127 106.128 110.127 105.896C110.127 105.664 110.315 105.475 110.548 105.475H122.374C122.607 105.475 122.795 105.664 122.795 105.896C122.795 106.128 122.607 106.316 122.374 106.316Z" fill="#1C1B3F"/>
<path d="M123.718 101.847H110.548C110.315 101.847 110.127 101.658 110.127 101.426C110.127 101.194 110.315 101.006 110.548 101.006H123.718C123.951 101.006 124.139 101.194 124.139 101.426C124.139 101.658 123.951 101.847 123.718 101.847Z" fill="#1C1B3F"/>
<path d="M125.362 125.605C123.435 125.605 121.873 127.167 121.873 129.094C121.873 131.021 123.435 132.583 125.362 132.583C127.289 132.583 128.851 131.021 128.851 129.094C128.851 127.167 127.289 125.605 125.362 125.605Z" fill="#FF6C4A"/>
<path d="M124.947 128.278L124.376 128.849L123.588 127.423L123.84 127.17C124.072 126.938 124.449 126.938 124.681 127.17L124.947 127.436C125.18 127.669 125.18 128.045 124.947 128.278Z" fill="white"/>
<path d="M127.163 130.492L126.911 130.745L125.484 129.956L126.056 129.385C126.288 129.152 126.664 129.152 126.897 129.385L127.163 129.651C127.396 129.883 127.396 130.26 127.163 130.492Z" fill="white"/>
<path d="M126.91 130.745L126.185 130.279C125.329 129.73 124.602 129.003 124.053 128.148L123.588 127.423C123.357 127.653 123.319 128.012 123.494 128.286L123.659 128.542C124.208 129.397 124.935 130.124 125.79 130.673L126.046 130.838C126.321 131.014 126.679 130.975 126.91 130.745Z" fill="white"/>
<mask id="mask0_914_1003" style="mask-type:alpha" maskUnits="userSpaceOnUse" x="44" y="76" width="55" height="56">
<rect x="44.1992" y="76.3545" width="54.788" height="54.788" fill="#C4C4C4"/>
</mask>
<g mask="url(#mask0_914_1003)">
<path d="M84.9404 120.754L84.7339 120.716C84.745 120.66 85.7776 115.083 84.3125 111.921L84.5023 111.836C85.9953 115.057 84.9516 120.697 84.9404 120.754Z" fill="#FFA500"/>
<path d="M76.7654 104.498C76.7654 104.498 88.0761 107.681 89.1282 111.14C90.1803 114.6 92.812 128.032 92.4603 133.567C92.1115 139.102 86.6138 155.444 86.6138 155.444C86.6138 155.444 82.7906 152.759 82.7906 152.274C82.7906 151.791 86.5999 135.343 86.4603 133.475C86.3208 131.607 85.0147 122.903 85.0147 122.903C85.0147 122.903 83.3431 141.27 83.3431 144.107C83.3431 146.944 82.6231 148.867 82.6231 148.867C82.6231 148.867 77.0836 150.94 68.0054 150.473C68.0054 150.473 55.8687 150.199 58.3357 145.854C60.1999 142.569 58.5115 123.765 58.2296 123.627C57.9506 123.488 54.9087 134.053 55.3999 135.251C55.891 136.449 59.5245 152.405 59.5245 152.405C59.5245 152.405 58.7124 152.565 55.5003 155.061C55.5003 155.061 48.3397 136.496 48.2702 135.32C48.1996 134.144 53.7757 109.964 56.5106 108.926C59.2482 107.888 70.3999 104.498 70.3999 104.498H76.7654Z" fill="#FFC800"/>
<path d="M84.8999 119.634C84.8915 119.591 84.2887 115.269 82.9688 113.65L83.1306 113.52C84.4897 115.184 85.0813 119.427 85.1064 119.607L84.8999 119.634Z" fill="#FFA500"/>
<path d="M73.8775 84.1292C73.8775 84.1292 79.8189 85.0527 78.9147 94.2257C78.0105 103.398 72.764 102.646 72.4152 102.637C72.0635 102.628 67.1491 102.804 66.764 91.6047C66.764 91.6047 66.5966 83.3233 73.8775 84.1292Z" fill="#FFA18B"/>
<path d="M76.6508 99.9349C76.6508 99.9349 76.4861 103.708 76.8573 104.525C77.2284 105.341 71.954 107.965 68.7363 105.041C68.7363 105.041 69.5122 100.941 69.2973 99.4879C69.0796 98.0345 76.6508 99.9349 76.6508 99.9349Z" fill="#FFA18B"/>
<path d="M79.0066 91.6345C79.0066 91.6345 79.6568 90.9483 79.8968 91.6426C80.134 92.3369 79.0094 95.4329 78.9675 95.578C78.9675 95.578 78.8503 95.8473 78.694 95.6991C78.5377 95.5507 79.0066 91.6345 79.0066 91.6345Z" fill="#FFA18B"/>
<path d="M66.9228 91.5182C66.9228 91.5182 66.2866 90.82 66.0354 91.5096C65.7815 92.1992 66.8391 95.3158 66.8866 95.4618C66.8866 95.4618 66.9982 95.7333 67.1573 95.5882C67.3163 95.4428 66.9228 91.5182 66.9228 91.5182Z" fill="#FFA18B"/>
<path d="M79.003 93.041L78.1518 94.1631C78.1518 94.1631 78.1769 91.7031 78.0402 91.3174C77.9035 90.9318 77.6942 89.7535 77.5797 89.4756C77.4653 89.1976 72.4756 87.8182 68.069 89.8783C68.069 89.8783 68.2616 91.6473 67.8402 91.8047C67.4188 91.9621 67.6253 94.6855 67.6253 94.6855L66.9249 93.9069C66.9249 93.9069 65.8532 86.8501 66.1183 86.1142C66.3835 85.3786 67.2263 80.9564 76.2681 83.5816C76.2681 83.5816 79.0867 82.9928 79.6532 84.9125C80.2197 86.832 79.003 93.041 79.003 93.041Z" fill="#3A3F47"/>
<path d="M72.7562 102.73C72.2817 102.73 71.8631 102.652 71.5059 102.543C70.3059 102.175 69.5943 101.411 69.5664 101.378L69.6697 101.286C69.6752 101.294 70.3869 102.058 71.5534 102.414C73.0939 102.883 74.732 102.429 76.2892 101.101L76.3813 101.205C75.0083 102.376 73.7608 102.73 72.7562 102.73Z" fill="#633029"/>
<path d="M76.8585 104.525C76.8585 104.525 78.2008 104.807 72.5887 110.112C72.5887 110.112 68.6064 105.769 68.7375 105.041C68.8659 104.314 76.8585 104.525 76.8585 104.525Z" fill="#FFA18B"/>
<path d="M72.5879 110.112L74.12 112.695L78.6605 105.086L76.693 103.733L72.5879 110.112Z" fill="#FFA500"/>
<path d="M72.5879 110.112L68.8706 104.279L66.7637 105.614L70.5395 112.695L72.5879 110.112Z" fill="#FFA500"/>
<path d="M70.7073 150.427L70.498 150.415C70.5092 150.239 71.5697 132.736 71.2264 126.283C70.8804 119.812 72.4683 111.937 72.485 111.858L72.6887 111.899C72.6748 111.978 71.0897 119.827 71.4329 126.272C71.779 132.736 70.7185 150.251 70.7073 150.427Z" fill="#FFA500"/>
</g>
<path d="M71.0098 99.3106L74.7376 98.2948C74.7376 98.2948 74.562 99.5809 73.3778 100.05C72.1939 100.52 71.0098 99.3106 71.0098 99.3106Z" fill="white"/>
</svg>
