<svg width="332" height="229" viewBox="0 0 332 229" fill="none" xmlns="http://www.w3.org/2000/svg">
<path d="M268.212 79.7612L303.18 115.438L305.856 112.641L307.13 120.636C307.665 122.698 307.117 124.979 305.487 126.578L221.338 209.057C218.912 211.434 215.018 211.395 212.641 208.969L175.278 170.851C174.576 170.134 174.09 169.287 173.808 168.39L173.807 168.391L173.806 168.386C173.639 167.85 173.548 167.298 173.531 166.742L172.215 158.906L176.546 160.996L259.514 79.6742C261.941 77.2963 265.835 77.3353 268.212 79.7612Z" fill="#394AA6"/>
<path d="M173.934 162.552L211.296 200.671C213.674 203.097 217.568 203.136 219.994 200.759L304.143 118.279C306.569 115.901 306.608 112.007 304.23 109.581L266.868 71.4628C264.49 69.0367 260.596 68.9979 258.17 71.3752L174.021 153.855C171.596 156.233 171.556 160.126 173.934 162.552Z" fill="#2A95FF"/>
<path d="M183.512 150.527L223.113 190.82L297.07 118.33L257.468 78.0379L183.512 150.527Z" fill="white"/>
<path d="M194.38 172.674C192.741 174.28 192.714 176.91 194.321 178.548C195.926 180.187 198.557 180.213 200.195 178.607C201.833 177.001 201.86 174.371 200.254 172.733C198.648 171.094 196.017 171.068 194.38 172.674Z" stroke="#BDC5E8" stroke-width="1.58065" stroke-miterlimit="10"/>
<path d="M276.168 90.3218L282.178 96.454C282.582 96.8661 283.244 96.8724 283.656 96.4689C284.067 96.0651 284.074 95.4039 283.67 94.9921L277.66 88.8596C277.256 88.448 276.595 88.441 276.183 88.8448C275.771 89.2488 275.764 89.9097 276.168 90.3218Z" stroke="#BDC5E8" stroke-width="1.58065" stroke-miterlimit="10"/>
<path d="M286.002 100.355L286.076 100.429C286.479 100.841 287.141 100.848 287.553 100.444C287.965 100.04 287.972 99.3791 287.568 98.9675L287.494 98.8921C287.09 98.4804 286.429 98.4735 286.017 98.8775C285.606 99.2812 285.599 99.9427 286.002 100.355Z" fill="#C6DAE5"/>
<path d="M269.283 90.0584L218.644 186.272L214.739 182.299L265.842 86.5582L269.283 90.0584Z" fill="#ACB9E4"/>
<path d="M208.391 175.839L259.361 79.9626L257.469 78.0377L225.639 109.236L196.168 163.403L208.391 175.839Z" fill="#ACB9E4"/>
<path d="M63.788 83.0903L28.8196 118.767L26.144 115.97L24.8701 123.965C24.3353 126.027 24.8827 128.308 26.5126 129.907L110.662 212.386C113.088 214.763 116.982 214.725 119.359 212.298L156.722 174.18C157.424 173.463 157.91 172.616 158.192 171.72L158.193 171.72L158.194 171.715C158.361 171.179 158.452 170.627 158.469 170.071L159.785 162.235L155.454 164.325L72.4856 83.0033C70.0595 80.6254 66.1653 80.6644 63.788 83.0903Z" fill="#394AA6"/>
<path d="M158.066 165.882L120.704 204C118.326 206.426 114.432 206.465 112.006 204.088L27.8571 121.608C25.4314 119.23 25.3921 115.337 27.7701 112.91L65.1322 74.7919C67.5101 72.3658 71.4037 72.327 73.8295 74.7043L157.979 157.184C160.404 159.562 160.444 163.456 158.066 165.882Z" fill="#2A95FF"/>
<path d="M137.62 176.003C139.259 177.609 139.286 180.239 137.679 181.877C136.074 183.516 133.443 183.542 131.805 181.936C130.167 180.331 130.14 177.7 131.746 176.062C133.352 174.424 135.983 174.398 137.62 176.003Z" stroke="#BDC5E8" stroke-width="1.58065" stroke-miterlimit="10"/>
<path d="M55.8319 93.6509L49.8217 99.7831C49.4177 100.195 48.7565 100.202 48.3442 99.798C47.9325 99.3942 47.9262 98.733 48.3295 98.3212L54.3405 92.1887C54.7443 91.7771 55.4052 91.7701 55.8169 92.1739C56.229 92.5779 56.2359 93.2388 55.8319 93.6509Z" stroke="#BDC5E8" stroke-width="1.58065" stroke-miterlimit="10"/>
<path d="M45.9979 103.684L45.9239 103.758C45.5206 104.17 44.8592 104.177 44.4471 103.773C44.0354 103.369 44.0285 102.708 44.4322 102.297L44.506 102.221C44.9098 101.81 45.5707 101.803 45.9828 102.207C46.3945 102.61 46.4012 103.272 45.9979 103.684Z" fill="#C6DAE5"/>
<path d="M62.7172 93.3875L113.356 189.601L117.261 185.628L66.1577 89.8874L62.7172 93.3875Z" fill="#ACB9E4"/>
<path d="M123.609 179.168L72.6388 83.2912L74.531 81.3664L106.361 112.565L135.832 166.731L123.609 179.168Z" fill="#ACB9E4"/>
<path d="M148.489 153.856L108.888 194.148L34.9307 121.659L74.5329 81.3665L148.489 153.856Z" fill="white"/>
<mask id="mask0_551_1655" style="mask-type:alpha" maskUnits="userSpaceOnUse" x="34" y="81" width="115" height="114">
<path d="M148.336 153.856L108.735 194.148L34.7774 121.659L74.3796 81.3665L148.336 153.856Z" fill="white"/>
</mask>
<g mask="url(#mask0_551_1655)">
<path d="M107.628 123.138C107.628 123.138 119.678 168.685 124.27 179.214C128.52 188.97 129.922 202.614 130.51 209.466C131.241 218.085 135.63 251.648 136.141 254.168C136.658 256.689 121.964 255.563 121.964 255.563C121.964 255.563 111.832 197.53 107.628 189.062C104.82 183.41 88.5355 142.882 86.6687 145.216C84.8019 147.549 82.4953 188.158 81.1144 194.898C79.7335 201.639 75.4987 254.902 75.4987 254.902C75.4987 254.902 66.0216 256.281 63.4899 254.168C63.4899 254.168 62.3392 208.689 63.2189 196.05C63.5564 191.235 57.5009 138.301 65.2647 116.993C69.3665 105.731 105.128 123.138 105.128 123.138" fill="#2D3133"/>
</g>
<path d="M107.846 87.3758C106.115 79.1502 103.967 66.6979 103.967 66.6979L107.908 50C107.908 50 112.617 55.6338 114.967 65.8301C114.574 74.836 112.66 93.8683 112.389 95.8908C109.655 96.9061 105.613 98.3473 103.967 97.9242L107.846 87.3763V87.3758Z" fill="#F2AD00"/>
<path d="M101.041 95.7308C99.72 107.838 100.665 121.099 100.665 121.099L108.401 124.834C108.401 124.834 110.243 106.447 111.941 96.2806C109.839 95.3322 105.553 93.9478 101.041 95.7308Z" fill="#FFA18B"/>
<path d="M63.6317 122.861C63.3166 123.975 106.334 124 106.334 124C106.334 124 105.493 111.183 104.448 108.064C103.402 104.945 108.555 86.2273 109.226 80.1368C109.764 75.2639 111.111 53.4597 107.883 50.1301C104.507 46.6487 92.3515 43 92.3515 43L74.6302 43.6535C74.6302 43.6535 71.7061 44.2626 69.6152 45.2281C67.5239 46.1936 55.089 50.083 53.1473 56.0247C51.2066 61.9664 65.5565 81.4183 65.5565 81.4183C65.5565 81.4183 65.5837 82.2769 65.6254 83.6842V83.6847C65.6783 85.561 65.7585 88.4119 65.83 91.5053C65.923 95.5104 66.0043 99.9205 66.0043 103.143C66.0043 110.719 63.9458 121.747 63.6317 122.861Z" fill="#FFCB5C"/>
<path d="M87.5519 5.236C87.5519 5.236 102.965 1.84627 99.444 20.7602C95.9234 39.6742 92.2164 41.1599 82.9182 37.2463C73.62 33.3317 74.4529 21.2138 73.9841 15.2721C73.5159 9.32938 82.6354 5.44293 87.5519 5.236Z" fill="#FFA18B"/>
<path d="M90.9668 47.6844C90.9668 47.6844 84.3787 54.6976 73.9668 48.3243C73.9668 48.3243 76.2962 33.1248 75.0699 25.7212C73.8445 18.3181 88.6547 37.1923 88.6547 37.1923C88.4589 37.2951 88.3301 38.001 88.3003 39.0063C88.2755 39.858 88.3202 40.9253 88.4564 42.019C88.7621 44.4795 89.5242 47.0789 90.9668 47.6844Z" fill="#FFA18B"/>
<path d="M74.8807 25C74.8807 25 75.2787 18.901 77.5074 18.7108C79.735 18.5206 80.078 20.9772 80.078 20.9772L82.3288 21.4013C82.3288 21.4013 81.6176 16.0558 83.8427 15.1218C86.0673 14.1879 98.2597 18.0647 100.046 16.4954C101.833 14.926 100.992 4.08352 97.7615 2.60002C94.531 1.11498 85.6096 -2.20977 79.0732 2.21296C79.0732 2.21296 73.9777 1.6321 73.2228 5.74282C72.4663 9.85302 73.4958 21.9441 74.8807 25Z" fill="#3A3F47"/>
<path d="M88.9668 42C77.8186 38.6484 76.9792 32.1021 76.9668 32C80.6381 38.1508 88.8048 38.9638 88.8048 38.9638C88.779 39.8221 88.8254 40.8977 88.9668 42Z" fill="#FF6C4A"/>
<path d="M68.9668 45.4463C68.9668 45.4463 77.1811 62.02 90.4514 60.9504C103.721 59.8802 92.7126 43.2212 92.1099 43.0681C91.4471 42.8982 78.5006 39.6287 68.9668 45.4463Z" fill="#FFA18B"/>
<path d="M106.034 114.14C106.034 114.14 100.365 115.287 87.5444 112.987C79.1416 111.936 61.965 108.801 60.4809 104.678C58.7851 103.34 55.1253 83.5424 53.591 70.0704C52.056 56.5975 53.3202 55.762 53.3202 55.762C53.3202 55.762 55.8068 53.6822 61.3346 52.92C66.8616 52.1591 69.0056 57.798 69.1361 60.0421C69.2646 62.2872 70.2807 81.5382 69.9408 85.8349C69.5997 90.1313 70.4468 92.3943 72.2595 93.5584C72.8414 93.9323 76.7116 96.8241 81.6996 98.4956C92.26 102.033 107.833 106.98 107.833 106.98L106.034 114.14Z" fill="#F2AD00"/>
<path d="M65.9668 83.9007C65.9668 83.9013 65.9668 83.9013 65.9668 83.9013C66.0133 85.8443 66.0838 88.7966 66.1465 92C70.9485 78.1988 68.1741 67.1859 68.1276 67C68.6469 70.7451 66.0047 83.7159 65.9668 83.9007Z" fill="#F2AD00"/>
<path d="M107.967 87.9872C107.967 87.9872 107.967 87.9872 107.967 87.9878C108.503 91.4226 108.986 94.1433 109.285 95C110.729 85.7906 109.43 74 109.43 74C109.232 79.6325 107.967 87.9872 107.967 87.9872Z" fill="#F2AD00"/>
<path d="M87.3738 113.032L87.3752 113.034C100.25 115.008 115.052 116.449 115.052 116.449L116.206 109.2C116.206 109.2 100.513 104.649 89.8669 101.38C89.8669 101.38 86.787 103.813 87.3738 113.032Z" fill="#FFA18B"/>
<path d="M153.83 109C153.83 109 144.226 111.758 143.83 112.538C143.435 113.319 143.7 113.89 144.616 113.675C145.532 113.458 154.023 111.311 154.023 111.311C154.023 111.311 143.523 116.703 143.05 117.242C142.774 117.559 143.232 118.686 143.742 118.621C144.252 118.555 155.058 113.899 155.058 113.899C155.058 113.899 145.266 118.954 145.022 119.554C144.808 120.079 145.464 121.046 146.229 120.731C146.988 120.414 156.421 116.315 156.421 116.315C156.421 116.315 149.6 120.512 149.704 121.203C149.767 121.625 150.126 122.611 151.848 121.464C153.565 120.316 157.967 118.112 157.967 118.112L153.83 109Z" fill="#8E4F3A"/>
<path d="M166.016 107.601C166.016 107.601 162.449 107.549 161.181 106.158C159.908 104.767 157.664 103.519 156.939 103.165C155.978 102.689 153.317 100.069 152.985 101.348C152.647 102.628 157.221 105.874 158.096 106.751C158.962 107.627 154.293 108.01 153.608 108.859C152.924 109.709 155.309 118.654 158.418 117.962C161.533 117.268 164.079 114.091 164.672 114.099C165.256 114.105 166.967 113.7 166.967 113.7L166.016 107.601Z" fill="#8E4F3A"/>
<path d="M128.541 109.679C128.541 109.679 138.749 112.457 139.202 113.342C139.656 114.23 139.407 114.901 138.436 114.692C137.465 114.48 128.455 112.36 128.455 112.36C128.455 112.36 139.733 118.148 140.256 118.752C140.561 119.107 140.138 120.43 139.6 120.376C139.062 120.322 127.499 115.399 127.499 115.399C127.499 115.399 138.019 120.827 138.305 121.511C138.555 122.11 137.916 123.257 137.099 122.924C136.286 122.59 126.191 118.253 126.191 118.253C126.191 118.253 133.553 122.816 133.478 123.62C133.434 124.11 133.107 125.266 131.244 124.014C129.386 122.759 124.661 120.398 124.661 120.398L128.541 109.679Z" fill="#FFA18B"/>
<path d="M115.761 109.209C115.761 109.209 119.626 108.993 120.933 107.392C122.246 105.79 124.619 104.305 125.388 103.88C126.407 103.31 129.166 100.282 129.588 101.688C130.015 103.094 125.213 106.901 124.306 107.914C123.41 108.925 128.49 109.142 129.273 110.055C130.056 110.969 127.9 121.007 124.496 120.376C121.086 119.743 118.173 116.329 117.53 116.364C116.897 116.396 114.817 116.364 114.817 116.364L115.761 109.209Z" fill="#FFA18B"/>
<mask id="mask1_551_1655" style="mask-type:alpha" maskUnits="userSpaceOnUse" x="171" y="77" width="136" height="134">
<path d="M267.516 79.7607L302.484 115.437L305.16 112.64L306.434 120.635C306.968 122.697 306.421 124.979 304.791 126.577L220.642 209.056C218.216 211.433 214.322 211.395 211.944 208.969L174.582 170.85C173.879 170.133 173.393 169.286 173.112 168.39L173.111 168.39L173.11 168.385C172.943 167.849 172.852 167.297 172.834 166.741L171.518 158.905L175.849 160.995L258.818 79.6738C261.244 77.2958 265.138 77.3348 267.516 79.7607Z" fill="#01539F"/>
<path d="M275.472 90.3213L281.482 96.4535C281.886 96.8657 282.547 96.8719 282.96 96.4684C283.371 96.0646 283.377 95.4034 282.974 94.9916L276.963 88.8591C276.559 88.4475 275.898 88.4405 275.487 88.8443C275.075 89.2483 275.068 89.9092 275.472 90.3213Z" stroke="#BDC5E8" stroke-width="1.58065" stroke-miterlimit="10"/>
<path d="M285.306 100.355L285.38 100.429C285.783 100.841 286.445 100.848 286.857 100.444C287.268 100.04 287.275 99.3791 286.871 98.9675L286.798 98.8921C286.394 98.4804 285.733 98.4735 285.321 98.8775C284.909 99.2812 284.902 99.9427 285.306 100.355Z" fill="#C6DAE5"/>
<path d="M268.586 90.0579L217.948 186.272L214.043 182.299L265.146 86.5578L268.586 90.0579Z" fill="#ACB9E4"/>
<path d="M207.694 175.839L258.665 79.9621L256.773 78.0373L224.942 109.236L195.471 163.402L207.694 175.839Z" fill="#ACB9E4"/>
</mask>
<g mask="url(#mask1_551_1655)">
<mask id="mask2_551_1655" style="mask-type:alpha" maskUnits="userSpaceOnUse" x="183" y="78" width="115" height="113">
<path d="M183.714 150.642L223.357 190.915L297.525 118.329L257.881 78.0564L183.714 150.642Z" fill="white"/>
</mask>
<g mask="url(#mask2_551_1655)">
<path d="M211.01 131.805C211.01 131.805 198.96 177.352 194.367 187.881C190.117 197.637 188.716 211.281 188.128 218.133C187.396 226.752 183.008 260.315 182.497 262.835C181.98 265.356 196.674 264.23 196.674 264.23C196.674 264.23 206.806 206.197 211.01 197.729C213.818 192.077 230.102 151.549 231.969 153.883C233.836 156.216 236.142 196.825 237.523 203.565C238.904 210.306 243.139 263.569 243.139 263.569C243.139 263.569 252.616 264.948 255.148 262.835C255.148 262.835 256.299 217.356 255.419 204.717C255.081 199.902 261.137 146.968 253.373 125.66C249.271 114.398 211.01 131.805 211.01 131.805Z" fill="#00385F"/>
</g>
</g>
<path d="M278.967 99.243C278.967 99.7617 277.965 101.833 276.361 104.814C274.023 100.247 272.188 96.4962 271.587 95.117C269.613 90.5725 259.458 80.1581 259.458 80.1581C259.458 80.1581 259.458 80.1637 259.453 80.179C259.453 80.1836 259.453 80.1876 259.448 80.1917C259.448 80.1952 259.448 80.1998 259.448 80.2029C259.443 80.2176 259.438 80.2324 259.433 80.2471C259.427 80.2715 259.422 80.3005 259.407 80.3356C259.402 80.3529 259.402 80.3722 259.397 80.39C259.391 80.4048 259.386 80.4175 259.381 80.4323C258.826 82.4426 255.434 95.0148 255.311 101.206C255.172 107.946 253.368 120.417 253.368 120.417L253.363 120.419L251.241 120.709L246.548 121.355L245.983 121.432L244.616 121.618L232.179 123.329L227.759 123.934L227.163 124.017L224.64 124.363L217.676 125.319L215.898 125.562L215.883 125.565L214.552 125.747L212.712 126C212.712 126 212.712 126 212.712 125.999C212.66 125.932 210.923 123.608 211.19 118.447C211.36 115.115 211.771 108.854 211.602 103.046C211.602 103.015 211.596 102.985 211.596 102.955C211.596 102.883 211.596 102.81 211.596 102.736C211.591 102.709 211.591 102.686 211.591 102.662V102.649C211.483 99.4581 211.19 96.4332 210.584 94.135C210.173 92.5803 209.895 91.0399 209.715 89.5971C209.71 89.5259 209.7 89.4557 209.69 89.386C209.659 89.118 209.628 88.8535 209.608 88.5921C209.207 84.5643 209.52 81.4967 209.541 81.3182L209.53 81.3329C209.407 81.6009 208.497 84.8496 207.31 88.8602C205.296 95.6418 202.474 104.601 201.277 105.031C199.53 105.66 171.259 113.833 165.153 114.67C164.444 114.766 164.038 114.766 163.997 114.644C163.971 114.557 163.94 114.468 163.915 114.375C163.169 111.988 162.152 107.929 161.987 107.274C161.972 107.214 161.967 107.184 161.967 107.184L163.056 106.863L193.825 97.8648L207.886 58.2787C208.179 58.0499 211.632 56.4174 214.156 55.2467C216.731 54.051 219.83 52.2965 222.636 50.7932C224.069 50.0293 225.426 49.3301 226.598 48.8052L226.773 48.7259L226.778 48.7244C228.715 47.8593 230 47.2882 230 47.2882C230 47.2882 230 47.2882 230.005 47.2882C230.052 47.2831 230.36 47.2536 230.848 47.2099C233.546 46.9586 241.944 46.1907 244.755 46.03C244.986 46.0152 245.181 46.0076 245.33 46.0041C245.459 45.9995 245.557 45.9985 245.613 46.0025C245.973 46.0234 247.7 46.6128 249.976 47.4565C250.059 47.4891 250.146 47.5216 250.233 47.5542C250.341 47.5923 250.449 47.632 250.557 47.6727C250.752 47.7469 250.958 47.8222 251.158 47.8995C251.564 48.0541 251.986 48.2133 252.407 48.377C252.551 48.434 252.705 48.4904 252.854 48.5474C257.403 50.3116 262.619 52.4898 263.852 53.3594C264.675 53.9305 267.224 58.622 270.179 64.4217C273.987 76.3261 278.813 94.5474 278.962 99.0406C278.962 99.1102 278.967 99.1789 278.967 99.243Z" fill="white"/>
<path d="M213.158 125.925C213.158 125.925 212.235 127.086 211.967 132C211.967 132 249.946 127.346 253.955 125.513C253.955 125.513 254.113 120.096 253.261 120.001C252.323 119.899 213.158 125.925 213.158 125.925Z" fill="#495055"/>
<path d="M245.967 44.1122C245.846 49.8569 233.942 53 233.942 53C233.942 53 228.962 47.1666 230.15 46.6087C230.615 46.3878 230.804 45.5188 230.866 44.5412C230.919 43.6123 230.856 42.5872 230.798 41.9352C230.762 41.5285 230.73 41.2673 230.73 41.2673C230.73 41.2673 232.425 39.5912 234.59 37.5926C238.377 34.0997 243.571 29.6234 243.582 31.404C243.582 31.4991 243.566 31.6106 243.54 31.7414C242.624 35.7481 245.967 44.1122 245.967 44.1122Z" fill="#8E4F3A"/>
<path d="M244.967 121.225C244.967 121.225 245.592 126.599 245.645 128L246.967 127.641C246.967 127.641 246.601 121.953 246.388 121L244.967 121.225Z" fill="#353A3D"/>
<path d="M215.799 125.255C215.799 125.255 214.985 130.152 214.967 132L217.24 131.752C217.24 131.752 217.712 125.638 217.967 125L215.799 125.255Z" fill="#353A3D"/>
<path d="M240.967 36C240.967 36 240.967 36 240.962 36.001C240.942 36.0363 240.473 36.7539 239.666 37.784C237.955 39.9691 234.743 43.5587 231.135 45C231.184 44.0551 231.125 43.0124 231.072 42.3493C230.7 42.3402 230.333 42.2963 229.967 42.2142C230.954 40.4559 232.387 38.612 232.387 38.612L234.616 37.9321L240.967 36Z" fill="#633029"/>
<path d="M243.091 31.1101C242.101 33.2913 241.17 34.8703 240.905 35.4962C240.905 35.4962 240.905 35.4962 240.9 35.4973C240.73 35.9065 240.26 36.5706 239.574 37.3229C237.693 39.3808 234.207 42.093 230.78 41.9975C230.4 41.9883 230.024 41.9434 229.649 41.8592C228.263 41.5517 226.628 40.8974 225.727 39.1058C218.623 24.9524 223.766 13.3812 223.766 13.3812C223.766 13.3812 243.191 7.79119 246.233 13.7409C248.364 17.9139 245.403 25.9865 243.091 31.1101Z" fill="#8E4F3A"/>
<path d="M223.38 13.9561C223.38 13.9561 221.547 13.8555 221.093 10.448C220.64 7.08233 221.552 6.14807 221.552 6.14807C221.552 6.14807 229.717 2.80469 232.646 2.36864C235.58 1.93461 242.788 1.51674 244.479 3.40798C244.479 3.40798 248.585 2.47373 249.705 9.14485C251.478 19.7253 243.659 30 243.659 30C243.659 30 243.725 23.0874 242.166 22.1713C240.608 21.2557 239.263 23.4335 239.263 23.4335L236.079 23.9928C236.079 23.9928 240.918 13.7656 235.111 13.3856C229.304 13.0072 226.707 14.5477 223.38 13.9561Z" fill="#3A3F47"/>
<path d="M240.056 20.897C240.325 17.8722 245.283 16.7176 244.951 19.8879C244.619 23.0582 242.174 26.1046 241.047 25.9972C239.921 25.8899 239.854 23.2023 240.056 20.897Z" fill="#8E4F3A"/>
<path d="M259.575 80.1062C259.58 80.0915 259.585 80.0787 259.59 80.0639C259.595 80.0461 259.595 80.0267 259.6 80.0094C259.611 79.9793 259.621 79.9498 259.626 79.9208C259.631 79.906 259.636 79.8912 259.641 79.8764C259.641 79.8734 259.641 79.8688 259.641 79.8652C259.646 79.8611 259.646 79.8571 259.646 79.8525C259.646 79.8525 265.579 89.0081 265.131 96.9638C265.06 98.2013 263.814 101.33 262.002 105.342C262.002 105.344 261.997 105.345 261.997 105.348C261.335 106.81 260.603 108.388 259.819 110.034C259.789 109.966 259.758 109.896 259.733 109.828C258.598 107.095 257.86 104.529 257.86 102.288C257.86 102.288 258.364 84.8343 259.575 80.1062ZM278.967 98.9513C278.967 98.8871 278.962 98.8183 278.962 98.7485C278.855 94.2584 276.616 76.2784 272.845 64.3522C271.019 58.5619 269.431 53.977 268.724 53.4766C267.498 52.6079 257.743 49.9581 253.113 48.1631C250.202 47.0413 250.314 47 250.314 47C249.541 47.8335 247.368 50.4024 245.124 53.55C240.341 60.2692 234.113 71.1458 235.064 81.1925C235.563 86.4137 236.077 93.166 237.405 101.479C238.677 109.267 242.646 114.577 246.172 120.928C248.609 125.057 252.222 133.479 254.11 137.841C254.507 138.766 256.1 142.298 258.181 148L270.373 141.353C272.688 140.209 271.482 134.045 270.612 131.639C269.884 129.637 268.871 127.49 267.721 125.273C267.253 124.366 266.76 123.448 266.256 122.522C270.072 115.937 273.939 109.147 276.387 104.532C277.975 101.546 278.967 99.471 278.967 98.9513Z" fill="#00385F"/>
<path d="M226.967 48.0717C223.457 59.5722 220.235 88.8729 218.888 100.735V100.738C217.876 109.606 215.569 118.703 214.834 125.493C214.834 125.498 214.834 125.503 214.834 125.506C214.69 126.837 214.346 128.611 213.878 130.612C213.827 130.838 213.77 131.067 213.714 131.299C211.653 139.869 207.65 152 207.65 152L206.483 150.94L203.025 147.805C202.233 147.084 201.93 145.977 202.249 144.963C204.165 138.885 210.676 117.376 211.874 102.252C211.874 102.247 211.874 102.244 211.874 102.239C212.244 97.4877 210.831 93.0118 210.014 88.7684C209.998 88.8053 209.988 88.8412 209.972 88.8786C209.284 90.7536 208.528 92.7925 207.763 94.7771V94.7792C205.707 100.109 203.605 105.046 202.732 105.361C200.779 106.066 165.783 116.221 165.526 114.803C165.5 114.661 165.475 114.508 165.439 114.348C165.403 114.19 165.372 114.024 165.336 113.849C164.904 111.911 164.118 109.13 163.568 107.252C163.491 106.973 163.414 106.715 163.342 106.484C163.111 105.706 162.967 105.213 162.967 105.213L192.562 95.6603L207.495 57.2582C209.268 55.8806 224.721 48.9754 226.879 48L226.967 48.0717Z" fill="#00385F"/>
<path d="M246.568 61.8742L241.158 65.0432L243.47 67.4905L237.313 102C236.057 93.9117 235.486 86.2307 235.06 81.5197C233.643 65.8405 248.761 48.0832 249.704 47C250.423 47.285 251.161 47.6702 251.967 48.002L246.568 61.8742Z" fill="#00385F"/>
<path d="M226.967 48C226.967 48 224.731 54.854 222.121 71.958C221.119 78.5287 219.712 89.7124 218.364 101L216.967 68.6961L219.825 65.7986L217.286 62.8261L222.717 49.8323C224.2 49.1896 225.597 48.5886 226.783 48.0802L226.967 48Z" fill="#00385F"/>
<path d="M249.967 46.9123L245.316 44C245.316 44 245.193 46.629 233.967 53.4989L237.156 63L249.967 46.9123Z" fill="#EDEDED"/>
<path d="M230.837 46C230.837 46 231.023 48.7106 233.967 53.8061L227.443 62L226.967 48.7106L230.837 46Z" fill="#EDEDED"/>
<path d="M234.035 53C234.035 53 235.336 58.1641 234.863 59.6092C234.863 59.6092 232.011 60.6416 229.967 59.3504C229.967 59.3504 231.417 55.738 234.035 53Z" fill="#F2AD00"/>
<path d="M227.319 125C226.548 121.363 227.28 110.462 227.308 110L227.967 110.04C227.961 110.151 227.206 121.322 227.961 124.881L227.319 125Z" fill="#AD9F99"/>
<path d="M231.854 123C231.854 123 226.68 123.632 224.967 124.068L225.192 130L231.967 129.261L231.854 123Z" fill="#69737A"/>
<path d="M231.023 58.696C231.023 58.696 225.107 74.4944 226.074 92.1796C227.074 110.515 228.714 117.163 228.714 117.163L232.36 122L233.967 116.055C233.967 116.055 229.075 92.6774 232.23 69.932C232.803 65.8102 233.654 58 233.654 58L231.023 58.696Z" fill="#F2AD00"/>
<path d="M249.91 133.023C249.91 133.023 248.576 135.765 247.242 136.224C245.908 136.681 243.967 138.911 243.967 138.911L253.352 144C253.352 144 255.854 138.967 255.965 135.765C256.077 132.564 249.91 133.023 249.91 133.023Z" fill="#8E4F3A"/>
<path d="M248.661 133L247.967 134.274C247.967 134.274 254.575 138.716 256.356 139L256.967 137.301L248.661 133Z" fill="#DECBC4"/>
<path d="M247.967 133.519C247.967 133.519 252.67 137.27 256.634 139L269.967 115.876L263.056 103C263.056 103 248.281 131.264 247.967 133.519Z" fill="#00385F"/>
<path opacity="0.5" d="M210.524 81.2824C210.319 85.42 210.349 89.0952 210.349 89.0952C210.349 89.0952 210.349 89.0972 210.349 89.0982C210.349 89.1179 210.344 89.2306 210.334 89.4152C210.329 89.3448 210.319 89.2754 210.309 89.2064C209.637 91.0481 208.901 93.0507 208.154 95C207.979 92.7412 207.934 90.636 207.989 88.6861C208.285 77.0844 211.967 71 211.967 71C211.12 73.0218 210.719 77.3606 210.524 81.2824Z" fill="#2D3133"/>
<path d="M267.967 125.764L256.967 138L266.388 123C266.93 123.93 267.462 124.853 267.967 125.764Z" fill="#2D3133"/>
<path d="M225.967 34.6349L233.967 33C233.967 33 233.59 35.07 231.049 35.8258C228.508 36.5812 225.967 34.6349 225.967 34.6349Z" fill="white"/>
<path d="M94.9668 32.6349L86.9668 31C86.9668 31 87.3437 33.07 89.8849 33.8258C92.4256 34.5812 94.9668 32.6349 94.9668 32.6349Z" fill="white"/>
</svg>
