<svg width="87" height="123" viewBox="0 0 87 123" fill="none" xmlns="http://www.w3.org/2000/svg">
<path d="M56.2657 0.260673C58.3111 1.02069 59.3531 3.29494 58.5931 5.34036L57.1647 9.1844C81.3229 20.315 93.187 48.3593 83.7697 73.7036C79.3248 85.6661 70.8964 94.9882 60.547 100.725L63.9014 108.046L72.2825 104.206C74.2662 103.297 76.6112 104.169 77.5201 106.152C78.429 108.136 77.5577 110.481 75.5739 111.39L51.6281 122.362C49.6443 123.27 47.2994 122.399 46.3905 120.415C45.4816 118.432 46.3529 116.087 48.3366 115.178L56.7177 111.338L53.3632 104.016C43.4171 107.682 32.2984 108.301 21.4896 105.196L20.0613 109.04C19.3012 111.085 17.027 112.127 14.9816 111.367C12.9362 110.607 11.8942 108.333 12.6542 106.287L14.489 101.349C15.7746 97.8895 19.5172 96.3214 22.7756 97.3332C33.3277 100.61 44.2868 99.6459 53.712 95.3313L53.7266 95.3245L53.7422 95.3175C63.8467 90.6827 72.1848 82.195 76.3626 70.9514C84.4402 49.2125 74.0119 25.1209 53.0046 15.9789C49.8761 14.6175 48.0656 10.986 49.3511 7.52614L51.186 2.58808C51.946 0.542672 54.2203 -0.499345 56.2657 0.260673Z" fill="#F2C917"/>
<path fill-rule="evenodd" clip-rule="evenodd" d="M3.29673 70.6254C-4.88346 52.7718 2.95843 31.6672 20.8121 23.487C38.6657 15.3068 59.7703 23.1487 67.9505 41.0023C76.1307 58.856 68.2888 79.9606 50.4352 88.1408C32.5815 96.321 11.4769 88.4791 3.29673 70.6254ZM24.1035 30.6707C10.2174 37.0331 4.11812 53.4478 10.4805 67.334C11.2152 68.9375 12.084 70.4373 13.0674 71.8259C14.0531 68.7752 16.2658 66.1319 19.4101 64.6912C25.3613 61.9645 32.3962 64.5785 35.1229 70.5297C37.1468 74.947 36.2284 79.9613 33.1868 83.3677C37.8171 83.7816 42.6149 83.032 47.1437 80.957C59.3243 75.3761 65.5134 62.0606 62.5558 49.5016C61.6122 55.8974 57.5517 61.7019 51.2363 64.5955C41.3176 69.14 29.5928 64.7834 25.0483 54.8647C20.5037 44.946 24.8603 33.2213 34.779 28.6767C35.1932 28.487 35.6105 28.3127 36.0302 28.1538C32.0398 28.0923 27.9735 28.8976 24.1035 30.6707ZM32.232 51.5733C29.5053 45.6221 32.1193 38.5872 38.0705 35.8605C44.0217 33.1337 51.0566 35.7477 53.7833 41.6989C56.51 47.6501 53.8961 54.685 47.9449 57.4117C41.9936 60.1385 34.9588 57.5245 32.232 51.5733ZM22.7016 71.875C20.7178 72.7839 19.8465 75.1288 20.7554 77.1126C21.6643 79.0963 24.0093 79.9677 25.993 79.0587C27.9768 78.1498 28.8481 75.8049 27.9392 73.8211C27.0303 71.8374 24.6853 70.9661 22.7016 71.875Z" fill="#F2C917"/>
</svg>
