<svg width="24" height="24" viewBox="0 0 24 24" fill="none" xmlns="http://www.w3.org/2000/svg">
<path fill-rule="evenodd" clip-rule="evenodd" d="M17.8156 17.0043C18.1085 16.7114 18.1085 16.2365 17.8156 15.9436L7.91607 6.04412C7.62318 5.75123 7.14831 5.75123 6.85541 6.04412C6.56252 6.33702 6.56252 6.81189 6.85541 7.10478L16.7549 17.0043C17.0478 17.2972 17.5227 17.2972 17.8156 17.0043Z" fill="black"/>
<path fill-rule="evenodd" clip-rule="evenodd" d="M17.8167 6.04405C17.5238 5.75116 17.0489 5.75116 16.756 6.04405L6.8565 15.9435C6.56361 16.2364 6.56361 16.7113 6.8565 17.0042C7.1494 17.2971 7.62427 17.2971 7.91716 17.0042L17.8167 7.10471C18.1095 6.81182 18.1095 6.33695 17.8167 6.04405Z" fill="black"/>
</svg>
