<svg width="18" height="21" viewBox="0 0 18 21" fill="none" xmlns="http://www.w3.org/2000/svg">
<path fill-rule="evenodd" clip-rule="evenodd" d="M4.25003 8.89819C4.25003 6.27484 6.37667 4.14819 9.00002 4.14819C11.6234 4.14819 13.75 6.27484 13.75 8.89819C13.75 11.5215 11.6234 13.6482 9.00002 13.6482C6.37667 13.6482 4.25003 11.5215 4.25003 8.89819ZM9.00002 5.64819C7.2051 5.64819 5.75003 7.10327 5.75003 8.89819C5.75003 10.6931 7.2051 12.1482 9.00002 12.1482C10.795 12.1482 12.25 10.6931 12.25 8.89819C12.25 7.10327 10.795 5.64819 9.00002 5.64819Z" fill="#F2C917"/>
<path fill-rule="evenodd" clip-rule="evenodd" d="M0.524388 7.75505C0.878716 3.45643 4.47087 0.148193 8.78406 0.148193H9.216C13.5292 0.148193 17.1213 3.45643 17.4757 7.75505C17.666 10.0642 16.9527 12.3571 15.4861 14.1508L10.693 20.0126C9.818 21.0827 8.18205 21.0827 7.30705 20.0126L2.51399 14.1508C1.04733 12.3571 0.334049 10.0642 0.524388 7.75505ZM8.78406 1.64819C5.25152 1.64819 2.30952 4.35767 2.01932 7.87827C1.8609 9.80011 2.45455 11.7084 3.67521 13.2013L8.46827 19.063C8.7431 19.3992 9.25695 19.3992 9.53178 19.063L14.3248 13.2013C15.5455 11.7084 16.1391 9.80011 15.9807 7.87827C15.6905 4.35767 12.7485 1.64819 9.216 1.64819H8.78406Z" fill="#F2C917"/>
</svg>
