<svg width="76" height="76" viewBox="0 0 76 76" fill="none" xmlns="http://www.w3.org/2000/svg">
<path fill-rule="evenodd" clip-rule="evenodd" d="M23.6877 6.86111L19.6361 18.3613C19.2049 19.5854 18.2951 20.5818 17.1153 21.1224L6.1894 26.1284L11.1954 37.0543C11.736 38.2342 11.7743 39.5829 11.3017 40.7916L6.86069 52.1471L18.3609 56.1987C19.5849 56.63 20.5814 57.5397 21.122 58.7196L26.128 69.6455L37.0539 64.6395C38.2338 64.0989 39.5825 64.0605 40.7912 64.5332L52.1467 68.9742L56.1983 57.474C56.6295 56.2499 57.5393 55.2534 58.7192 54.7129L69.6451 49.7068L64.639 38.7809C64.0985 37.6011 64.0601 36.2523 64.5328 35.0436L68.9738 23.6882L57.4736 19.6366C56.2495 19.2053 55.253 18.2955 54.7125 17.1157L49.7064 6.18981L38.7805 11.1958C37.6007 11.7364 36.2519 11.7748 35.0432 11.3021L23.6877 6.86111ZM18.5992 4.01818C19.4989 1.46447 22.3358 0.164657 24.8574 1.15081L36.7571 5.80462L48.1841 0.568992C50.5875 -0.532191 53.4285 0.523456 54.5297 2.92683L59.7653 14.3538L71.8167 18.5996C74.3704 19.4993 75.6702 22.3362 74.6841 24.8578L70.0302 36.7575L75.2659 48.1845C76.3671 50.5879 75.3114 53.4289 72.908 54.5301L61.481 59.7657L57.2352 71.8171C56.3356 74.3708 53.4987 75.6706 50.9771 74.6845L39.0773 70.0307L27.6503 75.2663C25.2469 76.3675 22.4059 75.3118 21.3048 72.9084L16.0691 61.4815L4.01776 57.2357C1.46406 56.336 0.164241 53.4991 1.15039 50.9775L5.8042 39.0777L0.568583 27.6507C-0.532598 25.2474 0.523046 22.4064 2.92642 21.3052L14.3534 16.0696L18.5992 4.01818Z" fill="#F2C917"/>
<path fill-rule="evenodd" clip-rule="evenodd" d="M21.3808 45.4943C17.1963 36.3615 21.2077 25.5657 30.3405 21.3812C39.4734 17.1967 50.2692 21.2081 54.4537 30.341C58.6382 39.4738 54.6268 50.2696 45.4939 54.4541C36.3611 58.6386 25.5652 54.6272 21.3808 45.4943ZM32.7332 26.6032C26.4844 29.4663 23.7397 36.8529 26.6028 43.1017C29.4659 49.3505 36.8525 52.0951 43.1013 49.2321C49.3501 46.369 52.0947 38.9824 49.2317 32.7336C46.3686 26.4848 38.982 23.7401 32.7332 26.6032Z" fill="#F2C917"/>
</svg>
