<svg width="628" height="424" viewBox="0 0 628 424" fill="none" xmlns="http://www.w3.org/2000/svg">
<path d="M547.825 121.37C547.825 121.37 538.547 141.568 532.303 150.102C526.059 158.633 520.111 166.793 515.131 190.476C510.148 214.158 511.002 216.538 509.638 222.655C508.274 228.772 499.402 253.555 499.35 258.099C499.298 262.643 481.416 288.513 476.835 300.623C472.255 312.731 464.14 330.027 464.598 338.833L466.636 338.315C466.636 338.315 468.296 317.783 482.432 297.032C496.57 276.281 494.547 272.364 510.601 261.703C526.654 251.043 537.022 221.597 537.022 221.597C537.022 221.597 553.352 189.612 552.593 172.983C551.834 156.356 556.167 141.361 547.825 121.37Z" fill="#28E4C9"/>
<path d="M526.096 90.3002C526.096 90.3002 525.556 103.57 521.275 111.452C516.997 119.336 513.309 124.122 512.532 132.65C511.756 141.179 509.068 163.165 497.132 173.901C485.196 184.632 483.673 216.796 474.587 226.524C465.503 236.255 464.316 243.249 465.993 259.935C467.671 276.622 473.37 299.747 460.192 329.933L457.213 322.424C457.213 322.424 466.641 297.592 464.358 283.05C462.076 268.511 454.135 246.539 457.042 236.001C459.948 225.464 449.137 223.406 455.648 207.468C462.156 191.531 459.483 185.993 468.345 172.213C468.345 172.213 469.254 171.569 471.583 159.909C473.913 148.25 492.695 126.882 501.35 119.59C510.004 112.298 522.477 100.611 526.096 90.3002Z" fill="#28E4C9"/>
<path d="M490.843 155.997C490.843 155.997 480.478 173.744 480.331 185.165C480.184 196.588 481.421 205.878 476.178 221.517C470.934 237.159 481.342 247.046 478.34 255.682C475.341 264.318 475.11 274.542 475.199 282.294C475.292 290.049 463.328 315.707 461.507 328.698C459.687 341.692 462.014 341.734 462.014 341.734C462.014 341.734 463.998 324.582 466.75 318.91C469.503 313.238 477.872 293.682 479.828 286.117C481.782 278.551 487.083 273.695 491.655 260.884C496.227 248.069 502.727 237.278 502.232 219.096C501.734 200.916 509.051 181.725 490.843 155.997Z" fill="#28E4C9"/>
<path d="M468.901 329.828C468.901 329.828 473.734 307.308 494.114 305.058C514.496 302.811 526.469 306.84 540.866 290.387C555.266 273.932 563.628 247.823 568.227 243.328C568.227 243.328 560.993 239.605 548.967 250.849C536.939 262.093 528.49 270.624 521.527 277.17C514.566 283.718 508.911 279.449 501.56 283.765C495.398 287.381 487.431 297.836 483.922 303.311C482.782 305.091 481.431 306.723 479.878 308.154C478.467 309.458 476.785 311.056 475.707 312.231C473.549 314.582 467.325 329.91 467.325 329.91L468.901 329.828Z" fill="#28E4C9"/>
<path d="M461.716 325.856C461.716 325.856 468.901 298.314 464.087 284.835C459.277 271.359 444.215 261.384 444.82 252.917C445.425 244.451 455.096 221.567 447.211 204.532C447.211 204.532 444.215 219.728 441.261 223.108C438.304 226.49 418.024 240.12 421.62 258.126C425.214 276.129 444.932 280.338 449.787 285.639C454.643 290.937 461.2 290.932 461.24 294.456C461.283 297.98 462.562 310.795 460.384 323.44L461.716 325.856Z" fill="#28E4C9"/>
<path d="M469.571 307.425L479.662 278.357C479.662 278.357 485.59 254.975 489.025 235.479C492.462 215.982 490.844 155.997 490.844 155.997C490.844 155.997 480.479 173.744 480.332 185.165C480.185 196.588 481.422 205.878 476.178 221.517C470.934 237.159 481.342 247.046 478.341 255.682C475.342 264.318 475.11 274.542 475.2 282.294C475.292 290.049 463.329 315.707 461.507 328.698C460.512 335.816 460.758 339.044 461.186 340.51C459.569 329.146 469.571 307.425 469.571 307.425Z" fill="#28E4C9"/>
<path d="M519.274 290.109C510.273 291.905 502.224 291.293 491.538 299.247C480.851 307.201 474.567 315.695 474.567 315.695C474.567 315.695 469.764 324.278 467.778 328.805C467.492 329.497 467.325 329.91 467.325 329.91L468.901 329.828C468.901 329.828 473.734 307.308 494.114 305.058C514.496 302.811 526.469 306.84 540.866 290.387C555.266 273.932 563.628 247.823 568.227 243.328C568.227 243.328 552.914 255.242 543.45 265.786C533.988 276.329 528.279 288.309 519.274 290.109Z" fill="#28E4C9"/>
<path d="M441.261 223.108C438.304 226.49 418.024 240.12 421.62 258.126C425.214 276.129 444.932 280.338 449.787 285.639C454.643 290.937 461.2 290.932 461.24 294.456C461.283 297.98 462.562 310.795 460.384 323.44L460.967 324.495C462.029 319.56 463.505 312.044 463.988 306.337C464.772 297.072 463.271 293.234 460.292 285.728C457.313 278.22 438.805 262.929 434.166 254.891C429.529 246.85 443.11 233.413 446.124 226.925C449.138 220.437 447.211 204.532 447.211 204.532C447.211 204.532 444.215 219.728 441.261 223.108Z" fill="#28E4C9"/>
<path d="M489.376 312.549L492.544 304.892C495.002 299.26 501.291 296.572 506.592 298.886C519.954 304.717 525.76 320.949 519.566 335.142L515.037 345.517C513.053 350.062 513.742 355.064 516.42 358.588C518.849 361.791 519.245 366.243 517.56 370.103L515.173 375.573C512.588 381.494 507.558 385.881 501.593 387.691C498.103 388.748 495.022 391.367 493.392 395.1L490.013 402.844C486.275 411.406 476.71 415.495 468.65 411.978L464.05 409.97C455.989 406.451 452.485 396.658 456.223 388.094C462.268 377.855 461.786 370.215 459.643 365.031C456.495 357.411 456.532 348.643 459.939 340.838L460.417 339.743C464.011 331.506 470.957 325.356 479.224 322.723C482.875 321.561 486.68 318.721 489.376 312.549Z" fill="#28E4C9"/>
<path d="M432.329 420.681C438.812 412.274 474.363 367.243 497.543 359.738C523.132 351.455 499.014 384.356 499.014 384.356C499.014 384.356 544.405 334.721 561.065 339.196C576.333 343.297 561.065 374.062 561.065 374.062C561.065 374.062 578.262 357.025 599.117 357.025C619.413 357.025 584.936 417.446 583.075 420.681H432.329Z" fill="#FF6C4A"/>
<path d="M569.124 323.263C550.578 352.229 537.042 384.406 529.305 418.588L528.033 418.247C535.738 384.779 549.185 352.66 567.698 323.726C572.001 317.004 576.648 309.025 584.706 306.402C584.86 306.352 584.92 306.589 584.771 306.643C577.412 309.416 573.151 316.977 569.124 323.263Z" fill="white"/>
<path d="M533.773 419.787C554.499 391.605 579.692 365.556 609.652 342.904C609.953 342.677 610.356 343.2 610.055 343.431C581.641 365.272 556.503 391.063 535.349 420.208L533.773 419.787Z" fill="white"/>
<path d="M570.818 305.302C571.296 306.004 573.123 307.835 573.66 310.24C574.382 312.522 573.812 315.379 573.75 315.279C573.613 315.336 575.865 313.433 576.57 310.404C577.481 307.497 576.844 303.468 575.709 302.134C573.753 299.115 570.333 298.809 569.669 300.272C568.964 301.726 569.858 303.704 570.818 305.302Z" fill="white"/>
<path d="M575.255 331.155C574.564 330.664 572.767 328.8 570.373 328.215C568.105 327.451 565.238 327.964 565.335 328.026C565.278 328.163 567.224 325.948 570.268 325.306C573.19 324.453 577.207 325.169 578.518 326.329C581.497 328.345 581.736 331.769 580.26 332.404C578.792 333.078 576.833 332.148 575.255 331.155Z" fill="white"/>
<path d="M568.559 342.486C567.867 341.996 566.072 340.132 563.678 339.549C561.411 338.783 558.542 339.295 558.641 339.358C558.581 339.494 560.53 337.28 563.571 336.637C566.496 335.784 570.512 336.501 571.824 337.66C574.803 339.676 575.042 343.101 573.566 343.735C572.098 344.412 570.137 343.479 568.559 342.486Z" fill="white"/>
<path d="M592.442 368.772C591.751 368.279 589.956 366.415 587.56 365.832C585.292 365.066 582.425 365.579 582.525 365.641C582.465 365.778 584.411 363.563 587.455 362.921C590.377 362.067 594.394 362.784 595.705 363.943C598.684 365.959 598.923 369.384 597.447 370.018C595.979 370.695 594.02 369.762 592.442 368.772Z" fill="white"/>
<path d="M604.645 358.02C603.953 357.53 602.156 355.666 599.762 355.081C597.495 354.315 594.628 354.83 594.725 354.892C594.665 355.029 596.614 352.814 599.658 352.169C602.579 351.318 606.596 352.035 607.908 353.192C610.887 355.208 611.126 358.633 609.65 359.27C608.181 359.944 606.223 359.013 604.645 358.02Z" fill="white"/>
<path d="M561.452 318.124C562.034 318.741 564.127 320.262 565.035 322.554C566.108 324.692 565.996 327.603 565.919 327.514C565.792 327.593 567.716 325.356 567.935 322.255C568.375 319.241 567.111 315.364 565.782 314.224C563.373 311.551 559.948 311.79 559.523 313.338C559.058 314.886 560.252 316.698 561.452 318.124Z" fill="white"/>
<path d="M551.603 330.973C552.432 331.414 555.329 332.21 556.785 334.378C558.432 336.304 558.641 339.601 558.532 339.534C558.378 339.676 560.595 336.354 560.498 332.797C560.704 329.246 558.594 325.461 556.735 324.761C553.293 322.813 548.888 324.55 548.527 326.464C548.112 328.39 549.879 329.898 551.603 330.973Z" fill="white"/>
<path d="M541.243 350.437C542.134 350.731 545.12 351.03 546.92 352.921C548.868 354.544 549.63 357.759 549.51 357.712C549.381 357.876 551.008 354.23 550.317 350.741C549.921 347.204 547.206 343.827 545.255 343.449C541.534 342.11 537.485 344.561 537.45 346.508C537.363 348.476 539.359 349.668 541.243 350.437Z" fill="white"/>
<path d="M571.906 363.996C572.556 364.401 574.865 365.213 575.925 367.059C577.155 368.719 577.137 371.414 577.053 371.352C576.918 371.459 578.912 368.883 579.036 365.987C579.407 363.11 577.906 359.909 576.433 359.232C573.743 357.453 570.062 358.615 569.659 360.151C569.211 361.694 570.562 363.023 571.906 363.996Z" fill="white"/>
<path d="M587.871 309.859C587.483 309.538 586.503 308.356 585.111 307.905C583.802 307.353 582.085 307.532 582.14 307.574C582.1 307.651 583.347 306.427 585.176 306.181C586.943 305.802 589.288 306.402 590.012 307.146C591.687 308.468 591.677 310.503 590.776 310.815C589.88 311.151 588.76 310.513 587.871 309.859Z" fill="white"/>
<path d="M584.152 301.586C584.169 302.091 584.505 303.587 584.013 304.963C583.652 306.337 582.462 307.589 582.462 307.522C582.375 307.507 584.107 307.263 585.419 305.966C586.797 304.799 587.753 302.574 587.606 301.546C587.581 299.414 585.964 298.177 585.167 298.702C584.354 299.207 584.174 300.481 584.152 301.586Z" fill="white"/>
<path d="M613.433 347.07C613.045 346.751 612.064 345.569 610.673 345.119C609.364 344.566 607.647 344.746 607.701 344.785C607.659 344.865 608.908 343.641 610.738 343.392C612.505 343.016 614.849 343.616 615.573 344.357C617.248 345.681 617.238 347.717 616.337 348.028C615.441 348.364 614.321 347.727 613.433 347.07Z" fill="white"/>
<path d="M608.944 338.728C609.004 339.228 609.462 340.694 609.084 342.105C608.835 343.504 607.752 344.85 607.747 344.78C607.66 344.773 609.368 344.39 610.57 342.991C611.844 341.712 612.615 339.42 612.386 338.407C612.187 336.281 610.472 335.181 609.721 335.769C608.952 336.341 608.88 337.625 608.944 338.728Z" fill="white"/>
<path d="M605.825 392.638C586.888 394.714 569.251 403.073 552.27 411.224C540.822 416.721 541.4 418.287 539.068 419.105C538.689 419.237 538.311 418.827 538.495 418.463C539.391 416.686 541.746 415.484 543.381 414.461C545.287 413.272 547.278 412.219 549.296 411.239C553.619 409.141 558.052 407.254 562.457 405.34C571.418 401.446 580.527 397.782 589.994 395.303C595.186 393.945 600.467 392.964 605.812 392.484C605.912 392.474 605.924 392.626 605.825 392.638Z" fill="white"/>
<path d="M588.756 386.765C588.878 387.544 589.689 389.798 589.189 392.026C588.893 394.223 587.288 396.393 587.278 396.286C587.138 396.279 589.779 395.572 591.563 393.31C593.472 391.234 594.527 387.606 594.104 386.04C593.656 382.738 590.911 381.133 589.776 382.098C588.612 383.039 588.582 385.047 588.756 386.765Z" fill="white"/>
<path d="M572.073 392.74C572.198 393.517 573.006 395.771 572.506 398.001C572.21 400.199 570.607 402.369 570.595 402.259C570.458 402.252 573.096 401.545 574.88 399.285C576.792 397.21 577.847 393.579 577.424 392.013C576.973 388.711 574.228 387.106 573.094 388.071C571.931 389.012 571.899 391.023 572.073 392.74Z" fill="white"/>
<path d="M555.122 400.296C555.244 401.073 556.053 403.327 555.555 405.557C555.259 407.755 553.654 409.925 553.644 409.815C553.505 409.81 556.145 409.101 557.93 406.841C559.838 404.766 560.894 401.135 560.471 399.569C560.023 396.269 557.275 394.662 556.143 395.627C554.978 396.568 554.948 398.579 555.122 400.296Z" fill="white"/>
<path d="M593.736 402.354C593.393 401.712 592.731 399.599 591.121 398.235C589.675 396.779 587.281 396.078 587.333 396.162C587.236 396.244 589.575 395.294 592.151 395.963C594.717 396.426 597.522 398.511 598.084 399.903C599.595 402.585 598.467 405.301 597.094 405.223C595.712 405.181 594.565 403.715 593.736 402.354Z" fill="white"/>
<path d="M576.384 408.496C576.043 407.854 575.378 405.741 573.768 404.377C572.322 402.921 569.928 402.22 569.98 402.304C569.883 402.386 572.223 401.436 574.801 402.105C577.367 402.568 580.169 404.654 580.732 406.045C582.242 408.728 581.115 411.443 579.741 411.366C578.36 411.323 577.215 409.857 576.384 408.496Z" fill="white"/>
<path d="M606.953 396.03C606.654 395.672 605.957 394.433 604.765 393.79C603.668 393.066 602.072 392.942 602.115 392.989C602.065 393.054 603.409 392.148 605.114 392.228C606.786 392.18 608.822 393.119 609.359 393.917C610.663 395.403 610.315 397.257 609.441 397.389C608.568 397.546 607.654 396.777 606.953 396.03Z" fill="white"/>
<path d="M604.95 387.872C604.881 388.333 604.938 389.754 604.258 390.926C603.698 392.116 602.404 393.059 602.417 392.994C602.34 392.967 603.96 393.036 605.371 392.076C606.822 391.242 608.066 389.376 608.106 388.415C608.439 386.466 607.173 385.068 606.359 385.414C605.533 385.737 605.157 386.869 604.95 387.872Z" fill="white"/>
<path d="M117.219 276.854C94.9667 257.011 83.5249 228.518 77.8449 208.106C71.6786 185.949 70.7805 168.264 70.772 168.087L69.5625 168.013C69.571 168.192 70.4731 186.006 76.6767 208.312C82.4094 228.924 93.9717 257.711 116.5 277.797L117.219 276.854Z" fill="#28E4C9"/>
<path d="M73.3069 162.958C74.4037 168.06 73.4856 172.881 71.1472 176.36C67.4806 173.66 64.5972 169.337 63.5004 164.235C62.4039 159.133 63.322 154.312 65.6604 150.833C69.327 153.531 72.2104 157.856 73.3069 162.958Z" fill="#28E4C9"/>
<path d="M66.4816 177.487C70.3154 181.054 72.5565 185.74 72.9908 190.252C68.7821 190.441 64.1517 188.734 60.3178 185.168C56.484 181.599 54.2429 176.915 53.8086 172.403C58.0172 172.211 62.6477 173.921 66.4816 177.487Z" fill="#28E4C9"/>
<path d="M64.6825 192.75C69.4469 194.246 73.3544 197.564 75.6669 201.593C72.2091 203.815 67.5769 204.452 62.8125 202.959C58.0479 201.463 54.1406 198.146 51.8281 194.114C55.2859 191.894 59.9179 191.255 64.6825 192.75Z" fill="#28E4C9"/>
<path d="M72.0201 211.112C75.794 212.304 78.8115 215.348 80.5207 219.193C77.6595 221.597 73.9127 222.508 70.1386 221.318C66.3647 220.126 63.3472 217.082 61.6377 213.237C64.499 210.833 68.246 209.922 72.0201 211.112Z" fill="#28E4C9"/>
<path d="M78.4639 184.906C81.434 181.915 85.3679 180.641 89.1756 181.051C89.3866 185.08 87.9969 189.164 85.0267 192.156C82.0566 195.145 78.1227 196.419 74.3148 196.011C74.104 191.982 75.4937 187.895 78.4639 184.906Z" fill="#28E4C9"/>
<path d="M81.9071 198.066C84.8773 195.075 88.8112 193.801 92.6189 194.209C92.83 198.241 91.4403 202.324 88.47 205.313C85.5 208.305 81.5661 209.579 77.7581 209.171C77.5473 205.139 78.937 201.055 81.9071 198.066Z" fill="#28E4C9"/>
<path d="M103.808 303.762C83.2593 300.768 65.6739 288.593 54.5401 278.907C42.453 268.395 35.1452 258.46 35.0727 258.36L34.3408 258.781C34.414 258.88 41.7741 268.89 53.9396 279.474C65.1816 289.257 82.9489 301.554 103.753 304.588L103.808 303.762Z" fill="#FF6C4A"/>
<path d="M34.578 254.406C37.1732 256.949 38.4888 260.105 38.4649 263.024C35.2978 262.862 31.9619 261.454 29.3667 258.91C26.7717 256.364 25.4559 253.211 25.4798 250.289C28.6472 250.453 31.9828 251.86 34.578 254.406Z" fill="#FF6C4A"/>
<path d="M36.1846 265.47C39.7821 266.072 42.8825 267.934 44.8662 270.39C42.4933 272.118 39.1462 272.901 35.5488 272.299C31.9514 271.697 28.8507 269.833 26.8672 267.377C29.2402 265.652 32.5875 264.868 36.1846 265.47Z" fill="#FF6C4A"/>
<path d="M40.9966 275.032C44.3399 274.074 47.8843 274.502 50.7752 275.958C49.6172 278.576 47.1695 280.724 43.8265 281.684C40.4831 282.642 36.9387 282.214 34.0479 280.758C35.2058 278.14 37.6535 275.993 40.9966 275.032Z" fill="#FF6C4A"/>
<path d="M52.3079 282.891C54.9587 282.135 57.8809 282.747 60.3499 284.325C59.6091 286.821 57.7806 288.789 55.1301 289.544C52.4794 290.3 49.5572 289.688 47.0879 288.11C47.829 285.614 49.6572 283.648 52.3079 282.891Z" fill="#FF6C4A"/>
<path d="M45.9973 265.184C46.5764 262.305 48.374 260.055 50.7445 258.833C52.4134 261.093 53.173 264.002 52.5939 266.879C52.0147 269.756 50.2169 272.008 47.8464 273.23C46.1775 270.97 45.4179 268.061 45.9973 265.184Z" fill="#FF6C4A"/>
<path d="M53.0489 271.513C53.6283 268.633 55.4259 266.384 57.7964 265.159C59.4653 267.421 60.2246 270.331 59.6455 273.208C59.0664 276.085 57.2685 278.337 54.8983 279.559C53.2294 277.297 52.4698 274.39 53.0489 271.513Z" fill="#FF6C4A"/>
<path d="M116.181 365.265C92.4776 374.264 66.385 369.511 48.67 363.938C29.4385 357.888 15.6491 349.596 15.5117 349.514L14.9863 350.517C15.1242 350.601 29.0144 358.958 48.373 365.051C66.2619 370.68 92.6232 375.478 116.621 366.367L116.181 365.265Z" fill="#28E4C9"/>
<path d="M12.5948 344.698C16.8977 346.371 20.2052 349.631 21.9441 353.431C18.4718 355.206 14.0673 355.472 9.76436 353.802C5.46139 352.13 2.1539 348.869 0.415039 345.069C3.88703 343.295 8.29179 343.028 12.5948 344.698Z" fill="#28E4C9"/>
<path d="M20.9932 358.028C25.1899 356.554 29.6195 357.025 33.2169 358.966C31.7319 362.689 28.6395 365.802 24.4425 367.278C20.2458 368.752 15.8162 368.279 12.2188 366.34C13.704 362.617 16.7965 359.504 20.9932 358.028Z" fill="#28E4C9"/>
<path d="M31.898 367.405C34.8802 364.065 38.9164 362.4 42.8761 362.475C43.2238 366.594 41.9147 370.912 38.9323 374.249C35.9498 377.589 31.9139 379.254 27.9541 379.179C27.6064 375.063 28.9157 370.743 31.898 367.405Z" fill="#28E4C9"/>
<path d="M47.1558 372.246C50.138 368.909 54.1742 367.244 58.1337 367.318C58.4816 371.435 57.1723 375.752 54.1901 379.092C51.2076 382.43 47.1717 384.095 43.2119 384.022C42.8643 379.904 44.1733 375.586 47.1558 372.246Z" fill="#28E4C9"/>
<path d="M32.8005 356.604C30.1759 353.187 29.0062 349.069 29.2842 345.333C32.7407 345.736 36.2747 347.745 38.899 351.162C41.5234 354.579 42.6933 358.697 42.4151 362.433C38.9588 362.03 35.4248 360.021 32.8005 356.604Z" fill="#28E4C9"/>
<path d="M48.6507 361.564C45.9771 358.187 44.7437 354.083 44.9609 350.335C48.4162 350.678 51.9748 352.627 54.6487 356.004C57.3226 359.381 58.556 363.488 58.3387 367.236C54.8831 366.892 51.3246 364.944 48.6507 361.564Z" fill="#28E4C9"/>
<path d="M67.2082 373.572C67.9093 371.793 69.302 370.556 70.9338 370.046C71.7165 371.691 71.8529 373.644 71.1518 375.424C70.4507 377.203 69.0581 378.44 67.4262 378.95C66.6433 377.305 66.5074 375.352 67.2082 373.572Z" fill="#28E4C9"/>
<path d="M167.055 418.944C167.055 418.944 197.256 299.501 187.241 287.5C173.401 270.913 161.984 325.936 160.864 321.262C150.284 277.127 147.466 220.656 113.338 214.681C93.9375 211.281 117.819 256.673 116.382 268.95C114.946 281.226 79.9839 240.466 58.7388 219.113C37.4935 197.76 26.5213 211.279 39.9448 238.129C52.9254 264.094 94.9176 292.468 86.2616 295.835C77.6059 299.202 25.0564 265.669 18.6214 280.004C10.7312 297.58 89.5579 321.496 82.1351 325.446C74.7123 329.393 37.0378 316.389 38.0671 329.828C39.0962 343.27 89.7413 342.767 88.8758 348.68C87.4744 358.252 53.9779 336.585 52.5056 349.83C50.9997 363.376 96.5733 360.905 95.7839 371.472C95.3302 377.544 85.5514 368.383 84.1104 376.795C80.8251 395.971 140.903 419.332 140.903 419.332L167.055 418.944Z" fill="white"/>
<path d="M190.084 419.673C190.084 419.673 161.342 375.606 147.511 367.286C132.774 358.421 143.994 384.963 143.994 384.963C143.994 384.963 113.879 349.128 105.507 356.408C97.1357 363.69 104.734 372.121 104.734 372.121C104.734 372.121 77.698 364.11 72.8385 374.033C65.3717 389.284 109.883 401.929 109.883 401.929C109.883 401.929 90.7751 401.725 94.2907 412.02C99.5923 427.547 190.084 419.673 190.084 419.673Z" fill="#28E4C9"/>
<path d="M155.195 309.028L156.485 308.147C133.084 272.707 125.941 230.631 124.069 201.573C122.038 170.041 125.603 146.602 125.639 146.371L124.041 145.905C124.004 146.142 120.412 169.735 122.451 201.456C124.334 230.76 131.544 273.21 155.195 309.028Z" fill="#FF6C4A"/>
<path d="M130.246 140.851C130.297 147.969 127.828 153.855 123.885 157.386C119.88 152.294 117.319 145.42 117.267 138.303C117.217 131.182 119.686 125.297 123.629 121.765C127.634 126.857 130.195 133.731 130.246 140.851Z" fill="#FF6C4A"/>
<path d="M117.571 156.853C121.56 163.147 123.197 170.215 122.552 176.28C117.077 174.722 111.565 170.509 107.577 164.215C103.588 157.921 101.951 150.853 102.595 144.786C108.071 146.344 113.582 150.557 117.571 156.853Z" fill="#FF6C4A"/>
<path d="M111.177 175.972C116.918 179.964 121.068 185.966 122.972 192.21C117.923 193.619 111.783 192.464 106.041 188.47C100.3 184.478 96.1502 178.475 94.2461 172.231C99.2954 170.823 105.436 171.977 111.177 175.972Z" fill="#FF6C4A"/>
<path d="M118.665 209.35C121.169 210.843 123.071 213.24 124.048 215.813C121.992 216.58 119.407 216.299 116.903 214.803C114.399 213.31 112.497 210.913 111.521 208.34C113.576 207.573 116.161 207.854 118.665 209.35Z" fill="#FF6C4A"/>
<path d="M120.7 221.714C123.204 223.21 125.106 225.604 126.083 228.18C124.027 228.944 121.442 228.662 118.938 227.169C116.435 225.676 114.532 223.279 113.556 220.703C115.611 219.939 118.197 220.221 120.7 221.714Z" fill="#FF6C4A"/>
<path d="M131.034 171.664C135.66 169.043 141.07 169.07 145.869 171.238C145.065 176.581 142.183 181.307 137.557 183.928C132.93 186.551 127.52 186.521 122.722 184.356C123.526 179.013 126.408 174.287 131.034 171.664Z" fill="#FF6C4A"/>
<path d="M131.958 190.292C136.584 187.671 141.994 187.698 146.793 189.866C145.988 195.207 143.107 199.935 138.48 202.556C133.854 205.177 128.444 205.149 123.646 202.981C124.45 197.638 127.332 192.912 131.958 190.292Z" fill="#FF6C4A"/>
<path d="M131.04 216.951C134.051 215.246 137.572 215.263 140.696 216.674C140.172 220.151 138.297 223.227 135.286 224.934C132.274 226.639 128.753 226.622 125.63 225.211C126.153 221.734 128.029 218.658 131.04 216.951Z" fill="#FF6C4A"/>
<path d="M461.245 322.046C463.963 322.489 463.804 322.932 464.152 322.979C464.565 323.034 469.473 320.57 469.473 320.57C469.473 320.57 483.99 313.405 484.759 312.99L495.236 299.807L503.312 303.533C503.312 303.533 491.528 317.547 490.781 318.164C490.037 318.781 469.224 326.08 467.415 326.785C467.415 326.785 465.588 328.452 464.409 329.46C463.226 330.465 461.649 330.866 461.273 331.095C461.215 331.13 459.914 331.817 458.072 332.217C456.487 332.563 457.808 331.486 457.808 331.486C457.808 331.486 460.616 330.301 460.476 330.087C460.369 329.92 458.879 330.662 457.129 331.063C456.679 331.165 456.233 331.267 455.825 331.354C454.75 331.585 454.279 330.971 455.357 330.543C455.738 330.393 456.377 330.157 456.86 330.057C457.38 329.948 457.818 329.674 458.239 329.515C459.075 329.196 459.69 328.975 459.658 328.947C459.613 328.91 459.732 328.723 459.249 328.818C458.672 328.932 457.502 329.452 456.636 329.55C456.146 329.607 455.128 329.786 455.128 329.786C455.128 329.786 453.326 329.958 453.314 329.706C453.289 329.154 454.396 328.848 455.078 328.86C455.506 328.641 456.584 328.484 456.584 328.484C456.584 328.484 458.672 327.658 458.55 327.35C458.503 327.228 457.239 327.417 455.897 327.509C454.479 327.606 453.451 327.606 453.374 327.33C453.254 326.894 454.384 326.73 454.384 326.73C454.384 326.73 455.38 326.585 455.706 326.511C456.086 326.424 457.209 326.07 457.209 326.07C457.209 326.07 461.051 324.659 460.912 324.378C460.773 324.094 460.138 323.499 459.867 323.502C459.595 323.502 459.113 323.773 458.841 323.776C458.57 323.776 457.988 323.723 457.948 323.383C457.906 323.042 459.411 322.337 459.411 322.337C459.411 322.337 460.459 321.919 461.245 322.046Z" fill="#F8A492"/>
<path d="M487.944 307.972C487.944 307.972 490.56 310.347 491.647 311.128C492.551 311.778 496.956 313.9 496.956 313.9C496.956 313.9 501.336 307.191 503.252 303.826C505.577 299.742 507.187 293.672 506.637 293.508C505.094 293.045 502.974 292.764 501.015 293.662C494.236 296.773 487.944 307.972 487.944 307.972Z" fill="#00385F"/>
<path d="M463.784 325.553C462.619 325.737 461.429 325.515 460.914 324.45C460.8 325.714 462.713 326.342 463.784 325.553Z" fill="#FE875E"/>
<path d="M138.9 278.486C139.062 274.579 138.489 270.719 136.748 267.083C135.25 263.952 131.544 262.175 128.165 262.173C117.433 262.158 116.069 276.398 109.238 281.891C107.15 283.568 104.817 284.935 102.842 286.746C95.5487 293.428 98.8338 305.8 105.531 311.661C110.178 315.725 117.482 318.037 123.209 314.856C126.199 313.199 128.469 310.441 130.086 307.417C132.381 303.129 133.86 298.182 135.493 293.61C137.23 288.745 138.686 283.68 138.9 278.486Z" fill="#13375B"/>
<path d="M140.653 297.408C137.301 287.239 132.876 287.398 132.876 287.398L136.451 309.05C138.521 308.485 141.216 307.226 143.284 306.641C142.599 303.426 141.479 299.912 140.653 297.408Z" fill="white"/>
<path d="M157.594 332.088L145.34 322.74C145.34 322.74 144.107 314.017 142.456 306.28C140.389 306.862 138.522 308.485 136.452 309.05L139.568 326.381L155.63 334.669L160.167 340.497L161.198 334.512L157.594 332.088Z" fill="#F48C7F"/>
<path d="M269.3 317.487C273.105 317.487 276.674 318.49 279.762 320.244C280.153 320.466 280.576 320.667 281.027 320.854C290.444 324.721 300.747 317.559 300.747 307.378V257.312H250.682C240.501 257.312 233.338 247.007 237.206 237.592C237.392 237.139 237.594 236.716 237.815 236.325C239.57 233.239 240.573 229.668 240.573 225.863C240.573 213.805 230.518 204.094 218.336 204.659C207.312 205.169 198.434 214.225 198.126 225.258C198.016 229.18 198.973 232.871 200.727 236.064C200.945 236.46 201.146 236.89 201.329 237.348C205.166 246.92 197.889 257.312 187.578 257.312H137.942V371.392C137.942 398.302 159.758 420.116 186.668 420.116H300.747V370.217C300.747 359.986 290.412 352.779 280.935 356.634C280.482 356.818 280.056 357.02 279.665 357.239C276.288 359.135 272.344 360.133 268.148 359.912C257.337 359.339 248.606 350.554 248.096 339.743C247.521 327.551 257.235 317.487 269.3 317.487Z" fill="#FF6C4A"/>
<path d="M377.809 289.715C377.986 285.913 379.155 282.394 381.052 279.392C381.291 279.011 381.512 278.598 381.719 278.158C386.022 268.932 379.349 258.305 369.18 257.83L319.167 255.491L316.831 305.504C316.355 315.673 305.726 322.345 296.5 318.042C296.06 317.835 295.647 317.614 295.266 317.375C292.265 315.478 288.746 314.309 284.943 314.132C272.897 313.57 262.729 323.159 262.724 335.353C262.719 346.391 271.349 355.681 282.357 356.505C286.269 356.796 290.002 356.012 293.27 354.409C293.678 354.21 294.119 354.031 294.584 353.869C304.325 350.482 314.364 358.237 313.884 368.538L311.564 418.118L425.52 423.446C452.4 424.703 475.212 403.929 476.469 377.049L481.794 263.094L431.951 260.764C421.732 260.286 414.049 270.274 417.456 279.92C417.621 280.383 417.802 280.816 418.001 281.216C419.739 284.678 420.55 288.665 420.134 292.846C419.057 303.617 409.876 311.929 399.05 311.934C386.845 311.939 377.244 301.766 377.809 289.715Z" fill="white"/>
<path d="M238.454 210.97C238.646 214.77 237.825 218.387 236.227 221.557C236.025 221.958 235.844 222.391 235.682 222.851C232.292 232.45 239.962 242.383 250.129 241.87L300.132 239.356L297.618 189.353C297.108 179.187 307.038 171.514 316.637 174.904C317.097 175.066 317.53 175.247 317.931 175.449C321.102 177.047 324.718 177.868 328.52 177.679C340.563 177.072 349.757 166.542 348.579 154.404C347.517 143.419 338.027 135.007 326.992 135.254C323.068 135.341 319.432 136.483 316.331 138.395C315.945 138.633 315.527 138.855 315.076 139.062C305.712 143.372 294.968 136.628 294.45 126.329L291.956 76.7568L178.021 82.4858C151.145 83.8372 130.452 106.721 131.804 133.596L137.533 247.532L187.37 245.026C197.587 244.513 204.266 233.826 199.94 224.556C199.733 224.113 199.511 223.7 199.272 223.319C197.21 220.041 196.014 216.152 196.025 211.951C196.053 201.125 204.388 191.964 215.161 190.911C227.307 189.724 237.85 198.92 238.454 210.97Z" fill="#28E4C9"/>
<path d="M340.799 183.373C336.992 183.373 333.423 182.37 330.334 180.616C329.946 180.394 329.523 180.192 329.07 180.006C319.655 176.138 309.35 183.301 309.35 193.482V243.547H359.417C369.596 243.547 376.759 253.853 372.891 263.27C372.707 263.721 372.503 264.144 372.281 264.535C370.527 267.621 369.524 271.192 369.524 274.997C369.524 287.055 379.578 296.766 391.763 296.201C402.786 295.691 411.665 286.634 411.971 275.602C412.081 271.68 411.125 267.989 409.371 264.796C409.152 264.4 408.953 263.97 408.768 263.512C404.931 253.94 412.208 243.547 422.521 243.547H472.156V129.468C472.156 102.557 450.34 80.7438 423.429 80.7438H309.35V130.642C309.35 140.873 319.688 148.081 329.162 144.226C329.615 144.042 330.041 143.84 330.434 143.618C333.809 141.725 337.756 140.727 341.952 140.948C352.76 141.52 361.49 150.303 362.001 161.117C362.578 173.309 352.862 183.373 340.799 183.373Z" fill="#00385F"/>
<path d="M105.355 404.288C105.355 404.288 104.599 409.544 103.298 411.239C102.861 411.809 102.064 412.528 101.541 413.558C100.726 415.159 101.176 417.543 101.777 418.857C102.086 419.531 101.756 419.529 102.458 419.748C104.539 420.39 106.752 419.307 107.638 417.309C108.133 416.194 108.567 414.706 108.654 412.832C108.876 408.058 110.357 405.632 110.357 405.632L105.355 404.288Z" fill="#F7A491"/>
<path d="M128.11 406.692C128.11 406.692 128.577 412.617 128.198 414.544C127.995 415.576 126.866 417.699 127.384 418.67C127.902 419.641 128.494 419.882 128.494 419.882L141.927 420.101C142.659 420.111 142.175 419.641 141.585 419.205C140.619 418.493 139.84 418.023 136.756 416.527C136.554 416.43 135.822 415.962 135.558 415.8C134.888 415.392 134.215 414.745 133.636 414.101C132.672 413.023 132.588 407.804 132.588 407.804L128.11 406.692Z" fill="#F7A491"/>
<path d="M138.609 327.909C138.609 327.909 140.3 337.531 139.189 343.839C138.079 350.148 132.748 408.628 132.748 408.628L126.824 408.961C126.824 408.961 125.583 384.535 125.805 381.138C126.027 377.741 127.785 372.056 127.785 372.056L127.195 352.333L134.671 326.424L138.609 327.909Z" fill="#00385F"/>
<path d="M121.199 325.884C121.199 325.884 116.535 332.922 115.424 338.745C114.313 344.569 116.239 362.465 114.103 370.098C112.946 374.227 108.563 380.608 107.897 385.946C107.23 391.284 104.616 405.266 104.616 405.266L110.537 406.443L124.298 371.522L135.092 339.957L137.858 323.701L121.199 325.884Z" fill="#00385F"/>
<path d="M124.975 285.848C124.975 285.848 118.799 285.455 116.355 288.123C113.912 290.793 121.775 311.907 122.22 315.304C122.664 318.701 119.955 327.733 119.955 327.733C119.955 327.733 134.463 330.66 138.609 327.91C138.609 327.91 139.053 303.48 138.609 301.054C138.165 298.628 134.463 288.76 133.574 287.789C132.686 286.819 124.975 285.848 124.975 285.848Z" fill="white"/>
<path d="M127.03 277.578C127.03 277.578 126.998 277.76 126.941 278.068C126.665 279.557 125.605 284.494 124.888 285.85C124.023 287.493 127.852 292.722 131.538 292.085C132.635 291.893 130.61 287.279 130.708 286.789C130.894 285.853 131.147 284.576 131.405 283.267C131.551 282.528 131.699 281.779 131.837 281.075C132.231 279.074 132.553 277.439 132.553 277.439L127.03 277.578Z" fill="#F7A491"/>
<path d="M126.942 278.068C126.999 277.76 127.031 277.578 127.031 277.578L132.554 277.439C132.554 277.439 132.233 279.074 131.838 281.075C131.701 281.774 131.554 282.52 131.409 283.255C130.556 283.128 129.665 282.712 128.772 281.928C127.798 281.075 127.16 280.049 126.774 278.952C126.842 278.601 126.899 278.3 126.942 278.068Z" fill="#F47458"/>
<path d="M130.748 264.995C130.748 264.995 128.145 264.694 126.513 266.809C124.881 268.925 123.123 275.465 127.176 279.021C131.229 282.578 135.235 278.551 135.828 274.283C136.422 270.015 136.653 264.841 130.748 264.995Z" fill="#F7A491"/>
<path d="M137.027 274.22C136.543 275.164 135.731 275.686 135.213 275.388C134.695 275.089 134.667 274.081 135.151 273.138C135.635 272.197 136.447 271.674 136.965 271.973C137.483 272.272 137.511 273.277 137.027 274.22Z" fill="#F7A491"/>
<path d="M131.039 264.296C131.039 264.296 127.561 270.515 125.073 270.804C122.585 271.09 122.259 274.395 122.259 274.395C122.259 274.395 123.148 266.779 125.611 265.311C128.074 263.843 131.039 264.296 131.039 264.296Z" fill="#13375B"/>
<path d="M108.041 416.259C104.814 416.848 102.666 414.957 101.549 413.541C100.729 415.144 100.329 417.538 100.932 418.857C101.463 420.019 103.016 419.984 104.239 420.031C105.532 420.079 106.532 419.36 107.173 418.23C107.473 417.705 107.782 417.048 108.041 416.259Z" fill="#F47458"/>
<path d="M135.555 415.801C132.003 416.714 129.377 416.092 127.908 415.499C127.529 416.574 127.027 417.926 127.293 418.702C127.619 419.656 128.084 419.872 128.494 419.882C131.739 419.969 140.38 420.084 142.854 420.116C143.2 420.121 143.39 419.718 143.168 419.451C142.554 418.717 135.82 415.962 135.555 415.801Z" fill="#F47458"/>
<path d="M125.726 272.366C125.928 273.471 125.521 274.484 124.817 274.629C124.112 274.773 123.377 273.997 123.175 272.892C122.973 271.787 123.38 270.774 124.084 270.629C124.788 270.483 125.523 271.262 125.726 272.366Z" fill="#F7A491"/>
<path d="M129.788 276.192L132.928 276.333C132.928 276.333 132.802 277.523 131.419 277.501C129.733 277.473 129.788 276.192 129.788 276.192Z" fill="white"/>
<path d="M397.562 25.7981C397.956 25.8131 399.026 26.1714 400.594 29.133C402.595 32.9158 405.519 44.339 405.519 44.339L396.788 47.5892L395.666 45.2051L393.819 26.8484C393.819 26.8484 397.455 25.7931 397.562 25.7981Z" fill="#FF6C4A"/>
<path d="M386.022 24.1506C388.521 24.1531 394.695 24.8823 397.562 25.7981C397.562 25.7981 399.67 43.8985 395.666 57.6536C394.773 60.7321 396.408 70.4156 396.408 70.4156L370.54 70.0747C370.54 70.0747 373.606 46.6634 372.451 42.8806C371.297 39.1003 371.269 25.9201 371.269 25.9201C371.269 25.9201 371.446 25.8927 377.08 24.9171C379.708 24.4642 383.359 24.1457 386.022 24.1506Z" fill="#FF6C4A"/>
<path d="M383.008 104.013C383.008 104.013 383.58 110.618 384.633 112.447C385.686 114.277 384.578 117.385 384.524 117.813C384.466 118.239 382.309 118.848 378.874 118.483C375.44 118.117 375.495 117.325 375.773 116.044C376.05 114.764 377.876 113.117 377.988 111.897C378.098 110.678 376.936 106.29 376.936 106.29L383.008 104.013Z" fill="#F7A491"/>
<path d="M393.488 64.9654C393.488 64.9654 411.345 63.9749 415.334 66.3889C419.321 68.803 412.499 80.6542 412.499 80.6542C412.499 80.6542 400.076 80.0818 375.739 81.4879C369.975 81.8189 369.477 66.4611 370.555 65.1894C371.632 63.9177 393.488 64.9654 393.488 64.9654Z" fill="white"/>
<path d="M378.447 118.995C374.91 118.619 375.348 116.882 375.632 115.563C375.811 114.737 376.826 113.764 377.431 112.845C377.747 113.097 378.26 113.54 379.795 113.995C381.391 114.466 383.576 113.532 384.969 112.95C385.465 114.797 385.487 117.153 385.44 117.509C385.385 117.95 381.981 119.373 378.447 118.995Z" fill="#FF6C4A"/>
<path d="M380.398 77.7399C381.112 83.1379 384.643 110.013 384.643 110.013L376.448 111.029C376.448 111.029 366.369 75.9505 366.886 70.5849C367.402 65.2217 371.174 64.7688 371.174 64.7688C371.174 64.7688 378.509 63.4498 380.398 77.7399Z" fill="white"/>
<path d="M370.987 27.931C373.404 27.0252 374.588 48.8162 374.914 57.7855C379.197 58.1987 386.664 57.788 388.52 57.6487C389.396 57.584 391.412 56.8448 392.281 56.7328C393.171 56.6158 393.98 56.5536 394.418 56.6308C394.578 56.6581 399.042 58.4848 399.423 58.8855C399.898 59.3808 401.178 60.6326 400.961 61.1751C400.747 61.7152 398.5 59.667 398.5 59.667L397.402 59.0498C398.769 60.3837 401.374 62.1433 401.001 62.7829C400.633 63.4075 398.283 61.6231 396.606 60.4086C398.044 61.7052 399.829 64.0297 399.418 64.3905C399.047 64.7166 397.016 62.0263 394.846 61.2523C394.042 60.9661 393.239 61.76 392.607 61.8571C392.141 61.9267 391.424 62.076 390.966 61.9466L388.617 61.2822C387.816 61.3543 387.796 61.8272 386.987 61.9989C386.049 62.198 384.508 62.4096 383.314 62.7007C376.427 64.3831 374.133 65.1646 372.025 65.1646C365.641 65.1596 365.271 30.0763 370.987 27.931Z" fill="#F7A491"/>
<path d="M366.396 48.3906C365.943 39.2023 366.01 27.8787 371.161 25.9475C373.192 25.1834 376.776 29.7676 376.131 48.5773C373.381 48.8037 369.345 48.9879 366.396 48.3906Z" fill="#FF6C4A"/>
<path d="M406.977 109.662C406.977 109.662 406.26 111.957 407.542 113.473C408.821 114.988 414.142 116.476 414.841 117.298C415.54 118.119 415.486 118.818 415.486 118.818L400.551 118.408L400.715 113.896L401.402 110.655L406.977 109.662Z" fill="#F7A491"/>
<path d="M408.47 114.227C408.47 114.227 404.632 115.78 402.778 114.861C400.924 113.943 400.981 113.687 400.444 114.03C399.908 114.374 399.717 118.602 399.717 118.602L416.508 119.095C417.678 119.067 418.268 118.206 417.319 117.47C416.667 116.964 415.916 116.626 415.488 116.382C414.174 115.628 408.47 114.227 408.47 114.227Z" fill="#FF6C4A"/>
<path d="M406.41 69.1987C407.564 66.7673 410.19 63.6066 414.809 65.5105C419.214 67.3272 420.396 71.792 419.007 76.3637C417.616 80.9355 408.465 107.813 408.147 111.509L400.84 111.559C400.84 111.559 402.169 90.2756 402.495 85.1314C402.808 80.1814 404.411 73.4021 406.41 69.1987Z" fill="white"/>
<path d="M418.271 44.4436H393.847C393.202 44.4436 392.62 44.8343 392.373 45.4341L384.855 63.838H371.388C371.013 63.838 370.709 64.1441 370.709 64.5224C370.709 64.8982 371.013 65.2043 371.388 65.2043H409.712C410.765 65.2043 411.72 64.5847 412.151 63.619L419.724 46.6958C420.197 45.6381 419.425 44.4436 418.271 44.4436Z" fill="black"/>
<path d="M405.12 55.1599C404.956 55.9862 404.237 56.5387 403.515 56.3943C402.796 56.25 402.343 55.461 402.507 54.6348C402.674 53.8085 403.393 53.2561 404.115 53.4004C404.834 53.5448 405.287 54.3337 405.12 55.1599Z" fill="white"/>
<path d="M391.828 2.04345C391.091 1.79457 390.367 1.51338 389.668 1.1774C388.876 0.796633 387.851 0.348648 387.204 0.2491C385.84 0.0375595 383.498 0.179415 382.204 1.58056C380.594 3.33011 377.732 1.89662 378.309 11.0501C378.961 21.4106 384.723 20.2732 384.862 20.0965C385.001 19.9223 389.999 13.4691 389.999 13.4691C389.999 13.4691 391.746 17.2917 391.746 17.1524C391.746 17.0155 400.668 5.01994 391.828 2.04345Z" fill="#0E2E35"/>
<path d="M387.453 20.863L387.951 24.5637C387.951 24.5637 389.065 29.897 387.632 30.9248C386.198 31.9527 381.537 24.4119 381.537 24.4119L382.03 15.032L387.453 20.863Z" fill="#F7A491"/>
<path d="M381.871 18.0707C383.056 21.2712 385.875 23.2373 387.876 24.0013L387.453 20.8631L382.03 15.032L381.871 18.0707Z" fill="#F47458"/>
<path d="M387.159 4.82331C390.195 4.33553 392.92 6.77694 392.843 9.81565C392.811 11.1371 392.704 12.7871 392.427 14.5641C391.768 18.8372 388.851 22.6001 386.925 22.2641C384.996 21.9282 380.146 18.2424 380.999 12.1625C381.527 8.40701 383.973 5.33848 387.159 4.82331Z" fill="#F7A491"/>
<path d="M382.339 12.8868C382.178 13.8276 381.423 14.4796 380.657 14.3477C379.893 14.2133 379.403 13.3422 379.567 12.404C379.729 11.4633 380.48 10.8112 381.247 10.9431C382.013 11.0775 382.501 11.9486 382.339 12.8868Z" fill="#F7A491"/>
<path d="M381.246 10.9431C381.246 10.9431 383.578 11.523 384.442 10.0248C385.308 8.52407 388.401 5.29123 392.331 6.63016C396.263 7.97157 388.872 3.36996 388.558 3.36996C388.242 3.36996 384.469 3.34259 384.469 3.34259C384.469 3.34259 381.56 5.73669 381.455 6.0005C381.348 6.26181 380.51 9.12883 380.51 9.12883L381.246 10.9431Z" fill="#0E2E35"/>
<path d="M385.511 17.1997L389.752 18.0085C389.752 18.0085 389.346 19.6062 387.472 19.3051C385.185 18.9368 385.511 17.1997 385.511 17.1997Z" fill="white"/>
<path d="M313.77 312.477C313.931 313.037 314.023 313.221 314.23 313.597C315.559 316.018 318.645 319.473 318.645 319.473L321.034 314.095C321.034 314.095 320.643 312.405 319.969 309.991C317.664 310.593 315.467 310.941 313.77 312.477Z" fill="#F8A492"/>
<path d="M327.455 307.813C327.455 307.813 314.141 313.547 313.71 313.438C313.434 313.365 308.25 304.69 308.193 296.529C308.168 292.762 312.082 288.227 316.448 289.126C318.648 289.576 318.613 290.188 321.865 294.914C325.118 299.64 327.455 307.813 327.455 307.813Z" fill="#2A95FF"/>
<path d="M338.819 410.604L338.503 415.843C338.386 416.507 337.928 418.148 337.928 418.752C337.928 421.019 348.694 416.826 346.282 415.821C346.063 415.731 344.919 415.044 344.846 414.273C344.737 413.083 344.456 410.676 344.456 410.676L338.819 410.604Z" fill="#F7A491"/>
<path d="M346.255 415.8C346.255 415.8 343.727 416.492 342.432 416.666C341.138 416.841 339.431 415.38 338.515 415.776C337.507 416.209 337.547 420.116 337.547 420.116C337.547 420.116 351.101 421.228 354.913 420.078C356.424 419.621 351.422 417.416 346.255 415.8Z" fill="#DD513A"/>
<path d="M316.796 410.604L316.478 415.843C316.363 416.507 315.905 418.148 315.905 418.752C315.905 421.019 326.671 416.826 324.257 415.821C324.041 415.731 322.558 414.529 322.485 413.757C322.373 412.57 322.433 410.676 322.433 410.676L316.796 410.604Z" fill="#F7A491"/>
<path d="M324.233 415.801C324.233 415.801 321.704 416.492 320.41 416.667C319.116 416.841 317.409 415.38 316.493 415.776C315.485 416.209 315.445 420.116 315.445 420.116C315.445 420.116 329.061 421.413 332.891 420.079C334.377 419.559 329.399 417.416 324.233 415.801Z" fill="#DD513A"/>
<path d="M320.086 315.376L329.568 302.092C329.608 301.977 329.695 301.738 329.827 301.375C330.305 300.056 331.298 297.313 332.164 294.586L332.171 294.556C332.445 293.603 333.02 291.94 333.577 290.33C334.197 288.541 334.966 286.321 334.993 285.943C334.971 285.878 334.926 285.761 334.866 285.607C334.518 284.706 334.048 282.555 333.881 281.622C333.776 281.027 333.669 279.579 334.379 279.579C335.489 279.579 334.961 281.025 335.474 281.926C335.66 281.323 336.041 280.126 336.243 278.917L336.429 276.092C336.464 275.881 336.238 274.323 337.019 274.323H337.056C337.756 274.375 337.741 276.03 338.032 278.832C338.124 278.509 338.216 278.121 338.286 277.765C338.278 277.573 338.418 276.729 338.522 276.286C338.383 275.505 338.465 274.273 339.296 274.39C339.712 274.447 339.677 276.167 339.677 276.167C339.675 276.401 339.65 278.218 339.662 278.578C339.747 277.969 340.08 275.368 340.732 275.368C341.272 275.368 341.317 276.067 341.305 276.622C341.3 276.948 340.959 279.766 340.941 280.094C341.195 279.666 341.496 277.185 341.75 277.185C342.803 277.185 342.422 280.714 342.034 281.632C341.999 281.727 341.959 281.911 341.914 282.125C341.782 282.754 341.563 283.807 341.011 284.75C340.349 285.883 339.436 287.685 339.296 287.961C339.194 288.523 338.876 290.547 338.477 293.093C338.306 294.18 338.119 295.375 337.925 296.612L337.915 296.609C337.878 296.878 337.681 297.729 336.929 300.922C335.904 305.292 335.797 305.481 335.752 305.561C335.307 306.35 325.083 320.232 324.648 320.824L324.391 321.173L320.086 315.376Z" fill="#F7A491"/>
<path d="M337.721 284.397C337.721 284.397 336.952 282.428 335.583 282.423C335.583 282.423 336.347 282.147 337.004 282.667C337.661 283.187 337.721 284.397 337.721 284.397Z" fill="#F47458"/>
<path d="M317.797 280.594L316.575 288.312C316.575 288.312 321.227 292.047 323.937 291.258C326.211 290.599 324.654 287.625 324.654 287.625C324.654 287.625 323.442 283.503 323.812 281.343C324.183 279.183 317.797 280.594 317.797 280.594Z" fill="#F7A491"/>
<path d="M318.672 282.926C319.837 283.479 322.141 284.228 323.936 284.412C323.764 283.329 323.667 282.187 323.811 281.343C323.983 280.348 322.714 280.111 321.3 280.146C319.446 280.303 317.796 280.594 317.796 280.594L317.56 282.077C317.913 282.448 318.284 282.744 318.672 282.926Z" fill="#FE875E"/>
<path d="M311.926 271.689C311.734 271.689 313.765 280.313 316.908 281.796C320.049 283.279 324.735 282.508 325.613 280.183C326.587 277.615 323.04 268.817 318.62 267.7C314.2 266.583 311.926 271.689 311.926 271.689Z" fill="#F7A491"/>
<path d="M315.561 263.765C313.053 265.214 311.901 267.362 311.512 268.24C310.335 268.8 308.909 270.007 308.225 273.267C307.384 277.272 310.375 280.36 313.546 281.288C316.716 282.217 317.206 284.315 317.206 284.315L317.567 282.057C317.567 282.057 316.861 280.091 315.8 279.106C314.74 278.123 316.303 276.689 316.44 275.52C316.547 274.619 315.883 272.869 316.027 271.391C316.027 271.391 317.789 268.72 319.526 268.061C322.488 266.936 318.782 261.909 315.561 263.765Z" fill="#13375B"/>
<path d="M316.898 277.02C317.309 278.016 317.139 279.006 316.522 279.23C315.905 279.452 315.071 278.827 314.661 277.832C314.25 276.836 314.417 275.846 315.036 275.622C315.654 275.398 316.487 276.025 316.898 277.02Z" fill="#F7A491"/>
<path d="M328.603 315.588L346.892 312.606C346.892 312.606 344.811 307.368 344.067 307.368C343.323 307.368 330.238 313.082 330.238 313.082L329.197 315.17L328.603 315.588Z" fill="#F8A492"/>
<path d="M319.235 328.128C319.235 328.128 317.41 336.948 318.152 343.638C318.896 350.325 318.956 374.082 318.956 374.082L316.116 412.095L322.848 412.242C322.848 412.242 330.832 374.247 330.683 375.222C330.536 376.198 333.36 348.471 333.36 348.471L323.844 327.292L319.235 328.128Z" fill="#00385F"/>
<path d="M321.019 327.71C321.019 327.71 319.83 335.652 321.315 339.136C322.804 342.62 334.07 376.798 334.219 379.582C334.369 382.37 338.114 413.17 338.114 413.17L345.941 412.951L347.636 378.706L344.089 335.667L340.648 324.784L321.019 327.71Z" fill="#00385F"/>
<path d="M316.575 288.312C316.575 288.312 318.506 289.578 320.306 289.432C322.108 289.287 324.654 287.625 324.654 287.625L324.298 286.425C324.298 286.425 319.641 285.746 319.524 285.82C319.407 285.893 316.575 288.312 316.575 288.312Z" fill="#F7A491"/>
<path d="M337.149 307.109C337.149 307.109 344.068 313.639 347.191 312.524C350.315 311.409 351.606 307.599 343.986 302.024C337.167 297.035 337.149 307.109 337.149 307.109Z" fill="#F8A492"/>
<path d="M341.837 315.17C340.809 309.58 333.36 292.182 332.766 288.976C332.477 287.418 328.458 287.384 324.632 287.588C320.591 287.802 316.574 288.312 316.574 288.312C316.574 288.312 312.995 288.902 311.422 290.375C309.847 291.851 309.429 295.93 311.691 303.675C313.478 309.789 315.693 313.147 316.791 317.599C317.012 319.092 317.201 320.565 317.455 322.288C317.856 328.947 317.45 337.742 317.45 337.742C317.45 337.742 336.929 341.784 344.216 335.652C344.216 335.652 342.89 320.899 341.837 315.17Z" fill="#2A95FF"/>
<path d="M346.802 303.149C346.802 303.149 339.159 309.458 338.714 309.458C338.428 309.458 327.806 301.646 325.354 295.228C324.001 291.679 326.843 287.709 330.088 287.722C332.34 287.732 333.341 288.312 337.8 292.072C342.263 295.835 346.802 303.149 346.802 303.149Z" fill="#2A95FF"/>
<path d="M212.342 21.5101C213.595 18.4963 214.869 15.475 218.119 13.9494C220.749 12.715 223.497 13.1804 225.834 14.9374C232.456 19.9148 226.685 25.4024 234.223 34.8446C236.565 37.7788 239.4 40.148 240.803 43.5849C242.767 48.3981 240.428 50.7076 236.677 53.0121C218.737 64.0421 209.332 41.3999 209.67 36.2184C209.921 32.3659 211.536 23.4513 212.342 21.5101Z" fill="#13375B"/>
<path d="M193.724 80.1987C194.48 80.0792 196.317 78.7627 196.966 78.6432C197.468 78.5511 198.555 78.3869 199.018 78.3172C199.586 76.1968 202.467 64.6468 202.79 61.2596C203.14 57.5913 205.734 41.7208 205.734 41.7208L212.451 42.9428C212.451 42.9428 209.662 55.1524 208.89 61.0705C208.228 66.1549 202.649 77.588 201.94 78.795C201.939 78.8224 201.938 78.8523 201.936 78.8821C201.828 80.6765 200.964 80.0792 200.964 80.0792L199.559 80.4376C199.559 80.4376 194.588 80.9154 194.264 81.0349C193.94 81.1543 192.967 80.3181 193.724 80.1987Z" fill="#F7A491"/>
<path d="M211.59 32.4455C206.842 34.0557 204.142 46.9646 204.142 46.9646C204.142 46.9646 211.592 49.0426 213.501 47.9526C213.501 47.9526 215.667 38.3487 216.444 38.6847L211.59 32.4455Z" fill="#2A95FF"/>
<path d="M174.859 102.502C173.406 106.335 172.652 110.026 172.584 110.471C172.551 110.688 172.855 111.728 172.826 111.952C169.91 115.929 165.718 116.8 162.125 117.054C163.956 115.267 166.645 113.572 166.774 113.005C166.98 112.104 168.086 108.092 168.63 102.53C170.865 103.565 172.381 102.744 174.859 102.502Z" fill="#F7A491"/>
<path d="M216.185 59.6322L222.603 77.7077C222.603 77.7077 212.29 79.6488 208.435 80.3556C204.58 81.0624 183.038 82.0032 182.493 82.3864C182.087 82.6701 177.638 97.0623 175.65 104.996C173.395 105.494 169.535 104.897 167.481 104.19C168.591 92.834 172.598 74.8456 173.881 72.887C175.971 69.699 216.185 59.6322 216.185 59.6322Z" fill="#00385F"/>
<path d="M191.116 110.427C190.406 114.461 190.358 118.229 190.375 118.679C190.383 118.898 190.876 119.864 190.89 120.088C188.77 124.543 184.816 126.183 181.334 127.106C182.798 125.005 185.122 122.838 185.143 122.258C185.176 121.335 185.51 117.183 185.002 111.621C187.392 112.216 188.728 111.128 191.116 110.427Z" fill="#F7A491"/>
<path d="M223.677 60.5703L226.168 64.821C229.956 71.2942 227.051 79.6214 220.059 82.3341C220.021 82.349 219.984 82.3639 219.947 82.3789C216.293 83.7949 195.309 88.7574 194.845 89.2352C194.5 89.5886 192.826 104.561 192.361 112.729C190.239 113.637 186.335 113.776 184.186 113.465C183.148 102.104 183.713 83.6829 184.606 81.5178C186.062 77.9938 223.677 60.5703 223.677 60.5703Z" fill="#00385F"/>
<path d="M190.053 118.806C190.612 118.189 192.663 121.586 193.176 122.31C193.752 123.124 193.588 123.739 193.519 123.866C193.337 124.201 182.521 130.565 179.883 131.018C179.634 131.06 179.203 130.904 179.094 130.809C178.063 129.896 182.808 123.156 184.939 122.273C186.316 121.7 187.54 121.581 190.053 118.806Z" fill="#13375B"/>
<path d="M172.238 110.593C172.903 110.093 174.281 113.814 174.649 114.62C175.062 115.529 174.786 116.103 174.694 116.215C174.453 116.512 162.636 120.735 159.96 120.685C159.707 120.68 159.312 120.444 159.224 120.329C158.382 119.242 164.306 113.51 166.565 113.04C168.025 112.736 169.249 112.851 172.238 110.593Z" fill="#13375B"/>
<path d="M216.094 32.4081H216.094C215.971 32.4081 215.795 32.3658 215.615 32.3086C214.733 32.1518 212.805 31.9204 211.305 32.5525C209.48 33.3215 206.652 40.5163 206.821 47.8978C206.888 49.0277 206.957 50.0381 207.015 50.7425C207.476 56.3196 209.076 66.7846 209.162 66.8419C211.339 68.243 224.471 62.8102 225.374 61.6181C226.277 60.4235 226.81 45.9268 227.248 45.2051L228.112 32.5973C226.588 32.1444 218.429 32.3907 216.094 32.4081Z" fill="#2A95FF"/>
<path d="M221.417 27.7643C221.417 27.7643 220.571 32.1369 220.74 33.8641C220.909 35.5888 220.095 41.1486 216.444 41.166C212.792 41.1859 215.75 34.098 216.094 32.4082C216.438 30.7159 216.52 25.4847 216.52 25.4847L221.417 27.7643Z" fill="#F7A491"/>
<path d="M216.444 28.1101C216.501 26.6766 216.52 25.4845 216.52 25.4845L221.417 27.7641C221.417 27.7641 221.244 28.6601 221.07 29.7974C218.927 30.228 217.373 29.4366 216.444 28.1101Z" fill="#F47458"/>
<path d="M223.206 15.6939C223.206 15.6939 225.092 16.7417 225.782 19.0089C226.474 21.2786 225.687 27.132 220.813 28.5456C215.939 29.9592 213.827 25.3227 214.831 21.6992C215.835 18.0731 218.019 13.4839 223.206 15.6939Z" fill="#F7A491"/>
<path d="M214.222 20.2931C214.317 21.2662 214.854 22.0103 215.421 21.9555C215.989 21.9008 216.371 21.0646 216.275 20.0915C216.18 19.1185 215.643 18.3743 215.075 18.4291C214.509 18.4863 214.126 19.32 214.222 20.2931Z" fill="#F7A491"/>
<path d="M222.634 15.3978C222.634 15.3978 223.517 21.9282 225.629 23.1078C227.74 24.2875 226.856 27.1843 226.856 27.1843C226.856 27.1843 228.773 20.4548 227.103 18.2946C225.433 16.1344 222.634 15.3978 222.634 15.3978Z" fill="#13375B"/>
<path d="M224.378 24.0461C223.806 24.8972 223.808 25.9001 224.383 26.2859C224.958 26.6741 225.889 26.2984 226.461 25.4472C227.033 24.5961 227.033 23.5931 226.456 23.2049C225.881 22.8192 224.95 23.1949 224.378 24.0461Z" fill="#F7A491"/>
<path d="M217.277 24.4094L220.713 25.2729C220.713 25.2729 220.3 26.577 218.778 26.2411C216.922 25.8329 217.277 24.4094 217.277 24.4094Z" fill="white"/>
<path d="M234.333 79.6537C234.497 79.6462 249.143 78.9095 249.143 78.9095C249.143 78.9095 243.066 83.2772 242.941 83.2772C242.817 83.2772 238.101 81.4157 237.894 81.4157C237.688 81.4157 234.333 79.6537 234.333 79.6537Z" fill="#50BFA5"/>
<path d="M530.849 410.818L531.14 415.965C531.247 416.617 531.668 418.23 531.668 418.822C531.668 421.049 521.785 416.93 524 415.945C524.199 415.855 525.25 415.178 525.317 414.422C525.419 413.252 525.675 410.89 525.675 410.89L530.849 410.818Z" fill="#F7A491"/>
<path d="M523.906 415.967C523.906 415.967 526.225 416.647 527.413 416.818C528.602 416.988 530.168 415.554 531.009 415.942C531.935 416.368 531.897 420.205 531.897 420.205C531.897 420.205 519.456 421.298 515.957 420.168C514.571 419.72 519.163 417.553 523.906 415.967Z" fill="#00385F"/>
<path d="M547.305 410.552L547.599 415.698C547.703 416.351 548.124 417.963 548.124 418.556C548.124 420.783 538.241 416.664 540.456 415.679C540.658 415.589 542.019 414.409 542.084 413.65C542.186 412.483 542.134 410.624 542.134 410.624L547.305 410.552Z" fill="#F7A491"/>
<path d="M540.482 415.656C540.482 415.656 542.801 416.338 543.991 416.507C545.178 416.679 546.746 415.246 547.584 415.631C548.51 416.06 548.547 419.897 548.547 419.897C548.547 419.897 536.194 420.405 532.533 419.86C531.094 419.646 535.738 417.244 540.482 415.656Z" fill="#00385F"/>
<path d="M544.376 328.957C544.376 328.957 546.051 337.623 545.366 344.196C544.684 350.766 544.632 374.107 544.632 374.107L547.78 411.44L541.056 411.597C541.056 411.597 533.729 374.269 533.864 375.227C534 376.185 531.407 348.944 531.407 348.944L540.143 328.136L544.376 328.957Z" fill="#2A95FF"/>
<path d="M542.031 323.363C542.031 323.363 549.619 331.354 546.797 340.082C545.662 343.588 535.09 377.084 534.953 379.821C534.816 382.559 531.377 412.819 531.377 412.819L524.192 412.603L522.637 378.958L524.69 333.626L529.053 325.981L542.031 323.363Z" fill="#2A95FF"/>
<path d="M495.968 297.351C498.454 294.578 503.86 290.634 503.86 290.634C503.86 290.634 507.082 287.884 508.394 287.431C510.328 286.764 513.638 284.987 518.428 292.244C521.853 297.438 543.477 324.328 547.026 325.232L523.846 336.321C523.212 331.025 511.756 321.018 510.109 319.152C506.423 314.981 493.616 299.976 495.968 297.351Z" fill="#FF6C4A"/>
<path d="M497.051 286.084L504.271 290.31C504.271 290.31 504.475 296.475 502.113 298.075C500.132 299.419 498.626 296.193 498.626 296.193C498.626 296.193 495.941 292.473 493.9 291.315C491.862 290.156 497.051 286.084 497.051 286.084Z" fill="#F7A491"/>
<path d="M498.26 288.797C497.989 290.084 497.362 291.943 496.386 293.473C495.592 292.612 494.696 291.768 493.9 291.315C492.959 290.78 493.559 289.626 494.475 288.536C495.772 287.187 497.051 286.084 497.051 286.084L498.437 286.895C498.527 287.423 498.352 288.369 498.26 288.797Z" fill="#F47458"/>
<path d="M493.288 275.49C493.41 275.341 499.346 282.73 498.614 286.194C497.882 289.661 494.294 292.821 491.8 291.953C489.042 290.99 483.913 282.292 485.752 278.068C487.591 273.847 493.288 275.49 493.288 275.49Z" fill="#F7A491"/>
<path d="M486.79 273.16C489.378 271.719 493.599 271.306 496.752 272.959C500.629 274.987 501.513 280.096 500.298 283.212C499.084 286.328 500.475 288.088 500.475 288.088L498.417 286.888C498.417 286.888 497.215 285.012 497.058 283.518C496.901 282.023 494.721 282.289 493.658 281.61C492.837 281.087 491.792 279.392 490.465 278.511C490.465 278.511 487.128 278.103 485.486 279.024C482.686 280.594 483.084 275.221 486.79 273.16Z" fill="#13375B"/>
<path d="M495.326 282.856C495.306 283.964 495.831 284.87 496.495 284.882C497.162 284.892 497.715 284.004 497.735 282.894C497.755 281.786 497.23 280.878 496.565 280.868C495.901 280.858 495.346 281.746 495.326 282.856Z" fill="#F7A491"/>
<path d="M489.246 288.737L492.389 286.388C492.389 286.388 493.221 287.659 491.869 288.732C490.219 290.041 489.246 288.737 489.246 288.737Z" fill="white"/>
<path d="M481.355 335.48C482.141 334.33 482.485 332.67 483.575 331.404C483.938 330.978 484.52 330.5 485.182 330.023C490.419 326.959 504.057 319.062 504.587 318.45C505.216 317.723 514.524 302.259 514.524 302.259L506.165 300.365L497.994 314.792C497.312 315.332 484.344 324.918 484.344 324.918C484.344 324.918 481.765 326.932 480.354 327.875C479.643 328.29 478.953 328.559 478.348 328.771C477.587 329.034 476.138 329.759 475.845 330.015C475.504 330.316 474.822 330.956 474.416 331.347C474.011 331.74 473.52 332.18 473.331 332.414C473.214 332.556 472.856 332.75 472.595 332.882C472.201 333.076 472.254 333.656 472.674 333.775C473.07 333.887 473.607 333.639 473.938 333.484C474.879 333.041 476.026 331.852 476.086 331.996C476.146 332.143 474.981 334.694 474.867 334.995C474.755 335.296 473.416 338.27 473.346 338.932C473.279 339.597 473.677 339.748 473.976 339.507C474.232 339.298 476.382 335.326 476.382 335.326C476.382 335.326 476.659 334.821 476.766 335.109C476.873 335.401 474.926 339.009 474.735 339.602C474.546 340.194 474.697 340.679 475.245 340.473C475.912 340.219 477.751 336.239 477.751 336.239C477.751 336.239 477.99 335.744 478.154 335.916C478.316 336.087 476.611 339.131 476.591 339.482C476.571 339.833 476.89 340.179 477.35 339.885C477.89 339.539 479.503 335.973 479.503 335.973C479.503 335.973 479.702 335.737 479.764 335.903C479.827 336.068 478.557 338.768 478.652 339.161C478.732 339.492 479.03 339.425 479.03 339.425C479.695 339.425 480.568 336.63 481.355 335.48Z" fill="#F8A492"/>
<path d="M512.234 310.429C512.234 310.429 509.511 309.563 507.767 308.761C506.597 308.226 501.495 305.688 501.495 305.688C501.495 305.688 503.695 296.41 505.181 293.072C510.639 280.831 516.838 289.275 517.679 291.243C519.563 295.643 512.234 310.429 512.234 310.429Z" fill="#00385F"/>
<path d="M322.066 278.369L324.657 276.431C324.657 276.431 325.344 277.478 324.229 278.364C322.87 279.444 322.066 278.369 322.066 278.369Z" fill="white"/>
<path d="M626.224 419.932H24.2835C23.5309 419.932 22.9209 420.711 22.9209 421.672C22.9209 422.632 23.5309 423.409 24.2835 423.409H626.224C626.976 423.409 627.585 422.632 627.585 421.672C627.585 420.711 626.976 419.932 626.224 419.932Z" fill="#F5F5F5"/>
<path d="M249.479 78.8948C249.417 78.738 249.28 78.7355 249.141 78.7305C247.782 78.6907 246.423 78.6285 245.077 78.4269C244.85 78.3945 244.629 78.3423 244.422 78.2601C244.047 78.1108 243.678 78.1133 243.297 78.2203C243.093 78.2751 242.884 78.2875 242.673 78.285C241.991 78.2825 240.04 77.6181 239.039 77.4439C238.81 77.404 238.629 77.2323 238.571 77.0059C237.586 73.1085 235.473 64.3657 235.199 61.4888C234.848 57.813 232.31 41.2332 232.31 41.2332L225.516 43.1296C225.516 43.1296 228.31 55.3666 229.084 61.2996C229.682 65.8813 234.261 75.6047 235.697 78.3995C236.396 80.4801 237.972 80.5398 238.335 80.5846C238.544 80.6095 238.738 80.7115 238.875 80.8733C239.121 81.162 239.405 81.4133 239.731 81.6174C239.973 81.7692 240.157 81.9683 240.316 82.1998C240.605 82.6204 240.863 83.0609 241.12 83.5039C241.289 83.795 241.466 83.8896 241.717 83.8199C241.986 83.7453 242.115 83.5462 242.11 83.2177C242.103 82.7324 241.946 82.2943 241.705 81.8787C241.476 81.493 241.493 81.2665 241.757 80.9106C241.911 80.7041 242.068 80.505 242.267 80.3432C242.471 80.1765 242.688 80.052 242.964 80.0893C243.452 80.2113 243.944 80.3109 244.445 80.3656L244.855 80.4502L245.079 80.4975C245.114 80.505 245.838 80.5846 246.085 80.5846C246.284 80.5871 246.605 80.5995 246.879 80.612C247.128 80.6244 247.653 80.495 247.67 80.495C247.911 80.49 248.126 80.4029 248.305 80.2412C248.377 80.174 248.449 80.0993 248.412 79.9873C248.377 79.8828 248.297 79.8405 248.19 79.8206C248.028 79.7907 247.185 79.6887 247.192 79.6538C247.444 79.6538 248.228 79.6339 248.479 79.6289C248.817 79.619 249.109 79.497 249.342 79.2482C249.435 79.1486 249.542 79.0516 249.479 78.8948Z" fill="#F7A491"/>
<path d="M228.193 32.5699C231.545 31.9602 234.313 46.9646 234.313 46.9646C234.313 46.9646 226.861 49.0426 224.953 47.9526C224.953 47.9526 222.786 38.3487 222.01 38.6847L228.193 32.5699Z" fill="#2A95FF"/>
<path d="M147.115 302.236C147.337 301.599 144.244 301.086 144.08 300.444C143.915 299.8 147.984 299.75 148.13 299.185C148.398 298.145 143.67 298.966 143.763 298.478C143.856 297.993 148.69 296.905 148.168 296.069C147.645 295.233 143.273 297.719 143.14 297.154C143.008 296.587 147.414 295.208 147.336 293.964C147.293 293.299 140.103 297.276 139.269 296.915C138.435 296.554 140.166 293.433 139.502 292.968C138.838 292.505 136.933 299.314 136.474 299.541C136.018 299.767 126.303 305.312 122.846 306.193C122.426 305.036 121.519 303.475 121.149 302.38C119.209 303.759 117.769 304.453 115.768 305.71C117.218 309.344 119.282 313.323 120.292 313.781C123.368 315.17 135.265 305.302 137.64 303.615C140.017 301.925 141.377 302.472 142.984 301.937C144.591 301.405 146.893 302.871 147.115 302.236Z" fill="#F7A491"/>
<path d="M115.353 307.455C115.353 307.455 112.691 295.696 113.152 292.284C113.614 288.872 117.669 285.694 120.479 286.871C123.288 288.053 124.562 304.468 124.562 304.468L115.353 307.455Z" fill="white"/>
</svg>
