<svg width="209" height="191" viewBox="0 0 209 191" fill="none" xmlns="http://www.w3.org/2000/svg">
<path d="M134.946 61.1604V16.147H205.518V61.1604H134.946Z" fill="#FF9201"/>
<path d="M205.519 61.1602L176.043 38.3326C172.442 35.856 167.673 35.843 164.057 38.2973C153.928 45.1729 134.947 61.1602 134.947 61.1602H205.519Z" fill="#FFA500"/>
<path d="M165.212 37.6362H165.005L134.946 16.1543L134.947 61.1603C134.947 61.1603 153.928 45.1731 164.055 38.2975C164.428 38.0453 164.818 37.8362 165.212 37.6362Z" fill="#F2D773"/>
<path d="M175.461 37.6362H174.843C175.252 37.8454 175.657 38.0675 176.042 38.3328L205.519 61.1604V16.1543L175.461 37.6362Z" fill="#F2D773"/>
<path d="M205.519 16.1543L176.043 38.9819C172.441 41.4584 167.672 41.4715 164.056 39.0171C153.928 32.1416 134.946 16.1543 134.946 16.1543H205.519Z" fill="white"/>
<path d="M177.176 75.0561L123.183 22.2738C116.442 15.6822 105.586 15.6822 98.8453 22.2738L44.8525 75.0561V159.456H177.176V75.0561Z" fill="#FF9201"/>
<rect x="63.6394" y="36.2812" width="94.75" height="123.175" rx="4" fill="white"/>
<path fill-rule="evenodd" clip-rule="evenodd" d="M79.9519 68.8311C84.094 68.8311 87.4519 65.4732 87.4519 61.3311C87.4519 57.1889 84.094 53.8311 79.9519 53.8311C75.8098 53.8311 72.4519 57.1889 72.4519 61.3311C72.4519 65.4732 75.8098 68.8311 79.9519 68.8311ZM79.9519 73.3311C86.5793 73.3311 91.9519 67.9585 91.9519 61.3311C91.9519 54.7036 86.5793 49.3311 79.9519 49.3311C73.3245 49.3311 67.9519 54.7036 67.9519 61.3311C67.9519 67.9585 73.3245 73.3311 79.9519 73.3311Z" fill="#735B46"/>
<rect x="95.9519" y="54.3311" width="36" height="6" rx="0.5" fill="#735B46"/>
<rect opacity="0.4" x="95.9519" y="63.3311" width="16" height="5" rx="0.5" fill="#735B46"/>
<path d="M177.176 159.456L121.909 116.655C115.155 112.011 106.214 111.986 99.4334 116.588C80.4426 129.48 44.8525 159.456 44.8525 159.456H177.176Z" fill="#FFDC81"/>
<path d="M101.6 115.348H101.212L44.8525 76.1416V159.456C44.8525 159.456 80.4426 129.48 99.431 116.588C100.129 116.115 100.862 115.723 101.6 115.348Z" fill="#FFCA00"/>
<path d="M120.817 115.348H119.657C120.424 115.741 121.184 116.157 121.907 116.655L177.176 159.456V76.1416L120.817 115.348Z" fill="#FFB800"/>
<path d="M3.48047 174.861V129.847H74.0529V174.861H3.48047Z" fill="#FF9201"/>
<path d="M74.0536 174.86L44.5779 152.033C40.9761 149.556 36.2072 149.543 32.591 151.998C22.4626 158.873 3.4812 174.86 3.4812 174.86H74.0536Z" fill="#FFA500"/>
<path d="M33.7463 151.336H33.5398L3.47998 129.854L3.48114 174.861C3.48114 174.861 22.4625 158.873 32.5897 151.998C32.9621 151.745 33.3529 151.536 33.7463 151.336Z" fill="#F2D773"/>
<path d="M43.9949 151.336H43.3767C43.7858 151.546 44.1909 151.768 44.5764 152.033L74.0535 174.861V129.854L43.9949 151.336Z" fill="#F2D773"/>
<path d="M74.0531 129.854L44.5774 152.682C40.9756 155.159 36.2067 155.172 32.5905 152.717C22.4621 145.842 3.48071 129.854 3.48071 129.854H74.0531Z" fill="white"/>
<circle cx="172.602" cy="145.243" r="28.425" fill="white"/>
<g opacity="0.4">
<path d="M179.709 136.604C179.709 140.804 176.301 144.208 172.096 144.208C167.891 144.208 164.482 140.804 164.482 136.604C164.482 132.405 167.891 129 172.096 129C176.301 129 179.709 132.405 179.709 136.604Z" fill="#735B46"/>
<path d="M186.816 161.444C186.816 161.444 177.237 161.539 171.08 161.444C166.109 161.368 158.391 161.444 158.391 161.444C158.391 161.444 160.421 146.236 172.603 146.236C184.785 146.236 186.816 161.444 186.816 161.444Z" fill="#735B46"/>
</g>
<circle cx="193.921" cy="123.925" r="11.8438" fill="#735B46"/>
<path fill-rule="evenodd" clip-rule="evenodd" d="M193.921 118.398C194.303 118.398 194.612 118.707 194.612 119.089V123.234H198.758C199.139 123.234 199.448 123.543 199.448 123.925C199.448 124.307 199.139 124.616 198.758 124.616H194.612V128.761C194.612 129.143 194.303 129.452 193.921 129.452C193.54 129.452 193.23 129.143 193.23 128.761V124.616H189.085C188.704 124.616 188.394 124.307 188.394 123.925C188.394 123.543 188.704 123.234 189.085 123.234H193.23V119.089C193.23 118.707 193.54 118.398 193.921 118.398Z" fill="white"/>
</svg>
