<svg width="29" height="29" viewBox="0 0 29 29" fill="none" xmlns="http://www.w3.org/2000/svg">
<path fill-rule="evenodd" clip-rule="evenodd" d="M5.8633 18.4324C3.21169 11.9079 7.99986 4.76929 15.0278 4.76929H15.4069C20.6629 4.76929 24.9236 9.04057 24.9236 14.3095C24.9236 20.1758 20.1798 24.9313 14.3279 24.9313H5.10302C4.7276 24.9313 4.39306 24.6938 4.26846 24.3388C4.14386 23.9838 4.25634 23.5886 4.54905 23.3529L6.87464 21.4807C6.97633 21.3988 7.0123 21.2597 6.96309 21.1386L5.8633 18.4324ZM15.0278 6.54307C9.25648 6.54307 5.32445 12.4053 7.50194 17.7632L8.60174 20.4694C8.94618 21.3169 8.69439 22.2906 7.98259 22.8637L7.61756 23.1575H14.3279C19.2025 23.1575 23.1542 19.1961 23.1542 14.3095C23.1542 10.0202 19.6856 6.54307 15.4069 6.54307H15.0278Z" fill="white"/>
</svg>
