<svg width="90" height="29" viewBox="0 0 90 29" fill="none" xmlns="http://www.w3.org/2000/svg">
<path d="M25.7995 20.3442C25.6583 20.003 25.5259 19.6442 25.3848 19.338L24.7318 17.8767L24.7054 17.8505C22.7642 13.6505 20.6907 9.38047 18.4936 5.18047L18.4054 5.00547C18.1848 4.59422 17.9642 4.13922 17.7348 3.71922C17.4524 3.22047 17.1789 2.68672 16.7289 2.17922C16.2902 1.64821 15.7382 1.22038 15.1126 0.926617C14.487 0.63285 13.8034 0.480469 13.1112 0.480469C12.419 0.480469 11.7355 0.63285 11.1099 0.926617C10.4843 1.22038 9.93223 1.64821 9.49359 2.17922C9.07889 2.68672 8.77006 3.22047 8.48771 3.71922C8.26712 4.17422 8.04653 4.62047 7.81712 5.03172L7.72889 5.20672C5.56712 9.40672 3.4583 13.6767 1.51712 17.8767L1.46418 17.9292C1.27006 18.3842 1.04065 18.8567 0.820064 19.3642C0.678887 19.6705 0.537711 20.003 0.396534 20.3705C0.0153867 21.3328 -0.106326 22.377 0.0433922 23.4001C0.19311 24.4233 0.609091 25.3901 1.25034 26.2053C1.89159 27.0205 2.73597 27.6559 3.70026 28.049C4.66456 28.442 5.71549 28.5791 6.74948 28.4467C7.74077 28.3173 8.69531 27.9899 9.55536 27.4842C10.7024 26.8455 11.8054 25.918 13.0407 24.5792C14.2759 25.918 15.4054 26.8455 16.5259 27.493C17.6036 28.1202 18.8239 28.4664 20.073 28.4992C21.5195 28.5052 22.9193 27.992 24.014 27.0543C25.1087 26.1167 25.8244 24.818 26.0289 23.398C26.2652 22.3775 26.1853 21.3101 25.7995 20.3355V20.3442ZM13.1289 21.7967C11.6112 19.8717 10.623 18.1042 10.2877 16.5905C10.1488 16.0295 10.1189 15.4475 10.1995 14.8755C10.2612 14.4292 10.4289 14.0355 10.6583 13.703C11.1877 12.9417 12.1142 12.4692 13.1289 12.4692C13.6108 12.4546 14.0888 12.5589 14.52 12.7727C14.9512 12.9865 15.3221 13.3032 15.5995 13.6942C15.8289 14.0442 15.9965 14.4292 16.0495 14.8755C16.1377 15.383 16.1024 15.9692 15.9612 16.5905C15.6259 18.078 14.6377 19.863 13.1289 21.7967ZM24.3701 23.0917C24.2698 23.8127 23.9808 24.495 23.5319 25.0707C23.0829 25.6464 22.4897 26.0954 21.8112 26.373C21.1407 26.653 20.3995 26.7317 19.6759 26.653C18.9701 26.5655 18.2642 26.338 17.5407 25.918C16.3393 25.1817 15.2591 24.2668 14.3377 23.2055C16.1907 20.9305 17.3112 18.8567 17.7348 17.0105C17.9377 16.1355 17.9642 15.348 17.8759 14.6217C17.7658 13.9333 17.5069 13.2767 17.1171 12.6967C16.6721 12.0678 16.078 11.557 15.3872 11.2091C14.6964 10.8613 13.93 10.687 13.1554 10.7017C11.523 10.7017 10.0671 11.4542 9.18477 12.688C8.78757 13.2665 8.53086 13.9284 8.43477 14.6217C8.32006 15.3567 8.34653 16.1705 8.57595 17.0105C8.99948 18.8567 10.1465 20.9567 11.973 23.223C11.0672 24.3046 9.9845 25.2275 8.77006 25.953C8.03771 26.373 7.34065 26.5917 6.63477 26.6792C5.53702 26.8187 4.42814 26.5228 3.54915 25.8559C2.67016 25.1891 2.09211 24.2051 1.94065 23.118C1.85242 22.418 1.91418 21.718 2.19653 20.9305C2.28477 20.6505 2.41712 20.3705 2.5583 20.038C2.75242 19.583 2.98183 19.1105 3.20242 18.638L3.23771 18.5767C5.14359 14.403 7.22595 10.1417 9.38771 5.96797L9.47595 5.79297C9.69653 5.37297 9.91712 4.92672 10.1465 4.50672C10.3759 4.06047 10.623 3.63172 10.9407 3.28172C11.2156 2.95624 11.5592 2.69448 11.9471 2.51488C12.3351 2.33528 12.7581 2.24221 13.1862 2.24221C13.6144 2.24221 14.0374 2.33528 14.4253 2.51488C14.8133 2.69448 15.1569 2.95624 15.4318 3.28172C15.7407 3.63172 15.9965 4.06047 16.2259 4.50672C16.4465 4.92672 16.6671 5.38172 16.8965 5.79297L16.9848 5.96797C19.1377 10.1417 21.2201 14.403 23.1612 18.5767L23.1877 18.603C23.4171 19.058 23.6112 19.5655 23.8318 20.003C23.973 20.3442 24.1142 20.6155 24.2024 20.9042C24.3701 21.6917 24.4583 22.3917 24.3701 23.0917V23.0917ZM36.6524 21.6042C35.9875 21.6139 35.329 21.4749 34.7256 21.1977C34.1223 20.9205 33.5896 20.5122 33.1671 20.003C32.2178 18.9179 31.7139 17.5189 31.7554 16.083C31.7408 14.6158 32.2609 13.1927 33.2201 12.0755C33.6637 11.5598 34.216 11.1468 34.838 10.8656C35.4599 10.5844 36.1365 10.4418 36.8201 10.448C37.4632 10.4305 38.1003 10.5755 38.6714 10.8694C39.2425 11.1633 39.7289 11.5964 40.0848 12.128L40.173 10.7542H42.7495V21.3242H40.1642L40.0759 19.7842C39.709 20.3518 39.2019 20.8169 38.6027 21.1355C38.0035 21.454 37.3322 21.6154 36.6524 21.6042V21.6042ZM37.323 19.0842C37.8348 19.0842 38.2848 18.9442 38.7083 18.6905C39.0965 18.4105 39.4142 18.043 39.6612 17.5967C39.8818 17.1505 39.9965 16.6167 39.9965 16.0217C40.0309 15.5049 39.9295 14.9882 39.7021 14.5219C39.4748 14.0556 39.1293 13.6559 38.6995 13.3617C38.2865 13.1065 37.8096 12.9713 37.323 12.9713C36.8364 12.9713 36.3595 13.1065 35.9465 13.3617C35.5583 13.6417 35.2406 14.0092 34.9936 14.4555C34.7603 14.9476 34.6455 15.4868 34.6583 16.0305C34.6239 16.5472 34.7253 17.064 34.9527 17.5303C35.18 17.9965 35.5255 18.3963 35.9554 18.6905C36.3701 18.9442 36.8201 19.0842 37.323 19.0842ZM47.1612 7.90172C47.1612 8.20797 47.1083 8.48797 46.9671 8.71547C46.8259 8.93422 46.6318 9.13547 46.3759 9.27547C46.1201 9.41547 45.8465 9.46797 45.5642 9.46797C45.2818 9.46797 44.9995 9.41547 44.7436 9.27547C44.5016 9.14187 44.2981 8.94909 44.1524 8.71547C44.0158 8.46621 43.9487 8.18527 43.9583 7.90172C43.9583 7.58672 44.0201 7.30672 44.1524 7.08797C44.2936 6.82547 44.4965 6.66797 44.7436 6.52797C44.9995 6.38797 45.273 6.32672 45.5642 6.32672C45.845 6.3203 46.1228 6.38627 46.3702 6.51816C46.6177 6.65006 46.8264 6.84338 46.9759 7.07922C47.1044 7.33432 47.168 7.61668 47.1612 7.90172V7.90172ZM44.1612 21.2892V10.7367H46.9671V21.3067H44.1524L44.1612 21.2892ZM54.4671 13.5017V13.5367C54.3348 13.4755 54.1583 13.4492 54.0259 13.423C53.8495 13.388 53.7083 13.388 53.5406 13.388C52.7554 13.388 52.1642 13.6155 51.7759 14.088C51.3524 14.5692 51.1583 15.243 51.1583 16.1092V21.298H48.3436V10.728H50.9289L51.0171 12.3292C51.2995 11.7692 51.6348 11.3492 52.1112 11.0342C52.5852 10.7282 53.1431 10.5753 53.7083 10.5967C53.9112 10.5967 54.1054 10.6142 54.273 10.6492C54.3612 10.6755 54.4142 10.6755 54.4671 10.7017V13.5017V13.5017ZM55.5965 21.2892V6.39672H58.4024V12.0842C58.7995 11.5767 59.2495 11.183 59.8142 10.8767C60.7082 10.442 61.7238 10.3187 62.6971 10.5267C63.6704 10.7347 64.5447 11.2618 65.1789 12.023C66.1303 13.1102 66.6343 14.5128 66.5907 15.9517C66.6052 17.4189 66.0851 18.842 65.1259 19.9592C64.6823 20.4749 64.13 20.8879 63.5081 21.1691C62.8861 21.4503 62.2095 21.5928 61.5259 21.5867C60.8828 21.6042 60.2457 21.4591 59.6746 21.1653C59.1035 20.8714 58.6171 20.4383 58.2612 19.9067L58.173 21.2805L55.5965 21.3067V21.2892ZM61.023 19.0842C61.5259 19.0842 61.9759 18.9442 62.3995 18.6905C62.7877 18.4105 63.1054 18.043 63.3524 17.5967C63.5818 17.1505 63.6877 16.6167 63.6877 16.0217C63.6877 15.4355 63.5818 14.9017 63.3524 14.4555C63.1207 14.0252 62.7952 13.6515 62.3995 13.3617C61.9865 13.1065 61.5096 12.9713 61.023 12.9713C60.5364 12.9713 60.0595 13.1065 59.6465 13.3617C59.2495 13.6417 58.9407 14.0092 58.6848 14.4555C58.4514 14.9476 58.3366 15.4868 58.3495 16.0305C58.3151 16.5472 58.4165 17.064 58.6439 17.5303C58.8712 17.9965 59.2167 18.3963 59.6465 18.6905C60.0612 18.9442 60.5112 19.0842 61.023 19.0842ZM67.6495 21.298V10.728H70.2348L70.323 12.1017C70.6479 11.5751 71.1087 11.1442 71.6579 10.8534C72.207 10.5627 72.8245 10.4227 73.4465 10.448C74.1578 10.4358 74.8569 10.6318 75.4564 11.0116C76.0559 11.3913 76.5292 11.9379 76.8171 12.583C77.1259 13.248 77.2936 14.0705 77.2936 14.9892V21.3242H74.4789V15.3567C74.4789 14.6217 74.3112 14.0442 73.9759 13.6155C73.6406 13.1955 73.1818 12.968 72.5995 12.968C72.1759 12.968 71.8054 13.0555 71.4789 13.248C71.1701 13.4492 70.9142 13.703 70.7201 14.0617C70.5238 14.4244 70.4265 14.8316 70.4377 15.243V21.298H67.6495V21.298ZM78.6965 21.298V6.38797H81.5112V12.0755C81.8925 11.5651 82.3884 11.15 82.9597 10.8629C83.531 10.5758 84.162 10.4248 84.8024 10.4217C85.4673 10.4121 86.1259 10.551 86.7292 10.8282C87.3326 11.1054 87.8652 11.5138 88.2877 12.023C89.2324 13.1102 89.7328 14.5085 89.6907 15.943C89.706 17.4103 89.1858 18.8336 88.2259 19.9505C87.7823 20.4662 87.23 20.8792 86.608 21.1604C85.9861 21.4415 85.3095 21.5841 84.6259 21.578C83.9828 21.5954 83.3457 21.4504 82.7746 21.1565C82.2035 20.8626 81.7171 20.4295 81.3612 19.898L81.2818 21.2717L78.6965 21.298V21.298ZM84.1495 19.0842C84.6612 19.0842 85.1112 18.9442 85.5259 18.6905C85.923 18.4105 86.2318 18.043 86.4877 17.5967C86.7083 17.1505 86.823 16.6167 86.823 16.0217C86.8574 15.5049 86.756 14.9882 86.5286 14.5219C86.3013 14.0556 85.9558 13.6559 85.5259 13.3617C85.1129 13.1065 84.6361 12.9713 84.1495 12.9713C83.6629 12.9713 83.186 13.1065 82.773 13.3617C82.3848 13.6417 82.0671 14.0092 81.8201 14.4555C81.5738 14.9432 81.4583 15.4856 81.4848 16.0305C81.4504 16.5472 81.5518 17.064 81.7792 17.5303C82.0065 17.9965 82.352 18.3963 82.7818 18.6905C83.1965 18.9442 83.6201 19.0842 84.1495 19.0842Z" fill="#FF385C"/>
</svg>
