<svg width="84" height="29" viewBox="0 0 84 29" fill="none" xmlns="http://www.w3.org/2000/svg">
<g clip-path="url(#clip0_223_647)">
<path d="M35.7463 14.8591C35.7463 18.7456 32.6612 21.6095 28.875 21.6095C25.0888 21.6095 22.0037 18.7456 22.0037 14.8591C22.0037 10.9452 25.0888 8.10864 28.875 8.10864C32.6612 8.10864 35.7463 10.9452 35.7463 14.8591ZM32.7384 14.8591C32.7384 12.4304 30.9503 10.7686 28.875 10.7686C26.7997 10.7686 25.0116 12.4304 25.0116 14.8591C25.0116 17.2634 26.7997 18.9495 28.875 18.9495C30.9503 18.9495 32.7384 17.2604 32.7384 14.8591Z" fill="#EA4335"/>
<path d="M50.5698 14.8591C50.5698 18.7456 47.4846 21.6095 43.6985 21.6095C39.9123 21.6095 36.8271 18.7456 36.8271 14.8591C36.8271 10.9482 39.9123 8.10864 43.6985 8.10864C47.4846 8.10864 50.5698 10.9452 50.5698 14.8591ZM47.5619 14.8591C47.5619 12.4304 45.7738 10.7686 43.6985 10.7686C41.6232 10.7686 39.8351 12.4304 39.8351 14.8591C39.8351 17.2634 41.6232 18.9495 43.6985 18.9495C45.7738 18.9495 47.5619 17.2604 47.5619 14.8591Z" fill="#FBBC05"/>
<path d="M64.7757 8.51647V20.6356C64.7757 25.6208 61.7925 27.6569 58.2657 27.6569C54.9459 27.6569 52.9478 25.4686 52.1942 23.6791L54.8131 22.6047C55.2794 23.7034 56.422 24.9999 58.2626 24.9999C60.5201 24.9999 61.9191 23.6273 61.9191 21.0434V20.0726H61.8141C61.1409 20.8912 59.8438 21.6065 58.207 21.6065C54.7822 21.6065 51.6445 18.6665 51.6445 14.8834C51.6445 11.073 54.7822 8.10864 58.207 8.10864C59.8407 8.10864 61.1378 8.82386 61.8141 9.61821H61.9191V8.51951H64.7757V8.51647ZM62.1322 14.8834C62.1322 12.5065 60.5232 10.7686 58.4757 10.7686C56.4004 10.7686 54.6617 12.5065 54.6617 14.8834C54.6617 17.236 56.4004 18.9495 58.4757 18.9495C60.5232 18.9495 62.1322 17.236 62.1322 14.8834Z" fill="#4285F4"/>
<path d="M69.4853 1.41309V21.1957H66.5515V1.41309H69.4853Z" fill="#34A853"/>
<path d="M80.9181 17.0809L83.2528 18.6148C82.4993 19.7135 80.6834 21.6066 77.5457 21.6066C73.6546 21.6066 70.7485 18.6422 70.7485 14.8561C70.7485 10.8418 73.6793 8.10571 77.2091 8.10571C80.7637 8.10571 82.5024 10.8935 83.0706 12.4001L83.3825 13.167L74.2259 16.9044C74.9269 18.2588 76.0171 18.9496 77.5457 18.9496C79.0775 18.9496 80.1399 18.207 80.9181 17.0809ZM73.7318 14.6522L79.8527 12.1475C79.516 11.3044 78.5031 10.717 77.311 10.717C75.7824 10.717 73.6546 12.047 73.7318 14.6522V14.6522Z" fill="#EA4335"/>
<path d="M10.8985 13.1031V10.2392H20.6913C20.7871 10.7383 20.8365 11.3287 20.8365 11.9678C20.8365 14.1165 20.2404 16.7735 18.3196 18.6665C16.4512 20.5839 14.064 21.6065 10.9016 21.6065C5.04015 21.6065 0.111328 16.9013 0.111328 11.1248C0.111328 5.34828 5.04015 0.643066 10.9016 0.643066C14.1443 0.643066 16.4543 1.89698 18.1899 3.53133L16.1393 5.5522C14.8947 4.40176 13.2085 3.50698 10.8985 3.50698C6.61824 3.50698 3.27059 6.90654 3.27059 11.1248C3.27059 15.3431 6.61824 18.7426 10.8985 18.7426C13.6749 18.7426 15.256 17.6439 16.269 16.6457C17.0904 15.8361 17.6309 14.6796 17.844 13.1L10.8985 13.1031V13.1031Z" fill="#4285F4"/>
</g>
<defs>
<clipPath id="clip0_223_647">
<rect width="84" height="28" fill="white" transform="translate(0 0.5)"/>
</clipPath>
</defs>
</svg>
