<svg width="111" height="27" viewBox="0 0 111 27" fill="none" xmlns="http://www.w3.org/2000/svg">
<g clip-path="url(#clip0_223_660)">
<path d="M39.5019 9.74778V11.2213H39.547C40.0772 10.4324 40.9574 9.50328 42.9084 9.50328C44.4262 9.50328 45.5906 10.2759 46.0896 11.4429H46.1347C46.5609 10.8529 47.0495 10.4063 47.5971 10.0901C48.2451 9.71518 48.9659 9.50002 49.8738 9.50002C51.9288 9.50002 53.7481 10.8366 53.7481 14.2073V20.6H50.6154V14.6539C50.6154 12.9457 49.9986 11.958 48.7164 11.958C47.7773 11.958 47.0946 12.5513 46.8347 13.2815C46.7446 13.5325 46.703 13.8748 46.703 14.1617V20.6033H43.5703V14.4127C43.5703 12.962 42.9777 11.9547 41.7128 11.9547C40.7009 11.9547 40.0668 12.7045 39.8069 13.3467C39.696 13.6205 39.6613 13.9368 39.6613 14.2334V20.6H36.5251V9.74778H39.5019ZM69.9176 9.74778V11.795H70.0042C70.5795 10.2302 71.9448 9.50328 73.1439 9.50328C73.4453 9.50328 73.6117 9.5261 73.8543 9.57174V12.4144C73.5666 12.3753 73.2998 12.3361 72.9255 12.3361C71.5671 12.3361 70.6211 13.0794 70.3819 14.2432C70.33 14.4844 70.3126 14.7452 70.3126 15.0451V20.6033H67.0968V9.74778H69.9176ZM78.2206 6.1521V9.56848H80.9375V12.3329H78.2206V16.411C78.2206 17.7313 78.5776 18.3702 79.638 18.3702C80.137 18.3702 80.5043 18.3115 80.8231 18.2366L80.8647 20.5283C80.4385 20.6782 79.5306 20.8412 78.6088 20.8412C77.5241 20.8412 76.6196 20.4859 76.0686 19.935C75.4379 19.3058 75.1469 18.2757 75.1469 16.8087V6.1521H78.2206ZM34.342 20.6H31.2231V6.1521H34.342V20.6ZM26.025 16.724C26.025 16.9228 26.0077 17.1315 25.9488 17.3108C25.7062 18.0638 24.878 18.6995 23.8453 18.6995C22.9824 18.6995 22.2963 18.2398 22.2963 17.2651C22.2963 15.7753 24.0428 15.3613 26.0285 15.3711V16.724H26.025ZM29.1404 14.1258C29.1404 11.6646 28.0246 9.50328 24.2508 9.50328C22.3136 9.50328 20.775 10.0151 19.9364 10.4715L20.5497 12.447C21.3156 11.9906 22.5389 11.6157 23.6963 11.6157C25.6127 11.6124 25.9245 12.6361 25.9245 13.2913V13.4478C21.7487 13.4412 19.1116 14.8006 19.1116 17.5715C19.1116 19.2634 20.4527 20.8478 22.7884 20.8478C24.2265 20.8478 25.4255 20.3099 26.1463 19.446H26.2156C26.2156 19.446 26.6939 21.3204 29.3206 20.6033C29.182 19.8209 29.1369 18.9896 29.1369 17.9888V14.1258H29.1404ZM3.44459 6.1521C3.76687 7.681 4.68173 12.121 4.68173 12.121C5.06639 13.9465 5.41986 15.8601 5.6867 17.3727H5.73521C5.99511 15.7656 6.40403 14.2432 6.84067 12.359L8.38276 6.1521H11.7962L13.2378 12.5187C13.6155 14.2888 13.917 15.6547 14.1561 17.301H14.2011C14.461 15.6384 14.8007 14.2171 15.1715 12.3981L16.5576 6.1521H19.8324L15.7744 20.6C13.1893 21.1314 12.1982 20.1534 11.8447 18.6017C11.4912 17.0467 10.7981 14.09 10.7981 14.09C10.4412 12.4698 10.164 11.3288 9.96991 9.66628H9.92139C9.64416 11.3125 9.35307 12.4665 8.92336 14.0867L7.22186 20.6033C4.58124 21.0988 3.66638 20.3653 3.16043 18.3735C2.72379 16.6686 0 6.15536 0 6.15536H3.44459V6.1521ZM61.8987 16.724C61.8987 16.9228 61.8814 17.1315 61.8225 17.3108C61.5799 18.0638 60.7516 18.6995 59.719 18.6995C58.8561 18.6995 58.1699 18.2398 58.1699 17.2651C58.1699 15.7753 59.9165 15.3613 61.9022 15.3711V16.724H61.8987ZM65.0141 14.1258C65.0141 11.6646 63.8982 9.50328 60.1244 9.50328C58.1873 9.50328 56.6486 10.0151 55.81 10.4715L56.4234 12.447C57.1892 11.9906 58.4125 11.6157 59.5699 11.6157C61.4828 11.6124 61.7982 12.6361 61.7982 13.2913V13.4478C57.6259 13.4412 54.9887 14.8006 54.9887 17.5715C54.9887 19.2634 56.3333 20.8478 58.6655 20.8478C60.1002 20.8478 61.3026 20.3099 62.02 19.446H62.0927C62.0927 19.446 62.571 21.3204 65.1977 20.6033C65.0591 19.8209 65.0141 18.9896 65.0141 17.9888V14.1258Z" fill="#041E42"/>
<path d="M93.5802 15.6241C93.8877 16.1517 93.8669 16.7406 93.5388 17.0096L87.8669 20.9276C87.2762 21.2646 86.3919 20.8561 85.8911 20.0017C85.3868 19.1439 85.4766 18.1874 86.0672 17.8504L92.3471 14.9705C92.7409 14.8208 93.2728 15.0965 93.5802 15.6241ZM101.045 15.6241C101.356 15.0965 101.884 14.8242 102.278 14.9671L108.561 17.8469C109.152 18.1839 109.238 19.1405 108.737 19.9983C108.233 20.8527 107.345 21.2578 106.758 20.9242L101.086 17.0062C100.762 16.7406 100.737 16.1483 101.045 15.6241ZM97.3108 17.7482C97.9291 17.7482 98.4369 18.0614 98.506 18.4733L99.1174 25.2745C99.1174 25.9485 98.3195 26.5 97.3143 26.5C96.3126 26.5 95.5112 25.9485 95.5112 25.2745L96.1191 18.4733C96.1882 18.0614 96.696 17.7482 97.3108 17.7482ZM101.086 9.99385L106.758 6.0724C107.345 5.7354 108.233 6.14048 108.737 6.9983C109.238 7.85611 109.152 8.81265 108.561 9.14965L102.278 12.0329C101.884 12.1758 101.352 11.9035 101.045 11.3759C100.737 10.8483 100.762 10.2594 101.086 9.99385ZM92.3471 12.0329L86.0672 9.14965C85.48 8.81265 85.3902 7.85611 85.8911 6.9983C86.3919 6.14048 87.2797 5.7354 87.8669 6.0724L93.5388 9.99385C93.8669 10.256 93.8877 10.8483 93.5802 11.3759C93.2728 11.9035 92.7409 12.1758 92.3471 12.0329ZM96.1191 8.52671L95.5112 1.72545C95.5112 1.05145 96.3091 0.5 97.3143 0.5C98.3195 0.5 99.1174 1.05145 99.1174 1.72545L98.506 8.52671C98.4369 8.93519 97.9291 9.25177 97.3108 9.25177C96.696 9.25177 96.1882 8.93519 96.1191 8.52671ZM110.271 20.9004V20.7302H110.427C110.478 20.7302 110.513 20.7642 110.513 20.8153C110.513 20.8629 110.478 20.9004 110.427 20.9004H110.271ZM110.143 21.2101C110.143 21.2272 110.157 21.2442 110.178 21.2442H110.244C110.261 21.2442 110.278 21.2272 110.278 21.2101V21.0161H110.385L110.472 21.2203C110.478 21.234 110.489 21.2442 110.503 21.2442H110.582C110.606 21.2442 110.624 21.2203 110.613 21.1965C110.582 21.1352 110.551 21.0706 110.52 21.0059C110.572 20.9889 110.651 20.9378 110.651 20.8153C110.651 20.6859 110.544 20.611 110.437 20.611H110.178C110.161 20.611 110.143 20.628 110.143 20.6451V21.2101ZM109.864 20.9276C109.864 20.6519 110.092 20.4272 110.371 20.4272C110.651 20.4272 110.879 20.6485 110.879 20.9276C110.879 21.2033 110.655 21.428 110.371 21.428C110.088 21.428 109.864 21.2033 109.864 20.9276ZM109.743 20.9276C109.743 21.268 110.022 21.5471 110.371 21.5471C110.717 21.5471 111 21.268 111 20.9276C111 20.5872 110.717 20.3081 110.371 20.3081C110.022 20.3081 109.743 20.5872 109.743 20.9276Z" fill="#FFC124"/>
</g>
<defs>
<clipPath id="clip0_223_660">
<rect width="111" height="26" fill="white" transform="translate(0 0.5)"/>
</clipPath>
</defs>
</svg>
