<svg width="313" height="136" viewBox="0 0 313 136" fill="none" xmlns="http://www.w3.org/2000/svg">
<path d="M161.473 43.9943C158.876 43.718 157.105 43.9745 155.058 44.2305C152.327 44.5727 149.105 44.9145 142.772 43.9943C131.689 42.3838 126.321 43.511 120.607 41.7394C114.893 39.9678 113.507 40.773 109.178 39.3238C107.588 38.7915 106.562 37.9109 105.896 37.0104C97.2579 41.1799 90.4808 38.9824 88.0409 37.8886C87.778 38.3611 87.3875 38.7915 86.7965 39.0822C84.5889 40.169 73.2897 40.773 66.1469 43.3098C62.022 44.7743 57.6374 44.5875 53.1432 44.4012C49.8544 44.2643 46.5071 44.1278 43.1598 44.6383C39.9906 45.1215 37.0503 44.9475 34.1973 44.7735C29.9178 44.5129 25.8346 44.2519 21.4709 46.2087C14.9034 49.1537 8.62813 54.5535 5.17578 57.7092C5.39535 58.7024 5.7557 59.8073 6.31971 60.9927C6.54827 60.8541 6.77892 60.7638 7.01183 60.7436C9.78243 60.502 11.6007 59.294 13.592 59.294C15.5834 59.294 28.1377 60.18 31.5144 59.2136C33.8056 58.5577 45.0673 58.6067 53.5307 58.6554C57.5399 58.6785 60.9209 58.7016 62.4241 58.65C67.0995 58.4888 70.043 59.7772 69.6968 66.8637C69.3506 73.9502 71.7746 83.2911 72.1212 91.5048C72.4 98.1229 72.3424 108.189 72.6713 114.294C75.3639 115.412 79.28 116.633 83.0303 116.323C89.6536 115.776 105.888 115.904 113.55 116.991C118.624 117.711 121.281 116.692 122.853 115.986C123.241 114.288 126.414 114.928 125.802 111.797C125.109 108.254 122.685 99.5573 122.685 89.7332C122.685 79.9091 122.685 65.8973 125.109 64.6089C127.533 63.3205 129.611 61.0656 135.672 59.7772C141.732 58.4888 150.218 58.3276 155.413 57.8444C160.607 57.3616 164.244 57.6836 166.668 55.912C169.092 54.1404 171.517 50.7583 171.517 50.7583C171.517 50.7583 167.534 44.6383 161.473 43.9943Z" fill="#F03D5A"/>
<path d="M161.475 43.9943C158.877 43.718 157.107 43.9745 155.059 44.2305C152.329 44.5727 149.106 44.9145 142.773 43.9943C131.691 42.3838 126.323 43.511 120.608 41.7394C114.894 39.9678 113.508 40.773 109.18 39.3238C107.589 38.7915 106.564 37.9109 105.897 37.0104C97.2593 41.1799 90.4822 38.9824 88.0423 37.8886C87.7795 38.3611 87.3889 38.7915 86.798 39.0822C84.5904 40.169 73.2912 40.773 66.1484 43.3098C62.9043 44.4618 59.4994 44.5913 56.0071 44.5039C56.2035 49.702 54.4733 54.5856 50.9668 58.6418C56.0563 58.6661 60.6112 58.7123 62.4256 58.65C67.101 58.4888 70.0445 59.7772 69.6983 66.8637C69.3521 73.9502 71.776 83.2911 72.1227 91.5048C72.4015 98.1229 72.3439 108.189 72.6728 114.294C75.3654 115.412 79.2815 116.633 83.0317 116.323C89.655 115.776 105.889 115.904 113.552 116.991C118.626 117.711 121.283 116.692 122.855 115.986C123.243 114.288 126.415 114.928 125.803 111.797C125.11 108.254 122.686 99.5573 122.686 89.7332C122.686 79.9091 122.686 65.8973 125.11 64.6089C127.535 63.3205 129.613 61.0656 135.673 59.7772C141.734 58.4888 150.219 58.3276 155.414 57.8444C160.609 57.3616 164.245 57.6836 166.669 55.912C169.094 54.1404 171.518 50.7583 171.518 50.7583C171.518 50.7583 167.535 44.6383 161.475 43.9943Z" fill="#FF6C4A"/>
<path d="M113.549 116.991C105.887 115.904 89.6527 115.776 83.0294 116.323C79.2791 116.633 75.363 115.412 72.6705 114.294C72.7502 115.766 72.8518 117.01 72.9861 117.917C72.9861 117.917 70.735 134.505 70.9079 135.472H125.801C125.801 135.472 123.55 128.224 123.723 124.359C123.896 120.494 123.376 119.528 122.857 116.79C122.797 116.471 122.802 116.209 122.852 115.986C121.281 116.692 118.623 117.711 113.549 116.991Z" fill="#00385F"/>
<path d="M69.2131 61.9034C69.2127 61.9018 69.1573 61.3547 69.1014 60.4612C69.0456 59.5678 68.9893 58.3301 68.9893 56.9543C68.9893 55.578 69.0456 54.0637 69.2131 52.6174L69.0837 52.6042C68.9157 54.0567 68.8598 55.5752 68.8594 56.9543C68.8598 59.7121 69.0837 61.9133 69.0837 61.9146L69.2131 61.9034Z" fill="#161D39"/>
<path d="M67.3935 59.5383C67.3931 59.5375 67.198 59.3243 66.9041 58.9644C66.0197 57.8875 64.2568 55.4938 64.2603 53.7189C64.2603 53.6719 64.2616 53.6257 64.2643 53.5795L64.1344 53.5737C64.1317 53.6216 64.1309 53.6698 64.1309 53.7189C64.1322 54.9483 64.9257 56.4169 65.7148 57.5845C66.5047 58.7516 67.2933 59.615 67.2947 59.6162L67.3935 59.5383Z" fill="#161D39"/>
<path d="M79.3806 40.4475C79.3739 40.4442 79.2928 40.4009 79.1616 40.4009C79.0184 40.4001 78.8198 40.4554 78.6132 40.6566C77.9975 41.2622 77.2488 43.1538 77.2461 49.0532C77.2461 49.3435 77.2479 49.6441 77.2519 49.9541L77.3817 49.9529C77.3778 49.6428 77.376 49.3431 77.376 49.0532C77.376 45.127 77.7133 42.9831 78.1096 41.8283C78.3073 41.2511 78.5201 40.9221 78.7072 40.7403C78.8947 40.5589 79.053 40.5222 79.1616 40.5217C79.2112 40.5217 79.2511 40.53 79.2777 40.5378L79.3079 40.5485L79.315 40.5518L79.3806 40.4475Z" fill="#161D39"/>
<path d="M80.2383 40.4605C80.2383 40.4663 80.2392 43.3222 81.9303 47.6785C83.0838 50.6491 83.2642 52.3168 83.2642 53.0688C83.2642 53.2424 83.2545 53.3673 83.2452 53.4481C83.2403 53.4885 83.2358 53.5178 83.2323 53.5367L83.227 53.5631L83.3538 53.5903C83.3547 53.5854 83.3941 53.4242 83.3941 53.0688C83.3941 52.299 83.2097 50.6177 82.0527 47.6377C81.21 45.4674 80.7889 43.6718 80.5783 42.4193C80.4732 41.793 80.4205 41.3028 80.3943 40.9693C80.3682 40.6357 80.3682 40.4613 80.3682 40.4605H80.2383Z" fill="#161D39"/>
<path d="M71.0918 82.1438C71.0931 82.1442 71.5799 82.4444 72.3809 82.9713C74.7845 84.5524 80.0038 88.1699 83.2789 91.7853C87.6609 96.6223 89.7493 96.995 89.7714 96.9995L89.7954 96.8808L89.775 96.8762C89.5502 96.8239 87.4765 96.2318 83.3782 91.7073C78.9909 86.8654 71.1658 82.0448 71.1636 82.0428L71.0918 82.1438Z" fill="#161D39"/>
<path d="M125.17 64.5857C125.169 64.5841 124.935 64.0625 124.568 63.2099C123.466 60.6525 121.178 55.1252 120.498 51.8739L120.371 51.897C121.283 56.2578 125.05 64.6299 125.05 64.6323L125.17 64.5857" fill="#161D39"/>
<path d="M125.717 64.3335L125.767 64.2613C125.799 64.1632 125.815 63.9678 125.827 63.6792C125.869 62.6744 125.832 60.6018 125.868 58.6892C125.886 57.7335 125.922 56.8178 125.994 56.0988C126.031 55.7388 126.076 55.4284 126.132 55.1876C126.188 54.9472 126.258 54.7753 126.326 54.7031L126.228 54.6244C126.115 54.7506 126.04 54.9814 125.975 55.3022C125.755 56.4212 125.726 58.6261 125.721 60.5746C125.719 61.5484 125.722 62.4576 125.712 63.1308C125.707 63.4677 125.698 63.746 125.683 63.9426C125.675 64.0408 125.666 64.1187 125.656 64.1719L125.641 64.2304L125.637 64.2403L125.661 64.2539L125.646 64.2321L125.637 64.2403L125.661 64.2539L125.646 64.2321L125.717 64.3335Z" fill="#161D39"/>
<path d="M112.597 40.1758C112.597 40.1766 112.527 41.2803 112.527 42.8747C112.527 45.1551 112.668 48.4365 113.359 50.9346L113.484 50.9045C112.799 48.4266 112.657 45.1497 112.657 42.8747C112.657 42.0793 112.675 41.4061 112.692 40.9319C112.709 40.4574 112.726 40.1836 112.726 40.1828L112.597 40.1758Z" fill="#161D39"/>
<path d="M153.194 58.0762C153.194 58.0758 154.851 57.0838 156.672 55.8197C158.494 54.5531 160.476 53.0223 161.139 51.9152L161.026 51.8567C160.39 52.9241 158.41 54.4628 156.594 55.7228C155.686 56.3536 154.818 56.9168 154.177 57.3221C153.537 57.7274 153.124 57.9739 153.123 57.9747L153.194 58.0762Z" fill="#161D39"/>
<path d="M123.106 112.61C123.106 112.61 123.09 112.634 123.052 112.68C122.789 113.004 121.54 114.357 118.603 114.881C118.21 114.951 117.823 114.981 117.434 114.981C114.871 114.984 112.231 113.648 107.732 113.647C107.109 113.647 106.451 113.673 105.752 113.731C103.446 113.924 101.255 113.986 99.3875 113.986C97.695 113.986 96.2693 113.935 95.267 113.884C94.2643 113.833 93.6876 113.782 93.6862 113.782L93.6738 113.902C93.6752 113.902 95.9967 114.107 99.3875 114.107C101.258 114.107 103.453 114.045 105.764 113.852C106.458 113.793 107.113 113.768 107.732 113.768C112.203 113.767 114.82 115.1 117.434 115.102C117.83 115.102 118.226 115.071 118.627 114.999C122.025 114.394 123.21 112.685 123.216 112.675L123.106 112.61" fill="#161D39"/>
<path d="M96.8633 135.472H96.9933V124.238H96.8633V135.472Z" fill="white"/>
<path d="M73.3038 121.278C73.3042 121.278 73.4554 121.246 73.7497 121.191C75.8084 120.8 84.8304 119.239 97.2826 119.239C104.398 119.239 112.634 119.749 121.331 121.278L121.354 121.16C112.649 119.629 104.405 119.118 97.2826 119.118C83.0381 119.118 73.2789 121.159 73.2754 121.16L73.3038 121.278Z" fill="white"/>
<path d="M76.6883 135.47L76.4285 127.176L76.3638 127.177V127.238C76.409 127.236 76.4715 127.218 76.5948 127.188C77.4295 126.976 80.5383 126.129 84.3613 126.128C86.5459 126.128 88.9623 126.405 91.3198 127.234L91.3424 127.177L91.2781 127.171L90.239 135.464L90.368 135.479L91.4128 127.137L91.3654 127.121C88.9893 126.286 86.5574 126.008 84.3613 126.007C82.1652 126.008 80.205 126.286 78.7718 126.564C78.055 126.703 77.4698 126.841 77.0536 126.946C76.8452 126.998 76.6794 127.041 76.5602 127.071C76.5008 127.087 76.4534 127.098 76.4188 127.106L76.3771 127.115L76.3656 127.117H76.3638H76.2969L76.5584 135.473L76.6883 135.47Z" fill="white"/>
<path d="M117.37 135.473L117.632 127.117H117.563C117.51 127.111 117.238 127.037 116.815 126.931C115.539 126.614 112.809 126.008 109.567 126.007C107.371 126.008 104.939 126.286 102.563 127.121L102.516 127.137L103.56 135.479L103.689 135.464L102.65 127.171L102.586 127.177L102.609 127.234C104.966 126.405 107.383 126.128 109.567 126.128C111.751 126.128 113.703 126.405 115.13 126.682C115.844 126.82 116.426 126.959 116.841 127.062C117.049 127.114 117.214 127.158 117.334 127.188C117.457 127.218 117.519 127.236 117.565 127.238V127.177L117.499 127.176L117.24 135.47L117.37 135.473Z" fill="white"/>
<path d="M105.896 37.0104C104.749 35.4594 104.702 32.3874 104.702 32.3874C104.702 32.3874 90.1644 31.1525 88.3465 33.0854C88.3465 33.0854 88.7596 36.5944 88.041 37.8886C90.4809 38.9824 97.258 41.1799 105.896 37.0104Z" fill="#F7AAA4"/>
<path d="M108.94 24.1646C108.079 24.0847 107.651 24.4792 107.457 24.7563C108.019 23.7029 110.042 19.4727 109.199 14.5619C108.225 8.88463 101.862 5.4424 96.4068 5.32159C90.9525 5.4424 84.5885 8.88463 83.6142 14.5619C82.7719 19.4727 84.7947 23.7029 85.3568 24.7563C85.1626 24.4792 84.7348 24.0847 83.8739 24.1646C82.5755 24.2854 82.9 27.8489 84.2636 29.9021C85.6272 31.9553 87.0559 29.9021 87.0559 29.9021C87.7054 30.9489 88.4847 33.5258 88.4847 33.5258L96.4068 37.1494L104.329 33.5258C104.329 33.5258 105.108 30.9489 105.758 29.9021C105.758 29.9021 107.186 31.9553 108.55 29.9021C109.914 27.8489 110.238 24.2854 108.94 24.1646Z" fill="#F7AAA4"/>
<path d="M91.8184 3.72665C91.8184 3.72665 95.2819 -0.299797 102.035 0.988617C108.788 2.27703 105.896 5.90067 105.896 5.90067C105.896 5.90067 111.209 8.18105 109.308 9.36351C107.407 10.5455 111.559 11.8678 110.174 16.6108C108.788 21.3538 106.148 28.3994 105.239 30.9627C104.329 33.5259 101.962 34.3026 97.533 34.9705C93.1031 35.6385 88.4848 33.5259 88.4848 33.5259C88.4848 33.5259 83.5518 23.0899 83.0531 17.9177C82.554 12.7455 81.1687 3.40424 91.8184 3.72665Z" fill="#00385F"/>
<path d="M86.1815 45.5957C84.8304 44.9166 83.6281 44.1246 82.6839 43.4324C80.5942 44.8189 78.1047 46.3733 76.5217 47.7812C73.5196 50.4521 68.4284 54.8228 61.7714 55.5513C58.3797 55.9224 55.5302 55.4425 53.2056 54.963C50.9669 54.5012 49.215 54.0394 47.9343 54.3371C45.3238 54.944 42.3209 49.6023 37.883 48.3881C33.4448 47.1744 33.4448 47.1743 33.4448 47.1743C33.4448 47.1743 32.5106 47.0313 31.4373 46.6128C28.2693 47.1546 28.1467 48.3737 23.3932 47.2956C20.8507 46.7188 18.7572 46.3081 17.2524 46.0339C17.0375 46.6569 16.7033 47.1546 15.953 47.3764C14.8011 47.7173 13.8383 47.9412 13.2541 48.0653C12.8773 48.1453 12.5694 48.3873 12.4134 48.7159L12.4083 48.7266C11.7822 50.0439 9.79255 53.6601 4.98797 58.3842C-1.10372 64.3736 1.15882 76.0282 1.85511 82.989C2.55104 89.9497 2.55104 100.148 4.81393 106.299C6.19334 110.05 8.41279 113.798 9.93609 116.154C11.2291 108.405 17.1236 102.045 17.1236 102.045C17.002 101.377 16.6505 100.024 16.1916 98.37C14.8149 93.4084 12.4721 85.741 12.4721 85.741C12.4721 85.741 17.1712 93.0254 18.3895 97.2341C18.4281 97.3669 18.4501 97.507 18.4675 97.6497C20.3826 97.3265 23.6611 97.2353 28.8759 98.37C36.4995 100.029 48.1006 97.279 52.6555 96.0459C52.4812 93.9465 52.3997 91.6537 52.503 88.8167C52.8509 79.266 49.8924 69.8768 49.8924 69.8768C49.8924 69.8768 61.3795 70.3629 66.7749 69.0679C72.1702 67.7729 75.4772 62.2688 79.3064 60.3265C82.5766 58.6674 86.4803 51.5211 88.5261 48.4112C87.9423 47.1686 87.1763 46.0962 86.1815 45.5957Z" fill="#28E4C9"/>
<path d="M28.8746 98.3703C23.6598 97.2357 20.3813 97.3268 18.4659 97.65C18.6066 98.8304 18.036 100.33 17.1222 102.045C17.1222 102.045 11.2278 108.405 9.93475 116.154C9.74963 116.976 9.63761 117.794 9.62599 118.602C9.51171 126.696 9.6783 135.472 9.6783 135.472H26.0465L23.9578 129.124L27.4389 135.472H54.2424C54.2424 135.472 54.5904 122.811 54.2424 112.289C53.9973 104.893 53.0655 101.014 52.6541 96.0462C48.0992 97.2794 36.4982 100.029 28.8746 98.3703Z" fill="#F2C917"/>
<path d="M12.5322 85.7198C12.5318 85.7194 12.4385 85.4881 12.2814 85.0692C11.8107 83.8134 10.772 80.8787 9.99876 77.5131C9.48361 75.2707 9.02976 72.2366 8.70509 69.7637C8.54267 68.5276 8.4126 67.4313 8.3231 66.6443C8.23356 65.8576 8.18471 65.381 8.18457 65.3798L8.05469 65.3913C8.05486 65.3925 8.8379 73.0402 9.87114 77.5387C10.9044 82.036 12.4092 85.761 12.4099 85.7627L12.5322 85.7198Z" fill="#161D39"/>
<path d="M49.8874 69.8164C49.8856 69.8168 49.2885 69.8436 48.3035 69.8436C45.1055 69.8449 37.8346 69.5554 33.8701 67.1559C28.6745 64.0192 26.8465 57.9552 26.7199 56.5175L26.5898 56.5278C26.7246 58.0038 28.5514 64.0806 33.799 67.2573C37.8186 69.6845 45.0949 69.9632 48.3035 69.9648C49.2911 69.9648 49.8927 69.938 49.8936 69.938L49.8874 69.8164Z" fill="#161D39"/>
<path d="M23.7453 59.3024H23.7427C23.6937 59.3036 23.6336 59.3201 23.537 59.349C22.1252 59.7856 13.9282 63.2884 11.1836 65.2901L11.2641 65.3857C12.7092 64.3299 15.7229 62.8353 18.4285 61.6083C19.7816 60.9948 21.0587 60.4473 22.0258 60.0536C22.5093 59.8565 22.9155 59.6982 23.2144 59.5889C23.3638 59.5345 23.4866 59.4924 23.5779 59.4644C23.6676 59.4359 23.7335 59.4223 23.7427 59.4236V59.3823L23.7413 59.4236H23.7427V59.3823L23.7413 59.4236L23.7453 59.3024Z" fill="#161D39"/>
<path d="M46.1289 54.0446C46.1293 54.045 46.3612 54.1493 46.7411 54.3332C47.8804 54.8848 50.3464 56.151 51.8044 57.4175C52.7792 58.2635 53.4615 59.0795 53.8999 59.6835C54.1189 59.9853 54.2771 60.2343 54.3804 60.407C54.4837 60.5802 54.5307 60.6763 54.5311 60.6763L54.6495 60.6255C54.6473 60.6206 53.86 59.0358 51.8935 57.3285C49.9222 55.6187 46.1883 53.937 46.1856 53.9353L46.1289 54.0446Z" fill="#161D39"/>
<path d="M77.5917 61.3521L77.577 61.3586C77.4906 61.3925 77.1754 61.4234 76.7264 61.4531C75.3703 61.5462 72.7132 61.6724 70.2383 62.2917L70.2724 62.4092C71.9631 61.9857 73.7452 61.7936 75.134 61.6848C75.8287 61.6304 76.4249 61.5965 76.8633 61.5652C77.0828 61.5495 77.2623 61.5343 77.3966 61.517C77.464 61.5083 77.5199 61.4992 77.5646 61.4889C77.6103 61.4778 77.6435 61.4683 77.675 61.4452L77.5917 61.3521Z" fill="#161D39"/>
<path d="M24.0074 129.084C24.0072 129.084 23.9589 129.032 23.8725 128.929C23.2677 128.207 20.8406 125.042 20.8415 120.811C20.8415 120.106 20.9087 119.372 21.063 118.613C22.281 112.627 23.3232 109.881 24.716 105.832L24.5917 105.796C23.1996 109.841 22.1536 112.598 20.9346 118.591C20.779 119.357 20.7109 120.099 20.7109 120.811C20.7121 125.697 23.9042 129.158 23.9082 129.164L24.0074 129.084Z" fill="#161D39"/>
<path d="M19.4805 101.345C19.4821 101.346 20.1148 101.772 20.9672 102.199C21.8206 102.625 22.8907 103.055 23.7831 103.056C25.5375 103.055 35.0151 101.841 40.324 101.356C41.95 101.207 43.4129 101.157 44.6665 101.157C47.2213 101.157 48.9013 101.364 49.3548 101.364C49.4067 101.364 49.4417 101.363 49.4754 101.353L49.4346 101.238C49.4329 101.239 49.4005 101.243 49.3548 101.243C48.9244 101.243 47.2244 101.036 44.6665 101.036C43.4089 101.036 41.942 101.086 40.3111 101.235C35.0027 101.721 25.5097 102.935 23.7831 102.935C22.9349 102.936 21.8729 102.515 21.0293 102.092C20.6069 101.881 20.2386 101.669 19.9759 101.51C19.7132 101.352 19.5576 101.247 19.557 101.246L19.4805 101.345Z" fill="#161D39"/>
<path d="M27.2629 110.324V110.384H46.1657L45.386 125.802L45.4511 125.805L45.4174 125.753C45.4166 125.754 45.0535 125.955 44.4626 126.275C42.6894 127.234 38.87 129.253 36.7248 130.038L36.7488 130.095L36.7758 130.039C36.7745 130.039 36.2864 129.832 35.5266 129.505C33.2484 128.523 28.5277 126.456 27.2998 125.674C27.0594 125.529 26.8641 124.991 26.7536 124.21C26.6393 123.429 26.5934 122.403 26.5934 121.264C26.5934 118.985 26.777 116.251 26.9605 114.087C27.0525 113.006 27.1443 112.066 27.2132 111.397C27.2819 110.728 27.3278 110.331 27.3278 110.33L27.2629 110.324V110.384V110.324L27.1981 110.317C27.198 110.318 26.4631 116.695 26.4629 121.264C26.4629 122.406 26.5088 123.435 26.6242 124.226C26.7434 125.017 26.9155 125.569 27.2262 125.774C28.0626 126.306 30.4312 127.397 32.5977 128.359C34.7633 129.32 36.7213 130.15 36.7217 130.15L36.7466 130.161L36.7727 130.151C39.655 129.095 45.4826 125.858 45.4844 125.857L45.5145 125.841L46.3027 110.263H27.2043L27.1981 110.317L27.2629 110.324Z" fill="#161D39"/>
<path d="M12.8679 109.258L18.4775 110.384L18.4914 110.324L18.4303 110.303C18.4295 110.306 14.4981 119.952 13.972 122.638C13.7159 123.953 12.698 125.243 11.7413 126.2C11.2632 126.678 10.801 127.074 10.4587 127.35C10.1162 127.626 9.89506 127.78 9.89453 127.781L9.97317 127.878C9.97592 127.872 13.5654 125.369 14.1005 122.66C14.359 121.335 15.473 118.251 16.5211 115.505C17.0451 114.132 17.553 112.842 17.9298 111.895C18.3066 110.949 18.5516 110.347 18.5523 110.346L18.5792 110.28L12.8954 109.139L12.8679 109.258Z" fill="#161D39"/>
<path d="M100.19 40.3352C99.2326 39.3643 98.232 39.6879 97.9709 38.8786C97.7098 38.0692 97.1007 37.0575 96.4482 37.0575C95.7952 37.0575 95.4038 35.4788 94.316 35.1552C93.2281 34.8315 92.3145 36.0457 91.0524 36.4502C89.7903 36.855 89.2251 35.8837 87.7889 36.3694C86.353 36.8551 87.006 38.757 86.3965 40.3352C86.1088 41.0815 84.5559 42.1897 82.6816 43.4328C83.6259 44.125 84.8281 44.917 86.1788 45.5961C87.174 46.0966 87.94 47.169 88.5238 48.4116C88.8736 47.8802 89.1706 47.4629 89.3989 47.2152C90.9655 45.5153 94.3594 45.1916 97.1442 43.8158C99.929 42.4396 101.147 41.3066 100.19 40.3352Z" fill="#8E5342"/>
<path d="M34.7048 32.0776C33.9521 32.0075 33.5781 32.3526 33.4084 32.595C33.8996 31.6739 35.6689 27.9744 34.9322 23.68C34.0802 18.7152 28.515 15.7046 23.7449 15.5991C18.9746 15.7046 13.4093 18.7152 12.5575 23.68C11.8206 27.9744 13.5899 31.6739 14.0814 32.595C13.9113 32.3526 13.5374 32.0075 12.7847 32.0776C11.649 32.1831 11.9329 35.2992 13.1253 37.0952C14.3181 38.8911 15.5671 37.0952 15.5671 37.0952C15.8604 37.5681 16.5172 39.2424 17.0838 40.7514C17.6857 42.3556 17.8073 44.0934 17.3434 45.7368C17.3146 45.8386 17.2842 45.9384 17.2508 46.0345C18.7555 46.3086 20.8491 46.7193 23.3916 47.2961C28.1394 48.373 28.2675 47.158 31.4243 46.6154C30.8035 46.7218 29.4175 45.5034 29.0741 45.0973C27.3269 43.0293 30.7289 39.0189 31.9221 37.0952C31.9221 37.0952 33.1715 38.8911 34.3643 37.0952C35.5568 35.2992 35.8405 32.1831 34.7048 32.0776Z" fill="#8C533C"/>
<path d="M22.5784 13.3829C22.2541 13.4159 21.9301 13.4625 21.6073 13.5231C17.7524 14.2462 14.4815 16.8486 12.5989 20.06C10.6027 23.4655 10.0596 27.4227 9.60919 31.2793C8.30355 42.4561 7.47516 53.6816 7.1266 64.9195C7.11463 65.3046 7.11774 65.7293 7.38961 66.0199C7.61959 66.2656 7.98549 66.3514 8.32918 66.4149C9.83244 66.692 11.3743 66.7872 12.9036 66.6977C13.0745 64.7245 13.2451 62.7521 13.4159 60.7797C13.584 62.2631 13.7521 63.7465 13.9204 65.23C13.9662 65.6344 14.0313 66.0756 14.3518 66.3522C14.6262 66.5889 15.0235 66.6458 15.3955 66.6845C17.3735 66.8923 19.3754 66.9022 21.3555 66.713C21.4011 64.0904 21.4466 61.4682 21.492 58.846C21.8572 61.509 22.2224 64.172 22.5872 66.8346C26.7776 67.1727 31.0024 67.1409 35.1866 66.7394C35.1822 65.3891 35.1782 64.0384 35.1737 62.6878C35.4725 64.0112 35.7713 65.3347 36.0701 66.6577C37.6784 67.4716 39.7623 66.2145 40.3581 64.6041C40.9539 62.9937 40.5252 61.232 40.1404 59.5667C38.565 52.7424 37.978 45.5195 37.9989 38.452C38.0175 32.0845 39.3793 25.0632 35.3684 19.4213C32.594 15.5186 27.5338 12.8774 22.5784 13.3829Z" fill="#00385F"/>
<path d="M13.4098 60.7793L13.2056 55.2752C13.1443 53.4401 13.0901 51.6041 13.0839 49.7682C13.0607 46.0959 13.1403 42.422 13.3987 38.7571C13.6538 35.0914 14.197 31.4414 15.0493 27.8528C15.2614 26.9561 15.4974 26.0618 15.7438 25.1745C15.9828 24.2852 16.2048 23.3889 16.4851 22.5066C16.7677 21.6264 17.116 20.7585 17.6014 19.9553C18.0914 19.1567 18.7498 18.441 19.5602 17.9124L19.5674 17.9223C18.7659 18.4591 18.1214 19.1786 17.6448 19.978C17.1724 20.782 16.8373 21.649 16.5679 22.5293C16.3002 23.4112 16.0905 24.3075 15.8628 25.2017C15.6302 26.0952 15.3826 26.9812 15.1729 27.8779C14.3189 31.4604 13.7757 35.103 13.4695 38.7616C13.1594 42.422 13.1247 46.0976 13.1821 49.767L13.4229 60.7789L13.4098 60.7793Z" fill="#666A96"/>
<path d="M21.4876 58.8462C21.2756 57.129 21.1142 55.4068 20.9675 53.6839C20.8197 51.9605 20.6912 50.2359 20.6065 48.5092C20.4259 45.0558 20.3305 41.5996 20.3081 38.1425C20.2915 34.6862 20.4098 31.2242 20.8049 27.7836C21.0055 26.0644 21.2917 24.3501 21.7378 22.6696C22.1937 21.0006 22.7832 19.3184 23.8848 17.9138L23.8952 17.9212C22.8157 19.3362 22.2528 21.0187 21.8216 22.6885C21.4022 24.3699 21.1443 26.0821 20.9307 27.7964C20.5332 31.2304 20.4138 34.6883 20.3792 38.1429C20.3494 41.5987 20.49 45.0546 20.7047 48.5042L21.0562 53.6773C21.1901 55.4011 21.3376 57.1236 21.5006 58.845L21.494 58.8458L21.4876 58.8462Z" fill="#666A96"/>
<path d="M35.1689 62.6885C34.9194 60.8393 34.6942 58.9877 34.4718 57.1353C34.2486 55.2837 34.0264 53.4313 33.8337 51.5764L32.661 40.4482C32.2643 36.7392 31.9069 33.0265 31.6175 29.3089C31.5405 28.3795 31.4667 27.4498 31.4152 26.5189C31.3595 25.5887 31.2973 24.6582 31.2665 23.7264C31.2279 22.795 31.1815 21.8641 31.1851 20.9315C31.1867 20.4656 31.163 19.9997 31.1857 19.5338L31.26 18.137L31.2726 18.1382L31.2168 19.5342C31.2002 19.9997 31.2302 20.4656 31.2345 20.9311C31.2433 21.8624 31.3017 22.7926 31.3526 23.7227C31.3953 24.6537 31.4696 25.5826 31.5375 26.5119C31.6036 27.4416 31.6645 28.3713 31.7438 29.3002C32.03 33.017 32.3862 36.7293 32.7318 40.442C33.0762 44.1555 33.5021 47.8616 33.9317 51.5669L35.1818 62.6872L35.1752 62.6877L35.1689 62.6885Z" fill="#666A96"/>
<path d="M31.184 63.2139C31.0174 61.7102 30.8763 60.2045 30.7355 58.6984C30.5947 57.1927 30.456 55.6866 30.3436 54.1785L29.6527 45.132C29.4141 42.1173 29.2193 39.0993 29.0624 36.0793C28.9878 34.569 28.9308 33.058 28.9054 31.5461C28.8733 30.0346 28.8781 28.5215 28.9551 27.0113L28.968 27.0117C28.8922 30.0342 29.0544 33.0547 29.1888 36.0739C29.3426 39.0927 29.5362 42.1099 29.7236 45.1278C29.9163 48.1454 30.1741 51.1589 30.4418 54.1715L30.8245 58.6918L31.1968 63.2126L31.184 63.2139Z" fill="#666A96"/>
<path d="M56.0058 44.5038C51.8082 44.3987 47.4839 43.979 43.1599 44.6383C35.2374 45.8463 28.7439 42.9474 21.4711 46.2087C14.9036 49.1537 8.62831 54.5535 5.17578 57.7092C5.39552 58.7024 5.75588 59.8073 6.31988 60.9927C6.54845 60.8541 6.7791 60.7639 7.012 60.7436C9.78261 60.502 11.6008 59.294 13.5922 59.294C15.5836 59.294 27.8894 57.489 31.266 56.5226C33.3324 55.9314 49.3306 55.5611 57.3561 55.5991C55.8715 47.7267 56.2022 49.702 56.0058 44.5038Z" fill="#FF6C4A"/>
<path d="M4.1545 58.6503C1.0376 61.5491 -0.694052 70.0848 0.518098 70.246C1.62842 70.3932 3.82859 62.5064 6.31956 60.9929C5.75556 59.8076 5.3952 58.7026 5.17546 57.7094C4.80473 58.0483 4.45665 58.3691 4.1545 58.6503Z" fill="#F7AAA4"/>
<path d="M31.3223 56.4916C31.3211 56.49 30.7574 55.6345 29.8961 54.7175C29.0339 53.8014 27.8776 52.8206 26.6701 52.5753L26.6426 52.6932C27.7967 52.9245 28.9456 53.888 29.7983 54.7971C30.2251 55.2514 30.5787 55.6914 30.8255 56.0171C31.0722 56.3432 31.2111 56.5543 31.2116 56.5547L31.3223 56.4916Z" fill="#161D39"/>
<path d="M223.969 85.4058C223.989 85.2322 224.118 84.9877 224.384 84.5965C225.617 82.7799 221.814 83.6404 219.038 80.9633C216.263 78.2867 211.534 75.4188 209.89 72.7418C208.245 70.0652 203.774 56.8236 196.835 53.8122C190.444 51.0383 180.003 52.1552 177.914 49.9948C170.344 51.6436 166.002 50.9258 163.727 50.0711C163.105 50.6908 162.25 51.174 161.064 51.3743C155.975 52.2348 148.574 52.8087 143.795 54.2427C139.015 55.6766 135.931 62.1294 133.155 65.7151C130.38 69.3 126.679 77.1872 118.97 80.4855C113.88 82.6632 112.689 84.1528 112.467 84.9139C113.423 85.3007 114.488 86.1178 115.115 88.0861C115.87 90.4535 115.702 94.2664 115.457 96.8733C115.489 96.903 115.514 96.936 115.526 96.9772C115.835 98.029 119.124 98.7934 120.975 96.2124C122.825 93.631 128.684 92.8662 131.408 89.8066C134.132 86.7474 145.028 75.801 145.028 75.801C145.028 75.801 146.159 88.0383 144 94.348C141.841 100.658 141.636 102.761 141.944 105.342C142.23 107.734 142.779 109.794 142.859 110.084C144.413 109.851 146.669 109.47 149.962 108.88C160.349 107.018 178.862 107.328 188.352 107.434C187.068 103.196 191.614 97.5198 192.004 90.811C192.415 83.736 193.238 78.3824 193.238 78.3824C193.238 78.3824 196.835 86.2217 201.05 88.8031C205.264 91.3845 203.003 89.0896 207.937 92.5319C212.871 95.9737 216.366 96.2602 216.469 95.0172C216.571 93.7741 216.571 93.7741 216.571 93.7741C216.571 93.7741 216.606 93.7922 216.668 93.8244C216.61 93.3272 216.571 92.7388 216.571 92.0297C216.571 89.5308 220.731 86.6468 223.969 85.4058Z" fill="#F9A935"/>
<path d="M192.543 52.5452C186.547 51.3587 179.579 51.7165 177.914 49.9948C170.344 51.6436 166.002 50.9258 163.727 50.0711C163.105 50.6908 162.25 51.174 161.064 51.3743C155.975 52.2348 148.574 52.8087 143.795 54.2427C139.015 55.6766 135.931 62.1294 133.155 65.7151C130.38 69.3 126.679 77.1872 118.97 80.4855C113.88 82.6632 112.689 84.1528 112.467 84.9139C113.423 85.3007 114.488 86.1178 115.115 88.0861C115.87 90.4535 115.702 94.2664 115.457 96.8733C115.489 96.903 115.514 96.936 115.526 96.9772C115.835 98.029 119.124 98.7934 120.975 96.2124C122.825 93.631 128.684 92.8662 131.408 89.8066C134.132 86.7474 145.028 75.801 145.028 75.801C145.028 75.801 146.159 88.0379 144 94.348C141.841 100.658 141.636 102.761 141.944 105.342C142.23 107.734 142.779 109.794 142.859 110.084C144.413 109.851 146.669 109.47 149.962 108.88C160.349 107.018 178.862 107.328 188.353 107.434C187.068 103.196 191.614 97.5198 192.004 90.8105C192.332 85.163 192.922 80.6154 193.147 79.0091C190.809 70.717 189.412 60.8616 192.543 52.5452Z" fill="#F2C917"/>
<path d="M149.961 108.879C146.667 109.47 144.411 109.85 142.857 110.084L142.868 110.122C142.868 110.122 143.793 110.777 141.84 123.124C139.887 135.472 139.887 135.472 139.887 135.472H166.305L167.024 131.346L168.361 135.472H195.909C195.909 135.472 190.666 112.416 188.61 108.114C188.504 107.893 188.421 107.665 188.351 107.434C178.86 107.328 160.348 107.017 149.961 108.879Z" fill="#FF6C4A"/>
<path d="M145.882 112.238C145.883 112.237 146.194 112.204 146.767 112.145C150.774 111.731 167.537 110.075 179.199 110.076C182.237 110.076 184.929 110.188 186.956 110.463L186.975 110.344C184.937 110.067 182.241 109.955 179.199 109.955C165.858 109.955 145.868 112.118 145.867 112.118L145.882 112.238Z" fill="#161D39"/>
<path d="M167.09 131.347C167.09 131.347 167.205 123.911 167.205 118.231C167.205 115.39 167.176 112.991 167.09 112.172L166.961 112.183C167.046 112.989 167.075 115.392 167.075 118.231C167.075 121.07 167.046 124.349 167.018 126.917C167.003 128.202 166.989 129.309 166.979 130.095C166.968 130.88 166.961 131.344 166.961 131.345L167.091 131.347" fill="#161D39"/>
<path d="M141.845 123.185L159.745 121.829L156.372 135.458L156.499 135.485L159.911 121.695L141.834 123.064L141.845 123.185Z" fill="#161D39"/>
<path d="M192.741 122.184H172.07L177.501 135.431L177.622 135.388L172.259 122.304H192.741V122.184Z" fill="#161D39"/>
<path d="M177.916 49.9945C177.737 49.8098 177.613 49.6041 177.564 49.3666C176.947 46.3548 176.947 44.4908 176.947 44.4908H165.229C165.229 44.4908 165.769 48.0312 163.729 50.0708C166.004 50.9255 170.346 51.6433 177.916 49.9945Z" fill="#F7AAA4"/>
<path d="M115.114 88.086C114.487 86.1177 113.423 85.3005 112.466 84.9138C112.351 85.3051 112.493 85.5046 112.493 85.5046C112.493 85.5046 85.0474 96.8336 82.2719 97.2636C79.4969 97.6941 76.5671 95.5431 72.8665 95.8297C69.1663 96.1166 67.5726 95.2562 66.1851 96.1166C64.7976 96.9771 67.6245 97.3597 67.1617 97.8375C66.6993 98.3154 63.7696 98.698 63.9238 100.419C64.0781 102.14 64.7976 102.809 64.7976 102.809C64.7976 102.809 64.7976 104.864 65.7223 105.438C66.6475 106.012 66.1337 106.824 67.6755 107.971C69.2177 109.119 69.7315 109.501 71.9932 108.64C74.2544 107.78 80.1135 104.291 82.4776 103.574C84.8421 102.857 99.4385 101.518 103.756 100.084C107.906 98.7054 114.663 96.1368 115.456 96.8732C115.7 94.2663 115.868 90.4534 115.114 88.086Z" fill="#8E5342"/>
<path d="M145.091 75.8105C145.091 75.8085 146.787 66.5876 146.788 63.1334H146.658C146.658 64.8465 146.235 68.0137 145.811 70.7488C145.599 72.1168 145.387 73.3772 145.228 74.2958C145.069 75.214 144.963 75.7887 144.963 75.7903L145.091 75.8105Z" fill="#161D39"/>
<path d="M115.604 84.3812C115.604 84.3821 115.734 84.66 115.931 85.1349C116.521 86.5606 117.7 89.7538 117.7 92.4465C117.7 93.027 117.645 93.5844 117.519 94.0949L117.645 94.1221C117.774 93.6001 117.83 93.0344 117.83 92.4465C117.828 88.8159 115.723 84.3367 115.722 84.333L115.604 84.3812Z" fill="#161D39"/>
<path d="M131.99 89.2529C131.99 89.2492 134.15 83.4805 134.152 80.6167C134.152 80.5206 134.15 80.4279 134.144 80.3388L134.015 80.345C134.02 80.432 134.022 80.5227 134.022 80.6167C134.022 82.0251 133.484 84.1785 132.945 85.9744C132.676 86.8728 132.406 87.6829 132.204 88.268C132.001 88.853 131.867 89.2121 131.867 89.2134L131.99 89.2529Z" fill="#161D39"/>
<path d="M193.3 78.3754C193.3 78.3738 193.226 77.7363 193.116 76.7167C192.783 73.6596 192.118 67.1779 192.118 64.2803H191.988C191.989 68.1604 193.171 78.3869 193.171 78.3882L193.3 78.3754Z" fill="#161D39"/>
<path d="M142.762 98.4697C142.762 98.4693 142.824 98.3638 142.945 98.1741C143.788 96.8445 147.492 91.4339 152.449 90.0392L152.412 89.9237C146.669 91.5481 142.653 98.4083 142.648 98.412L142.762 98.4697Z" fill="#161D39"/>
<path d="M157.017 14.2858C157.017 14.2858 150.755 18.0001 148.493 31.5773C146.231 45.1545 153.636 47.5034 148.851 56.4893C144.066 65.4756 151.079 74.3276 161.512 73.9565C171.946 73.5859 167.775 69.827 178.295 70.8792C188.815 71.9317 192.263 65.5577 187.972 50.4125C183.681 35.2673 185.461 36.6947 187.612 25.3129C189.763 13.9308 168.427 -7.4091 157.017 14.2858Z" fill="#2A95FF"/>
<path d="M183.36 17.9146C183.497 18.4769 183.768 19.0092 184.007 19.5456L184.76 21.1494C185.253 22.2226 185.751 23.2974 186.188 24.395C187.059 26.588 187.822 28.8436 188.136 31.1867C188.288 32.3551 188.332 33.5434 188.178 34.7167C188.115 35.3047 187.97 35.8831 187.798 36.45C187.603 37.0177 187.368 37.5484 187.239 38.1144C187.114 38.6776 187.048 39.2557 187.094 39.8316C187.134 40.4076 187.278 40.9733 187.468 41.5229C187.849 42.6266 188.466 43.6458 189.01 44.6992C189.564 45.7481 190.081 46.8345 190.384 47.9876C190.551 48.5603 190.644 49.1487 190.723 49.7374C190.777 50.3286 190.804 50.924 190.771 51.516C190.717 52.7022 190.498 53.8752 190.176 55.0172C189.851 56.1585 189.436 57.2766 188.887 58.3494C188.332 59.4139 187.656 60.448 186.742 61.3031C186.276 61.7199 185.773 62.107 185.206 62.4051C184.638 62.6987 184.026 62.9201 183.39 63.0433C182.111 63.2845 180.794 63.111 179.596 62.7304C178.394 62.3412 177.285 61.7454 176.305 61.0116L176.337 60.974C177.352 61.6519 178.494 62.1635 179.676 62.4975C180.859 62.8281 182.12 62.9258 183.304 62.6743C183.894 62.5445 184.456 62.3259 184.976 62.0411C185.497 61.752 185.957 61.3789 186.384 60.9777C187.219 60.1528 187.866 59.1661 188.387 58.1288C188.916 57.094 189.318 55.9948 189.653 54.8857C189.984 53.7762 190.214 52.6399 190.283 51.4946C190.356 50.3492 190.262 49.1973 189.983 48.0771C189.712 46.9561 189.266 45.8717 188.753 44.8113C188.241 43.7509 187.679 42.6971 187.294 41.574C186.898 40.455 186.81 39.2375 187.063 38.0798C187.184 37.4993 187.423 36.9435 187.593 36.3952C187.737 35.8345 187.854 35.2672 187.89 34.6904C187.993 33.5401 187.895 32.3815 187.709 31.2403C187.345 28.9529 186.639 26.715 185.813 24.5215C185.395 23.4253 184.964 22.3319 184.508 21.2451C184.279 20.7021 184.058 20.1554 183.842 19.6062C183.637 19.055 183.397 18.5091 183.308 17.9207L183.36 17.9146Z" fill="#3EB9A4"/>
<path d="M162.327 11.3228C161.157 12.025 160.04 12.8005 158.936 13.5859C158.379 13.9726 157.846 14.3882 157.303 14.7915C156.777 15.2128 156.241 15.6247 155.723 16.0547C153.647 17.767 151.712 19.6293 150.019 21.666C149.164 22.6782 148.395 23.7514 147.716 24.8745C147.528 25.147 147.392 25.4431 147.243 25.7333L146.798 26.6078C146.642 26.8968 146.557 27.2093 146.433 27.5091C146.328 27.815 146.25 28.1287 146.165 28.4396C145.882 29.6979 145.904 31.0115 146.204 32.2665C146.495 33.5269 147.041 34.7217 147.66 35.8749C148.276 37.0318 148.978 38.1516 149.616 39.3114C149.935 39.8915 150.233 40.4856 150.497 41.0962C150.751 41.7113 150.951 42.3504 151.074 43.0084C151.19 43.6685 151.195 44.3496 151.092 45.0171C151.002 45.69 150.731 46.3265 150.424 46.9314C149.746 48.1415 148.777 49.0638 148.107 50.186C147.396 51.2757 146.775 52.431 146.465 53.6608C146.138 54.8812 146.152 56.1808 146.62 57.3661C147.078 58.5548 147.918 59.6036 148.894 60.5082C149.873 61.4157 150.964 62.2242 152.098 62.9762L152.069 63.0166C150.896 62.3169 149.742 61.574 148.711 60.6834C147.688 59.7958 146.758 58.7523 146.24 57.4989C145.711 56.2525 145.662 54.8515 145.977 53.5557C146.271 52.2446 146.931 51.0527 147.649 49.9283C148.337 48.7809 149.316 47.7902 149.942 46.7017C150.234 46.1431 150.494 45.5601 150.583 44.9417C150.685 44.329 150.691 43.6998 150.59 43.0781C150.381 41.8338 149.853 40.6373 149.259 39.4755C148.661 38.312 147.99 37.172 147.404 35.9895C146.809 34.8116 146.318 33.5797 146.026 32.3011C145.738 31.0222 145.734 29.6913 145.988 28.4062C146.255 27.1153 146.862 25.923 147.46 24.7488C148.105 23.5902 148.838 22.4721 149.676 21.4253C151.347 19.3246 153.341 17.4697 155.462 15.7744C157.594 14.0893 159.88 12.5746 162.301 11.2812L162.327 11.3228Z" fill="#3EB9A4"/>
<path d="M185.211 62.4019C185.242 62.2176 185.271 62.0333 185.296 61.8482C185.32 61.8325 185.344 61.8168 185.368 61.8011C185.34 61.99 185.31 62.1784 185.277 62.3664C185.255 62.3784 185.233 62.3903 185.211 62.4019Z" fill="#5AC7B6"/>
<path d="M155.45 69.9087C154.51 68.9151 153.648 67.8435 153.058 66.6285C152.509 65.4778 152.166 64.2463 152.029 62.9929C152.043 63.0007 152.056 63.009 152.069 63.0168L152.098 62.9764C152.073 62.9595 152.048 62.9426 152.022 62.9257C152.017 62.8791 152.013 62.8325 152.009 62.7859C151.768 60.1209 152.43 57.483 153.161 54.9334L153.72 53.0154L153.986 52.0539C154.077 51.734 154.117 51.4075 154.186 51.0842C154.386 49.7781 154.225 48.448 153.95 47.1551C153.671 45.8588 153.303 44.5778 152.974 43.2882C152.646 41.9977 152.371 40.6949 152.175 39.3805C151.439 34.1073 152.406 28.6992 154.633 23.821C155.722 21.3682 157.092 19.0301 158.622 16.7934C159.389 15.6765 160.194 14.5815 161.047 13.519C161.895 12.454 162.778 11.4126 163.722 10.4194L163.732 10.4276C160.043 14.4627 156.969 18.9938 154.724 23.856C153.616 26.2927 152.772 28.8402 152.341 31.4583C151.897 34.0743 151.877 36.7484 152.252 39.371C152.456 40.6813 152.738 41.9792 153.073 43.2659C153.41 44.5523 153.788 45.8312 154.066 47.1336C154.343 48.4324 154.508 49.7752 154.307 51.1003C154.238 51.4268 154.197 51.7612 154.106 52.0816L153.84 53.0451L153.283 54.9639C152.913 56.2428 152.579 57.53 152.343 58.8333C152.111 60.1353 151.977 61.4616 152.094 62.7801C152.201 64.097 152.537 65.3957 153.104 66.6095C153.679 67.8241 154.53 68.9002 155.46 69.9004L155.45 69.9087Z" fill="#5AC7B6"/>
<path d="M152.069 63.0166C152.056 63.0088 152.042 63.0005 152.029 62.9927C152.026 62.9704 152.024 62.9482 152.021 62.9255C152.047 62.9424 152.072 62.9593 152.098 62.9762L152.069 63.0166Z" fill="#5AC7B6"/>
<path d="M176.327 67.2764L176.314 67.2731C176.822 65.4561 177.16 63.6028 177.399 61.7401C177.422 61.7529 177.443 61.7657 177.465 61.7784C177.207 63.6313 176.851 65.4726 176.327 67.2764ZM177.484 61.6436C177.461 61.6321 177.439 61.6205 177.416 61.609C177.473 61.1555 177.524 60.7011 177.57 60.2468C177.805 57.8802 177.871 55.5005 177.773 53.1273L177.66 51.3487C177.62 50.7566 177.538 50.167 177.479 49.5758C177.427 48.9833 177.311 48.3987 177.226 47.8104C177.138 47.2224 177.035 46.6357 176.928 46.0495C176.508 43.7035 176.112 41.3522 175.82 38.9885C175.683 37.8057 175.577 36.6195 175.537 35.4296C175.502 34.2402 175.541 33.0499 175.613 31.8625C175.686 30.6746 175.815 29.491 175.945 28.3081L176.155 26.5348L176.263 25.6488C176.294 25.3532 176.309 25.0572 176.333 24.7615C176.512 22.3991 176.167 19.9917 175.198 17.7938C174.246 15.5987 172.758 13.5839 170.816 12.0386L170.824 12.0287C172.803 13.5426 174.312 15.56 175.28 17.7625C175.79 18.8587 176.091 20.0272 176.309 21.2001C176.376 21.7934 176.491 22.3834 176.476 22.9817L176.494 23.8759C176.486 24.1736 176.451 24.4705 176.431 24.7677C176.405 25.065 176.388 25.3631 176.355 25.6587L176.241 26.5443L176.019 28.3155C175.881 29.4971 175.743 30.6792 175.662 31.8653C175.575 33.0511 175.545 34.2406 175.588 35.4284C175.635 36.6158 175.748 37.8003 175.891 38.9807C176.197 41.3411 176.626 43.6858 177.045 46.0313C177.153 46.6168 177.257 47.2035 177.344 47.7935C177.431 48.383 177.548 48.9693 177.601 49.563C177.66 50.1555 177.743 50.7463 177.785 51.3404L177.899 53.1223C178.011 55.5017 177.917 57.8872 177.656 60.2542C177.604 60.718 177.547 61.181 177.484 61.6436Z" fill="#5AC7B6"/>
<path d="M177.466 61.7788C177.444 61.766 177.423 61.7532 177.4 61.7404C177.406 61.6967 177.411 61.653 177.417 61.6093C177.44 61.6209 177.462 61.6324 177.485 61.644C177.479 61.6889 177.473 61.7339 177.466 61.7788Z" fill="#5AC7B6"/>
<path d="M163.72 69.4702C162.889 68.3846 162.364 67.1243 162 65.842C161.633 64.5557 161.451 63.231 161.348 61.9063C161.148 59.2536 161.322 56.5848 161.715 53.954C161.813 53.296 161.927 52.6396 162.054 51.9857L162.251 51.0061L162.416 50.0269C162.595 48.7199 162.516 47.3693 162.011 46.132C161.495 44.9 160.671 43.8041 159.948 42.6596C159.213 41.52 158.583 40.3178 158.114 39.0616C157.618 37.8111 157.354 36.4975 157.111 35.1905C156.892 33.8724 156.975 32.5304 157.165 31.2164C157.569 28.5806 158.483 26.0401 159.547 23.5787C160.612 21.1124 161.895 18.7326 163.277 16.4093C164.662 14.0873 166.141 11.8131 167.742 9.61475L167.753 9.62135C166.17 11.8304 164.71 14.1145 163.345 16.444C161.985 18.7767 160.729 21.1627 159.638 23.6133C158.563 26.0652 157.633 28.5955 157.213 31.223C157.009 32.5321 156.937 33.8728 157.164 35.1831C157.415 36.4864 157.686 37.7946 158.188 39.0372C158.663 40.2865 159.296 41.4784 160.036 42.611C160.763 43.7481 161.598 44.8419 162.122 46.0928C162.636 47.3482 162.718 48.7224 162.537 50.0409L162.373 51.0288L162.176 52.0063C162.051 52.6586 161.938 53.3137 161.841 53.9701C161.461 56.596 161.26 59.2536 161.435 61.9013C161.524 63.2227 161.694 64.5454 162.048 65.8309C162.399 67.1123 162.911 68.3727 163.73 69.4636L163.72 69.4702Z" fill="#5AC7B6"/>
<path d="M170.006 68.0811L169.993 68.0794C170.661 63.2704 171.01 58.4194 170.924 53.5729C170.868 51.1515 170.687 48.7252 170.215 46.3409C169.988 45.1477 169.662 43.9722 169.356 42.7939L168.417 39.2626C167.786 36.9113 167.205 34.5336 166.986 32.1102C166.751 29.6892 166.786 27.2571 166.861 24.8324C166.951 22.4069 167.164 19.9847 167.523 17.5806C167.865 15.174 168.403 12.7976 168.925 10.4224L168.938 10.4248C168.44 12.8054 167.926 15.1843 167.608 17.5913C167.275 19.9958 167.09 22.4155 166.987 24.8365C166.91 27.2579 166.872 29.6871 167.104 32.1003C167.323 34.5151 167.869 36.8915 168.486 39.247C169.088 41.6061 169.749 43.9537 170.264 46.3326C170.753 48.7177 170.951 51.1461 171.023 53.5704C171.096 55.9972 171.007 58.4252 170.83 60.8453C170.653 63.2659 170.394 65.6823 170.006 68.0811Z" fill="#5AC7B6"/>
<path d="M132.442 61.7927C133.399 60.8218 134.4 61.1454 134.661 60.3361C134.922 59.5268 135.531 58.5146 136.184 58.5146C136.837 58.5146 137.228 56.9368 138.316 56.6131C139.404 56.2891 140.318 57.5033 141.579 57.9077C142.841 58.3126 143.407 57.3412 144.843 57.8269C146.279 58.3126 145.626 60.2145 146.235 61.7927C146.523 62.539 148.076 63.6472 149.95 64.8907C149.006 65.583 147.804 66.3746 146.453 67.054C145.458 67.5541 144.692 68.6265 144.108 69.8691C143.758 69.3377 143.461 68.9205 143.233 68.6727C141.666 66.9732 138.272 66.6491 135.488 65.2733C132.703 63.8975 131.485 62.7641 132.442 61.7927Z" fill="#F7AAA4"/>
<path d="M310.467 82.7135C309.601 80.1366 309.082 77.399 304.233 76.4326C299.385 75.4662 293.67 71.2789 287.783 69.6685C281.895 68.0577 269.081 61.6156 264.406 55.8179C259.73 50.0199 256.094 47.121 245.877 44.8662C236.928 42.8909 233.16 45.7353 231.898 42.7895C226.629 45.4595 220.938 45.4846 217.263 45.0839C217.019 45.6339 216.595 46.1179 215.92 46.477C212.284 48.4094 202.154 47.9262 193.063 56.1399C183.972 64.3536 173.972 70.8761 170.595 74.1378C167.218 77.399 161.711 75.3454 157.516 70.2725C153.907 65.9072 152.153 65.386 149.831 63.5563C148.047 64.387 144.929 66.2589 142.426 69.6001C142.621 69.9905 142.829 70.4449 143.062 70.9969C144.491 74.379 159.296 90.3232 165.79 91.7728C172.283 93.2224 181.764 88.9947 189.946 84.6463C198.128 80.2978 200.725 78.4858 202.414 78.4858C204.102 78.4858 207.089 86.9411 205.92 94.0676C204.751 101.194 202.024 100.228 203.972 107.717C205.92 115.206 206.18 110.978 204.881 119.675C204.811 120.143 204.743 120.604 204.676 121.058C212.564 121.643 239.198 123.377 253.674 121.376C253.601 120.251 253.489 119.203 253.323 118.306C252.284 112.669 255.575 92.3768 258.345 85.9347C261.116 79.4926 260.942 75.4662 260.942 75.4662C260.942 75.4662 272.718 78.8482 281.029 83.5187C289.341 88.1895 304.58 86.0955 305.965 88.0283C306.057 88.1561 306.135 88.2716 306.203 88.3792C307.048 88.0151 308.282 87.5674 309.773 87.4396C310.475 85.8972 310.896 83.9895 310.467 82.7135Z" fill="#00385F"/>
<path d="M307.35 89.9599C308.049 90.204 309.057 89.0112 309.773 87.4388C308.282 87.5666 307.048 88.0143 306.203 88.3784C307.178 89.8993 306.056 89.5089 307.35 89.9599Z" fill="#F7AAA4"/>
<path d="M204.674 121.058C203.487 129.061 202.693 134.99 203.062 135.472H253.322C253.322 135.472 254.056 127.321 253.673 121.376C239.197 123.377 212.562 121.642 204.674 121.058Z" fill="#28E4C9"/>
<path d="M202.475 78.5063C202.475 78.5059 202.542 78.3369 202.674 78.0343C203.587 75.9143 207.63 67.2862 213.349 65.0532L213.298 64.9419C209.984 66.2414 207.254 69.6231 205.345 72.6773C203.437 75.732 202.354 78.4626 202.354 78.4647L202.475 78.5063Z" fill="white"/>
<path d="M261.006 75.4746C261.006 75.473 262.815 64.1254 262.816 58.8282C262.816 58.2164 262.792 57.6854 262.737 57.2595L262.608 57.2739C262.662 57.692 262.686 58.2197 262.686 58.8282C262.686 61.4665 262.234 65.6253 261.782 69.1228C261.556 70.8713 261.329 72.455 261.16 73.6016C260.99 74.7477 260.877 75.4548 260.877 75.4569L261.006 75.4746Z" fill="white"/>
<path d="M287.734 69.7092C287.735 69.7096 287.917 69.8943 288.192 70.2171C289.019 71.1856 290.67 73.3914 290.668 75.4652C290.668 75.8421 290.614 76.2148 290.491 76.5751L290.615 76.6118C290.742 76.2379 290.798 75.8528 290.798 75.4652C290.793 72.6241 287.832 69.6329 287.83 69.6276L287.734 69.7092Z" fill="white"/>
<path d="M266.344 77.2624C266.345 77.2624 266.684 77.2422 267.278 77.2422C268.904 77.2418 272.426 77.396 276.029 78.5426C280.312 79.9052 282.352 79.9976 282.827 79.9976C282.901 79.9976 282.937 79.9951 282.938 79.9951L282.929 79.8747C282.929 79.8747 282.897 79.8768 282.827 79.8768C282.37 79.8768 280.344 79.7877 276.072 78.4284C272.447 77.2752 268.913 77.1214 267.278 77.1214C266.681 77.1214 266.337 77.142 266.336 77.142L266.344 77.2624Z" fill="white"/>
<path d="M168.304 75.4311C168.049 75.7671 167.992 76.1592 167.992 76.6164C167.992 77.011 168.034 77.4579 168.034 77.9725C168.033 79.3347 167.745 81.1764 165.607 83.7635L165.71 83.8369C167.864 81.2345 168.165 79.3524 168.164 77.9725C168.164 77.4517 168.122 77.0032 168.122 76.6164C168.122 76.1666 168.179 75.8055 168.41 75.5008L168.304 75.4311Z" fill="white"/>
<path d="M166.945 75.6987C166.945 75.6996 166.934 75.909 166.899 76.2393C166.846 76.734 166.74 77.4967 166.539 78.2117C166.338 78.9266 166.037 79.5924 165.621 79.8897L165.701 79.9854C166.313 79.5384 166.643 78.4731 166.837 77.5145C167.029 76.5563 167.075 75.7066 167.075 75.7049L166.945 75.6987Z" fill="white"/>
<path d="M207.476 69.8501C207.477 69.8484 207.667 69.2362 207.969 68.3077C208.422 66.9146 209.126 64.8139 209.814 63.0172C210.158 62.1188 210.498 61.2963 210.8 60.6778C210.95 60.3686 211.091 60.1101 211.218 59.9201C211.343 59.73 211.458 59.6084 211.532 59.5758L211.474 59.4678C211.316 59.5453 211.159 59.7564 210.972 60.0751C209.685 62.2949 207.353 69.8138 207.352 69.8163L207.476 69.8501Z" fill="white"/>
<path d="M205.007 111.104C205.007 111.104 205.075 111.033 205.208 110.907C206.135 110.024 210.163 106.492 214.998 106.495C215.744 106.495 216.509 106.578 217.287 106.768L217.319 106.652C216.531 106.459 215.754 106.374 214.998 106.374C209.394 106.377 204.916 111.021 204.91 111.024L205.007 111.104Z" fill="white"/>
<path d="M204.186 108.764L204.207 108.798L204.255 108.815L204.31 108.795C204.35 108.765 204.394 108.712 204.465 108.624C204.979 107.973 206.647 105.556 209.016 103.3C211.386 101.044 214.453 98.9587 217.749 98.96C218.114 98.96 218.482 98.9855 218.852 99.0391L218.872 98.92C218.495 98.8651 218.121 98.8392 217.749 98.8392C214.111 98.8412 210.789 101.319 208.341 103.786C207.118 105.021 206.113 106.255 205.399 107.18C205.042 107.642 204.758 108.027 204.556 108.297C204.455 108.431 204.374 108.537 204.316 108.607L204.247 108.685L204.231 108.7L204.238 108.709L204.233 108.699L204.231 108.7L204.238 108.709L204.233 108.699L204.255 108.74V108.694L204.233 108.699L204.255 108.74V108.694V108.749L204.295 108.709L204.255 108.694V108.749L204.295 108.709L204.257 108.747L204.311 108.734L204.295 108.709L204.257 108.747L204.311 108.734L204.186 108.764Z" fill="white"/>
<path d="M234.428 135.472H234.558V128.613H234.428V135.472Z" fill="#161D39"/>
<path d="M227.283 135.472V130.005L209.75 129.275V135.472H209.88V129.401L227.153 130.12V135.472H227.283Z" fill="#161D39"/>
<path d="M253.721 128.553L241.699 129.281V135.472H241.829V129.394L253.73 128.673L253.721 128.553" fill="#161D39"/>
<path d="M206.699 124.566C206.702 124.566 207.705 124.557 209.428 124.541C214.595 124.496 226.208 124.405 236.424 124.405C243.235 124.405 249.426 124.446 252.67 124.566L252.676 124.446C249.426 124.325 243.236 124.284 236.424 124.284C222.802 124.284 206.698 124.446 206.697 124.446L206.699 124.566Z" fill="#161D39"/>
<path d="M234.546 27.3398C233.683 27.3847 233.326 27.8362 233.181 28.138C233.56 27.0166 234.854 22.5457 233.204 17.8158C231.297 12.3472 224.437 9.86314 219.028 10.5294C213.659 11.4344 207.945 15.7519 207.928 21.5009C207.913 26.4736 210.616 30.3615 211.346 31.3209C211.109 31.0752 210.621 30.747 209.784 30.9503C208.52 31.2566 209.435 34.7301 211.124 36.5624C212.813 38.3946 213.883 36.1604 213.883 36.1604C214.247 36.5801 214.687 37.2975 215.063 37.9633C215.529 38.7888 215.897 39.5342 215.897 39.5342L216.037 39.5746C216.901 41.166 217.929 43.5746 217.26 45.0836C220.936 45.4844 226.627 45.4592 231.896 42.7892C231.717 42.3728 231.275 40.8168 231.189 40.1374C230.908 37.9122 231.589 35.7609 232.596 33.6751C233.107 34.08 234.336 34.7928 235.117 33.0641C236.122 30.8389 235.85 27.2722 234.546 27.3398Z" fill="#F7AAA4"/>
<path d="M235.729 20.5695C234.893 16.7046 232.128 14.557 232.128 14.557C232.159 14.3748 232.27 14.1905 232.496 13.9909C234.154 12.5256 228.502 11.1176 228.502 11.1176C228.502 11.1176 230.69 7.08952 223.799 6.88667C216.909 6.68424 214.231 11.1989 214.231 11.1989C214.231 11.1989 207.36 8.2489 205.283 13.3222C203.204 18.3954 206.932 21.6847 206.932 21.6847C206.932 21.6847 204.512 26.0039 207.93 28.6624C208.546 29.141 209.07 29.5348 209.52 29.863C210.304 31.4689 211.287 33.1922 212.263 34.7973C212.529 36.4461 213.083 38.4424 214.231 40.1641C216.711 43.8822 221.358 44.6841 223.775 41.5049C223.775 41.5049 228.529 43.2102 232.166 40.1641C235.802 37.1177 233.528 29.275 233.528 29.275C233.528 29.275 236.564 24.4347 235.729 20.5695Z" fill="#FF6C4A"/>
<path d="M209.442 82.4544C210.34 80.5797 211.51 79.8986 212.513 79.6315C212.571 80.0335 212.403 80.214 212.403 80.214C212.403 80.214 238.022 94.7799 240.714 95.5435C243.405 96.3075 246.611 94.5305 250.24 95.2643C253.868 95.9982 255.569 95.3386 256.824 96.3606C258.079 97.3819 255.223 97.4178 255.614 97.948C256.006 98.4782 258.856 99.2133 258.462 100.9C258.067 102.587 257.26 103.164 257.26 103.164C257.26 103.164 256.971 105.202 255.973 105.658C254.976 106.114 255.371 106.983 253.682 107.932C251.992 108.883 251.428 109.199 249.307 108.071C247.186 106.944 241.867 102.773 239.624 101.774C237.38 100.776 223.097 97.6758 219.018 95.7302C215.097 93.8597 208.758 90.4917 207.869 91.1253C207.993 88.5106 208.361 84.7101 209.442 82.4544Z" fill="#8E5342"/>
<path d="M219.037 80.9631C216.262 78.2865 211.534 75.4185 209.888 72.7415L209.856 72.6846C205.357 76.3441 200.642 79.7023 195.254 82.122C196.699 84.5129 198.785 87.4163 201.049 88.8028C205.263 91.3842 203.001 89.0898 207.936 92.5316C212.87 95.973 216.365 96.2599 216.467 95.0169C216.57 93.7738 216.57 93.7738 216.57 93.7738C216.57 93.7738 216.604 93.792 216.667 93.8241C216.609 93.3269 216.57 92.7386 216.57 92.0286C216.571 90.3761 218.124 88.976 219.375 87.9898C220.4 87.1821 225.163 85.7168 224.614 83.9101C224.277 82.8023 220.056 81.9456 219.037 80.9631Z" fill="#F9A935"/>
<path d="M214.63 93.2317C214.63 93.2317 214.622 93.2057 214.61 93.1537C214.571 92.9975 214.495 92.6132 214.495 92.0706C214.497 90.3707 215.24 87.1177 220.305 84.4098L220.24 84.3051C215.138 87.0291 214.363 90.3378 214.365 92.0706C214.365 92.8082 214.504 93.2605 214.505 93.2646L214.63 93.2317Z" fill="#161D39"/>
<path d="M204.596 90.4648C204.596 90.4636 204.702 90.0043 204.903 89.2704C205.503 87.0692 206.96 82.4041 208.908 80.3822L208.812 80.3018C207.488 81.6789 206.408 84.2099 205.651 86.4C204.896 88.5901 204.469 90.438 204.469 90.4393L204.596 90.4648" fill="#161D39"/>
<path d="M254.245 61.0405C253.656 61.0896 252.578 61.0323 251.012 60.3788C248.501 59.332 232.309 52.0043 227.375 49.6691C222.439 47.3339 219.323 46.7703 218.283 45.8843C217.244 44.9987 215.881 43.1866 213.024 43.6698C210.166 44.153 204.647 43.8512 204.517 44.5756C204.387 45.3005 202.309 45.7837 202.504 46.5085C202.699 47.2333 201.335 48.1391 201.53 48.6223C201.725 49.1055 202.244 49.1657 202.244 49.1657C202.244 49.1657 200.751 51.0379 201.92 51.0985C203.089 51.1587 204.972 50.5547 208.153 50.7963C211.335 51.0379 213.348 52.6995 215.556 52.3214C217.764 51.9437 217.959 51.1587 219.063 51.7025C220.167 52.2459 246.531 70.3039 248.739 70.7871C249.845 71.0292 252.786 71.6303 255.879 72.0483C256.333 67.2352 255.312 63.4957 254.245 61.0405Z" fill="#F7AAA4"/>
<path d="M297.05 51.136C296.209 46.3291 296.209 46.3266 296.209 46.3266C296.209 46.3266 287.794 50.3642 284.028 49.3982C284.028 49.3982 283.666 51.5265 283.146 52.6467C284.153 53.0816 285.539 53.4762 287.377 53.5743C290.989 53.766 294.515 52.5089 297.05 51.136Z" fill="#F7AAA4"/>
<path d="M304.214 109.437C300.106 112.038 297.117 112.277 297.117 112.277C289.974 114.573 276.987 111.794 269.973 109.983C267.559 109.359 266.007 109.165 265.009 109.178C265.086 109.413 265.181 109.605 265.298 109.741C266.684 111.351 263.74 129.798 263.566 135.472H287.29L289.368 132.771V135.472H303.913C303.913 135.472 308.935 131.966 307.896 120.853C307.388 115.419 305.641 112.095 304.214 109.437Z" fill="#F2C917"/>
<path d="M269.974 109.982C276.987 111.794 289.974 114.572 297.117 112.277C297.117 112.277 300.106 112.038 304.215 109.436C302.723 106.66 301.582 104.61 302.572 101.648C304.508 95.8501 314.001 84.496 312.572 73.5039C311.143 62.5121 298.027 56.7145 297.117 51.5204C297.094 51.3881 297.072 51.2615 297.05 51.1357C294.514 52.5087 290.988 53.7658 287.377 53.574C285.538 53.4759 284.153 53.0814 283.146 52.6464C282.854 53.2764 282.301 53.8396 281.273 54.0568C278.416 54.6608 271.792 53.6948 268.026 56.2313C264.26 58.7677 260.753 58.8885 254.779 60.9421C254.779 60.9421 254.601 61.0101 254.246 61.0398C255.313 63.495 256.334 67.2345 255.881 72.0476C258.958 72.4632 262.186 72.6974 263.914 72.2154C267.377 71.2494 267.55 84.7776 266.511 92.0249C265.559 98.6591 264.175 106.639 265.009 109.178C266.007 109.165 267.56 109.358 269.974 109.982Z" fill="#FF6C4A"/>
<path d="M289.428 132.797C289.429 132.793 292.073 127.531 292.074 121.844C292.074 120.546 291.936 119.225 291.597 117.94L291.471 117.969C291.807 119.243 291.944 120.554 291.944 121.844C291.944 124.67 291.286 127.397 290.627 129.416C290.298 130.426 289.968 131.259 289.721 131.839C289.475 132.419 289.311 132.745 289.311 132.746L289.428 132.797Z" fill="#161D39"/>
<path d="M270.082 112.697C270.086 112.698 278.69 115.438 288.324 115.438C293.14 115.438 298.215 114.753 302.6 112.694L302.542 112.586C298.183 114.633 293.127 115.318 288.324 115.317C283.52 115.317 278.969 114.634 275.62 113.95C273.945 113.608 272.571 113.266 271.615 113.01C271.138 112.881 270.764 112.775 270.511 112.7C270.258 112.625 270.125 112.583 270.124 112.583L270.082 112.697Z" fill="#161D39"/>
<path d="M270.06 118.357V118.418C270.699 118.418 274.608 118.493 278.356 118.567C280.23 118.604 282.064 118.642 283.429 118.669C284.794 118.698 285.691 118.716 285.691 118.716L285.692 118.656H285.628C285.628 118.658 285.625 119.377 285.606 120.478C285.577 122.129 285.511 124.632 285.36 126.825C285.285 127.922 285.188 128.942 285.065 129.738C284.944 130.532 284.785 131.11 284.62 131.293C284.388 131.559 283.843 131.896 283.163 132.239C282.143 132.756 280.814 133.298 279.742 133.711C279.206 133.917 278.734 134.091 278.396 134.213C278.057 134.335 277.854 134.406 277.854 134.406L277.877 134.463L277.892 134.404C277.891 134.404 277.475 134.306 276.831 134.133C275.865 133.873 274.389 133.443 273.052 132.918C271.715 132.395 270.516 131.768 270.115 131.151C269.938 130.883 269.811 130.34 269.735 129.631C269.657 128.921 269.626 128.044 269.626 127.095C269.626 125.197 269.751 123.014 269.875 121.305C269.938 120.451 270 119.715 270.047 119.194C270.093 118.672 270.124 118.364 270.125 118.363L270.06 118.357V118.418V118.357L269.995 118.352C269.995 118.353 269.496 123.291 269.496 127.095C269.496 128.046 269.527 128.927 269.606 129.643C269.684 130.36 269.807 130.909 270.005 131.214C270.592 132.102 272.549 132.912 274.367 133.522C276.185 134.129 277.859 134.521 277.861 134.521L277.88 134.526L277.899 134.519C277.9 134.519 279.353 134.015 280.931 133.372C281.72 133.05 282.54 132.693 283.225 132.346C283.911 131.997 284.461 131.663 284.72 131.37C284.857 131.211 284.962 130.905 285.059 130.478C285.727 127.502 285.757 118.659 285.758 118.656V118.597L285.694 118.596C285.693 118.596 271.345 118.297 270.06 118.297H270.001L269.995 118.352L270.06 118.357Z" fill="#161D39"/>
<path d="M307.553 118.297H295.967L295.969 118.359C295.969 118.359 296.077 121.661 296.251 125.114C296.337 126.841 296.44 128.605 296.554 130.014C296.61 130.719 296.67 131.334 296.732 131.812C296.794 132.292 296.856 132.629 296.926 132.794C297.204 133.429 298.238 134.098 299.205 134.627C300.171 135.153 301.071 135.526 301.072 135.527L301.1 135.539L301.128 135.526C301.129 135.525 302.408 134.936 303.766 134.093C305.124 133.247 306.565 132.159 306.891 131.117L306.766 131.083C306.469 132.059 305.045 133.156 303.694 133.992C303.019 134.411 302.362 134.768 301.875 135.019C301.388 135.271 301.071 135.417 301.07 135.418L301.099 135.472L301.125 135.416C301.125 135.416 300.902 135.324 300.558 135.165C300.042 134.928 299.256 134.543 298.552 134.106C297.848 133.671 297.228 133.176 297.047 132.749C296.987 132.612 296.922 132.272 296.86 131.798C296.646 130.134 296.455 126.772 296.318 123.827C296.25 122.355 296.195 120.987 296.157 119.987C296.12 118.987 296.099 118.357 296.099 118.355L296.034 118.357V118.418H306.164H307.553V118.297Z" fill="#161D39"/>
<path d="M257.111 62.4138C257.111 62.4142 257.188 62.596 257.304 62.9086C257.653 63.8449 258.348 65.9488 258.348 67.7476C258.348 68.5557 258.207 69.3008 257.84 69.8487L257.95 69.9126C258.337 69.3341 258.478 68.5685 258.478 67.7476C258.477 65.3135 257.233 62.373 257.232 62.3697L257.111 62.4138Z" fill="#161D39"/>
<path d="M265.471 72.9932C265.472 72.9928 269.223 71.5052 274.29 69.0888L274.23 68.9812C271.699 70.1888 269.496 71.1638 267.926 71.8375C267.141 72.1739 266.514 72.4353 266.084 72.6122C265.654 72.7895 265.421 72.8818 265.42 72.8823L265.471 72.9932Z" fill="#161D39"/>
<path d="M302.636 101.641C302.636 101.64 302.366 99.7164 301.921 97.5304C301.476 95.3428 300.863 92.8987 300.16 91.8329L300.049 91.896C300.731 92.9239 301.352 95.3721 301.794 97.5527C302.015 98.644 302.194 99.6702 302.317 100.423C302.44 101.176 302.507 101.655 302.507 101.656L302.636 101.641Z" fill="#161D39"/>
<path d="M264.851 105.584C264.852 105.584 264.857 105.538 264.878 105.452C265.026 104.85 265.862 102.375 270.114 101.708L270.093 101.589C267.633 101.972 266.286 102.964 265.559 103.863C264.832 104.761 264.724 105.562 264.723 105.569L264.852 105.584" fill="#161D39"/>
<path d="M299.907 34.043C299.083 34.0855 298.743 34.5159 298.605 34.8033C298.967 33.7342 300.2 29.4728 298.627 24.9639C296.809 19.7513 290.27 17.3831 285.114 18.0185C279.996 18.881 274.55 22.9969 274.533 28.4767C274.519 33.2172 277.096 36.9229 277.792 37.8378C277.565 37.6036 277.1 37.2907 276.302 37.4845C275.098 37.7764 275.97 41.0875 277.58 42.8339C279.19 44.5804 280.209 42.4505 280.209 42.4505C280.556 42.8508 280.976 43.5344 281.335 44.1694C281.779 44.956 282.13 45.6668 282.13 45.6668L283.146 47.7068C283.969 49.2237 283.783 51.208 283.146 52.6465C286.649 53.0287 291.897 52.9384 296.919 50.3933C296.75 49.9963 296.73 45.9187 296.648 45.2714C296.38 43.1502 297.088 42.07 298.047 40.0819C298.535 40.4674 299.706 41.1468 300.451 39.4993C301.409 37.3785 301.149 33.9783 299.907 34.043Z" fill="#F7AAA4"/>
<path d="M284.346 15.8974C284.346 15.8974 291.549 12.6007 298.885 22.5328C306.22 32.4653 299.274 38.4011 299.604 42.266C299.934 46.1308 298.173 47.9791 293.906 47.646C289.639 47.3132 290.682 50.2896 284.098 50.9328C277.513 51.5763 281.426 48.5852 274.592 46.2714C267.757 43.9572 266.314 38.0705 268.159 31.1538C270.005 24.2372 266.715 16.3616 284.346 15.8974Z" fill="#00385F"/>
<path d="M269.96 22.0573C269.991 22.8539 269.848 23.6446 269.659 24.4181C269.456 25.1895 269.216 25.9555 268.897 26.6927C268.272 28.1712 267.508 29.601 266.581 30.9323C266.118 31.5969 265.598 32.2343 265.181 32.8953C265.083 33.0647 264.974 33.2313 264.905 33.4114L264.785 33.6778L264.704 33.9532C264.606 34.3214 264.585 34.7139 264.716 35.0726C264.837 35.4313 265.074 35.7561 265.377 36.0192C265.687 36.276 266.036 36.4921 266.399 36.6867C267.13 37.0734 267.921 37.3583 268.697 37.6774C269.475 37.992 270.26 38.3161 270.99 38.7515C271.723 39.1765 272.407 39.7286 272.876 40.4427C273.007 40.613 273.087 40.81 273.187 40.9968C273.275 41.1885 273.336 41.3909 273.404 41.5897C273.442 41.7942 273.5 41.9978 273.52 42.204L273.562 42.8175C273.593 43.5905 273.633 44.3669 273.823 45.109C273.972 45.861 274.288 46.5714 274.749 47.1812C275.209 47.7939 275.857 48.2738 276.593 48.6114C277.329 48.9528 278.134 49.187 278.954 49.368L281.43 49.8945L281.421 49.9419C280.58 49.8409 279.738 49.7452 278.899 49.6071C278.062 49.4665 277.216 49.2892 276.42 48.9532C275.624 48.623 274.884 48.1208 274.346 47.4578C273.804 46.7998 273.46 46.0144 273.283 45.2224C273.081 44.4287 273.033 43.6215 273.021 42.8208L272.994 42.2539C272.981 42.0675 272.932 41.8873 272.904 41.703C272.8 41.346 272.669 40.9935 272.458 40.6764C272.051 40.0362 271.448 39.5022 270.763 39.0706C270.077 38.6372 269.335 38.2658 268.577 37.9178C267.817 37.5719 267.05 37.2293 266.308 36.8339C265.941 36.629 265.586 36.401 265.267 36.128C264.959 35.8464 264.684 35.5162 264.545 35.1237C264.392 34.7337 264.409 34.3061 264.495 33.9115L264.563 33.613L264.671 33.3265C264.733 33.1311 264.834 32.9534 264.925 32.7707C265.322 32.0492 265.79 31.3995 266.213 30.7216C267.065 29.3706 267.883 27.9989 268.528 26.5538C268.858 25.8351 269.157 25.1033 269.395 24.3534C269.631 23.6042 269.843 22.8398 269.909 22.0585L269.96 22.0573Z" fill="#161D39"/>
<path d="M290.82 17.8174C292.377 18.0166 293.903 18.4256 295.361 18.9925C296.805 19.5775 298.229 20.2887 299.39 21.3174C299.665 21.5862 299.969 21.8278 300.206 22.1296C300.458 22.4178 300.713 22.7019 300.909 23.0268L301.224 23.4976C301.309 23.6667 301.407 23.8279 301.479 24.0019C301.637 24.3441 301.74 24.7098 301.775 25.0833C301.85 25.8469 301.463 26.57 300.974 27.139C300.481 27.7162 299.929 28.2361 299.447 28.7985C298.965 29.3592 298.572 29.9768 298.368 30.6464C298.15 31.3131 298.164 32.0247 298.286 32.7132C298.414 33.4063 298.676 34.0746 298.984 34.7302L299.928 36.7269C300.541 38.066 301.191 39.394 301.627 40.8267C301.675 41.0081 301.713 41.1941 301.751 41.378C301.778 41.5656 301.79 41.7581 301.799 41.9478C301.776 42.3308 301.706 42.7332 301.469 43.0581C301.372 43.2296 301.218 43.3619 301.089 43.5066C300.933 43.6258 300.789 43.7573 300.626 43.8629C300.46 43.9643 300.301 44.0748 300.131 44.1671L299.616 44.4355L299.59 44.3939C300.219 43.9795 300.899 43.5532 301.24 42.9373C301.43 42.64 301.459 42.292 301.459 41.9544C301.437 41.7829 301.415 41.6109 301.379 41.4402C301.327 41.27 301.29 41.0984 301.235 40.929C300.758 39.5734 300.048 38.2664 299.421 36.9347C299.105 36.2688 298.789 35.6017 298.487 34.9293C298.185 34.2461 297.923 33.5316 297.804 32.785C297.684 32.0424 297.703 31.2553 297.974 30.533C298.223 29.8032 298.704 29.1761 299.229 28.6282C299.749 28.0716 300.348 27.5958 300.831 27.0335C301.073 26.7543 301.291 26.4566 301.437 26.1301C301.584 25.8044 301.646 25.4469 301.608 25.0957C301.518 24.3923 301.15 23.7376 300.67 23.1781C300.46 22.8771 300.194 22.617 299.934 22.3539C299.691 22.0769 299.375 21.8637 299.1 21.6163C297.941 20.6812 296.606 19.9337 295.2 19.3314C293.797 18.7204 292.322 18.2359 290.811 17.8653L290.82 17.8174Z" fill="#161D39"/>
<path d="M281.418 47.7412C280.785 46.4351 279.645 45.42 278.372 44.6486C277.101 43.8657 275.734 43.2118 274.496 42.3649C274.114 42.1093 273.742 41.8409 273.389 41.551C273.365 41.4789 273.342 41.4067 273.317 41.335C273.71 41.671 274.135 41.9794 274.57 42.2693C275.805 43.1009 277.158 43.7725 278.425 44.576C279.058 44.9772 279.661 45.427 280.183 45.9519C280.705 46.4755 281.125 47.0832 281.43 47.7363L281.418 47.7412ZM272.446 40.6605C272.314 40.5067 272.193 40.3443 272.082 40.1765C272.216 40.3302 272.338 40.4919 272.446 40.6605ZM271.668 39.1973C271.606 39.1507 271.542 39.1053 271.478 39.0612C270.941 37.7538 270.767 36.3483 270.746 34.963C270.724 33.5369 270.898 32.1174 271.134 30.7119C271.374 29.3064 271.714 27.9153 272.135 26.5461C272.55 25.174 273.139 23.8456 273.897 22.6058C274.667 21.3809 275.593 20.2001 276.837 19.3569L276.844 19.3672C275.637 20.2425 274.73 21.4217 273.974 22.6466C273.235 23.8884 272.669 25.2131 272.229 26.5716C271.374 29.2928 270.76 32.1161 270.817 34.9622C270.853 36.3784 271.069 37.8045 271.63 39.1198C271.642 39.1457 271.655 39.1713 271.668 39.1973Z" fill="#6A6F98"/>
<path d="M273.39 41.5508C273.167 41.3673 272.952 41.1752 272.747 40.9723C272.64 40.8734 272.54 40.7691 272.446 40.6602C272.338 40.4916 272.216 40.33 272.082 40.1762C271.867 39.8513 271.688 39.5062 271.521 39.1612C271.506 39.1282 271.492 39.0948 271.479 39.061C271.542 39.1051 271.606 39.1504 271.668 39.197C271.971 39.8093 272.317 40.4178 272.837 40.894C272.99 41.0461 273.151 41.1929 273.317 41.3347C273.342 41.4065 273.365 41.4786 273.39 41.5508Z" fill="#6A6F98"/>
<path d="M297.043 44.0034C296.999 43.3112 297.021 42.6152 297.12 41.9267C297.218 41.239 297.388 40.5542 297.697 39.9164C297.766 39.7535 297.867 39.6047 297.954 39.4496C298.037 39.2959 298.122 39.1458 298.2 38.9908C298.338 38.6716 298.47 38.3501 298.575 38.0186C298.775 37.4327 298.94 36.8361 299.09 36.2362C299.118 36.2964 299.146 36.3562 299.174 36.416C299.036 36.9672 298.887 37.5164 298.693 38.054C298.583 38.3859 298.445 38.71 298.3 39.0316C298.218 39.1891 298.127 39.3445 298.041 39.4983C297.954 39.6496 297.852 39.7935 297.783 39.9526C297.47 40.5756 297.291 41.2526 297.183 41.9349C297.076 42.6177 297.029 43.3108 297.056 44.0022L297.043 44.0034ZM299.374 35.5576L299.286 35.3704C299.523 34.2292 299.693 33.0752 299.778 31.9154C299.858 30.7659 299.877 29.6065 299.747 28.4604C299.77 28.4352 299.794 28.4097 299.817 28.3845C299.973 29.5571 299.979 30.7453 299.896 31.9228C299.809 33.144 299.629 34.3574 299.374 35.5576ZM299.708 28.1491C299.691 28.0266 299.672 27.9038 299.651 27.7817C299.616 27.4366 299.496 27.1072 299.422 26.7691C299.341 26.4315 299.183 26.1165 299.068 25.7891C298.999 25.6291 298.898 25.4832 298.814 25.3294C298.72 25.1814 298.654 25.0165 298.536 24.8825C298.306 24.6116 298.106 24.3181 297.84 24.0752C296.839 23.0515 295.668 22.1857 294.465 21.3755C292.044 19.768 289.472 18.3621 286.838 17.072L286.844 17.0613C288.185 17.6649 289.493 18.3311 290.778 19.032C292.063 19.7338 293.325 20.4759 294.523 21.3013C295.72 22.1251 296.884 23.0057 297.876 24.0447C298.141 24.29 298.335 24.5914 298.569 24.861C298.69 24.9946 298.758 25.1604 298.855 25.3088C298.94 25.463 299.044 25.6098 299.115 25.7702C299.234 26.0983 299.396 26.4154 299.481 26.7543C299.558 27.0932 299.682 27.4247 299.721 27.771C299.74 27.8757 299.758 27.9809 299.774 28.086C299.752 28.107 299.73 28.1281 299.708 28.1491Z" fill="#6A6F98"/>
<path d="M299.175 36.416C299.146 36.3562 299.118 36.2965 299.09 36.2363C299.108 36.1633 299.126 36.0899 299.144 36.0165C299.194 35.8017 299.241 35.5861 299.286 35.3704L299.374 35.5576C299.34 35.7192 299.305 35.8805 299.268 36.0417C299.237 36.1666 299.206 36.2911 299.175 36.416ZM299.747 28.4604C299.735 28.3565 299.722 28.253 299.708 28.1491C299.73 28.1281 299.752 28.1071 299.774 28.0861C299.79 28.1854 299.804 28.2848 299.817 28.3846C299.794 28.4097 299.77 28.4353 299.747 28.4604Z" fill="#6A6F98"/>
<path d="M291.689 45.2729C291.485 44.2035 291.41 43.1179 291.356 42.0344C291.304 40.9505 291.296 39.8645 291.331 38.7802C291.359 37.695 291.422 36.6115 291.503 35.5296C291.543 34.9887 291.604 34.4478 291.616 33.9085L291.649 33.0987L291.598 32.289C291.531 31.2092 291.303 30.1409 290.995 29.0978C290.648 28.0646 290.256 27.043 289.746 26.0695C288.753 24.1145 287.524 22.2583 286.059 20.5737L286.068 20.5654C286.845 21.3756 287.522 22.2641 288.155 23.1757C288.793 24.0852 289.353 25.0421 289.835 26.0312C290.795 28.0086 291.481 30.1158 291.669 32.284L291.734 33.0971L291.715 33.9126C291.714 34.4577 291.663 34.9969 291.621 35.5371C291.544 36.6181 291.483 37.7004 291.458 38.783C291.412 40.9468 291.4 43.1204 291.701 45.2705L291.689 45.2729Z" fill="#6A6F98"/>
<path d="M283.474 44.416C283.158 43.4092 282.633 42.4737 282.017 41.6021C281.399 40.7289 280.696 39.9105 280.033 39.0628C279.365 38.2189 278.722 37.3506 278.198 36.418C277.67 35.4878 277.283 34.4893 277.047 33.4618C276.806 32.4303 276.814 31.3719 276.858 30.3263C276.907 29.2779 277.078 28.2373 277.294 27.2086C277.707 25.1426 278.483 23.1586 279.171 21.1735H279.184C278.913 22.1947 278.514 23.1747 278.214 24.184C277.9 25.1892 277.627 26.2047 277.39 27.2267C276.931 29.2626 276.651 31.3938 277.117 33.4482C277.608 35.4985 278.785 37.3279 280.135 38.9931C280.806 39.8322 281.493 40.6662 282.096 41.5547C282.7 42.4399 283.213 43.3927 283.487 44.4127L283.474 44.416Z" fill="#6A6F98"/>
<path d="M287.777 46.3281C287.089 43.9904 286.468 41.6346 285.94 39.2598C285.433 36.8846 284.915 34.4953 284.822 32.064C284.78 29.6381 284.166 27.26 283.535 24.9157C282.89 22.569 282.181 20.2374 281.42 17.9195L281.432 17.9154C281.857 19.0616 282.24 20.2205 282.608 21.3832C282.979 22.5455 283.329 23.7139 283.63 24.8935C283.939 26.0718 284.222 27.2559 284.445 28.4507C284.67 29.6439 284.864 30.8474 284.893 32.0624C284.949 33.2708 285.137 34.471 285.344 35.6654C285.557 36.8598 285.796 38.0505 286.063 39.2359C286.596 41.607 287.17 43.971 287.79 46.3248L287.777 46.3281Z" fill="#6A6F98"/>
</svg>
