<svg width="19" height="20" viewBox="0 0 19 20" fill="none" xmlns="http://www.w3.org/2000/svg">
<path fill-rule="evenodd" clip-rule="evenodd" d="M11.75 3.5C11.75 1.70507 13.2051 0.25 15 0.25C16.7949 0.25 18.25 1.70507 18.25 3.5C18.25 5.29493 16.7949 6.75 15 6.75C14.0404 6.75 13.1779 6.33409 12.583 5.6727L9.86566 7.15487L6.82515 8.89231C7.09552 9.36641 7.25 9.91516 7.25 10.5C7.25 10.7963 7.21034 11.0834 7.13603 11.3562L12.583 14.3273C13.1779 13.6659 14.0404 13.25 15 13.25C16.7949 13.25 18.25 14.7051 18.25 16.5C18.25 18.2949 16.7949 19.75 15 19.75C13.2051 19.75 11.75 18.2949 11.75 16.5C11.75 16.2036 11.7897 15.9166 11.864 15.6438L6.41704 12.6727C5.82212 13.3341 4.95963 13.75 4 13.75C2.20507 13.75 0.75 12.2949 0.75 10.5C0.75 8.70507 2.20507 7.25 4 7.25C4.65068 7.25 5.2567 7.44122 5.76492 7.77052L9.13435 5.84514L11.864 4.35625C11.7897 4.08344 11.75 3.79635 11.75 3.5ZM15 1.75C14.0335 1.75 13.25 2.5335 13.25 3.5C13.25 4.4665 14.0335 5.25 15 5.25C15.9665 5.25 16.75 4.4665 16.75 3.5C16.75 2.5335 15.9665 1.75 15 1.75ZM4 8.75C3.0335 8.75 2.25 9.5335 2.25 10.5C2.25 11.4665 3.0335 12.25 4 12.25C4.9665 12.25 5.75 11.4665 5.75 10.5C5.75 9.5335 4.9665 8.75 4 8.75ZM13.25 16.5C13.25 15.5335 14.0335 14.75 15 14.75C15.9665 14.75 16.75 15.5335 16.75 16.5C16.75 17.4665 15.9665 18.25 15 18.25C14.0335 18.25 13.25 17.4665 13.25 16.5Z" fill="#F2C917"/>
</svg>
